<svg width="17" height="17" viewBox="0 0 17 17" fill="none" xmlns="http://www.w3.org/2000/svg">
<path d="M9 3.75244C4.809 3.75244 1.36933 6.96177 1 11.0564H17C16.6307 6.96177 13.191 3.75244 9 3.75244ZM12.0597 8.08277C12.0597 7.71477 12.358 7.41644 12.726 7.41644C13.094 7.41644 13.3923 7.71477 13.3923 8.08277C13.3923 8.45077 13.094 8.74911 12.726 8.74911C12.358 8.74911 12.0597 8.45077 12.0597 8.08277ZM5.274 8.74911C4.906 8.74911 4.60767 8.45077 4.60767 8.08277C4.60767 7.71477 4.906 7.41644 5.274 7.41644C5.642 7.41644 5.94033 7.71477 5.94033 8.08277C5.94033 8.45077 5.642 8.74911 5.274 8.74911Z" fill="#30DC80"/>
<path d="M12.3459 5.4941C12.2992 5.4941 12.2522 5.48244 12.2092 5.45744C12.0782 5.38177 12.0335 5.21444 12.1089 5.08344L13.8412 2.08077C13.9169 1.94944 14.0842 1.90444 14.2152 1.98044C14.3462 2.0561 14.3909 2.22344 14.3155 2.35444L12.5832 5.3571C12.5325 5.4451 12.4405 5.4941 12.3459 5.4941Z" fill="#30DC80"/>
<path d="M5.65354 5.4941C5.55887 5.4941 5.46687 5.44477 5.41621 5.3571L3.68421 2.35444C3.60854 2.22344 3.65354 2.0561 3.78421 1.98044C3.91487 1.90444 4.08254 1.94944 4.15821 2.08077L5.89054 5.08344C5.96621 5.21477 5.92121 5.3821 5.79021 5.45744C5.74721 5.48244 5.70021 5.4941 5.65354 5.4941Z" fill="#30DC80"/>
<path d="M1.61587 13.1146C1.06571 13.1146 0.5 13.5498 0.5 14.3116C0.5 15.0081 0.997392 15.5 1.61587 15.5C2.12639 15.5 2.35393 15.1617 2.35393 15.1617V15.3091C2.35393 15.3788 2.42068 15.4566 2.5033 15.4566H2.87233V13.1667H2.35393V13.4572C2.35393 13.4572 2.12449 13.1146 1.61587 13.1146ZM1.70822 13.5829C2.16111 13.5829 2.39868 13.9761 2.39868 14.3115C2.39868 14.685 2.11662 15.0398 1.70918 15.0398C1.36858 15.0398 1.0274 14.7675 1.0274 14.3065C1.0274 13.8904 1.32101 13.5829 1.70822 13.5829Z" fill="#32DE84"/>
<path d="M3.59297 15.4565C3.51333 15.4565 3.4436 15.4002 3.4436 15.3091V13.1666H3.962V13.45C4.07947 13.2757 4.30897 13.1139 4.66122 13.1139C5.23697 13.1139 5.54355 13.567 5.54355 13.9907V15.4565H5.18331C5.08885 15.4565 5.02515 15.3785 5.02515 15.3004V14.1034C5.02515 13.8686 4.8794 13.5834 4.54231 13.5834C4.17858 13.5834 3.962 13.9227 3.962 14.2422V15.4565H3.59297Z" fill="#32DE84"/>
<path d="M7.05459 13.1146C6.50443 13.1146 5.93872 13.5499 5.93872 14.3116C5.93872 15.0081 6.43611 15.5 7.05459 15.5C7.56511 15.5 7.79265 15.1617 7.79265 15.1617V15.3091C7.79265 15.3788 7.8594 15.4566 7.94202 15.4566H8.31105V12.0217H7.79265V13.4573C7.79265 13.4573 7.56321 13.1146 7.05459 13.1146ZM7.14694 13.5829C7.59983 13.5829 7.8374 13.9761 7.8374 14.3115C7.8374 14.685 7.55533 15.0398 7.1479 15.0398C6.8073 15.0398 6.46613 14.7675 6.46613 14.3065C6.46613 13.8904 6.75973 13.5829 7.14694 13.5829Z" fill="#32DE84"/>
<path d="M9.03145 15.4566C8.9518 15.4566 8.88208 15.4002 8.88208 15.3091V13.1666H9.40048V13.5483C9.48971 13.3345 9.68225 13.1406 10.0243 13.1406C10.1197 13.1406 10.2088 13.158 10.2088 13.158V13.6871C10.2088 13.6871 10.0975 13.6437 9.96281 13.6437C9.59908 13.6437 9.40048 13.9831 9.40048 14.3026V15.4566H9.03145Z" fill="#32DE84"/>
<path d="M13.3544 15.4565C13.2748 15.4565 13.2051 15.4001 13.2051 15.3091V13.1666H13.7235V15.4565H13.3544Z" fill="#32DE84"/>
<path d="M15.2436 13.1146C14.6934 13.1146 14.1277 13.5499 14.1277 14.3116C14.1277 15.0081 14.6251 15.5 15.2436 15.5C15.7541 15.5 15.9816 15.1617 15.9816 15.1617V15.3091C15.9816 15.3788 16.0484 15.4566 16.131 15.4566H16.5V12.0217H15.9816V13.4573C15.9816 13.4573 15.7522 13.1146 15.2436 13.1146ZM15.3359 13.5829C15.7888 13.5829 16.0264 13.9761 16.0264 14.3115C16.0264 14.685 15.7443 15.0398 15.3369 15.0398C14.9963 15.0398 14.6551 14.7675 14.6551 14.3065C14.6551 13.8904 14.9487 13.5829 15.3359 13.5829Z" fill="#32DE84"/>
<path d="M11.5761 13.1139C11 13.1139 10.3669 13.5385 10.3669 14.3076C10.3669 15.0085 10.9061 15.5001 11.5749 15.5001C12.399 15.5001 12.8015 14.846 12.8015 14.312C12.8015 13.6568 12.2833 13.1139 11.5761 13.1139ZM11.578 13.5918C11.9764 13.5918 12.2736 13.9088 12.2736 14.309C12.2736 14.7162 11.9581 15.0304 11.5792 15.0304C11.2274 15.0304 10.8854 14.7477 10.8854 14.3159C10.8854 13.8768 11.2107 13.5918 11.578 13.5918Z" fill="#32DE84"/>
</svg>
