<svg width="53" height="24" viewBox="0 0 53 24" fill="none" xmlns="http://www.w3.org/2000/svg">
<g clip-path="url(#clip0_3820_13476)">
<path d="M11.5168 3.81882C11.4935 4.53106 11.4031 5.20659 10.9803 5.82353C10.3768 6.8047 9.29324 7.37647 8.06006 7.43717C8.07206 6.72423 8.18712 6.05576 8.63606 5.45506C9.26571 4.49929 10.3288 3.99459 11.5168 3.81882Z" fill="white"/>
<path fill-rule="evenodd" clip-rule="evenodd" d="M29.7478 7.00944C28.8795 5.68239 27.2454 4.95956 25.5718 4.93839C24.4021 4.93344 23.2311 4.93486 22.0607 4.93627C21.2094 4.93697 20.3581 4.93768 19.5068 4.93627C19.509 9.6438 19.509 14.3506 19.509 19.0596V19.0673H21.9202L21.921 16.6462C21.921 15.8393 21.921 15.0318 21.9224 14.225C22.4193 14.22 22.9177 14.2229 23.4153 14.225C24.1988 14.2292 24.9824 14.2334 25.7652 14.2087C27.369 14.1304 28.8873 13.3913 29.7322 12.1377C30.7522 10.6341 30.7544 8.51862 29.7478 7.00944ZM23.205 6.76944C22.7744 6.77509 22.3452 6.78144 21.9202 6.76944V8.64286C21.921 9.89086 21.9217 11.1396 21.9202 12.3883C22.3699 12.3621 22.8541 12.3756 23.3482 12.3883C24.4515 12.4186 25.6021 12.4504 26.5212 12.0487C27.9273 11.4459 28.2506 9.91627 27.9005 8.65697C27.6358 7.71321 26.7682 7.03062 25.7172 6.86756C24.8962 6.74474 24.0485 6.75674 23.205 6.76874V6.76944Z" fill="white"/>
<path d="M5.84431 7.6355C6.90313 7.72515 7.88078 8.56726 8.89725 8.12397C9.89043 7.7915 10.7615 7.43432 11.8591 7.59738C12.9878 7.71738 13.8801 8.25879 14.5895 9.04162C14.1024 9.39879 13.6429 9.72632 13.3104 10.2183C12.4965 11.3562 12.5777 12.9755 13.501 14.0421C13.9111 14.5341 14.4504 14.8369 15.0201 15.1539C14.665 15.996 14.2436 16.8014 13.6563 17.5327C13.1537 18.1743 12.5107 18.9586 11.61 19.1244C10.4368 19.356 9.61443 18.4786 8.36007 18.5555C7.35913 18.5647 6.62078 19.1491 5.66078 19.188C4.73113 19.1774 4.01466 18.468 3.49655 17.8447C1.86031 15.9346 0.857957 13.2331 1.40996 10.8254C1.8349 8.95409 3.66666 7.43715 5.84431 7.6355ZM41.7229 8.80585C42.565 8.80726 43.4078 8.80726 44.2478 8.80585C45.2107 11.6082 46.1594 14.4176 47.1271 17.2186C48.0991 14.4169 49.0358 11.6054 50.0142 8.80585C50.8309 8.80726 51.6483 8.80585 52.4657 8.80726C51.042 12.4087 49.633 16.0157 48.2149 19.6171C47.821 20.58 47.3085 21.6868 46.3542 22.2974C45.3243 22.956 44.0601 22.9468 42.8551 22.879C42.853 22.315 42.8495 21.7517 42.8453 21.1877C43.4925 21.1856 44.2401 21.2597 44.7935 20.8899C45.3843 20.5087 45.6003 19.7011 45.8283 19.1096C44.4603 15.6762 43.0824 12.2428 41.7229 8.80585Z" fill="white"/>
<path fill-rule="evenodd" clip-rule="evenodd" d="M40.084 10.0891C39.3478 9.22795 38.1266 8.8143 36.9612 8.70418C35.4365 8.54183 33.6153 8.89477 32.5325 9.94583C31.9685 10.4759 31.7638 11.1296 31.6191 11.8348C32.1005 11.8404 32.5819 11.8418 33.0626 11.8432L33.7847 11.8454L33.8045 11.8072C34.0283 11.3647 34.2323 10.963 34.7292 10.7145C35.6398 10.243 37.0325 10.2677 37.8676 10.8663C38.4549 11.3336 38.4584 11.9534 38.4626 12.5901C38.4626 12.7101 38.464 12.8301 38.4683 12.9501C38.0059 12.9804 37.5407 13.0023 37.0763 13.0242C36.2815 13.0623 35.4859 13.0997 34.6975 13.1795C33.628 13.3228 32.5212 13.5945 31.7829 14.3583C30.6393 15.5343 30.9598 17.5934 32.3744 18.4828C34.3452 19.7294 37.3113 19.2635 38.5495 17.3449C38.5431 17.7275 38.5438 18.1108 38.5438 18.4934V19.0679C39.292 19.0679 40.0396 19.0679 40.7871 19.0694C40.7871 16.7795 40.7871 14.4945 40.7892 12.2039C40.7949 11.4423 40.6043 10.7018 40.084 10.0891ZM38.464 14.731C38.464 14.6308 38.464 14.5284 38.4669 14.4247C38.0193 14.4585 37.5704 14.4811 37.1222 14.503C36.5553 14.5312 35.9878 14.5595 35.4231 14.6117C34.8767 14.6661 34.2542 14.8129 33.8525 15.1722C33.3132 15.6416 33.3266 16.4802 33.849 16.9559C34.3495 17.4204 35.1238 17.5221 35.8099 17.4868C36.7586 17.4289 37.6876 17.0435 38.1577 16.2628C38.4633 15.7602 38.4633 15.2668 38.464 14.731Z" fill="white"/>
</g>
<defs>
<clipPath id="clip0_3820_13476">
<rect width="52.2353" height="24" fill="white" transform="translate(0.745117)"/>
</clipPath>
</defs>
</svg>
