<svg width="16" height="17" viewBox="0 0 16 17" fill="none" xmlns="http://www.w3.org/2000/svg">
<path d="M10.3339 3.01129C10.9369 2.34569 11.2743 1.43191 11.221 0.5C10.3869 0.5 9.41976 0.987822 8.80749 1.70676C8.3282 2.30124 7.81372 3.23316 8.00003 4.16471C8.86083 4.27138 9.79274 3.73022 10.3339 3.01129Z" fill="#B2B2B2"/>
<path d="M14.1026 5.96464C13.9346 6.06485 12.3489 7.01076 12.3489 9.02795C12.3529 9.1531 12.3657 9.27186 12.3802 9.38884H12.3795C12.6423 11.4891 14.4887 12.24 14.5221 12.24C14.5159 12.248 14.502 12.289 14.4789 12.3575C14.3719 12.6745 14.0663 13.5797 13.3954 14.5206C12.7479 15.5062 12.029 16.4999 10.9374 16.4999C10.4369 16.4999 10.0911 16.3472 9.73285 16.189C9.34802 16.0191 8.9489 15.8429 8.32833 15.8429C7.64208 15.8429 7.21836 16.0298 6.82288 16.2042C6.47682 16.3568 6.15239 16.4999 5.6926 16.4999C4.60105 16.4999 3.82913 15.4528 3.14611 14.4765C2.27749 13.2253 1.54114 11.2772 1.48531 9.38884C1.4848 9.36956 1.4833 9.35012 1.48181 9.33068C1.48019 9.30959 1.47857 9.28849 1.4782 9.26759C1.46006 8.24715 1.65562 7.24413 2.15233 6.39222C2.85313 5.20288 4.10469 4.39542 5.47109 4.36875C6.0688 4.34866 6.62898 4.58576 7.11855 4.79298C7.48664 4.94878 7.81483 5.08768 8.08904 5.08768C8.33849 5.08768 8.67634 4.96835 9.07676 4.82692C9.65916 4.62121 10.3739 4.36875 11.1415 4.36875C11.7004 4.3691 13.1916 4.53764 14.1146 5.95737C14.1123 5.95883 14.1083 5.96125 14.1026 5.96464Z" fill="#B2B2B2"/>
</svg>
