<svg width="22" height="22" viewBox="0 0 22 22" fill="none" xmlns="http://www.w3.org/2000/svg">
<path fill-rule="evenodd" clip-rule="evenodd" d="M9.82501 0.0511762C9.64749 0.0731231 9.28924 0.129325 9.02889 0.176059C4.94766 0.908743 1.58121 3.94138 0.422285 7.92923C0.12144 8.96457 0 9.84765 0 11.0003C0 12.4837 0.238792 13.7539 0.762721 15.0576C1.31776 16.4387 2.04081 17.549 3.0903 18.632C4.80759 20.4041 6.80106 21.4468 9.28709 21.8735C10.0456 22.0037 11.8144 22.016 12.5791 21.8964C13.7562 21.7124 14.778 21.3915 15.8324 20.8747C16.9987 20.3031 17.8895 19.6625 18.819 18.727C20.637 16.8972 21.7167 14.5662 21.9595 11.9471C22.1009 10.4211 21.8673 8.64952 21.3352 7.21341C19.938 3.44185 16.6222 0.739063 12.6222 0.111035C12.0913 0.02768 10.3217 -0.0101462 9.82501 0.0511762ZM9.42463 4.55125C9.40814 4.56773 9.39467 4.94565 9.39467 5.39109V6.20093L8.02837 6.21229L6.66206 6.22365V6.9096V7.59559L7.1677 7.70158L7.67334 7.80757V11.0883V14.3691L7.36174 14.4395C7.19038 14.4782 6.97771 14.5215 6.88919 14.5356C6.80067 14.5497 6.70798 14.5857 6.68319 14.6156C6.65505 14.6495 6.64265 14.9097 6.65014 15.3095L6.66206 15.9492L8.02734 15.9605L9.39265 15.9719L9.4044 16.7136L9.41619 17.4553H9.95411H10.492L10.5038 16.713L10.5156 15.9707H10.9234H11.3312V16.7238V17.4768H11.8691H12.407L12.4073 16.713L12.4076 15.9492L12.8699 15.8587C14.4134 15.5565 15.2281 14.7139 15.3193 13.3254C15.3929 12.2054 14.8812 11.3419 13.9666 11.0427C13.8425 11.0021 13.741 10.9633 13.741 10.9564C13.741 10.9496 13.8427 10.8864 13.967 10.8159C14.6187 10.4465 14.9898 9.74523 14.9883 8.88551C14.9861 7.52278 14.1609 6.66052 12.5253 6.31178L12.407 6.28656V5.4052V4.52384H11.8691H11.3312V5.36299V6.20213H10.9233H10.5154L10.5037 5.37374L10.492 4.54535L9.9733 4.53335C9.68799 4.52672 9.44111 4.53481 9.42463 4.55125ZM10.0402 9.13364V10.2578L10.8255 10.2367C11.7721 10.2112 12.0907 10.1333 12.3637 9.86026C12.7852 9.43871 12.6906 8.56186 12.1907 8.25697C11.898 8.07843 11.4962 8.01112 10.7179 8.01026L10.0402 8.00953V9.13364ZM10.0402 13.0014V14.1633H10.9779C11.6845 14.1633 11.9787 14.1469 12.172 14.0968C12.6992 13.96 12.9257 13.681 12.9577 13.1289C12.9941 12.5001 12.7851 12.0948 12.3382 11.9277C12.1247 11.8478 12.0055 11.8395 11.0713 11.8395H10.0402V13.0014Z" fill="#55657E"/>
</svg>
