<svg width="24" height="24" viewBox="0 0 24 24" fill="none" xmlns="http://www.w3.org/2000/svg">
<path d="M10.4961 18.9902C10.8939 18.9902 11.2753 19.1484 11.5566 19.4297C11.8379 19.711 11.9961 20.0925 11.9961 20.4902C11.996 20.888 11.8379 21.2695 11.5566 21.5508C11.2753 21.832 10.8939 21.9902 10.4961 21.9902C10.0983 21.9902 9.71684 21.832 9.43555 21.5508C9.1543 21.2695 8.99616 20.888 8.99609 20.4902C8.99609 20.0925 9.15432 19.711 9.43555 19.4297C9.71685 19.1484 10.0983 18.9902 10.4961 18.9902Z" fill="#55657E"/>
<path d="M17.4961 18.9902C17.8939 18.9902 18.2753 19.1484 18.5566 19.4297C18.8379 19.711 18.9961 20.0925 18.9961 20.4902C18.996 20.888 18.8379 21.2695 18.5566 21.5508C18.2753 21.832 17.8939 21.9902 17.4961 21.9902C17.0983 21.9902 16.7168 21.832 16.4355 21.5508C16.1543 21.2695 15.9962 20.888 15.9961 20.4902C15.9961 20.0925 16.1543 19.711 16.4355 19.4297C16.7169 19.1484 17.0983 18.9902 17.4961 18.9902Z" fill="#55657E"/>
<path d="M14.7842 13.457C15.2981 13.457 15.7188 13.8777 15.7188 14.3916C15.7187 14.9055 15.2981 15.3262 14.7842 15.3262H12.6826V13.457H14.7842Z" fill="#55657E"/>
<path d="M14.5508 10.6543C15.0647 10.6543 15.4854 11.075 15.4854 11.5889C15.4851 12.1026 15.0645 12.5225 14.5508 12.5225H12.6826V10.6543H14.5508Z" fill="#55657E"/>
<path fill-rule="evenodd" clip-rule="evenodd" d="M4.99609 3.99023C5.39609 3.99023 5.75602 4.24035 5.91602 4.61035L7.32617 7.99023H20.9961C21.1623 7.98943 21.3261 8.02997 21.4727 8.1084C21.6193 8.18698 21.7444 8.30146 21.8359 8.44043C22.0257 8.72032 22.0558 9.07979 21.916 9.38965L18.6758 16.79C18.3557 17.52 17.6356 17.9902 16.8457 17.9902H10.666C9.85605 17.9902 9.1264 17.5097 8.81641 16.7598L4.32617 5.99023H1.99609V3.99023H4.99609ZM12.6826 9.71973H10.8135V10.6543H11.748V15.3262H10.8135V16.2607H12.6826V17.1943H13.1494V16.2607H14.084V17.1943H14.5508V16.2607H14.7842C15.8167 16.2607 16.6533 15.4241 16.6533 14.3916C16.6533 13.7749 16.3492 13.2326 15.8867 12.8916C16.2137 12.5553 16.4198 12.0979 16.4199 11.5889C16.4199 10.5564 15.5833 9.71973 14.5508 9.71973V8.78516H14.084V9.71973H13.1494V8.78516H12.6826V9.71973Z" fill="#55657E"/>
</svg>
