<svg width="22" height="22" viewBox="0 0 22 22" fill="none" xmlns="http://www.w3.org/2000/svg">
<path fill-rule="evenodd" clip-rule="evenodd" d="M9.69166 2.56035C10.3957 3.96854 10.9815 5.1207 10.9935 5.1207C11.0055 5.1207 11.5913 3.96854 12.2953 2.56035L13.5753 0H10.9935H8.4117L9.69166 2.56035ZM7.42681 1.91682C6.90208 2.10521 5.97902 2.55446 5.52302 2.84337C5.18833 3.05542 4.55969 3.5134 4.25911 3.76415L4.13002 3.87185L5.03329 4.77598C5.53008 5.27325 5.94976 5.68011 5.96586 5.68011C5.98199 5.68011 6.15971 5.55601 6.36084 5.40432C7.01255 4.91278 7.73508 4.53531 8.54613 4.2627L9.00338 4.109L8.41704 2.9404L7.8307 1.77185L7.42681 1.91682ZM13.5665 2.94333L12.9816 4.11408L13.4271 4.25479C14.2042 4.50015 14.9799 4.92401 15.9507 5.63363C16.0286 5.69052 16.0958 5.63325 16.9349 4.79487C17.4302 4.30001 17.8354 3.88524 17.8354 3.87319C17.8353 3.82917 17.1138 3.27135 16.6951 2.9917C16.1934 2.65657 15.0489 2.08197 14.5196 1.89952L14.1514 1.77258L13.5665 2.94333ZM2.89726 5.17453C1.97756 6.31572 1.24397 7.81333 0.910604 9.23017C0.781855 9.7774 0.666016 10.5293 0.666016 10.8177V11.0173L1.9443 11.0059L3.22262 10.9944L3.29393 10.5211C3.48627 9.24455 3.99671 8.00951 4.73827 7.02625C4.88892 6.82654 5.01216 6.64994 5.01216 6.6338C5.01216 6.60076 3.23734 4.81948 3.20446 4.81953C3.19285 4.81953 3.05459 4.9793 2.89726 5.17453ZM17.8673 5.71277C17.3764 6.20405 16.9748 6.61887 16.9748 6.63458C16.9748 6.65029 17.098 6.82654 17.2487 7.02625C17.9903 8.00951 18.5007 9.24455 18.693 10.5211L18.7643 10.9944L20.0427 11.0059L21.3209 11.0173V10.8177C21.3209 10.2768 21.0758 9.08206 20.7964 8.26197C20.5794 7.62464 20.0299 6.50914 19.6624 5.95981C19.3811 5.53927 18.8253 4.81957 18.7817 4.81953C18.7697 4.81948 18.3582 5.22144 17.8673 5.71277ZM9.15821 5.44417C7.15343 6.03714 5.50637 7.63144 4.84541 9.61887C3.60117 13.3602 6.01224 17.3646 9.91121 18.0324C11.1046 18.2368 12.4292 18.0799 13.5355 17.6029C14.3657 17.245 14.9283 16.8577 15.5978 16.1829C17.7608 14.0031 18.0869 10.6435 16.3851 8.07074C16.0082 7.50093 15.1712 6.65898 14.6138 6.28891C13.9841 5.87095 13.1018 5.48031 12.5118 5.35828L12.3734 5.32966L11.6945 6.68824C11.3211 7.43547 11.0057 8.04682 10.9935 8.04682C10.9813 8.04682 10.6665 7.43685 10.294 6.69134C9.92145 5.94582 9.59243 5.33689 9.56278 5.33814C9.53314 5.33939 9.35111 5.38711 9.15821 5.44417ZM8.24965 8.87573C8.00738 9.11881 7.80918 9.33655 7.80918 9.35952C7.80918 9.38255 8.12937 9.72198 8.5207 10.1138L9.23218 10.8262L9.16027 10.9964C9.04254 11.275 9.03165 11.8851 9.13841 12.2208L9.22736 12.5005L8.50788 13.2214L7.7884 13.9423L8.25051 14.4044L8.71262 14.8665L9.43348 14.147L10.1544 13.4276L10.4341 13.5162C10.7643 13.6209 11.3208 13.6122 11.6389 13.4976L11.8326 13.4277L12.5535 14.1471L13.2743 14.8665L13.7365 14.4044L14.1986 13.9423L13.4791 13.2214L12.7596 12.5005L12.8486 12.2208C12.9553 11.8851 12.9444 11.275 12.8267 10.9964L12.7548 10.8262L13.4663 10.1138C13.8576 9.72198 14.1778 9.38186 14.1778 9.35802C14.1778 9.33418 13.979 9.11661 13.7361 8.87452L13.2944 8.43436L12.5691 9.16068L11.8437 9.887L11.6015 9.80132C11.2712 9.68454 10.7154 9.68458 10.391 9.80141L10.1544 9.8867L9.42224 9.16025L8.69011 8.4338L8.24965 8.87573ZM10.7016 11.0875C10.4824 11.1956 10.3695 11.3859 10.3695 11.6475C10.3695 12.0189 10.6274 12.2804 10.9935 12.2804C11.3308 12.2804 11.5893 12.0423 11.6248 11.6986C11.6741 11.2211 11.1434 10.8698 10.7016 11.0875ZM0.666016 12.5058C0.666016 13.0678 0.958154 14.4318 1.24573 15.2124C1.61735 16.2212 2.28097 17.384 2.94098 18.1828L3.21505 18.5144L4.11986 17.6096C4.70857 17.0209 5.01517 16.6845 4.9974 16.6466C4.98234 16.6147 4.83478 16.4045 4.66946 16.1797C3.96302 15.219 3.43072 13.887 3.28093 12.7049L3.23045 12.3069H1.94826H0.666016V12.5058ZM18.706 12.7049C18.5562 13.887 18.0239 15.219 17.3175 16.1797C17.1522 16.4045 17.0046 16.6147 16.9896 16.6466C16.9718 16.6845 17.2783 17.0208 17.8668 17.6094L18.7715 18.514L19.0172 18.2182C19.8497 17.2165 20.5281 15.9531 20.91 14.6934C21.0957 14.0807 21.2706 13.1972 21.3067 12.69L21.3338 12.3069H20.0452H18.7565L18.706 12.7049ZM5.05622 18.5239L4.14121 19.4396L4.43683 19.6851C5.21113 20.3281 6.56593 21.0921 7.52948 21.4292C8.29948 21.6986 9.684 21.9878 10.2082 21.9887L10.348 21.9889V20.7039V19.4189L10.0576 19.3893C8.80191 19.2614 7.28493 18.6362 6.23403 17.8137L5.97128 17.6081L5.05622 18.5239ZM15.856 17.7348C15.3283 18.1889 14.1761 18.8126 13.4086 19.0597C12.9251 19.2153 12.3268 19.3486 11.9294 19.3892L11.6389 19.4189V20.7095V22L11.994 21.9697C12.8298 21.8984 13.9899 21.6217 14.8093 21.2982C15.3342 21.091 16.1318 20.678 16.6067 20.3675C17.0431 20.0821 17.6874 19.598 17.7811 19.4852C17.8225 19.4353 17.6647 19.2576 16.9192 18.5147L16.0066 17.6051L15.856 17.7348Z" fill="#55657E"/>
</svg>
