<svg width="24" height="24" viewBox="0 0 24 24" fill="none" xmlns="http://www.w3.org/2000/svg">
<path d="M4 2H2V21C2 21.55 2.45 22 3 22H22V20H4V2Z" fill="#55657E"/>
<path d="M7.99953 16.9998C9.09953 16.9998 9.99953 16.0998 9.99953 14.9998C9.99953 14.5298 9.82953 14.0998 9.54953 13.7498L11.1695 9.97976C11.3595 9.95976 11.5495 9.91976 11.7295 9.85977L14.0395 11.7098C14.0295 11.8098 14.0095 11.8998 14.0095 12.0098C14.0095 13.1098 14.9095 14.0098 16.0095 14.0098C17.1095 14.0098 18.0095 13.1098 18.0095 12.0098C18.0095 11.5998 17.8895 11.2298 17.6795 10.9098L19.1395 7.99977C20.1795 7.92977 21.0195 7.06977 21.0195 6.00977C21.0195 4.94977 20.1195 4.00977 19.0195 4.00977C17.9195 4.00977 17.0195 4.90977 17.0195 6.00977C17.0195 6.41977 17.1395 6.78977 17.3495 7.10977L15.8895 10.0198C15.6795 10.0298 15.4795 10.0698 15.2895 10.1498L12.9795 8.29977C12.9895 8.19977 13.0095 8.10977 13.0095 7.99977C13.0095 6.89977 12.1095 5.99977 11.0095 5.99977C9.90953 5.99977 9.00953 6.89977 9.00953 7.99977C9.00953 8.41977 9.13953 8.80977 9.36953 9.12977L7.69953 13.0298C6.74953 13.1798 6.01953 13.9998 6.01953 14.9998C6.01953 16.0998 6.91953 16.9998 8.01953 16.9998H7.99953Z" fill="#55657E"/>
</svg>
