<svg width="14" height="14" viewBox="0 0 14 14" fill="none" xmlns="http://www.w3.org/2000/svg">
<path d="M12.3367 0.666666H1.67C0.93667 0.666666 0.33667 1.26667 0.33667 2V10C0.33667 10.7333 0.93667 11.3333 1.67 11.3333H3.67V12.6667C3.67 12.9067 3.79667 13.1267 4.01 13.2467C4.11 13.3067 4.22334 13.3333 4.33667 13.3333C4.45 13.3333 4.57667 13.3 4.67667 13.24L7.85 11.3333H12.33C13.0633 11.3333 13.6633 10.7333 13.6633 10V2C13.6633 1.26667 13.0633 0.666666 12.33 0.666666H12.3367ZM5.00334 7.33333C4.27 7.33333 3.67 6.73333 3.67 6C3.67 5.26667 4.27 4.66667 5.00334 4.66667C5.73667 4.66667 6.33667 5.26667 6.33667 6C6.33667 6.73333 5.73667 7.33333 5.00334 7.33333ZM9.00334 7.33333C8.27 7.33333 7.67 6.73333 7.67 6C7.67 5.26667 8.27 4.66667 9.00334 4.66667C9.73667 4.66667 10.3367 5.26667 10.3367 6C10.3367 6.73333 9.73667 7.33333 9.00334 7.33333Z" fill="#A7B5CA"/>
</svg>
