<svg width="24" height="24" viewBox="0 0 24 24" fill="none" xmlns="http://www.w3.org/2000/svg">
<path fill-rule="evenodd" clip-rule="evenodd" d="M9.67955 0.086606C8.78384 0.303437 8.02563 1.03642 7.79964 1.90401C7.73209 2.16332 7.71747 2.60207 7.71854 4.33826C7.71934 5.57074 7.74254 6.55451 7.77409 6.69126C7.85668 7.04961 8.06901 7.45922 8.32055 7.74558C8.6751 8.14914 10.4773 9.56625 10.9044 9.7773C11.7118 10.1764 12.6446 10.1234 13.3816 9.63669C13.7288 9.40738 15.2067 8.21695 15.5273 7.90826C15.6836 7.75779 15.8802 7.51413 15.9642 7.36682C16.2774 6.81757 16.2876 6.72147 16.2876 4.33634C16.2876 1.8633 16.2738 1.76024 15.8584 1.13808C15.4954 0.594615 14.8636 0.181309 14.2044 0.0563419C13.7428 -0.0312367 10.0647 -0.00659694 9.67955 0.086606ZM1.80669 7.82079C0.954312 8.09311 0.269538 8.85373 0.082597 9.736C-0.0275324 10.2557 -0.0275324 13.7446 0.082597 14.2644C0.271145 15.154 0.956401 15.9104 1.81735 16.1792C2.12819 16.2761 2.31288 16.2854 3.94093 16.2854C6.43004 16.2854 6.298 16.3361 8.03195 14.7132C8.63295 14.1507 9.20502 13.5693 9.30325 13.4212C9.60156 12.9712 9.71431 12.5816 9.71431 12.0002C9.71431 11.4188 9.60156 11.0292 9.30325 10.5792C9.20502 10.4311 8.63295 9.84972 8.03195 9.28718C6.29511 7.66154 6.43212 7.71387 3.92191 7.71789C2.31497 7.72046 2.08582 7.7316 1.80669 7.82079ZM17.9126 7.82566C17.7309 7.88324 17.4595 8.01303 17.3093 8.11405C16.9615 8.34813 14.9442 10.2358 14.7664 10.4935C14.1319 11.4135 14.1309 12.5853 14.7639 13.5033C14.8363 13.6082 15.3681 14.1385 15.9456 14.6817C17.7047 16.3362 17.5743 16.2854 20.064 16.2854C22.0918 16.2854 22.2603 16.2596 22.8645 15.8561C23.408 15.4932 23.8213 14.8613 23.9463 14.2022C24.0179 13.8245 24.0179 10.1759 23.9463 9.79819C23.8213 9.13907 23.408 8.50722 22.8645 8.14427C22.258 7.73926 22.0947 7.71457 20.0449 7.71799C18.4104 7.72073 18.2121 7.73074 17.9126 7.82566ZM11.5739 13.9863C11.4119 14.0136 11.1106 14.1192 10.9044 14.221C10.4794 14.4309 8.67783 15.8494 8.32007 16.2559C8.06907 16.541 7.85668 16.9507 7.77409 17.3091C7.74254 17.4459 7.71934 18.4296 7.71854 19.6621C7.71715 21.9849 7.73514 22.1559 8.0372 22.6839C8.24669 23.05 8.68383 23.4744 9.05536 23.6725C9.61607 23.9713 9.84753 23.9971 11.9818 23.9979C13.0772 23.9984 14.0412 23.975 14.2044 23.944C14.8636 23.8191 15.4954 23.4058 15.8584 22.8623C16.2739 22.24 16.2876 22.1376 16.2876 19.66C16.2876 16.5413 16.3517 16.6896 14.3023 15.0687C13.7848 14.6594 13.2537 14.274 13.1221 14.2121C12.6452 13.9879 12.0657 13.9034 11.5739 13.9863Z" fill="#55657E"/>
</svg>
