<svg width="24" height="24" viewBox="0 0 24 24" fill="none" xmlns="http://www.w3.org/2000/svg">
<path fill-rule="evenodd" clip-rule="evenodd" d="M12.6768 1.04061C11.8384 1.20892 11.01 1.83339 10.6544 2.56521C10.5237 2.83429 8.37808 8.72952 8.37808 8.81963C8.37808 8.83687 9.09462 8.85097 9.97043 8.85097C11.647 8.85097 11.9656 8.88069 12.5756 9.09396C13.5972 9.45112 14.5367 10.3704 14.8886 11.3569C15.1193 12.0037 15.1254 12.0602 15.1544 13.81L15.1824 15.5019L16.1272 15.8135C16.8298 16.0451 17.1698 16.1321 17.4536 16.1529C17.9454 16.1888 18.4527 16.0837 18.9407 15.8447C19.4255 15.6072 19.9839 15.0563 20.2032 14.599C20.3214 14.3524 22.6035 8.07292 22.9259 7.10691C23.0132 6.84515 23.0129 5.94703 22.9253 5.63305C22.8876 5.49794 22.7696 5.21698 22.663 5.00872C22.442 4.57688 21.9314 4.05199 21.519 3.83249C21.2463 3.68736 14.4323 1.21821 13.9296 1.08237C13.5956 0.992117 13.0149 0.97276 12.6768 1.04061ZM13.5741 4.22994C12.9464 4.43171 12.6458 5.12005 12.9371 5.68827C13.3149 6.4251 14.3796 6.43551 14.7556 5.7061C14.8483 5.52639 14.8662 5.42558 14.8526 5.16033C14.8328 4.77305 14.6794 4.50997 14.3729 4.33772C14.1556 4.21559 13.7775 4.16455 13.5741 4.22994ZM15.1772 7.58036C14.9356 7.63469 14.6116 7.89905 14.501 8.13212C14.3279 8.4967 14.4331 9.0606 14.7232 9.32422C15.03 9.60308 15.5319 9.67471 15.8919 9.49107C16.7072 9.07514 16.6011 7.85626 15.727 7.59672C15.4572 7.51659 15.4605 7.51669 15.1772 7.58036ZM3.23024 9.95386C2.74858 10.0705 2.24545 10.3605 1.87055 10.7378C1.46888 11.1419 1.24338 11.5358 1.10582 12.0736C1.01311 12.4362 1.00879 12.6304 1.00879 16.4413C1.00879 20.2669 1.01277 20.4453 1.1069 20.8132C1.36929 21.8391 2.16965 22.6395 3.19555 22.9019C3.56352 22.996 3.74191 23 7.56745 23C11.3784 23 11.5726 22.9957 11.9352 22.903C12.7715 22.6891 13.4627 22.1302 13.8203 21.3788C13.9296 21.1491 14.0431 20.844 14.0726 20.7008C14.1087 20.5252 14.1259 19.1345 14.1254 16.4266C14.1248 13.0632 14.113 12.363 14.0522 12.1055C13.8097 11.077 12.9318 10.1991 11.9032 9.95656C11.4807 9.85693 3.64056 9.85452 3.23024 9.95386ZM16.558 11.0072C16.1921 11.1761 15.993 11.5073 15.993 11.947C15.993 12.3976 16.2849 12.784 16.7211 12.9108C17.0325 13.0013 17.2576 12.9715 17.5515 12.8009C17.7804 12.668 17.9808 12.37 18.0329 12.0853C18.1074 11.6777 17.8455 11.2016 17.4325 10.9936C17.2225 10.8878 16.8024 10.8944 16.558 11.0072ZM4.59567 12.8459C4.31062 12.9366 4.02553 13.2642 3.95424 13.5828C3.76019 14.45 4.61768 15.1176 5.41518 14.7202C5.76576 14.5455 5.93643 14.2861 5.96169 13.8897C5.97682 13.652 5.95913 13.5409 5.8822 13.3913C5.62462 12.8903 5.12346 12.6778 4.59567 12.8459ZM9.8341 12.8503C9.13186 13.1115 8.94325 14.0472 9.48956 14.5596C10.1954 15.2215 11.3391 14.6278 11.2075 13.6677C11.1219 13.0428 10.4276 12.6295 9.8341 12.8503ZM7.31665 15.4409C7.07499 15.4953 6.75099 15.7596 6.6404 15.9927C6.5301 16.2251 6.53669 16.6694 6.65381 16.8977C6.83878 17.2584 7.15384 17.4485 7.56696 17.4485C8.48979 17.4485 8.94512 16.3541 8.28896 15.7133C8.17532 15.6024 8.00322 15.4988 7.86208 15.4563C7.59934 15.3772 7.60008 15.3772 7.31665 15.4409ZM4.52104 18.1296C3.97778 18.3765 3.7705 19.004 4.05083 19.5532C4.15567 19.7586 4.25958 19.8599 4.47948 19.9713C5.21577 20.344 6.02968 19.7808 5.96051 18.9464C5.90327 18.2563 5.16472 17.8372 4.52104 18.1296ZM9.71992 18.1399C9.07595 18.4587 8.97371 19.3823 9.53147 19.8421C10.0989 20.3097 10.9377 20.068 11.1716 19.3694C11.3324 18.8893 11.1081 18.3789 10.6277 18.1318C10.3811 18.0049 9.98537 18.0085 9.71992 18.1399Z" fill="#55657E"/>
</svg>
