<svg width="24" height="24" viewBox="0 0 24 24" fill="none" xmlns="http://www.w3.org/2000/svg">
<path fill-rule="evenodd" clip-rule="evenodd" d="M2.70757 4.40662C1.01528 6.4751 0 9.11899 0 12C0 12.268 0.00878824 12.534 0.0260923 12.7977L1.40728 10.6889L4.71973 14.3963L4.34681 19.1785L1.88983 18.4668C3.50805 20.9915 6.04605 22.8701 9.03095 23.6299L7.47639 21.5696L12 19.683L16.5271 21.5696L14.969 23.6299C17.9539 22.8701 20.4919 20.9915 22.1102 18.4668L19.6367 19.1785L19.3296 14.3963L22.4885 10.6889L23.9809 12.6828C23.9936 12.4568 24 12.2291 24 12C24 9.12098 22.9861 6.47876 21.2959 4.41091L21.2508 6.91337L16.5271 5.80494L13.979 1.62562L16.3461 0.811206C14.9985 0.287383 13.5328 0 12 0C10.4672 0 9.00154 0.287383 7.65393 0.811206L10.0406 1.62562L7.47639 5.80494L2.75104 6.94881L2.70757 4.40662ZM14.7668 8.16622H9.21677L7.47639 13.4968L12 16.7435L16.5271 13.4968L14.7668 8.16622Z" fill="#55657E"/>
<path d="M12 0C13.5327 0 14.9982 0.287751 16.3457 0.811523C18.2936 1.56869 19.9952 2.81979 21.2959 4.41113C22.986 6.47896 24 9.12103 24 12C24 12.2291 23.9931 12.4567 23.9805 12.6826C23.8614 14.8049 23.1914 16.7801 22.1104 18.4668C20.4921 20.9915 17.9536 22.8702 14.9688 23.6299C14.0193 23.8715 13.0247 24 12 24C10.9753 24 9.9807 23.8715 9.03125 23.6299C6.04635 22.8702 3.50787 20.9915 1.88965 18.4668C0.828153 16.8107 0.162814 14.8765 0.0263672 12.7979C0.00906312 12.5342 0 12.268 0 12C0 9.11899 1.01572 6.47473 2.70801 4.40625C4.00822 2.81715 5.7083 1.56794 7.6543 0.811523C9.00185 0.287751 10.4673 0 12 0ZM12 0.637695C10.5487 0.637695 9.16073 0.909329 7.88477 1.40527C6.0421 2.12153 4.43233 3.30484 3.20117 4.80957C1.59877 6.76818 0.637695 9.27201 0.637695 12C0.637695 12.2537 0.645743 12.5054 0.662109 12.7549C0.791283 14.7231 1.42164 16.5549 2.42676 18.123C3.95901 20.5136 6.36217 22.2923 9.18848 23.0117C10.0876 23.2406 11.0297 23.3623 12 23.3623C12.9703 23.3623 13.9125 23.2405 14.8115 23.0117C17.6377 22.2923 20.0411 20.5135 21.5732 18.123C22.5968 16.526 23.232 14.656 23.3447 12.6465C23.3567 12.4325 23.3623 12.217 23.3623 12C23.3623 9.27397 22.4021 6.77244 20.8018 4.81445C19.5702 3.30766 17.9597 2.12223 16.1152 1.40527C14.8393 0.909294 13.4513 0.637718 12 0.637695Z" fill="#55657E"/>
</svg>
