<svg width="24" height="24" viewBox="0 0 24 24" fill="none" xmlns="http://www.w3.org/2000/svg">
<path fill-rule="evenodd" clip-rule="evenodd" d="M18.4294 1.14354L18.2858 1.28708V2.71497V4.14286H17.6436H17.0015L16.8579 4.2864L16.7144 4.42994V10.4286V16.4272L16.8579 16.5707L17.0015 16.7143H17.6436H18.2858V18.1422V19.5701L18.4294 19.7136C18.5692 19.8534 18.5859 19.8571 19.0715 19.8571C19.5572 19.8571 19.5739 19.8534 19.7137 19.7136L19.8572 19.5701V18.1422V16.7143H20.4994H21.1416L21.2851 16.5707L21.4287 16.4272V10.4286V4.42994L21.2851 4.2864L21.1416 4.14286H20.4994H19.8572V2.71497V1.28708L19.7137 1.14354C19.5739 1.00373 19.5572 1 19.0715 1C18.5859 1 18.5692 1.00373 18.4294 1.14354ZM4.2865 2.71497L4.14296 2.85851V4.2864V5.71429H3.50079H2.85861L2.71507 5.85783L2.57153 6.00137V10.4286V14.8558L2.71507 14.9993L2.85861 15.1429H3.50079H4.14296V16.5707V17.9986L4.2865 18.1422C4.42631 18.282 4.44306 18.2857 4.92868 18.2857C5.4143 18.2857 5.43104 18.282 5.57085 18.1422L5.71439 17.9986V16.5707V15.1429H6.35656H6.99874L7.14228 14.9993L7.28582 14.8558V10.4286V6.00137L7.14228 5.85783L6.99874 5.71429H6.35656H5.71439V4.2864V2.85851L5.57085 2.71497C5.43104 2.57516 5.4143 2.57143 4.92868 2.57143C4.44306 2.57143 4.42631 2.57516 4.2865 2.71497ZM11.3579 9.7864L11.2144 9.92994V11.3578V12.7857H10.5722H9.93004L9.7865 12.9293L9.64296 13.0728V16.3214V19.5701L9.7865 19.7136L9.93004 19.8571H10.5722H11.2144V21.285V22.7129L11.3579 22.8565C11.4977 22.9963 11.5145 23 12.0001 23C12.4857 23 12.5025 22.9963 12.6423 22.8565L12.7858 22.7129V21.285V19.8571H13.428H14.0702L14.2137 19.7136L14.3572 19.5701V16.3214V13.0728L14.2137 12.9293L14.0702 12.7857H13.428H12.7858V11.3578V9.92994L12.6423 9.7864C12.5025 9.64659 12.4857 9.64286 12.0001 9.64286C11.5145 9.64286 11.4977 9.64659 11.3579 9.7864Z" fill="#55657E"/>
</svg>
