<svg width="24" height="24" viewBox="0 0 24 24" fill="none" xmlns="http://www.w3.org/2000/svg">
<path fill-rule="evenodd" clip-rule="evenodd" d="M5.5994 3.56046C4.52142 3.76007 3.66157 4.19323 2.90349 4.9186C2.03254 5.75203 1.57896 6.62631 1.32645 7.95834C0.80638 10.7018 0.468368 13.6997 0.40706 16.1121C0.382227 17.0887 0.38905 17.2993 0.455269 17.5969C0.687221 18.6396 1.49259 19.5933 2.59768 20.1342C3.13344 20.3963 3.52544 20.5 3.9812 20.5C5.02808 20.5 5.95306 19.8962 7.53479 18.1805C8.85532 16.7481 9.23031 16.3994 9.72386 16.1448L9.96555 16.0202H11.9904H14.0152L14.3128 16.1666C14.7516 16.3827 15.1806 16.7743 16.2418 17.9275C17.6241 19.4298 18.2937 19.99 19.1079 20.3255C19.4485 20.4658 19.5048 20.4752 20.0168 20.4762C20.4749 20.4771 20.6137 20.4598 20.8809 20.3686C22.1335 19.9409 23.1215 19.0108 23.4778 17.9237C23.6081 17.5261 23.6097 17.5085 23.6046 16.5204C23.5949 14.6529 23.3741 12.2229 22.9908 9.76656C22.6772 7.757 22.5081 7.0616 22.1669 6.37826C21.2345 4.5105 19.3971 3.4231 17.3107 3.50424C16.5902 3.53226 16.3851 3.58274 15.5003 3.94982C14.2373 4.47384 13.8674 4.53602 12.0122 4.53602C10.1693 4.53602 9.79068 4.4733 8.54346 3.9616C7.56976 3.56214 7.42668 3.52803 6.64546 3.50938C6.17328 3.4981 5.85123 3.51384 5.5994 3.56046ZM6.61995 6.91797C6.31905 6.99898 6.12703 7.15538 6.00391 7.41981C5.90472 7.63284 5.89589 7.71002 5.89548 8.36803L5.89503 9.08435H5.15174C4.46143 9.08435 4.39421 9.0919 4.20801 9.19019C4.09777 9.24836 3.94618 9.38316 3.87114 9.48972C3.74993 9.66178 3.7347 9.72022 3.7347 10.0126C3.7347 10.2948 3.75234 10.3684 3.85877 10.5292C3.92699 10.6323 4.0799 10.7735 4.19851 10.843C4.40595 10.9646 4.4427 10.9702 5.15465 10.9874L5.89503 11.0052V11.6753C5.89503 12.3842 5.92832 12.56 6.10861 12.8028C6.43511 13.2426 7.17645 13.2675 7.56426 12.8517C7.76715 12.6342 7.80522 12.4532 7.80522 11.7056V11.0039L8.54428 10.9862C9.33987 10.9672 9.51097 10.922 9.74733 10.6686C10.126 10.2627 10.0461 9.56995 9.5831 9.24354C9.39022 9.10755 9.38713 9.107 8.60877 9.08435L7.82796 9.06161L7.80522 8.2808L7.78248 7.49999L7.64403 7.30297C7.4049 6.96268 7.00799 6.81351 6.61995 6.91797ZM18.6811 6.90551C18.0206 7.03299 17.577 7.55748 17.5729 8.2159C17.5696 8.74229 17.8441 9.18296 18.334 9.43797C18.6683 9.61202 19.144 9.61079 19.502 9.43501C20.5034 8.94323 20.5189 7.51654 19.528 7.04455C19.2028 6.88964 18.9654 6.85066 18.6811 6.90551ZM16.389 10.4983C15.9841 10.5936 15.6223 10.8845 15.4403 11.2609C15.2883 11.5751 15.2953 12.0739 15.4559 12.3817C15.7089 12.8666 16.1525 13.146 16.6784 13.1516C17.3034 13.1584 17.8691 12.7039 17.9963 12.0929C18.141 11.3983 17.7329 10.7277 17.0404 10.522C16.7704 10.4418 16.6477 10.4373 16.389 10.4983Z" fill="#93ACD3"/>
</svg>
