<svg width="51" height="24" viewBox="0 0 51 24" fill="none" xmlns="http://www.w3.org/2000/svg">
<g clip-path="url(#clip0_3820_13468)">
<path d="M14.2588 5.92514C13.4873 6.69737 12.6995 7.45478 11.9294 8.22631C10.8232 7.2769 9.38819 6.81525 7.93266 7.09902C6.17502 7.40043 4.7216 8.7049 4.1456 10.356C3.23461 9.66759 2.32636 8.97559 1.4209 8.27996C2.3336 6.51102 3.89643 5.09078 5.77408 4.37925C8.63925 3.25972 12.0021 3.83572 14.2588 5.92514Z" fill="#EA2C2C"/>
<path d="M1.42032 8.28003C2.32596 8.97603 3.23443 9.66779 4.14502 10.356C3.8069 11.4134 3.80902 12.4038 4.14008 13.4633C3.23772 14.1659 2.33064 14.8624 1.4189 15.5527C0.848879 14.4253 0.552001 13.1796 0.552246 11.9162C0.552491 10.6529 0.849854 9.40726 1.42032 8.28003Z" fill="#F9AD10"/>
<path d="M8.7599 10.4471C11.3413 10.4436 13.9248 10.4457 16.5063 10.4457C16.9623 13.1873 16.322 16.1245 14.1952 18.0544C13.3213 17.3782 12.4361 16.7168 11.5623 16.0377C12.4587 15.4052 12.9514 14.6351 13.2126 13.5812C11.7296 13.565 10.2444 13.5833 8.76132 13.5721C8.75718 12.5306 8.75671 11.4885 8.7599 10.4471Z" fill="#1771CA"/>
<path d="M4.14012 13.4626C4.60177 14.753 5.54412 15.8429 6.82459 16.3935C8.30694 17.0655 10.1938 16.9038 11.5625 16.037C12.4364 16.7168 13.3215 17.3782 14.1954 18.0537C12.1477 19.9525 8.90412 20.4424 6.27612 19.6285C5.23652 19.3053 4.27166 18.7784 3.43775 18.0786C2.60384 17.3787 1.91757 16.5198 1.41895 15.5521C2.33067 14.8617 3.23775 14.1652 4.14012 13.4626Z" fill="#34A853"/>
<path fill-rule="evenodd" clip-rule="evenodd" d="M27.211 4.94398C25.5493 4.94116 23.8884 4.94116 22.2267 4.9454C22.2225 8.29834 22.2232 11.6513 22.2239 15.0028L22.2246 19.0256C22.8338 19.0306 23.443 19.0292 24.0522 19.0235C24.0557 18.0197 24.055 17.0153 24.0543 16.0115C24.0536 15.1186 24.0529 14.2256 24.0557 13.3334C24.5237 13.3207 24.9945 13.3263 25.466 13.332C26.282 13.3412 27.0987 13.3503 27.9049 13.2663C29.5107 13.039 31.0037 11.8186 31.4209 10.2522C31.6984 9.26533 31.594 8.21013 31.1286 7.29669C30.3705 5.89198 28.8303 4.9461 27.211 4.94398ZM25.3298 6.6734C24.9063 6.67622 24.4835 6.67904 24.0613 6.67551C24.0515 7.87834 24.0529 9.08116 24.0543 10.2847L24.0557 11.5969C24.4736 11.5934 24.8922 11.5962 25.3107 11.599C26.0082 11.6033 26.7049 11.6082 27.4002 11.5842C28.6559 11.5172 29.6893 10.4012 29.695 9.1701C29.7176 7.91998 28.639 6.75881 27.3712 6.6861C26.6909 6.66908 26.0103 6.66485 25.3298 6.6734Z" fill="white"/>
<path d="M40.4985 9.39882C41.1536 9.37905 41.8101 9.40023 42.4651 9.39317C43.4703 11.7078 44.4197 14.0456 45.415 16.3638C46.3623 14.0407 47.3138 11.7205 48.2647 9.39882C48.9331 9.39176 49.6009 9.39317 50.2708 9.39529C48.2152 14.0223 46.1788 18.6607 44.1324 23.2913C43.4992 23.2927 42.8661 23.2948 42.2336 23.2927C42.9931 21.6727 43.7498 20.052 44.5115 18.4334C43.1901 15.4193 41.8122 12.4172 40.4985 9.39882Z" fill="white"/>
<path fill-rule="evenodd" clip-rule="evenodd" d="M39.4814 10.6829C38.8411 9.80547 37.8459 9.30641 36.7764 9.1497C35.5235 8.99512 34.2317 9.08265 33.1355 9.75112C32.6089 10.0561 32.2044 10.481 31.8381 10.9575C32.3661 11.3005 32.8997 11.633 33.4404 11.9549C34.3651 10.6758 36.1475 10.2488 37.4739 11.1989C38.2433 11.7057 38.4677 12.4765 38.4459 13.3532C37.176 12.7518 35.7296 12.6396 34.3588 12.9135C33.3854 13.1189 32.4049 13.6546 31.9009 14.5306C31.3249 15.5775 31.4061 16.9666 32.1437 17.921C33.1884 19.2777 35.2715 19.7231 36.8266 19.0363C37.5162 18.7222 37.9616 18.1963 38.431 17.6281C38.4289 18.0939 38.431 18.5584 38.4324 19.0243V19.0271C39.0183 19.0292 39.6014 19.0292 40.1844 19.0271C40.1894 17.9732 40.1887 16.9194 40.1887 15.8662C40.188 15.0234 40.1873 14.1812 40.1901 13.3391C40.1936 12.389 40.0574 11.4714 39.4814 10.6829ZM35.2941 17.7339C36.919 17.8243 38.4134 16.4916 38.4557 14.8779C37.416 14.2257 36.06 14.0436 34.884 14.4036C34.1534 14.6506 33.4087 15.2323 33.4249 16.0674C33.3847 17.0577 34.3983 17.6775 35.2941 17.7339Z" fill="white"/>
</g>
<defs>
<clipPath id="clip0_3820_13468">
<rect width="50.8235" height="24" fill="white"/>
</clipPath>
</defs>
</svg>
