<svg width="25" height="24" viewBox="0 0 16 16" fill="none" xmlns="http://www.w3.org/2000/svg">
<path d="M4.66732 10.6667H2.00065C1.63246 10.6667 1.33398 10.9651 1.33398 11.3333V14C1.33398 14.3682 1.63246 14.6667 2.00065 14.6667H4.66732C5.03551 14.6667 5.33398 14.3682 5.33398 14V11.3333C5.33398 10.9651 5.03551 10.6667 4.66732 10.6667Z" fill="#A7B5CA"/>
<path d="M9.33333 10.6667H6.66667C6.29848 10.6667 6 10.9651 6 11.3333V14C6 14.3682 6.29848 14.6667 6.66667 14.6667H9.33333C9.70152 14.6667 10 14.3682 10 14V11.3333C10 10.9651 9.70152 10.6667 9.33333 10.6667Z" fill="#A7B5CA"/>
<path d="M13.9993 10.6667H11.3327C10.9645 10.6667 10.666 10.9651 10.666 11.3333V14C10.666 14.3682 10.9645 14.6667 11.3327 14.6667H13.9993C14.3675 14.6667 14.666 14.3682 14.666 14V11.3333C14.666 10.9651 14.3675 10.6667 13.9993 10.6667Z" fill="#A7B5CA"/>
<path d="M4.66732 5.99999H2.00065C1.63246 5.99999 1.33398 6.29847 1.33398 6.66666V9.33333C1.33398 9.70151 1.63246 9.99999 2.00065 9.99999H4.66732C5.03551 9.99999 5.33398 9.70151 5.33398 9.33333V6.66666C5.33398 6.29847 5.03551 5.99999 4.66732 5.99999Z" fill="#A7B5CA"/>
<path d="M9.33333 5.99999H6.66667C6.29848 5.99999 6 6.29847 6 6.66666V9.33333C6 9.70151 6.29848 9.99999 6.66667 9.99999H9.33333C9.70152 9.99999 10 9.70151 10 9.33333V6.66666C10 6.29847 9.70152 5.99999 9.33333 5.99999Z" fill="#A7B5CA"/>
<path d="M13.9993 5.99999H11.3327C10.9645 5.99999 10.666 6.29847 10.666 6.66666V9.33333C10.666 9.70151 10.9645 9.99999 11.3327 9.99999H13.9993C14.3675 9.99999 14.666 9.70151 14.666 9.33333V6.66666C14.666 6.29847 14.3675 5.99999 13.9993 5.99999Z" fill="#A7B5CA"/>
<path d="M4.66732 1.33332H2.00065C1.63246 1.33332 1.33398 1.6318 1.33398 1.99999V4.66665C1.33398 5.03484 1.63246 5.33332 2.00065 5.33332H4.66732C5.03551 5.33332 5.33398 5.03484 5.33398 4.66665V1.99999C5.33398 1.6318 5.03551 1.33332 4.66732 1.33332Z" fill="#A7B5CA"/>
<path d="M9.33333 1.33332H6.66667C6.29848 1.33332 6 1.6318 6 1.99999V4.66665C6 5.03484 6.29848 5.33332 6.66667 5.33332H9.33333C9.70152 5.33332 10 5.03484 10 4.66665V1.99999C10 1.6318 9.70152 1.33332 9.33333 1.33332Z" fill="#A7B5CA"/>
<path d="M13.9993 1.33332H11.3327C10.9645 1.33332 10.666 1.6318 10.666 1.99999V4.66665C10.666 5.03484 10.9645 5.33332 11.3327 5.33332H13.9993C14.3675 5.33332 14.666 5.03484 14.666 4.66665V1.99999C14.666 1.6318 14.3675 1.33332 13.9993 1.33332Z" fill="#A7B5CA"/>
</svg>
