<svg width="24" height="24" viewBox="0 0 24 24" fill="none" xmlns="http://www.w3.org/2000/svg">
<path d="M9.00012 4C7.93926 4 6.92184 4.42143 6.17169 5.17157C5.42155 5.92172 5.00012 6.93913 5.00012 8C5.00012 9.06087 5.42155 10.0783 6.17169 10.8284C6.92184 11.5786 7.93926 12 9.00012 12C10.061 12 11.0784 11.5786 11.8285 10.8284C12.5787 10.0783 13.0001 9.06087 13.0001 8C13.0001 6.93913 12.5787 5.92172 11.8285 5.17157C11.0784 4.42143 10.061 4 9.00012 4Z" fill="#55657E"/>
<path d="M10.0001 13H8.00012C5.24012 13 3.00012 15.24 3.00012 18V19C3.00012 19.55 3.45012 20 4.00012 20H14.0001C14.5501 20 15.0001 19.55 15.0001 19V18C15.0001 15.24 12.7601 13 10.0001 13Z" fill="#55657E"/>
<path d="M15.0006 4C14.5306 4 14.1006 4.09 13.6906 4.22C14.5106 5.24 15.0006 6.55 15.0006 8C15.0006 9.45 14.5106 10.75 13.6906 11.78C14.1006 11.91 14.5306 12 15.0006 12C17.2806 12 19.0006 10.28 19.0006 8C19.0006 5.72 17.2806 4 15.0006 4Z" fill="#55657E"/>
<path d="M15.9998 13H14.8898C16.1898 14.27 16.9998 16.04 16.9998 18V19C16.9998 19.35 16.9298 19.69 16.8198 20H19.9998C20.5498 20 20.9998 19.55 20.9998 19V18C20.9998 15.24 18.7598 13 15.9998 13Z" fill="#55657E"/>
</svg>
