<svg width="24" height="24" viewBox="0 0 24 24" fill="none" xmlns="http://www.w3.org/2000/svg">
<path d="M21.2298 8.11117C20.9798 7.52117 20.6698 6.95117 20.3098 6.41117C19.9498 5.88117 19.5398 5.38117 19.0898 4.93117C18.6398 4.48117 18.1398 4.07117 17.6098 3.71117C17.0698 3.35117 16.4998 3.04117 15.9098 2.79117C15.3098 2.53117 14.6698 2.34117 14.0298 2.21117C12.7198 1.94117 11.3098 1.94117 9.99977 2.21117C9.35977 2.34117 8.72977 2.54117 8.11977 2.79117C7.52977 3.04117 6.95977 3.35117 6.41977 3.71117C5.88977 4.07117 5.38977 4.48117 4.93977 4.93117C4.76977 5.10117 4.61977 5.28117 4.45977 5.45117L2.00977 3.00117V9.00117H8.00977L5.87977 6.87117C6.02977 6.69117 6.18977 6.51117 6.35977 6.35117C6.71977 5.99117 7.11977 5.66117 7.53977 5.37117C7.96977 5.08117 8.42977 4.83117 8.89977 4.63117C9.37977 4.43117 9.88977 4.27117 10.3998 4.16117C11.4498 3.95117 12.5798 3.95117 13.6298 4.16117C14.1398 4.27117 14.6498 4.42117 15.1298 4.63117C15.5998 4.83117 16.0598 5.08117 16.4898 5.37117C16.9098 5.66117 17.3098 5.99117 17.6698 6.35117C18.0298 6.71117 18.3598 7.11117 18.6498 7.53117C18.9398 7.96117 19.1898 8.42117 19.3898 8.89117C19.5898 9.37117 19.7498 9.88117 19.8598 10.3912C19.9698 10.9212 20.0198 11.4612 20.0198 12.0012C20.0237 13.0699 19.8093 14.1282 19.3898 15.1112C19.1898 15.5812 18.9398 16.0412 18.6498 16.4712C18.3598 16.8912 18.0298 17.2912 17.6698 17.6512C17.3098 18.0112 16.9098 18.3412 16.4898 18.6312C16.0598 18.9212 15.5998 19.1712 15.1298 19.3712C14.6498 19.5712 14.1398 19.7312 13.6298 19.8412C12.5798 20.0512 11.4498 20.0512 10.3998 19.8412C9.88555 19.7341 9.38312 19.5767 8.89977 19.3712C8.42977 19.1712 7.96977 18.9212 7.53977 18.6312C7.11977 18.3412 6.71977 18.0112 6.35977 17.6512C5.99977 17.2912 5.66977 16.8912 5.37977 16.4712C5.08977 16.0412 4.83977 15.5812 4.63977 15.1112C4.43977 14.6312 4.27977 14.1212 4.16977 13.6112C4.06216 13.0813 4.00855 12.5419 4.00977 12.0012H2.00977C2.00977 12.6812 2.07977 13.3512 2.20977 14.0112C2.33977 14.6512 2.53977 15.2812 2.78977 15.8912C3.03977 16.4812 3.34977 17.0512 3.70977 17.5912C4.06977 18.1212 4.47977 18.6212 4.92977 19.0712C5.37977 19.5212 5.87977 19.9312 6.40977 20.2912C6.94977 20.6512 7.51977 20.9612 8.10977 21.2112C8.70977 21.4712 9.34977 21.6612 9.98977 21.7912C10.6498 21.9212 11.3198 21.9912 11.9998 21.9912C12.6798 21.9912 13.3598 21.9212 14.0098 21.7912C14.6498 21.6612 15.2798 21.4612 15.8898 21.2112C16.4798 20.9612 17.0498 20.6512 17.5898 20.2912C18.1198 19.9312 18.6198 19.5212 19.0698 19.0712C19.5198 18.6212 19.9298 18.1212 20.2898 17.5912C20.6498 17.0512 20.9598 16.4812 21.2098 15.8912C21.4698 15.2912 21.6598 14.6512 21.7898 14.0112C21.9198 13.3512 21.9898 12.6712 21.9898 12.0012C21.9898 11.3312 21.9198 10.6512 21.7898 9.99117C21.6598 9.35117 21.4598 8.72117 21.2098 8.11117H21.2298Z" fill="#55657E"/>
<path d="M11.0195 7.00116V13.0012H17.0195V11.0012H13.0195V7.00116H11.0195Z" fill="#55657E"/>
</svg>
