<svg width="18" height="18" viewBox="0 0 18 18" fill="none" xmlns="http://www.w3.org/2000/svg">
<path d="M17.33 0.0600027C17.1346 -0.00804142 16.9229 -0.0138041 16.7241 0.0435087C16.5253 0.100821 16.3492 0.218388 16.22 0.380003L13 4.4L9.78 0.380003C9.4 -0.0899971 8.6 -0.0899971 8.22 0.380003L5 4.4L1.78 0.380003C1.51 0.0500028 1.07 -0.0799973 0.67 0.0600027C0.27 0.200003 0 0.580003 0 1V12H18V1C18 0.580003 17.73 0.200003 17.33 0.0600027ZM0 16C0 17.1 0.9 18 2 18H16C17.1 18 18 17.1 18 16V14H0V16Z" fill="#55657E"/>
</svg>
