<svg width="25" height="24" viewBox="0 0 16 16" fill="none" xmlns="http://www.w3.org/2000/svg">
<path d="M12 2C11.4696 2 10.9609 2.21071 10.5858 2.58579C10.2107 2.96086 10 3.46957 10 4C10 4.53043 10.2107 5.03914 10.5858 5.41421C10.9609 5.78929 11.4696 6 12 6C12.5304 6 13.0391 5.78929 13.4142 5.41421C13.7893 5.03914 14 4.53043 14 4C14 3.46957 13.7893 2.96086 13.4142 2.58579C13.0391 2.21071 12.5304 2 12 2Z" fill="#A7B5CA"/>
<path d="M3.33333 2.66667C2.6 2.66667 2 3.26667 2 4V12.6667C2 13.4 2.6 14 3.33333 14H12C12.7333 14 13.3333 13.4 13.3333 12.6667V6.67333C12.9267 6.87333 12.48 7 12 7C10.3467 7 9 5.65333 9 4C9 3.52 9.12667 3.07333 9.32667 2.66667H3.33333Z" fill="#A7B5CA"/>
</svg>
