<svg width="30" height="24" viewBox="0 0 30 24" fill="none" xmlns="http://www.w3.org/2000/svg">
<path d="M9.29834 3.5322H10.2273C11.9445 3.65092 13.5851 4.28903 14.9313 5.36185C13.3219 6.63808 12.1833 8.5362 11.8642 10.5755C11.3193 13.5769 12.5955 16.8141 14.9948 18.6818C13.6854 19.7336 11.9885 20.3336 10.3148 20.4388C8.33763 20.5849 6.34281 19.9877 4.74611 18.8138C3.34422 17.7593 2.26422 16.3058 1.73481 14.623C0.776222 11.7148 1.50328 8.35267 3.64775 6.15738C5.11105 4.59244 7.1701 3.66067 9.29834 3.53149V3.5322Z" fill="#EA2C2C"/>
<path d="M20.6156 20.4677H19.6853C17.9714 20.3498 16.3083 19.7287 14.9601 18.6536L14.9813 18.6381C16.5907 17.3618 17.7293 15.4637 18.0483 13.4244C18.5933 10.423 17.3312 7.2296 14.9312 5.36113C16.2406 4.31007 17.9241 3.66701 19.5977 3.56113C21.5749 3.41501 23.5697 4.01219 25.1672 5.18607C26.569 6.24066 27.6483 7.69337 28.1777 9.3769C29.1363 12.2851 28.4093 15.6465 26.2655 17.8425C24.8022 19.4075 22.7424 20.3393 20.6149 20.4684L20.6156 20.4677Z" fill="#F9AD10"/>
<path d="M14.932 5.36194C17.8416 7.49229 18.9244 11.5935 17.6538 14.9478C17.1294 16.4457 16.1602 17.6393 14.9948 18.6819L14.944 18.6431C12.544 16.7753 11.3193 13.5777 11.8642 10.5749C12.1833 8.53629 13.3226 6.63817 14.932 5.36194Z" fill="#FF5F00"/>
</svg>
