<svg width="14" height="14" viewBox="0 0 14 14" fill="none" xmlns="http://www.w3.org/2000/svg">
<path d="M11.1818 5.66667C11.1818 2.72667 8.78847 0.333334 5.84847 0.333334C2.90847 0.333334 0.515137 2.72667 0.515137 5.66667C0.515137 8.60667 2.90847 11 5.84847 11C7.0818 11 8.20847 10.58 9.11514 9.87333L12.5151 13.2733L13.4551 12.3333L10.0551 8.93333C10.7551 8.02667 11.1818 6.9 11.1818 5.66667ZM1.84847 5.66667C1.84847 3.46 3.6418 1.66667 5.84847 1.66667C8.05514 1.66667 9.84847 3.46 9.84847 5.66667C9.84847 7.87333 8.05514 9.66667 5.84847 9.66667C3.6418 9.66667 1.84847 7.87333 1.84847 5.66667Z" fill="#A7B5CA"/>
</svg>
