<svg width="24" height="24" viewBox="0 0 24 24" fill="none" xmlns="http://www.w3.org/2000/svg">
<path fill-rule="evenodd" clip-rule="evenodd" d="M4.63403 12V20C4.63403 21.6569 5.97718 23 7.63403 23H12.0001H16.3662C18.023 23 19.3662 21.6569 19.3662 20V12V4C19.3662 2.34315 18.023 1 16.3662 1H12.0001H7.63403C5.97718 1 4.63403 2.34315 4.63403 4V12ZM8.97913 8.46478C8.05258 7.89985 8.05258 6.67158 8.97913 6.10665C9.278 5.92437 9.47786 5.9114 12.0001 5.9114C14.5223 5.9114 14.7222 5.92437 15.0211 6.10665C15.4265 6.35376 15.7314 6.84925 15.7319 7.26155C15.7323 7.66423 10.8658 17.4362 10.4915 17.7842C10.1239 18.126 9.37543 18.1828 8.92305 17.9032C8.53982 17.6664 8.26796 17.1768 8.26796 16.7235C8.26796 16.5238 8.92885 15.0972 10.1831 12.5893C11.2365 10.4831 12.0983 8.73762 12.0983 8.71031C12.0983 8.68301 11.4686 8.66052 10.6988 8.66032C9.47551 8.66003 9.25885 8.63538 8.97913 8.46478Z" fill="#55657E"/>
<path fill-rule="evenodd" clip-rule="evenodd" d="M24 12V18C24 19.1046 23.1046 20 22 20H21.2679V12V4H22C23.1046 4 24 4.89543 24 6V12Z" fill="#55657E"/>
<path fill-rule="evenodd" clip-rule="evenodd" d="M0 12V18C0 19.1046 0.895431 20 2 20H2.73214V12V4H2C0.89543 4 0 4.89543 0 6V12Z" fill="#55657E"/>
</svg>
