<svg width="24" height="24" viewBox="0 0 24 24" fill="none" xmlns="http://www.w3.org/2000/svg">
<path d="M12.65 2.24C12.4689 2.08507 12.2384 1.99993 12 1.99993C11.7617 1.99993 11.5312 2.08507 11.35 2.24L3.84002 8.68C2.98096 9.51142 2.38963 10.5803 2.14174 11.7499C1.89385 12.9194 2.00069 14.1363 2.44858 15.2447C2.89646 16.3532 3.66501 17.3027 4.6558 17.9717C5.64658 18.6407 6.81451 18.9988 8.01002 19C9.07002 19 10.11 18.7 11.01 18.18V20H8.01002V22H16.01V20H13.01V18.18C13.91 18.7 14.95 19 16.01 19C19.32 19 22.01 16.31 22.01 13C22.01 11.38 21.34 9.81 20.13 8.64L12.66 2.24H12.65Z" fill="white"/>
</svg>
