<svg width="24" height="24" viewBox="0 0 24 24" fill="none" xmlns="http://www.w3.org/2000/svg">
<path d="M3.99512 21.5H4.99512V8.5H3.99512C2.89512 8.5 1.99512 9.4 1.99512 10.5V19.5C1.99512 20.6 2.89512 21.5 3.99512 21.5ZM19.9951 8.5H13.3851L14.5051 5.13C14.7051 4.52 14.6051 3.85 14.2351 3.33C13.8551 2.81 13.2551 2.5 12.6151 2.5H12.0051C11.7051 2.5 11.4251 2.63 11.2351 2.86L7.00512 7.94V21.5H17.3151C17.7221 21.4993 18.1191 21.3745 18.4532 21.1422C18.7874 20.9099 19.0427 20.5812 19.1851 20.2L21.9451 12.85C21.9851 12.74 22.0051 12.62 22.0051 12.5V10.5C22.0051 9.4 21.1051 8.5 20.0051 8.5H19.9951Z" fill="#55657E"/>
</svg>
