<svg width="24" height="24" viewBox="0 0 24 24" fill="none" xmlns="http://www.w3.org/2000/svg">
<path d="M21.45 8.61L12.45 4.11C12.17 3.97 11.84 3.97 11.56 4.11L5.56001 7.11L2.56001 8.61L1.56001 9.11C1.22001 9.28 1.01001 9.63 1.01001 10V16H3.01001V10.62L11.56 14.9C11.7 14.97 11.85 15.01 12.01 15.01C12.17 15.01 12.32 14.97 12.46 14.9L21.46 10.4C21.8 10.23 22.01 9.88 22.01 9.51C22.01 9.14001 21.8 8.79 21.46 8.62L21.45 8.61Z" fill="#55657E"/>
<path d="M12 17C11.54 17 11.07 16.89 10.66 16.68L5 13.85V15.44C5 17.5 8.12 20 12 20C15.88 20 19 17.51 19 15.44V13.85L13.34 16.68C12.93 16.89 12.46 17 12 17Z" fill="#55657E"/>
</svg>
