<svg width="17" height="17" viewBox="0 0 17 17" fill="none" xmlns="http://www.w3.org/2000/svg">
<path d="M8.24992 9.83333C9.46769 9.83333 10.6001 10.1615 11.4478 10.7266C12.2909 11.2886 12.9166 12.138 12.9166 13.1667C12.9166 13.5349 12.6181 13.8333 12.2499 13.8333H4.24992C3.88173 13.8333 3.58325 13.5349 3.58325 13.1667C3.58325 12.138 4.20896 11.2886 5.052 10.7266C5.8997 10.1615 7.03215 9.83333 8.24992 9.83333Z" fill="#2283F6"/>
<path d="M8.24992 2.5C10.0909 2.5 11.5833 3.99238 11.5833 5.83333C11.5833 7.67428 10.0909 9.16667 8.24992 9.16667C6.40897 9.16667 4.91659 7.67428 4.91659 5.83333C4.91659 3.99238 6.40897 2.5 8.24992 2.5Z" fill="#2283F6"/>
</svg>
