<svg width="17" height="16" viewBox="0 0 17 16" fill="none" xmlns="http://www.w3.org/2000/svg">
<path d="M8.74992 9.33333C9.96769 9.33333 11.1001 9.66147 11.9478 10.2266C12.7909 10.7886 13.4166 11.638 13.4166 12.6667C13.4166 13.0349 13.1181 13.3333 12.7499 13.3333H4.74992C4.38173 13.3333 4.08325 13.0349 4.08325 12.6667C4.08325 11.638 4.70896 10.7886 5.552 10.2266C6.3997 9.66147 7.53215 9.33333 8.74992 9.33333Z" fill="white"/>
<path d="M8.74992 2C10.5909 2 12.0833 3.49238 12.0833 5.33333C12.0833 7.17428 10.5909 8.66667 8.74992 8.66667C6.90897 8.66667 5.41659 7.17428 5.41659 5.33333C5.41659 3.49238 6.90897 2 8.74992 2Z" fill="white"/>
</svg>
