<svg width="24" height="24" viewBox="0 0 24 24" fill="none" xmlns="http://www.w3.org/2000/svg">
<path d="M22 11H19V8H17V11H14V13H17V16H19V13H22V11ZM8 4C6.93913 4 5.92172 4.42143 5.17157 5.17157C4.42143 5.92172 4 6.93913 4 8C4 9.06087 4.42143 10.0783 5.17157 10.8284C5.92172 11.5786 6.93913 12 8 12C9.06087 12 10.0783 11.5786 10.8284 10.8284C11.5786 10.0783 12 9.06087 12 8C12 6.93913 11.5786 5.92172 10.8284 5.17157C10.0783 4.42143 9.06087 4 8 4ZM3 20H13C13.55 20 14 19.55 14 19V18C14 15.24 11.76 13 9 13H7C4.24 13 2 15.24 2 18V19C2 19.55 2.45 20 3 20Z" fill="white"/>
</svg>
