<svg width="41" height="24" viewBox="0 0 41 24" fill="none" xmlns="http://www.w3.org/2000/svg">
<g clip-path="url(#clip0_3820_13485)">
<mask id="mask0_3820_13485" style="mask-type:luminance" maskUnits="userSpaceOnUse" x="0" y="5" width="41" height="14">
<path d="M0.604492 5.54114H40.4537V18.4602H0.604492V5.54114Z" fill="white"/>
</mask>
<g mask="url(#mask0_3820_13485)">
<path d="M17.8803 18.2421H14.6297L16.6605 5.76346H19.9111L17.8803 18.2421ZM11.8937 5.76346L8.79346 14.3463L8.42569 12.4969L7.33017 6.88511C7.33017 6.88511 7.19534 5.75993 5.7864 5.75993H0.665931L0.605225 5.97029C0.605225 5.97029 2.17228 6.29782 4.00617 7.39617L6.83252 18.2385H10.2208L15.3906 5.76346H11.8895H11.893H11.8937ZM37.4678 18.2421H40.4537L37.8518 5.76346H35.2358C34.0302 5.76346 33.7358 6.69523 33.7358 6.69523L28.8885 18.2449H32.276L32.9537 16.3926H37.0866L37.4678 18.2449V18.2421ZM33.889 13.8289L35.5972 9.15876L36.5586 13.8289H33.889ZM29.1391 8.76488L29.6036 6.08464C29.6036 6.08464 28.1706 5.54041 26.6798 5.54041C25.0662 5.54041 21.2346 6.24488 21.2346 9.67264C21.2346 12.8978 25.7311 12.9381 25.7311 14.6301C25.7311 16.3228 21.6991 16.0192 20.3664 14.9541L19.8815 17.755C19.8815 17.755 21.3349 18.4595 23.5528 18.4595C25.7713 18.4595 29.1186 17.311 29.1186 14.1861C29.1186 11.0618 24.5819 10.6411 24.5819 9.22935C24.5819 7.81758 27.7492 8.00111 29.1391 8.76488Z" fill="#1771CA"/>
<path d="M8.42569 12.5011L7.33017 6.88934C7.33017 6.88934 7.19605 5.76416 5.7864 5.76416H0.665931L0.605225 5.97451C0.605225 5.97451 3.06805 6.48487 5.43346 8.39428C7.69158 10.2204 8.4264 12.4969 8.4264 12.4969V12.5004L8.42569 12.5011Z" fill="#F9AD10"/>
</g>
</g>
<defs>
<clipPath id="clip0_3820_13485">
<rect width="40.9412" height="24" fill="white" transform="translate(0.0588379)"/>
</clipPath>
</defs>
</svg>
