<svg width="24" height="24" viewBox="0 0 24 24" fill="none" xmlns="http://www.w3.org/2000/svg">
<path d="M10.0037 12.95C10.0037 14.05 10.8937 14.95 12.0037 14.95C13.1137 14.95 14.0037 14.05 14.0037 12.95C14.0037 11.85 13.1037 10.95 12.0037 10.95C10.9037 10.95 10.0037 11.85 10.0037 12.95ZM17.6637 9.39005C16.1537 7.88005 14.1438 7.05005 12.0037 7.05005C9.86375 7.05005 7.85375 7.88005 6.34375 9.39005L7.75375 10.8C8.88375 9.67005 10.3937 9.04005 11.9937 9.04005C13.5937 9.04005 15.1037 9.66005 16.2337 10.8L17.6437 9.39005H17.6637Z" fill="#55657E"/>
<path d="M4.93367 7.93C6.82367 6.04 9.33367 5 12.0037 5C14.6737 5 17.1837 6.04 19.0737 7.93L20.4937 6.52C18.2237 4.25 15.2137 3 12.0037 3C8.79367 3 5.78367 4.25 3.51367 6.52L4.93367 7.93Z" fill="#55657E"/>
<path d="M5.66405 22L3.24805 16.4H4.64805L6.76005 21.36H5.93605L8.08005 16.4H9.36805L6.94405 22H5.66405Z" fill="#55657E"/>
<path d="M9.83561 22V16.4H12.2596C12.7609 16.4 13.1929 16.4827 13.5556 16.648C13.9183 16.808 14.1983 17.04 14.3956 17.344C14.5929 17.648 14.6916 18.0107 14.6916 18.432C14.6916 18.848 14.5929 19.208 14.3956 19.512C14.1983 19.816 13.9183 20.0507 13.5556 20.216C13.1929 20.376 12.7609 20.456 12.2596 20.456H10.5556L11.1316 19.872V22H9.83561ZM11.1316 20.016L10.5556 19.4H12.1876C12.5876 19.4 12.8863 19.3147 13.0836 19.144C13.2809 18.9734 13.3796 18.736 13.3796 18.432C13.3796 18.1227 13.2809 17.8827 13.0836 17.712C12.8863 17.5414 12.5876 17.456 12.1876 17.456H10.5556L11.1316 16.84V20.016Z" fill="#55657E"/>
<path d="M15.6169 22V16.4H16.6889L19.9929 20.432H19.4729V16.4H20.7529V22H19.6889L16.3769 17.968H16.8969V22H15.6169Z" fill="#55657E"/>
</svg>
