<svg width="24" height="24" viewBox="0 0 24 24" fill="none" xmlns="http://www.w3.org/2000/svg">
<g clip-path="url(#clip0_914_18356)">
<path d="M0.959961 8.41293C0.959961 6.69502 1.88434 5.0939 3.3729 4.23424L9.58747 0.645077C11.076 -0.214578 12.9248 -0.214578 14.4134 0.645077L20.6279 4.23284C22.1165 5.09249 23.0409 6.69362 23.0409 8.41152V15.5884C23.0409 17.3064 22.1165 18.9089 20.6279 19.7671L14.4134 23.3549C12.9248 24.2145 11.076 24.2145 9.58747 23.3549L3.3729 19.7671C1.88434 18.9089 0.959961 17.3078 0.959961 15.5884V8.41152V8.41293Z" fill="#F3BA30"/>
<path d="M0.958984 8.41293C0.958984 6.69502 1.88336 5.0939 3.37193 4.23424L9.58649 0.645077C11.0751 -0.214578 12.9238 -0.214578 14.4124 0.645077L20.6269 4.23284L0.958984 15.5884V8.41293Z" fill="#D9D9D9" fill-opacity="0.3"/>
<g filter="url(#filter0_di_914_18356)">
<path d="M21.5077 16.0578V7.94219C21.5077 7.05601 21.0352 6.23665 20.2667 5.79435L13.2393 1.73733C12.4725 1.29504 11.5258 1.29504 10.759 1.73733L3.73157 5.79435C2.96471 6.23665 2.49219 7.05601 2.49219 7.94219V16.0578C2.49219 16.944 2.96471 17.7634 3.73157 18.2057L10.759 22.2627C11.5258 22.705 12.4725 22.705 13.2393 22.2627L20.2667 18.2057C21.0336 17.7634 21.5077 16.944 21.5077 16.0578Z" fill="#F3BA30"/>
</g>
<path d="M8.31604 7.31783L12 5.25L15.684 7.31783L14.3296 8.0817L12 6.77782L9.67042 8.0817L8.31604 7.31783ZM15.684 9.92561L14.3296 9.1617L12 10.4656L9.67042 9.1617L8.31604 9.92561V11.4534L10.6456 12.7573V15.3651L12 16.129L13.3544 15.3651V12.7573L15.684 11.4534V9.92561ZM15.684 14.0612V12.5334L14.3296 13.2973V14.8251L15.684 14.0612ZM16.6456 14.6012L14.316 15.9051V17.4329L18 15.3651V11.2295L16.6456 11.9934V14.6012ZM15.2912 8.6217L16.6456 9.38561V10.9134L18 10.1495V8.6217L16.6456 7.85783L15.2912 8.6217ZM10.6456 16.4583V17.9861L12 18.75L13.3544 17.9861V16.4583L12 17.2222L10.6456 16.4583ZM8.31604 14.0612L9.67042 14.8251V13.2973L8.31604 12.5334V14.0612ZM10.6456 8.6217L12 9.38561L13.3544 8.6217L12 7.85783L10.6456 8.6217ZM7.35439 9.38561L8.70881 8.6217L7.35439 7.85783L6 8.6217V10.1495L7.35439 10.9134V9.38561ZM7.35439 11.9934L6 11.2295V15.3651L9.68396 17.4329V15.9051L7.35439 14.6012V11.9934Z" fill="white"/>
</g>
<defs>
<filter id="filter0_di_914_18356" x="1.49219" y="1.40561" width="20.0156" height="23.1888" filterUnits="userSpaceOnUse" color-interpolation-filters="sRGB">
<feFlood flood-opacity="0" result="BackgroundImageFix"/>
<feColorMatrix in="SourceAlpha" type="matrix" values="0 0 0 0 0 0 0 0 0 0 0 0 0 0 0 0 0 0 127 0" result="hardAlpha"/>
<feOffset dx="-1" dy="1"/>
<feColorMatrix type="matrix" values="0 0 0 0 1 0 0 0 0 1 0 0 0 0 1 0 0 0 0.32 0"/>
<feBlend mode="normal" in2="BackgroundImageFix" result="effect1_dropShadow_914_18356"/>
<feBlend mode="normal" in="SourceGraphic" in2="effect1_dropShadow_914_18356" result="shape"/>
<feColorMatrix in="SourceAlpha" type="matrix" values="0 0 0 0 0 0 0 0 0 0 0 0 0 0 0 0 0 0 127 0" result="hardAlpha"/>
<feOffset dx="-1" dy="2"/>
<feGaussianBlur stdDeviation="1"/>
<feComposite in2="hardAlpha" operator="arithmetic" k2="-1" k3="1"/>
<feColorMatrix type="matrix" values="0 0 0 0 0 0 0 0 0 0 0 0 0 0 0 0 0 0 0.16 0"/>
<feBlend mode="normal" in2="shape" result="effect2_innerShadow_914_18356"/>
</filter>
<clipPath id="clip0_914_18356">
<rect width="24" height="24" fill="white"/>
</clipPath>
</defs>
</svg>
