<svg width="32" height="32" viewBox="0 0 32 32" fill="none" xmlns="http://www.w3.org/2000/svg">
<path d="M1.2793 11.2173C1.2793 8.92674 2.5118 6.79191 4.49656 5.6457L12.7826 0.860144C14.7674 -0.286064 17.2324 -0.286064 19.2172 0.860144L27.5032 5.64382C29.488 6.79003 30.7205 8.92486 30.7205 11.2154V20.7846C30.7205 23.0752 29.488 25.2119 27.5032 26.3562L19.2172 31.1399C17.2324 32.2861 14.7674 32.2861 12.7826 31.1399L4.49656 26.3562C2.5118 25.2119 1.2793 23.0771 1.2793 20.7846V11.2154V11.2173Z" fill="#F8931A"/>
<path d="M1.2793 11.2173C1.2793 8.92674 2.5118 6.79191 4.49656 5.6457L12.7826 0.860144C14.7674 -0.286063 17.2324 -0.286063 19.2172 0.860144L27.5032 5.64382L1.2793 20.7846V11.2173Z" fill="#D9D9D9" fill-opacity="0.3"/>
<g filter="url(#filter0_di_3671_4265)">
<path d="M28.6768 21.4103V10.5895C28.6768 9.40789 28.0467 8.31541 27.0221 7.72568L17.6523 2.31632C16.6298 1.72659 15.3676 1.72659 14.3451 2.31632L4.97526 7.72568C3.95279 8.31541 3.32275 9.40789 3.32275 10.5895V21.4103C3.32275 22.5919 3.95279 23.6844 4.97526 24.2741L14.3451 29.6835C15.3676 30.2732 16.6298 30.2732 17.6523 29.6835L27.0221 24.2741C28.0446 23.6844 28.6768 22.5919 28.6768 21.4103Z" fill="#F8931A"/>
</g>
<path d="M22.7147 14.6397C22.9956 12.7483 21.566 11.7315 19.6111 11.0533L20.2452 8.49117L18.697 8.10247L18.0796 10.5971C17.6726 10.4949 17.2545 10.3985 16.8391 10.303L17.4609 7.79197L15.9135 7.40332L15.279 9.96452C14.9421 9.88722 14.6113 9.81082 14.2903 9.73042L14.2921 9.72247L12.1569 9.18542L11.7451 10.8511C11.7451 10.8511 12.8937 11.1163 12.8695 11.1328C13.4966 11.2905 13.6099 11.7084 13.5909 12.0398L12.8687 14.9586C12.9119 14.9697 12.9678 14.9857 13.0296 15.0106C12.978 14.9977 12.9229 14.9835 12.866 14.9697L11.8535 19.0585C11.7768 19.2504 11.5823 19.5382 11.144 19.4289C11.1594 19.4516 10.0186 19.146 10.0186 19.146L9.25 20.9312L11.2648 21.4371C11.6396 21.5317 12.007 21.6308 12.3686 21.7241L11.7278 24.3155L13.2743 24.7042L13.9089 22.1403C14.3313 22.2558 14.7414 22.3624 15.1427 22.4628L14.5104 25.0147L16.0586 25.4033L16.6994 22.8168C19.3395 23.3201 21.3247 23.1171 22.1604 20.7118C22.8338 18.7751 22.1269 17.6579 20.7378 16.9295C21.7494 16.6945 22.5114 16.0242 22.7147 14.6397ZM19.1772 19.6364C18.6987 21.5731 15.4615 20.5261 14.412 20.2636L15.2622 16.8304C16.3117 17.0943 19.6773 17.6166 19.1772 19.6364ZM19.6561 14.6117C19.2195 16.3733 16.5252 15.4783 15.6512 15.2589L16.422 12.1451C17.296 12.3645 20.1107 12.7741 19.6561 14.6117Z" fill="white"/>
<defs>
<filter id="filter0_di_3671_4265" x="2.32275" y="1.87402" width="26.354" height="30.252" filterUnits="userSpaceOnUse" color-interpolation-filters="sRGB">
<feFlood flood-opacity="0" result="BackgroundImageFix"/>
<feColorMatrix in="SourceAlpha" type="matrix" values="0 0 0 0 0 0 0 0 0 0 0 0 0 0 0 0 0 0 127 0" result="hardAlpha"/>
<feOffset dx="-1" dy="1"/>
<feColorMatrix type="matrix" values="0 0 0 0 1 0 0 0 0 1 0 0 0 0 1 0 0 0 0.32 0"/>
<feBlend mode="normal" in2="BackgroundImageFix" result="effect1_dropShadow_3671_4265"/>
<feBlend mode="normal" in="SourceGraphic" in2="effect1_dropShadow_3671_4265" result="shape"/>
<feColorMatrix in="SourceAlpha" type="matrix" values="0 0 0 0 0 0 0 0 0 0 0 0 0 0 0 0 0 0 127 0" result="hardAlpha"/>
<feOffset dx="-1" dy="2"/>
<feGaussianBlur stdDeviation="1"/>
<feComposite in2="hardAlpha" operator="arithmetic" k2="-1" k3="1"/>
<feColorMatrix type="matrix" values="0 0 0 0 0 0 0 0 0 0 0 0 0 0 0 0 0 0 0.16 0"/>
<feBlend mode="normal" in2="shape" result="effect2_innerShadow_3671_4265"/>
</filter>
</defs>
</svg>
