<svg width="24" height="24" viewBox="0 0 24 24" fill="none" xmlns="http://www.w3.org/2000/svg">
<g clip-path="url(#clip0_914_18364)">
<path d="M0.959961 8.41293C0.959961 6.69502 1.88434 5.0939 3.3729 4.23424L9.58747 0.645077C11.076 -0.214578 12.9248 -0.214578 14.4134 0.645077L20.6279 4.23284C22.1165 5.09249 23.0409 6.69362 23.0409 8.41152V15.5884C23.0409 17.3064 22.1165 18.9089 20.6279 19.7671L14.4134 23.3549C12.9248 24.2145 11.076 24.2145 9.58747 23.3549L3.3729 19.7671C1.88434 18.9089 0.959961 17.3078 0.959961 15.5884V8.41152V8.41293Z" fill="#388BAF"/>
<path d="M0.958984 8.41293C0.958984 6.69502 1.88336 5.0939 3.37193 4.23424L9.58649 0.645077C11.0751 -0.214578 12.9238 -0.214578 14.4124 0.645077L20.6269 4.23284L0.958984 15.5884V8.41293Z" fill="#D9D9D9" fill-opacity="0.3"/>
<g filter="url(#filter0_di_914_18364)">
<path d="M21.5077 16.0578V7.94219C21.5077 7.05601 21.0352 6.23665 20.2667 5.79435L13.2393 1.73733C12.4725 1.29504 11.5258 1.29504 10.759 1.73733L3.73157 5.79435C2.96471 6.23665 2.49219 7.05601 2.49219 7.94219V16.0578C2.49219 16.944 2.96471 17.7634 3.73157 18.2057L10.759 22.2627C11.5258 22.705 12.4725 22.705 13.2393 22.2627L20.2667 18.2057C21.0336 17.7634 21.5077 16.944 21.5077 16.0578Z" fill="#388BAF"/>
</g>
<g filter="url(#filter1_d_914_18364)">
<path d="M11.9033 14.9248L11.9989 15.0201L16.3726 12.4348L11.9989 5.17761L11.9033 5.50232V14.9248Z" fill="#FFFDFE"/>
<path d="M11.9988 15.0202V5.17761L7.625 12.4348L11.9988 15.0202Z" fill="#B0E7FF"/>
<path d="M11.9453 19.2704L11.9992 19.4276L16.3756 13.2643L11.9992 15.8483L11.9453 15.9139V19.2704Z" fill="#FFFDFF"/>
<path d="M7.625 13.2642L11.9988 19.4276V15.8482L7.625 13.2642Z" fill="#B0E7FF"/>
<path d="M11.999 10.4468V15.0202L16.3727 12.4348L11.999 10.4468Z" fill="#FFFDFF"/>
<path d="M11.9987 10.4468L7.625 12.4348L11.9987 15.0201V10.4468Z" fill="#C8F7F7"/>
</g>
</g>
<defs>
<filter id="filter0_di_914_18364" x="1.49219" y="1.40561" width="20.0156" height="23.1888" filterUnits="userSpaceOnUse" color-interpolation-filters="sRGB">
<feFlood flood-opacity="0" result="BackgroundImageFix"/>
<feColorMatrix in="SourceAlpha" type="matrix" values="0 0 0 0 0 0 0 0 0 0 0 0 0 0 0 0 0 0 127 0" result="hardAlpha"/>
<feOffset dx="-1" dy="1"/>
<feColorMatrix type="matrix" values="0 0 0 0 1 0 0 0 0 1 0 0 0 0 1 0 0 0 0.32 0"/>
<feBlend mode="normal" in2="BackgroundImageFix" result="effect1_dropShadow_914_18364"/>
<feBlend mode="normal" in="SourceGraphic" in2="effect1_dropShadow_914_18364" result="shape"/>
<feColorMatrix in="SourceAlpha" type="matrix" values="0 0 0 0 0 0 0 0 0 0 0 0 0 0 0 0 0 0 127 0" result="hardAlpha"/>
<feOffset dx="-1" dy="2"/>
<feGaussianBlur stdDeviation="1"/>
<feComposite in2="hardAlpha" operator="arithmetic" k2="-1" k3="1"/>
<feColorMatrix type="matrix" values="0 0 0 0 0 0 0 0 0 0 0 0 0 0 0 0 0 0 0.16 0"/>
<feBlend mode="normal" in2="shape" result="effect2_innerShadow_914_18364"/>
</filter>
<filter id="filter1_d_914_18364" x="6.375" y="5.17761" width="10.001" height="15.5" filterUnits="userSpaceOnUse" color-interpolation-filters="sRGB">
<feFlood flood-opacity="0" result="BackgroundImageFix"/>
<feColorMatrix in="SourceAlpha" type="matrix" values="0 0 0 0 0 0 0 0 0 0 0 0 0 0 0 0 0 0 127 0" result="hardAlpha"/>
<feOffset dx="-0.625" dy="0.625"/>
<feGaussianBlur stdDeviation="0.3125"/>
<feColorMatrix type="matrix" values="0 0 0 0 0 0 0 0 0 0 0 0 0 0 0 0 0 0 0.08 0"/>
<feBlend mode="normal" in2="BackgroundImageFix" result="effect1_dropShadow_914_18364"/>
<feBlend mode="normal" in="SourceGraphic" in2="effect1_dropShadow_914_18364" result="shape"/>
</filter>
<clipPath id="clip0_914_18364">
<rect width="24" height="24" fill="white"/>
</clipPath>
</defs>
</svg>
