<svg width="32" height="32" viewBox="0 0 32 32" fill="none" xmlns="http://www.w3.org/2000/svg">
<path d="M1.2793 11.2173C1.2793 8.92674 2.5118 6.79191 4.49656 5.6457L12.7826 0.860144C14.7674 -0.286064 17.2324 -0.286064 19.2172 0.860144L27.5032 5.64382C29.488 6.79003 30.7205 8.92486 30.7205 11.2154V20.7846C30.7205 23.0752 29.488 25.2119 27.5032 26.3562L19.2172 31.1399C17.2324 32.2861 14.7674 32.2861 12.7826 31.1399L4.49656 26.3562C2.5118 25.2119 1.2793 23.0771 1.2793 20.7846V11.2154V11.2173Z" fill="#2D2D2D"/>
<path d="M1.2793 11.2173C1.2793 8.92674 2.5118 6.79191 4.49656 5.6457L12.7826 0.860144C14.7674 -0.286063 17.2324 -0.286063 19.2172 0.860144L27.5032 5.64382L1.2793 20.7846V11.2173Z" fill="#D9D9D9" fill-opacity="0.3"/>
<g filter="url(#filter0_di_3671_4233)">
<path d="M28.6768 21.4103V10.5895C28.6768 9.40789 28.0467 8.31541 27.0221 7.72568L17.6523 2.31632C16.6298 1.72659 15.3676 1.72659 14.3451 2.31632L4.97526 7.72568C3.95279 8.31541 3.32275 9.40789 3.32275 10.5895V21.4103C3.32275 22.5919 3.95279 23.6844 4.97526 24.2741L14.3451 29.6835C15.3676 30.2732 16.6298 30.2732 17.6523 29.6835L27.0221 24.2741C28.0446 23.6844 28.6768 22.5919 28.6768 21.4103Z" fill="#2D2D2D"/>
</g>
<path d="M10.9123 19.675C10.9623 19.6199 11.0233 19.5759 11.0913 19.5458C11.1594 19.5156 11.2329 19.5 11.3073 19.5L23.4823 19.51C23.5213 19.5099 23.5598 19.5183 23.5951 19.5346C23.6305 19.5509 23.6618 19.5748 23.687 19.6045C23.7121 19.6343 23.7305 19.6691 23.7407 19.7067C23.751 19.7443 23.7529 19.7836 23.7463 19.822C23.7379 19.8733 23.7148 19.9211 23.6798 19.9595L21.0873 22.8245C21.0373 22.8797 20.9762 22.9238 20.9081 22.954C20.84 22.9842 20.7663 22.9999 20.6918 23L8.51683 22.99C8.46496 22.9898 8.41427 22.9746 8.37094 22.9461C8.32761 22.9176 8.29351 22.8771 8.27283 22.8295C8.25198 22.7819 8.24532 22.7293 8.25366 22.6781C8.262 22.6268 8.28497 22.579 8.31983 22.5405L10.9123 19.6755V19.675ZM23.6788 17.29C23.7138 17.3285 23.7369 17.3762 23.7453 17.4275C23.7537 17.4789 23.747 17.5315 23.7262 17.5791C23.7053 17.6267 23.671 17.6673 23.6276 17.6958C23.5841 17.7244 23.5333 17.7397 23.4813 17.74L11.3068 17.75C11.2324 17.75 11.1588 17.7345 11.0908 17.7043C11.0228 17.6742 10.9618 17.6301 10.9118 17.575L8.31933 14.708C8.29339 14.6792 8.27398 14.6451 8.26241 14.608C8.25083 14.571 8.24737 14.5319 8.25226 14.4935C8.25714 14.455 8.27026 14.418 8.29073 14.3851C8.31119 14.3521 8.33851 14.3239 8.37083 14.3025C8.4142 14.2739 8.46489 14.2585 8.51683 14.258L20.6918 14.248C20.7663 14.248 20.84 14.2636 20.9081 14.294C20.9761 14.3243 21.037 14.3686 21.0868 14.424L23.6788 17.29ZM10.9123 9.175C10.9623 9.11987 11.0233 9.07582 11.0913 9.04568C11.1593 9.01554 11.2329 8.99998 11.3073 9L23.4823 9.01C23.5212 9.00988 23.5596 9.01827 23.5949 9.03457C23.6302 9.05088 23.6615 9.0747 23.6866 9.10438C23.7117 9.13407 23.73 9.16888 23.7403 9.20639C23.7505 9.24389 23.7524 9.28318 23.7458 9.3215C23.7376 9.37275 23.7147 9.42051 23.6798 9.459L21.0873 12.324C21.0372 12.3791 20.9762 12.4231 20.908 12.4532C20.8399 12.4834 20.7663 12.499 20.6918 12.499L8.51683 12.489C8.47799 12.489 8.43962 12.4806 8.40439 12.4643C8.36916 12.4479 8.33792 12.4241 8.31287 12.3944C8.28782 12.3648 8.26956 12.33 8.25936 12.2925C8.24916 12.255 8.24727 12.2158 8.25383 12.1775C8.26216 12.1263 8.28507 12.0785 8.31983 12.04L10.9123 9.175Z" fill="url(#paint0_linear_3671_4233)"/>
<defs>
<filter id="filter0_di_3671_4233" x="2.32275" y="1.87402" width="26.354" height="30.252" filterUnits="userSpaceOnUse" color-interpolation-filters="sRGB">
<feFlood flood-opacity="0" result="BackgroundImageFix"/>
<feColorMatrix in="SourceAlpha" type="matrix" values="0 0 0 0 0 0 0 0 0 0 0 0 0 0 0 0 0 0 127 0" result="hardAlpha"/>
<feOffset dx="-1" dy="1"/>
<feColorMatrix type="matrix" values="0 0 0 0 1 0 0 0 0 1 0 0 0 0 1 0 0 0 0.32 0"/>
<feBlend mode="normal" in2="BackgroundImageFix" result="effect1_dropShadow_3671_4233"/>
<feBlend mode="normal" in="SourceGraphic" in2="effect1_dropShadow_3671_4233" result="shape"/>
<feColorMatrix in="SourceAlpha" type="matrix" values="0 0 0 0 0 0 0 0 0 0 0 0 0 0 0 0 0 0 127 0" result="hardAlpha"/>
<feOffset dx="-1" dy="2"/>
<feGaussianBlur stdDeviation="1"/>
<feComposite in2="hardAlpha" operator="arithmetic" k2="-1" k3="1"/>
<feColorMatrix type="matrix" values="0 0 0 0 0 0 0 0 0 0 0 0 0 0 0 0 0 0 0.16 0"/>
<feBlend mode="normal" in2="shape" result="effect2_innerShadow_3671_4233"/>
</filter>
<linearGradient id="paint0_linear_3671_4233" x1="8.72033" y1="23.305" x2="23.3303" y2="8.7475" gradientUnits="userSpaceOnUse">
<stop stop-color="#9945FF"/>
<stop offset="0.2" stop-color="#7962E7"/>
<stop offset="1" stop-color="#00D18C"/>
</linearGradient>
</defs>
</svg>
