<svg width="16" height="16" viewBox="0 0 16 16" fill="none" xmlns="http://www.w3.org/2000/svg">
<path d="M10.3877 2.03271C11.4378 2.22622 12.4441 2.54578 13.3867 2.97314C15.1283 5.55262 15.9906 8.44985 15.6885 11.7827C14.4186 12.7032 13.188 13.278 11.9727 13.6675C11.7519 13.3515 11.5479 13.023 11.3623 12.6821C11.7341 12.5307 12.0918 12.3569 12.4375 12.1548C12.6274 12.0439 12.6348 11.7799 12.4658 11.6538C12.385 11.5937 12.3038 11.5299 12.2266 11.4663L12.2236 11.4644L12.1523 11.4214C12.1016 11.4001 12.0451 11.3929 11.9893 11.4019L11.9102 11.4263C9.38955 12.5907 6.63097 12.5908 4.07812 11.4253L4.07617 11.4243C3.99952 11.3902 3.91166 11.3901 3.83496 11.4233L3.76367 11.4673C3.68711 11.5304 3.60578 11.5928 3.52441 11.6538C3.35134 11.7834 3.36917 12.0468 3.55371 12.1548L3.55566 12.1558C3.89995 12.3532 4.2574 12.53 4.62988 12.6831C4.4473 13.0238 4.24346 13.3519 4.01953 13.6675C2.80948 13.2779 1.57861 12.7033 0.308594 11.7827C0.0556717 8.89474 0.612297 5.9747 2.60645 2.97412C3.5505 2.54555 4.55781 2.22586 5.6084 2.03271C5.72725 2.25239 5.85393 2.50416 5.94141 2.71436L6.0166 2.89404L6.20996 2.86475C7.3892 2.68451 8.5875 2.68429 9.79297 2.86475L9.98438 2.89404L10.0605 2.71533C10.1494 2.50646 10.2717 2.25142 10.3877 2.03271ZM15.6826 11.8726L15.6816 11.8745C15.6818 11.8722 15.6823 11.8699 15.6826 11.8677C15.6825 11.8692 15.6828 11.8711 15.6826 11.8726ZM5.34668 6.60303C4.3806 6.60303 3.65918 7.46712 3.65918 8.46533C3.65924 9.46498 4.39457 10.3276 5.34668 10.3276C6.25229 10.3276 6.94343 9.56823 7.02637 8.65088L7.03418 8.46533C7.0467 7.47008 6.31627 6.60303 5.34668 6.60303ZM10.6631 6.60303C9.69704 6.60308 8.97559 7.46716 8.97559 8.46533C8.97565 9.46495 9.71103 10.3276 10.6631 10.3276C11.6361 10.3276 12.3515 9.46273 12.3516 8.46533H12.3506C12.3631 7.47008 11.6327 6.60303 10.6631 6.60303ZM13.5449 2.77002L13.5283 2.80713L13.5264 2.80811L13.5449 2.77002Z" fill="#A7B5CA" stroke="#A7B5CA" stroke-width="0.5"/>
</svg>
