<svg width="16" height="16" viewBox="0 0 16 16" fill="none" xmlns="http://www.w3.org/2000/svg">
<g clip-path="url(#clip0_3820_13960)">
<path d="M8 0.00585938C8.32631 0.0058596 8.6478 0.0274357 8.96387 0.0654297V3.0293C8.2372 3.13928 7.65187 3.37598 7.20312 3.75293C6.43019 4.40226 6.06157 5.45659 6.06152 6.94629V7.99414H4.41797V8H4.41211V10.4443H4.41797V10.4502H6.06152V15.7568C2.58321 14.8904 0.00586222 11.7465 0.00585938 8C0.00585938 3.58491 3.58491 0.00585938 8 0.00585938ZM11.7139 3.1543C11.669 3.14183 11.6159 3.12943 11.5566 3.11719C11.4225 3.08944 11.2553 3.0635 11.0762 3.04004C10.7019 2.99102 10.2729 2.95605 9.97266 2.95605C9.61151 2.95607 9.27701 2.98175 8.96777 3.02832V0.0654297C12.9264 0.54323 15.9941 3.91255 15.9941 8C15.9941 12.0851 12.9299 15.4537 8.97461 15.9346V10.4502H11.1338V10.4766L11.1387 10.4453L11.5879 8.00098L11.582 8L11.5508 7.99414H8.97461V7.13574C8.97461 6.49036 9.10164 6.04482 9.39062 5.76074C9.67968 5.47663 10.1327 5.35254 10.7881 5.35254C10.9539 5.35254 11.1067 5.35412 11.2422 5.35742C11.439 5.36222 11.5993 5.37012 11.7109 5.38184L11.7119 5.37598L11.7129 5.37109L11.7119 5.37012L11.7178 5.32129V3.16016H11.7334L11.7139 3.1543Z" fill="#A7B5CA" stroke="#A7B5CA" stroke-width="0.01152"/>
</g>
<defs>
<clipPath id="clip0_3820_13960">
<rect width="16" height="16" fill="white"/>
</clipPath>
</defs>
</svg>
