<svg width="16" height="16" viewBox="0 0 16 16" fill="none" xmlns="http://www.w3.org/2000/svg">
<path d="M7.98438 0.00683594C10.1566 0.00269106 10.4294 0.0110066 11.2822 0.0488281C12.1329 0.0855999 12.7143 0.219367 13.2227 0.416016C13.7486 0.618696 14.195 0.892083 14.6396 1.33496C15.0843 1.77835 15.3582 2.22284 15.5635 2.74805C15.762 3.25596 15.8981 3.8363 15.9385 4.6875C15.9789 5.54029 15.989 5.8124 15.9932 7.98438C15.9973 10.1565 15.9885 10.4295 15.9512 11.2832C15.9141 12.1333 15.7806 12.7146 15.584 13.2227C15.3808 13.7487 15.1079 14.1949 14.665 14.6396C14.2222 15.0846 13.7771 15.3579 13.252 15.5635C12.7441 15.7618 12.164 15.8988 11.3135 15.9395C10.4603 15.9799 10.1875 15.989 8.01465 15.9932C5.84317 15.9973 5.57079 15.9887 4.71777 15.9512C3.86691 15.9139 3.28547 15.7804 2.77734 15.584C2.25134 15.3805 1.80505 15.1082 1.36035 14.665C0.915469 14.2219 0.64152 13.7771 0.436523 13.252C0.237722 12.7443 0.102194 12.1638 0.0615234 11.3135C0.0208407 10.4601 0.0109802 10.1874 0.00683594 8.01562C0.0026761 5.84332 0.0115164 5.57089 0.0488281 4.71777C0.0863931 3.86658 0.219274 3.28504 0.416016 2.77637C0.619183 2.2508 0.89171 1.80519 1.33496 1.36035C1.77779 0.915709 2.22292 0.641269 2.74805 0.436523C3.25543 0.237711 3.83683 0.101674 4.6875 0.0615234C5.5403 0.0205986 5.81287 0.010981 7.98438 0.00683594ZM7.9873 1.43652C5.85172 1.44067 5.59871 1.44933 4.75488 1.48926C3.97479 1.52634 3.55113 1.65721 3.26855 1.76758C2.89459 1.91378 2.62788 2.08787 2.34766 2.36914C2.06803 2.65031 1.89488 2.91719 1.75 3.29199C1.64146 3.57453 1.51004 3.99944 1.47656 4.7793C1.43974 5.62339 1.43238 5.87709 1.43652 8.0127C1.44042 10.1486 1.44959 10.4018 1.48926 11.2451C1.52584 12.0256 1.65772 12.4496 1.76758 12.7324C1.91375 13.106 2.08852 13.3722 2.36914 13.6523C2.65039 13.9315 2.91755 14.1061 3.29199 14.251C3.57483 14.3598 3.99969 14.4895 4.78027 14.5234C5.624 14.56 5.87748 14.5676 8.0127 14.5635C10.1485 14.5596 10.4015 14.5504 11.2451 14.5107C12.0249 14.4736 12.4494 14.3425 12.7314 14.2324C13.1056 14.0862 13.3724 13.9111 13.6523 13.6309C13.9322 13.3496 14.1051 13.0822 14.25 12.708C14.3591 12.4249 14.4895 12.0003 14.5234 11.2197C14.5605 10.3764 14.5676 10.1231 14.5635 7.9873C14.5596 5.85181 14.5509 5.59861 14.5107 4.75488C14.4739 3.97482 14.3428 3.55037 14.2324 3.26855C14.0862 2.89389 13.9118 2.62784 13.6309 2.34766C13.3498 2.0674 13.0818 1.89491 12.707 1.75C12.4247 1.64069 12.0003 1.51153 11.2207 1.47754C10.3766 1.44047 10.1233 1.43237 7.9873 1.43652ZM7.99219 3.89746C10.2576 3.89324 12.0981 5.72745 12.1025 7.99219C12.1068 10.2577 10.273 12.0971 8.00781 12.1016C5.74275 12.106 3.90286 10.2734 3.89844 8.00781C3.89403 5.74271 5.72709 3.90186 7.99219 3.89746ZM7.99512 5.32812C6.51969 5.33073 5.32458 6.52919 5.32715 8.00488C5.33 9.48086 6.52945 10.6747 8.00488 10.6719C9.48071 10.669 10.6746 9.47093 10.6719 7.99512C10.669 6.51928 9.47062 5.32551 7.99512 5.32812ZM12.2598 2.76758C12.7865 2.76655 13.2146 3.19324 13.2158 3.71973C13.2166 4.24629 12.7905 4.67463 12.2637 4.67578C11.737 4.67681 11.3086 4.25027 11.3076 3.72363C11.3066 3.19703 11.7329 2.76865 12.2598 2.76758Z" fill="#A7B5CA" stroke="#A7B5CA" stroke-width="0.01152"/>
</svg>
