<svg width="16" height="16" viewBox="0 0 16 16" fill="none" xmlns="http://www.w3.org/2000/svg">
<path d="M14.5886 2.01172C14.6435 2.01075 14.7333 2.01721 14.8289 2.04004C14.9244 2.06286 15.0253 2.1021 15.1042 2.16602C15.2372 2.2739 15.2748 2.42008 15.2927 2.52441C15.3106 2.62884 15.3329 2.86798 15.3152 3.05371C15.112 5.18874 14.2323 10.3699 13.7849 12.7617C13.5958 13.7726 13.2251 14.1043 12.8728 14.1367C12.4842 14.1725 12.1414 14.044 11.8005 13.8438C11.6303 13.7437 11.4606 13.626 11.2859 13.502C11.1111 13.3778 10.9311 13.2467 10.741 13.1221C10.147 12.7327 9.68195 12.4171 9.22144 12.1035C8.76077 11.7898 8.30427 11.4779 7.72729 11.0977C7.39467 10.8785 7.2004 10.6853 7.10718 10.5068C7.01447 10.3293 7.02075 10.1655 7.09155 10.0039C7.16281 9.84145 7.29959 9.68064 7.46655 9.51074C7.54981 9.42603 7.64049 9.33937 7.73413 9.24902C7.82786 9.15859 7.92514 9.06461 8.02026 8.96582C8.11944 8.86281 9.0319 8.02538 9.92944 7.17773C10.378 6.7541 10.8233 6.32836 11.1599 5.99023C11.3282 5.82122 11.4696 5.67344 11.571 5.55957C11.6216 5.50279 11.6629 5.45409 11.6921 5.41504C11.7067 5.39558 11.7185 5.37804 11.7273 5.36328C11.7359 5.34885 11.7414 5.33583 11.7439 5.3252C11.7484 5.3058 11.7529 5.26174 11.7458 5.21387C11.7387 5.16607 11.7199 5.11188 11.6775 5.07422C11.6352 5.03679 11.5831 5.02481 11.532 5.02441C11.4809 5.02403 11.4294 5.0354 11.3875 5.04492C11.3782 5.04707 11.3625 5.05438 11.3416 5.06543C11.3199 5.07685 11.2909 5.09334 11.2556 5.11426C11.185 5.1561 11.0866 5.21689 10.9607 5.29688C10.7083 5.4572 10.3446 5.69403 9.86987 6.00781C9.39512 6.32161 8.80928 6.71238 8.11206 7.17969L5.68726 8.81152C5.14937 9.18088 4.66318 9.35996 4.22925 9.35059C3.98968 9.3454 3.63861 9.27742 3.2605 9.18262C2.88252 9.08784 2.47814 8.9665 2.13354 8.85449C1.70973 8.71673 1.33163 8.61199 1.06616 8.4834C0.933843 8.4193 0.830801 8.34994 0.764404 8.26855C0.698449 8.18749 0.668235 8.09373 0.682373 7.98047C0.697002 7.86378 0.785342 7.74284 0.951904 7.61914C1.11812 7.49579 1.36054 7.37097 1.67944 7.24414V7.24316C5.61623 5.52796 8.24185 4.39793 9.55542 3.85156C11.4307 3.07158 12.563 2.61337 13.2898 2.34961C14.0165 2.0859 14.3369 2.01621 14.5886 2.01172Z" fill="#A7B5CA" stroke="#A7B5CA" stroke-width="0.024"/>
</svg>
