<svg width="16" height="16" viewBox="0 0 16 16" fill="none" xmlns="http://www.w3.org/2000/svg">
<g clip-path="url(#clip0_3820_13969)">
<path d="M8.07153 2.61377C8.10821 2.61385 8.16247 2.61442 8.23169 2.61475C8.37037 2.6154 8.57026 2.61603 8.81372 2.61865C9.30088 2.6239 9.96336 2.63481 10.6643 2.65576C11.3658 2.67673 12.1049 2.70845 12.7444 2.75537C13.3905 2.80279 13.9147 2.86486 14.2014 2.94189V2.94092C14.4987 3.02202 14.7693 3.18036 14.9866 3.39893C15.1768 3.5904 15.3206 3.82283 15.4065 4.07764L15.4397 4.18799C15.5994 4.78792 15.683 5.73349 15.7249 6.54639C15.7456 6.94874 15.7558 7.31246 15.761 7.57568C15.7636 7.70725 15.7642 7.81392 15.7649 7.88721C15.7652 7.92368 15.7658 7.95206 15.7659 7.97119V8.02881C15.7658 8.04791 15.7652 8.07623 15.7649 8.11279C15.7642 8.18608 15.7636 8.29269 15.761 8.42432C15.7558 8.68767 15.7456 9.05191 15.7249 9.45459C15.683 10.2674 15.5994 11.2121 15.4397 11.812C15.3605 12.1101 15.204 12.3823 14.9866 12.6011C14.7965 12.7923 14.5657 12.9374 14.3118 13.0249L14.2014 13.0591C13.9146 13.1361 13.3904 13.1982 12.7444 13.2456C12.1049 13.2925 11.3658 13.3233 10.6643 13.3442C9.96336 13.3652 9.30088 13.3761 8.81372 13.3813C8.57026 13.384 8.37037 13.3856 8.23169 13.3862H7.80005C7.66137 13.3856 7.46148 13.384 7.21802 13.3813C6.73086 13.3761 6.06838 13.3652 5.36743 13.3442C4.66592 13.3233 3.92689 13.2925 3.28735 13.2456C2.80281 13.21 2.38683 13.1659 2.08813 13.1138L1.83032 13.0591C1.53297 12.978 1.26244 12.8197 1.04517 12.6011C0.827781 12.3823 0.671253 12.1101 0.592041 11.812C0.43233 11.2121 0.348748 10.2674 0.306885 9.45459C0.286148 9.05191 0.275942 8.68767 0.270752 8.42432C0.268158 8.29269 0.267492 8.18608 0.266846 8.11279C0.266524 8.07623 0.265949 8.04791 0.265869 8.02881V7.97119C0.26595 7.95206 0.266524 7.92368 0.266846 7.88721C0.267492 7.81392 0.268159 7.70725 0.270752 7.57568C0.275942 7.31246 0.286171 6.94874 0.306885 6.54639C0.343515 5.83508 0.41191 5.02213 0.5354 4.42822L0.592041 4.18799C0.671253 3.88992 0.827781 3.61771 1.04517 3.39893C1.26244 3.18036 1.533 3.02202 1.83032 2.94092V2.94189C2.11704 2.86486 2.64122 2.80279 3.28735 2.75537C3.92689 2.70845 4.66592 2.67673 5.36743 2.65576C6.06838 2.63481 6.73086 2.6239 7.21802 2.61865C7.46148 2.61603 7.66137 2.6154 7.80005 2.61475C7.86927 2.61442 7.92352 2.61385 7.96021 2.61377H8.07153ZM6.12915 10.8091L6.50317 10.5962L10.6848 8.21729L11.0667 8.00049L10.6848 7.78271L6.50317 5.40381L6.12915 5.19092V10.8091Z" fill="#A7B5CA" stroke="#A7B5CA" stroke-width="0.5"/>
</g>
<defs>
<clipPath id="clip0_3820_13969">
<rect width="16" height="16" fill="white"/>
</clipPath>
</defs>
</svg>
