<svg width="81" height="80" viewBox="0 0 81 80" fill="none" xmlns="http://www.w3.org/2000/svg">
<path d="M12.7744 19.6107C12.7744 19.6107 9.29536 22.5938 8.36632 24.643C7.43729 26.6922 7.05986 30.5608 6.73325 31.0132C6.40664 31.4656 4.14694 32.1189 4.07194 32.5205C3.99694 32.9221 4.97678 40.2818 5.12679 40.381C5.27679 40.4826 6.68486 41.0367 6.70905 41.1359C6.73325 41.2351 10.9865 60.7981 10.9865 60.7981L12.7744 19.6107Z" fill="#FFF38A"/>
<path d="M70.2426 63.307C70.2426 62.7747 73.0563 45.1907 73.6103 44.7891C74.1619 44.3899 76.8765 44.298 76.9757 43.6641C77.0773 43.0326 77.8805 36.3504 76.9757 35.8979C76.0708 35.4455 73.0587 35.5181 72.9063 35.0052C72.7563 34.4923 71.4184 24.2148 67.0393 21.8946C62.6603 19.5744 57.6231 20.0124 57.6304 20.3704C57.6376 20.7285 70.2426 63.307 70.2426 63.307Z" fill="#9380FF"/>
<path d="M45.009 62.2907C44.5977 62.2423 16.9153 57.273 15.9572 56.6318C15.2338 56.1552 13.85 47.3245 13.204 42.6793C12.9911 41.1479 12.8604 40.0688 12.8604 39.8995L15.1371 40.3204L45.009 45.8753C45.009 45.8753 45.0138 46.1269 45.0259 46.5648C45.0429 47.2592 45.0695 48.4302 45.0961 49.8261C45.188 54.6915 45.2872 62.3198 45.009 62.2907Z" fill="url(#paint0_linear_1022_4685)"/>
<path style="mix-blend-mode:multiply" d="M15.8123 46.6108C15.8123 46.6108 15.989 52.9108 18.7858 54.9189C21.5825 56.927 35.3221 59.4479 38.6972 59.1746C42.0722 58.9012 43.2891 56.8641 43.2915 56.956C43.294 57.0479 45.2028 62.0972 42.4061 62.702C39.6093 63.3068 16.4753 60.1471 15.0164 56.5907C13.5575 53.0342 15.8123 46.6108 15.8123 46.6108Z" fill="url(#paint1_linear_1022_4685)"/>
<path d="M68.7613 60.0528L54.8088 62.702C54.8088 62.702 54.0926 55.1294 53.6378 50.1551C53.4999 48.6842 53.3862 47.4358 53.3208 46.6858C53.2821 46.2382 53.2604 45.9624 53.2604 45.9188C53.2604 45.9188 63.3999 44.4309 67.0556 43.8333C67.8322 43.7075 68.3185 43.6204 68.3524 43.5914C68.4129 43.5914 68.4782 45.3745 68.5387 47.7672C68.6645 52.6423 68.7637 60.0528 68.7637 60.0528H68.7613Z" fill="url(#paint2_linear_1022_4685)"/>
<path style="mix-blend-mode:multiply" d="M54.8615 59.0294C54.9365 59.0754 56.9276 59.881 61.0091 59.1504C65.0906 58.4197 66.0075 56.6125 66.3245 55.0762C66.6414 53.5399 67.4229 59.3028 67.4229 59.3028C67.4229 59.3028 54.1937 61.6133 54.3437 61.4004C54.4962 61.1875 54.8615 59.0294 54.8615 59.0294Z" fill="url(#paint3_linear_1022_4685)"/>
<path d="M53.1546 41.9221C53.1546 41.5882 53.6555 26.4018 60.9523 27.0405C68.2491 27.6793 68.2031 39.3987 68.2031 39.3987L53.1546 41.9221Z" fill="url(#paint4_linear_1022_4685)"/>
<path style="mix-blend-mode:multiply" d="M56.2202 33.2196C56.2202 33.2196 58.9928 31.122 62.075 31.4873C65.1573 31.8526 65.7041 33.2196 65.7041 33.2196L63.2581 28.8575C63.2581 28.8575 56.8129 28.1728 56.571 28.4147C56.3266 28.6591 55.2936 32.472 55.354 32.5034C55.4145 32.5349 56.2202 33.2172 56.2202 33.2172V33.2196Z" fill="url(#paint5_linear_1022_4685)"/>
<path style="mix-blend-mode:multiply" d="M54.8904 38.0002C55.0283 38.0607 60.4695 38.668 63.4622 37.6809C66.4574 36.6938 65.1219 33.1252 65.1219 33.1252C65.1219 33.1252 67.0332 34.4897 67.0332 34.7631C67.0332 35.0365 66.1042 39.2753 66.1042 39.2753C66.1042 39.2753 54.2033 40.1293 54.2033 40.0833C54.2033 40.0374 54.888 38.0002 54.888 38.0002H54.8904Z" fill="url(#paint6_linear_1022_4685)"/>
<path d="M59.4342 21.4494C59.4947 21.7494 51.4068 24.7325 49.0987 29.9583C46.7906 35.189 43.447 42.6648 43.447 42.6648L12.2251 33.8486C12.2251 33.8486 15.7211 20.1695 20.8259 17.4937C25.9357 14.8227 32.3325 16.2792 32.3325 16.2792C32.3325 16.2792 46.96 18.9115 54.7237 20.4211C57.5133 20.9679 59.4197 21.3671 59.4342 21.4494Z" fill="url(#paint7_linear_1022_4685)"/>
<g style="mix-blend-mode:multiply" opacity="0.2">
<path d="M41.656 37.7341C44.073 36.2269 42.8004 30.7397 39.9697 28.6518C37.1391 26.5639 24.9261 23.0728 21.8946 24.0453C18.8632 25.0179 16.2599 31.2914 16.7752 32.3317C17.2906 33.3696 39.9286 38.8132 41.6585 37.7341H41.656Z" fill="#9264CF"/>
</g>
<g style="mix-blend-mode:soft-light">
<path d="M54.7197 20.4211L54.6326 20.8857C54.6326 20.8857 47.9794 20.2784 40.8422 18.8994C33.7123 17.5203 32.3285 16.2792 32.3285 16.2792C32.3285 16.2792 46.956 18.9115 54.7197 20.4211Z" fill="#FFB87D"/>
</g>
<path style="mix-blend-mode:multiply" d="M22.3571 19.8163C22.3571 19.8163 18.3386 23.5542 17.8208 27.8413C17.3031 32.1284 22.5337 35.1671 33.2346 36.597C43.9355 38.0268 45 36.2922 45 36.2922C45 36.2922 44.879 39.6672 44.6952 39.6672C44.5113 39.6672 33.8419 39.2414 33.8419 39.2414C33.8419 39.2414 12.774 34.7413 12.774 34.5599C12.774 34.3784 16.3305 22.4292 16.3305 22.4292L22.3547 19.8163H22.3571Z" fill="url(#paint8_linear_1022_4685)"/>
<path d="M72.3584 45.7447C71.7778 51.4859 70.2415 63.6263 70.1689 63.7593C69.8084 64.4537 50.9301 69.3021 49.972 69.3021C49.0139 69.3021 11.0928 62.3972 10.9887 61.8335L8.41209 43.9011L7.71774 39.0697C7.71774 39.0697 11.0831 39.5342 13.2774 39.8898C13.9186 39.989 14.4605 40.0858 14.7871 40.1584C14.9831 40.1971 15.1041 40.2285 15.121 40.2503C15.1258 40.2551 15.1331 40.2842 15.1379 40.3205C15.1863 40.6108 15.2976 41.76 15.45 43.3036C15.4549 43.3084 15.4549 43.3157 15.4549 43.3157C15.8879 47.5012 16.6742 54.5778 17.6009 55.2601C19.2364 56.4649 41.8695 61.0593 42.9026 60.1956C43.4179 59.7698 43.3357 56.4044 43.1542 53.0754C43.1494 53.0488 43.1494 53.0318 43.1494 53.0318C43.0937 51.9915 43.0236 50.9633 42.9631 50.0221C42.9292 49.5576 42.8978 49.1197 42.8712 48.7084C42.7671 47.1818 42.7018 46.1318 42.772 46.1318C42.8639 46.1318 43.8341 46.3229 45.0268 46.5649C46.8389 46.9326 49.1639 47.4141 49.672 47.4891C49.7204 47.4939 49.7494 47.5012 49.7639 47.5012C49.8293 47.5012 51.2204 47.0802 53.3204 46.6858C53.9495 46.5649 54.6438 46.4512 55.389 46.3471C55.4446 46.3423 55.4374 48.1737 55.4325 50.5109C55.4277 53.148 55.4156 56.4214 55.4761 58.3956V58.4609C55.5099 59.4238 55.5583 60.0649 55.6358 60.152C55.9696 60.5343 65.5406 58.4222 66.0003 58.1923C66.1915 58.1004 66.5858 51.2052 66.8108 47.0124C66.9028 45.1737 66.9705 43.8552 66.9705 43.8552C66.9971 43.8431 67.031 43.8382 67.0576 43.8334C67.5124 43.7028 67.9431 43.5915 68.3447 43.4947C71.0084 42.8318 72.4552 42.7882 72.5471 42.8052C72.6246 42.8173 72.535 43.9761 72.3609 45.7447H72.3584Z" fill="url(#paint9_linear_1022_4685)"/>
<g style="mix-blend-mode:multiply" opacity="0.2">
<path d="M15.6337 56.852C14.7289 56.8206 16.0886 62.269 17.9757 62.9077C19.8604 63.5464 37.9476 67.0424 39.5903 66.5561C41.2331 66.0698 42.9653 62.6803 42.4186 62.2932C41.8718 61.9061 16.3958 56.8786 15.6362 56.8544L15.6337 56.852Z" fill="#B52666"/>
</g>
<g style="mix-blend-mode:multiply" opacity="0.6">
<path d="M72.3066 46.1923C71.6994 52.0907 70.2381 63.6262 70.1679 63.7569C69.8074 64.4512 50.9291 69.2997 49.971 69.2997C49.9589 69.0964 49.867 66.5682 49.7847 63.2149C49.6468 58.1101 49.521 51.1012 49.671 47.489C49.7194 47.4939 49.7484 47.5011 49.763 47.5011C49.8501 47.5011 52.1751 46.7898 55.388 46.3471C55.5017 46.3302 55.3614 54.6697 55.4751 58.3956V58.4609C55.509 59.4238 55.5574 60.0649 55.6348 60.152C55.9686 60.5343 65.5397 58.4222 65.9993 58.1923C66.2727 58.0544 66.9671 43.8551 66.9671 43.8551C67.4534 43.7172 67.9131 43.5987 68.3413 43.4947C71.005 42.8318 72.4518 42.7882 72.5437 42.8051C72.626 42.8172 72.5171 44.1721 72.3091 46.1923H72.3066Z" fill="#962C63"/>
</g>
<g style="mix-blend-mode:multiply" opacity="0.4">
<path d="M50.1284 50.0899C49.2308 50.4552 50.1502 64.8867 51.2002 66.3456C52.2478 67.8045 55.4196 68.1021 55.4534 67.144C55.4873 66.1859 55.1897 51.7544 54.7107 51.2076C54.2317 50.6608 50.7429 49.8407 50.1284 50.0899Z" fill="#B52666"/>
</g>
<g style="mix-blend-mode:multiply" opacity="0.2">
<path d="M72.3086 46.1922C71.7013 52.0907 70.24 63.6262 70.1699 63.7568C69.8094 64.4512 50.931 69.2996 49.973 69.2996C49.9609 69.0964 49.8689 66.5682 49.7867 63.2149L50.4206 59.3899C50.2778 60.3649 49.4577 66.4206 51.444 67.652C53.5996 68.9875 67.7384 64.7294 69.2287 63.3359C70.7166 61.9351 72.265 46.4003 72.3086 46.1922Z" fill="#5B51CF"/>
</g>
<path d="M49.84 65.344C49.84 65.344 49.7747 59.6004 49.3634 59.0826C48.9521 58.5649 47.9335 57.4713 48.2843 55.935C48.6351 54.3987 49.2424 53.3657 49.4093 52.56C49.5763 51.7544 49.6077 50.5544 49.6077 50.5544C49.6077 50.5544 49.5763 53.1987 50.0335 53.8374C50.4884 54.4761 51.1876 55.5552 50.9771 56.6657C50.7642 57.7762 49.7867 61.7705 49.8424 65.344H49.84Z" fill="#FFC917"/>
<g style="mix-blend-mode:multiply" opacity="0.2">
<path d="M67.6181 58.8891C67.6181 58.8891 67.606 58.906 67.5963 58.9157C67.5963 58.9157 67.5915 58.9205 67.5915 58.9157C66.9141 59.5931 56.2979 61.3834 55.7995 61.2697C55.3277 61.1608 55.4777 58.9012 55.4777 58.4633C55.5116 59.4262 55.56 60.0673 55.6374 60.1544C55.9712 60.5367 65.5423 58.4245 66.002 58.1947C66.2753 58.0568 66.9697 43.8575 66.9697 43.8575C67.456 43.7196 67.9157 43.6011 68.3439 43.497C68.5568 43.497 68.7116 43.5309 68.7649 43.5962C69.1689 44.0438 68.0536 58.2286 67.6205 58.8915L67.6181 58.8891Z" fill="#6E173E"/>
</g>
<g style="mix-blend-mode:multiply" opacity="0.6">
<path d="M67.6205 58.8891C67.6205 58.8891 67.6084 58.906 67.5987 58.9157C67.5987 58.9157 67.5939 58.9205 67.5939 58.9157C66.8221 58.8383 66.002 58.1923 66.002 58.1923C66.2753 58.0544 66.9697 43.8551 66.9697 43.8551C67.456 43.7172 67.9157 43.5986 68.3439 43.4946C68.5568 43.4946 68.7116 43.5285 68.7649 43.5938C69.1689 44.0414 68.0536 58.2262 67.6205 58.8891Z" fill="#962C63"/>
</g>
<g style="mix-blend-mode:multiply" opacity="0.6">
<path d="M43.3343 61.7609C43.3173 61.773 43.3004 61.7827 43.2738 61.7948C41.677 62.3198 16.7793 57.3359 15.6736 56.2568C14.6623 55.277 13.5059 42.5172 13.276 39.8898C13.2712 39.7688 13.2591 39.6769 13.2543 39.5995C13.2422 39.4785 13.2373 39.418 13.2373 39.418L14.7857 40.1559L15.1365 40.3205C15.318 41.4043 16.3341 54.3238 17.5994 55.2601C19.2349 56.4649 41.8681 61.0593 42.9012 60.1956C43.4165 59.7698 43.3343 56.4044 43.1528 53.0754C43.2351 53.7262 44.1157 61.0641 43.3343 61.7585V61.7609Z" fill="#B52666"/>
</g>
<g style="mix-blend-mode:multiply" opacity="0.2">
<path d="M17.6006 55.2601C17.3006 55.6157 15.8998 56.1576 15.6748 56.2568C14.6635 55.277 13.507 42.5172 13.2772 39.8898C13.2723 39.7688 13.2602 39.6769 13.2554 39.5995C13.2433 39.4785 13.2385 39.418 13.2385 39.418L14.7869 40.1559L15.1377 40.3205C15.3191 41.4043 16.3353 54.3238 17.6006 55.2601Z" fill="#B52666"/>
</g>
<g style="mix-blend-mode:multiply" opacity="0.5">
<path d="M13.3595 40.8285C13.2676 41.789 14.2111 47.9003 15.0773 49.5406C15.9434 51.181 16.3232 51.6237 16.3232 50.9535C16.3232 50.2834 15.1982 40.7704 15.0627 40.5865C14.9248 40.4051 13.3619 40.8261 13.3619 40.8261L13.3595 40.8285Z" fill="#B85F87"/>
</g>
<g style="mix-blend-mode:multiply" opacity="0.8">
<path d="M72.3569 45.7447C70.644 45.8705 68.7618 47.9439 68.7618 47.9439C68.7618 47.9439 68.6916 47.8737 68.5368 47.7697C68.2513 47.5665 67.6876 47.2447 66.8069 47.0149C65.9359 46.7898 64.7601 46.6544 63.2335 46.8237C59.3093 47.2616 55.4528 49.3834 55.4528 49.3834L55.431 50.5108C55.431 50.5108 54.9762 50.3415 53.6359 50.1552C52.7988 50.0342 51.606 49.9133 49.9633 49.8262C47.9649 49.7173 46.2979 49.756 45.0931 49.8262C43.7963 49.9036 43.0294 50.0124 42.9592 50.0221H42.9544L42.8673 48.7084L42.8624 48.66C42.8624 48.66 40.0608 47.4479 29.0236 45.0044C16.6752 42.2705 15.4582 43.3471 15.4582 43.3471C15.4582 43.3471 15.4582 43.335 15.4534 43.3132C15.4534 43.3132 15.4534 43.3084 15.4485 43.3011C15.4002 43.1269 15.0977 42.5076 13.3631 42.66C13.3147 42.6648 13.259 42.6721 13.2034 42.6769C11.8292 42.8366 9.68561 43.4874 8.41061 43.8963L7.71625 39.0648C7.71625 39.0648 11.0816 39.5293 13.276 39.885C13.9171 39.9842 14.459 40.0809 14.7856 40.1535C14.9816 40.1922 15.1026 40.2237 15.1195 40.2455C15.1243 40.2503 15.1316 40.2793 15.1364 40.3156L45.0084 45.8705C45.0084 45.8705 45.0132 46.1221 45.0253 46.56C46.8374 46.9278 49.1625 47.4092 49.6705 47.4842C49.7189 47.489 49.7479 47.4963 49.7625 47.4963C49.8278 47.4963 51.2189 47.0753 53.3189 46.681C53.2802 46.2334 53.2584 45.9576 53.2584 45.914C53.2584 45.914 63.398 44.4261 67.0537 43.8285C67.5085 43.6979 67.9392 43.5866 68.3408 43.4898C71.0045 42.8269 72.4513 42.7834 72.5432 42.8003C72.6207 42.8124 72.5311 43.9713 72.3569 45.7398V45.7447Z" fill="#B52666"/>
</g>
<path d="M75.0493 43.2285C74.8678 43.4148 52.1645 48.5753 50.0257 48.6624H49.9217C49.1765 48.597 35.6837 45.6914 23.8651 43.1196C23.1272 42.9599 22.3869 42.8026 21.6659 42.643C13.2441 40.8091 6.19645 39.2607 6.09725 39.222C5.85048 39.1349 4.85612 33.1373 4.85612 32.8639C4.85612 32.5905 8.46098 31.1679 8.55049 31.134C8.55049 31.134 8.21178 32.0703 8.21178 32.1405C8.21178 32.2058 48.4967 39.8462 48.804 39.8994C48.9782 39.9333 56.7322 38.876 63.2234 37.9833C67.9291 37.3373 71.967 36.7736 71.967 36.7736V35.9534C71.967 35.9534 75.5065 36.447 75.6323 36.5728C75.7533 36.6937 75.2331 43.047 75.0517 43.226L75.0493 43.2285Z" fill="url(#paint10_linear_1022_4685)"/>
<g style="mix-blend-mode:screen">
<path d="M75.6309 36.5728C74.0994 37.8599 52.0735 42.3938 49.6057 42.4397C47.1331 42.4881 4.85706 32.8639 4.85706 32.8639C4.85706 32.5905 8.46192 31.1679 8.55144 31.134C8.55144 31.134 8.21272 32.0703 8.21272 32.1405C8.21272 32.2058 48.4976 39.8462 48.8049 39.8994C48.9791 39.9333 56.7332 38.876 63.2243 37.9833C64.1171 37.8623 64.9808 37.7413 65.801 37.6276C66.2002 37.572 66.5897 37.5187 66.9598 37.4679C67.1848 37.4341 67.4026 37.4075 67.6155 37.376C68.6558 37.2333 69.5582 37.1075 70.2695 37.0083C70.4123 36.9865 70.5478 36.9696 70.6687 36.9526C71.3099 36.8655 71.7405 36.805 71.9002 36.7833C71.9437 36.7784 71.9655 36.7712 71.9655 36.7712V35.951C71.9655 35.951 75.5051 36.4445 75.6309 36.5704V36.5728Z" fill="#FF6B1C"/>
</g>
<path d="M72.1239 37.7269C72.1239 37.7269 67.4739 38.7285 67.1545 38.7285C66.8352 38.7285 65.4198 37.9083 65.4198 37.9083C65.4198 37.9083 66.4699 29.6075 61.0916 29.5639C55.7061 29.5204 55.8004 40.3712 55.2972 40.5527C54.9246 40.6906 52.0915 41.3898 50.4657 41.7357C49.919 41.8446 49.5077 41.922 49.3722 41.922C48.8254 41.922 43.6262 40.9204 42.9415 40.3736C42.8617 40.3083 42.5012 36.9067 43.3189 32.8663C43.3334 32.7865 43.3455 32.726 43.3528 32.697V32.6849C44.4633 27.3986 47.6206 21.101 56.0472 19.7872C58.2367 19.4485 64.3311 20.8493 66.4118 22.451C72.4046 27.0308 72.1239 37.7293 72.1239 37.7293V37.7269Z" fill="url(#paint11_linear_1022_4685)"/>
<g style="mix-blend-mode:multiply" opacity="0.6">
<path d="M72.1239 37.7268C72.1239 37.7268 67.4739 38.7284 67.1545 38.7284C66.8352 38.7284 65.4198 37.9083 65.4198 37.9083C65.4198 37.9083 66.4699 29.6074 61.0916 29.5639C59.6134 29.5518 58.5537 30.3574 57.7746 31.5381C57.7746 31.5381 57.7746 31.5429 57.7698 31.5429C55.7133 34.6736 55.6625 40.4196 55.2972 40.5502C54.9246 40.6881 52.0915 41.3873 50.4657 41.7333C50.127 41.8035 49.8367 41.8591 49.6335 41.893C49.5512 41.9051 49.4859 41.9147 49.4375 41.9147C49.4109 41.9196 49.3891 41.9196 49.3722 41.9196C49.3722 41.9196 49.1593 39.551 49.4593 36.43C49.481 36.2486 49.4931 36.1083 49.5028 36.0091C49.5077 35.9607 49.5149 35.905 49.5198 35.8566C50.1173 30.5655 52.2173 23.5009 59.069 21.984C62.1876 21.2945 64.5803 21.6162 66.4118 22.4485C72.4046 27.0284 72.1239 37.7268 72.1239 37.7268Z" fill="#962C63"/>
</g>
<path d="M32.3314 16.2768C32.3314 16.2768 23.7305 15.5752 18.778 24.1663C16.6321 27.8825 15.9498 30.5148 15.7417 32.0341C15.6038 33.0745 15.6934 33.5995 15.6934 33.5995C15.6934 33.5995 15.0909 34.0543 14.1837 34.4922C13.8885 34.6398 8.09411 33.3043 7.77475 33.0648C7.63685 32.9559 7.24975 28.1994 10.1869 23.1115C10.199 23.0776 10.2086 23.0631 10.2086 23.0631C10.8425 21.9792 11.6215 20.8857 12.5893 19.8139C18.1055 13.7026 26.445 14.0461 27.4902 14.0897C28.5184 14.1381 31.6588 14.6873 31.966 14.8663C31.9781 14.8711 31.983 14.8711 31.983 14.8711C32.5733 15.3913 32.3338 16.2768 32.3338 16.2768H32.3314Z" fill="url(#paint12_linear_1022_4685)"/>
<g style="mix-blend-mode:multiply" opacity="0.6">
<path d="M32.3314 16.2768C32.3314 16.2768 26.1257 15.7735 21.224 20.8832C20.3531 21.7905 19.5232 22.8744 18.778 24.1663C16.6321 27.8825 15.9498 30.5147 15.7417 32.0341C15.7369 32.068 15.7369 32.0946 15.7296 32.126C15.7175 32.247 15.703 32.3607 15.6958 32.4648C15.6256 33.2196 15.6909 33.597 15.6909 33.597C15.6909 33.597 15.0885 34.0519 14.1812 34.4898C14.1812 34.4898 14.1546 32.7672 14.5635 30.3744C14.5683 30.3526 14.5756 30.326 14.5804 30.2922V30.2873C14.6893 29.6535 14.8321 28.9736 15.0135 28.2744V28.2623C15.0135 28.2454 15.0183 28.2284 15.0256 28.2139C15.8458 24.9962 17.4716 21.2582 20.6893 18.8026C26.8902 14.0703 31.6491 14.8034 31.966 14.8638C31.9781 14.8687 31.983 14.8687 31.983 14.8687C32.5733 15.3889 32.3338 16.2743 32.3338 16.2743L32.3314 16.2768Z" fill="#B52666"/>
</g>
<g style="mix-blend-mode:multiply" opacity="0.6">
<path d="M67.1519 38.7285C66.8349 38.7285 65.4172 37.9083 65.4172 37.9083C65.4172 37.9083 66.0148 33.2026 64.0115 30.8607C63.9994 30.8438 63.9946 30.8341 63.9849 30.8268C63.3293 30.0768 62.3978 29.5736 61.0914 29.5639C59.647 29.5518 58.6018 30.3236 57.8301 31.4631C57.8083 31.4849 57.7913 31.5115 57.7744 31.5405C57.7913 31.5139 57.8083 31.4849 57.8228 31.4583C58.8026 29.8325 60.0825 29.0776 61.3623 28.8986C61.6841 28.855 62.0035 28.8429 62.3204 28.872C62.4244 28.8768 62.5236 28.8889 62.6277 28.8986C62.7317 28.9107 62.8357 28.9252 62.9349 28.9542C63.0051 28.9663 63.0777 28.976 63.143 28.9929C63.8882 29.1744 64.5825 29.518 65.1559 29.9559L65.1607 29.9607C65.4462 30.1784 65.7027 30.4204 65.9204 30.6768C67.6551 32.7188 67.1519 38.7309 67.1519 38.7309V38.7285Z" fill="#962C63"/>
</g>
<path d="M15.941 56.414C15.941 56.414 18.8297 58.0834 26.1265 59.4818C33.4233 60.8802 37.2266 61.1028 37.2266 61.1028C37.2266 61.1028 25.6402 58.5697 15.941 56.414Z" fill="#FFF65F"/>
<path d="M49.6543 54.1302C48.5584 54.0165 48.5003 59.0439 49.7608 58.2625C51.0213 57.481 50.9003 54.2608 49.6543 54.1302Z" fill="#6B0722"/>
<g style="mix-blend-mode:multiply" opacity="0.5">
<path d="M48.8243 56.6076C48.6816 56.3391 48.7469 54.0866 49.7897 54.1592C50.8324 54.2318 50.9243 56.8229 50.3848 56.7842C49.8453 56.7431 49.809 55.5044 49.4993 55.7681C49.1897 56.0342 49.0082 56.9488 48.8267 56.61L48.8243 56.6076Z" fill="#4F04C7"/>
</g>
<g style="mix-blend-mode:multiply" opacity="0.6">
<path d="M75.0478 43.2285C74.8663 43.4148 52.163 48.5753 50.0243 48.6624C49.8549 48.0285 49.6033 42.4398 49.6033 42.4398C52.071 42.3963 74.097 37.8599 75.6284 36.5728C75.7494 36.6938 75.2292 43.0471 75.0478 43.2261V43.2285Z" fill="#962C63"/>
</g>
<g style="mix-blend-mode:color-dodge" opacity="0.5">
<path d="M51.0419 27.6623C50.6983 28.2381 46.6217 26.8542 46.8927 25.6784C47.1636 24.5026 50.3596 21.3889 53.8919 20.5711C57.4266 19.7534 60.7097 21.026 60.2306 21.2316C59.7516 21.4373 54.1435 22.4631 51.0419 27.6623Z" fill="#B83014"/>
</g>
<g style="mix-blend-mode:color-dodge" opacity="0.5">
<path d="M17.1532 21.6042C16.5048 22.451 12.9121 21.3308 13.2024 19.8719C13.4927 18.4131 17.3516 15.9211 21.0145 15.0235C24.6775 14.1259 28.0815 14.6751 27.5807 14.963C27.0799 15.2509 19.6016 18.4131 17.1532 21.6042Z" fill="#B83014"/>
</g>
<g style="mix-blend-mode:multiply" opacity="0.5">
<path d="M64.012 30.8607C63.9999 30.8438 63.9951 30.8341 63.9854 30.8268C63.3297 30.0768 62.3983 29.5736 61.0918 29.5639C59.6474 29.5518 58.6023 30.3236 57.8305 31.4631C57.8305 31.4631 57.8257 31.4631 57.8257 31.4583C58.8055 29.8325 60.0854 29.0776 61.3652 28.8986C61.6821 28.8599 62.0063 28.8502 62.3233 28.872C62.4273 28.8768 62.5265 28.8889 62.6305 28.8986C62.7346 28.9107 62.8386 28.9252 62.9378 28.9542C63.0079 28.9663 63.0805 28.976 63.1459 28.9929C63.9733 29.1671 64.6338 29.501 65.1588 29.9558L65.1636 29.9607C66.0999 30.7591 66.591 31.9252 66.7338 33.2051C66.9757 35.3123 64.5951 31.4534 64.0144 30.8631L64.012 30.8607Z" fill="#B85F87"/>
</g>
<g style="mix-blend-mode:multiply" opacity="0.2">
<path d="M43.3343 61.7609C43.3173 61.773 43.3004 61.7827 43.2738 61.7948C43.0052 61.3738 42.923 60.2633 42.9012 60.198C43.4165 59.7722 43.3343 56.4068 43.1528 53.0778C43.2351 53.7286 44.1157 61.0665 43.3343 61.7609Z" fill="#B52666"/>
</g>
<g style="mix-blend-mode:multiply" opacity="0.5">
<path d="M18.7747 24.1687C15.1699 30.4228 15.6876 33.6019 15.6876 33.6019C15.6876 33.6019 15.0852 34.0567 14.1779 34.4946C14.0134 34.047 14.1392 32.3607 14.5602 30.3793C14.565 30.3575 14.5723 30.3309 14.5771 30.297C15.1795 27.5172 16.4715 24.3333 18.0634 22.8502C19.8417 21.1929 20.5796 21.0599 21.2207 20.8857C20.3497 21.7929 19.5199 22.8768 18.7747 24.1687Z" fill="#B85F87"/>
</g>
<path d="M48.8209 56.852C48.8209 56.852 49.0507 58.2673 49.6701 57.948C50.287 57.6286 50.4806 57.0746 50.4975 57.1496C50.5145 57.2246 50.1225 58.5165 49.5419 58.3738C48.9612 58.231 48.7628 56.9052 48.8209 56.852Z" fill="#F1FF36"/>
<g style="mix-blend-mode:multiply" opacity="0.4">
<path d="M50.2025 41.2882C49.0461 40.0567 49.4501 32.1454 51.959 27.972C54.4679 23.7986 60.5308 21.9066 60.2816 24.3695C60.03 26.8324 57.9106 28.3833 55.1525 39.5075C54.6445 41.5543 50.413 41.5059 50.2049 41.2858L50.2025 41.2882Z" fill="#B52666"/>
</g>
<g style="mix-blend-mode:multiply" opacity="0.2">
<path d="M50.3878 42.6672C49.737 42.8051 49.362 47.8882 51.5515 47.9777C53.741 48.0696 72.0024 43.7632 73.1202 42.8051C74.2379 41.847 75.5153 37.8793 75.0121 37.6954C74.5113 37.5139 50.9176 42.5559 50.3878 42.6672Z" fill="#B52666"/>
</g>
<g style="mix-blend-mode:color-dodge" opacity="0.5">
<path d="M15.7372 33.6091C15.1058 33.6333 14.9461 35.3268 22.4873 36.6938C30.026 38.0607 33.447 37.5309 32.4889 37.0736C31.5309 36.6164 16.134 33.5946 15.7372 33.6091Z" fill="#B83014"/>
</g>
<g style="mix-blend-mode:multiply" opacity="0.2">
<path d="M14.5592 30.3792C14.1479 32.7696 14.177 34.4946 14.177 34.4946C13.8818 34.6422 8.08743 33.3067 7.76807 33.0671C7.63017 32.9583 7.2479 28.2357 10.1536 23.1695C9.70598 24.0671 6.61403 30.5631 8.8084 32.3728C11.1624 34.3155 13.4705 33.6309 14.0342 32.1163C14.2375 31.5696 14.4165 30.9187 14.5762 30.2994C14.5713 30.3333 14.5641 30.3599 14.5592 30.3816V30.3792Z" fill="#B52666"/>
</g>
<g style="mix-blend-mode:multiply" opacity="0.2">
<path d="M43.3486 32.6946C43.3365 32.7527 43.3269 32.8083 43.3148 32.864C43.3293 32.7841 43.3414 32.7236 43.3486 32.6946Z" fill="#B52666"/>
</g>
<g style="mix-blend-mode:multiply" opacity="0.2">
<path d="M49.369 41.9197C48.8222 41.9197 43.623 40.918 42.9383 40.3713C42.856 40.3059 42.5125 37.0446 43.2673 33.1204C43.0036 34.6301 42.3141 39.4906 44.2302 40.2237C46.4947 41.0874 48.723 41.0124 49.052 39.1906C49.2601 38.0535 49.3859 37.035 49.4561 36.4325C49.1561 39.5511 49.369 41.9221 49.369 41.9221V41.9197Z" fill="#B52666"/>
</g>
<g style="mix-blend-mode:multiply" opacity="0.2">
<path d="M6.1428 33.6091C5.09279 33.6551 6.35571 38.3632 7.99604 39.1882C9.63637 40.0132 36.876 46.3011 40.614 46.0277C44.3543 45.7543 47.1511 43.318 46.6019 42.8027C46.0551 42.2874 9.23959 33.4736 6.14038 33.6091H6.1428Z" fill="#B52666"/>
</g>
<path d="M15.1143 35.2156C14.9595 35.2108 18.3539 36.3866 20.6813 36.9188C23.0063 37.4511 30.9104 38.7721 30.516 38.5447C30.1217 38.3172 15.5837 35.2277 15.1167 35.2132L15.1143 35.2156Z" fill="#FFF65F"/>
<path d="M17.2539 22.7147C17.2539 22.7147 19.0249 19.1607 22.0419 17.4115C25.0588 15.6647 27.0137 15.4276 27.0137 15.4276C27.0137 15.4276 22.2015 16.5599 17.2539 22.7147Z" fill="#FFF65F"/>
<path d="M55.0707 23.8083C55.1384 23.7478 53.8513 24.2752 52.6513 25.7534C51.4513 27.2317 51.0013 29.5228 51.0013 29.5228C51.0013 29.5228 52.3513 26.2252 55.0707 23.8083Z" fill="#FFF65F"/>
<g style="mix-blend-mode:color-dodge" opacity="0.5">
<path d="M25.6978 15.0598C27.3937 14.3606 18.6308 15.2655 17.7864 16.7244C16.9421 18.1832 17.9751 20.4671 18.6526 19.6324C19.8719 18.1276 24.0115 15.7566 25.6978 15.0623V15.0598Z" fill="#B83014"/>
</g>
<g style="mix-blend-mode:color-dodge" opacity="0.5">
<path d="M49.7014 22.8308C49.37 23.305 52.4256 24.3091 53.6353 24.0478C54.845 23.7865 56.1878 21.0284 54.8329 20.8566C53.4757 20.6848 50.5458 21.6211 49.7039 22.8284L49.7014 22.8308Z" fill="#B83014"/>
</g>
<g style="mix-blend-mode:multiply" opacity="0.2">
<path d="M55.8714 39.2051C56.6456 38.7502 64.7578 37.9059 65.1473 37.9978C65.5368 38.0897 66.6981 38.6341 66.4054 38.9559C66.1102 39.2776 57.1537 41.0994 56.3529 40.9397C55.5521 40.7801 55.8714 39.2075 55.8714 39.2075V39.2051Z" fill="#B52666"/>
</g>
<g style="mix-blend-mode:multiply" opacity="0.2">
<path d="M23.8662 43.1173C23.1283 42.9576 22.388 42.8003 21.667 42.6407C21.4976 41.4963 21.471 37.1753 21.4759 37.0858C21.4759 37.0858 23.3533 41.6487 23.8662 43.1149V43.1173Z" fill="#B52666"/>
</g>
<g style="mix-blend-mode:multiply" opacity="0.2">
<path d="M22.8329 44.6899C22.8329 44.6899 23.2563 46.0399 23.791 46.2141C24.3256 46.3883 30.6765 47.3246 31.3708 47.3802C32.0652 47.4383 34.8644 45.4762 34.7773 45.481C34.6878 45.4859 33.8362 45.2778 33.8362 45.2778L33.5386 39.0673L22.8305 44.6875L22.8329 44.6899Z" fill="#B52666"/>
</g>
<path d="M33.2968 45.4326C32.6073 45.8972 31.2113 46.5214 30.7734 46.5262H30.7686C29.9919 46.5262 22.8113 45.2512 22.5814 44.7867C22.4338 44.4794 20.9072 35.1237 21.0717 34.4874C21.1274 34.2793 23.4403 33.2729 24.1516 33.2681C24.7201 33.2632 30.3403 34.3906 32.6049 34.9592C33.142 35.0971 33.4855 35.2011 33.5339 35.2495C33.7855 35.5181 33.6549 45.1931 33.292 45.4326H33.2968Z" fill="url(#paint13_linear_1022_4685)"/>
<g style="mix-blend-mode:screen">
<path d="M33.541 35.2495C33.541 35.2495 31.3297 36.3431 30.8821 36.4471C30.8773 36.4519 30.87 36.4519 30.87 36.4519C30.4442 36.5439 21.5337 34.8092 21.074 34.4874C21.1296 34.2793 23.4426 33.2729 24.1539 33.2681C24.7224 33.2632 30.3426 34.3906 32.6071 34.9592C32.8152 35.0148 32.9967 35.0632 33.1442 35.1019C33.1829 35.1189 33.2217 35.1285 33.2531 35.1406C33.4128 35.1842 33.5096 35.2277 33.5386 35.2495H33.541Z" fill="#FF6B1C"/>
</g>
<g style="mix-blend-mode:multiply" opacity="0.2">
<path d="M33.2998 45.4327C32.6103 45.8972 31.2143 46.5214 30.7764 46.5262H30.7715C30.624 46.3617 30.7933 36.7036 30.8707 36.452C30.8707 36.452 30.8756 36.452 30.8828 36.4471C31.3304 36.3431 33.5417 35.2495 33.5417 35.2495C33.7933 35.5181 33.6627 45.1931 33.2998 45.4327Z" fill="#B52666"/>
</g>
<g style="mix-blend-mode:multiply" opacity="0.2">
<path d="M33.3151 36.0963C32.4006 35.6705 31.8417 38.5133 31.278 41.9028C30.7143 45.2923 30.5788 46.0472 31.1256 46.1948C31.6723 46.3423 33.0562 45.7181 33.3151 44.6851C33.574 43.652 33.9683 36.4012 33.3151 36.0963Z" fill="#B52666"/>
</g>
<path d="M29.7785 36.3237C29.5995 36.3479 30.6858 37.0229 30.8672 36.96C31.0487 36.8971 31.9511 36.0576 31.7382 36.0552C31.5277 36.0552 29.96 36.2995 29.7761 36.3237H29.7785Z" fill="white"/>
<path d="M28.009 43.7971C27.9824 43.9181 27.4671 43.9399 26.826 43.8963H26.8139C25.6985 43.8092 24.1985 43.5141 24.2082 43.1802C24.2203 42.8294 24.663 41.6584 25.0671 40.6568C23.8961 39.8028 24.2397 37.5769 26.33 37.7463C26.4292 37.7584 26.526 37.7729 26.6155 37.8068C27.7816 38.1745 28.2945 40.0931 27.109 40.756C27.4477 41.7092 28.0671 43.5407 28.0066 43.7996L28.009 43.7971Z" fill="#6B0722"/>
<path d="M26.8135 43.8939C25.6981 43.8068 24.1981 43.5116 24.2078 43.1778C24.2199 42.827 24.6627 41.656 25.0667 40.6544C23.8957 39.8003 24.2393 37.5745 26.3296 37.7439C26.4288 37.756 26.5256 37.7705 26.6151 37.8043C26.6151 37.8043 25.2312 37.756 25.1151 39.0673C25.0014 40.381 25.8143 40.5237 25.8046 40.5987C25.7998 40.6761 25.0014 42.9358 25.0449 43.2358C25.0885 43.4995 26.4288 43.8092 26.8135 43.8915V43.8939Z" fill="#8F092B"/>
<g style="mix-blend-mode:color-dodge" opacity="0.5">
<path d="M24.0253 33.3697C23.6793 33.3794 23.7277 34.9277 25.6584 35.2398C27.589 35.5519 29.1229 35.1552 28.6294 34.6858C28.1358 34.214 24.935 33.3479 24.0229 33.3721L24.0253 33.3697Z" fill="#B83014"/>
</g>
<path d="M24.3557 43.3641C24.3557 43.3641 24.7791 43.7439 25.8775 43.8964C26.9759 44.0464 27.7041 43.9181 27.7041 43.9181C27.7041 43.9181 25.7686 43.9956 24.3557 43.3665V43.3641Z" fill="white"/>
<g style="mix-blend-mode:multiply" opacity="0.5">
<path d="M25.1234 40.6278C25.317 40.7101 25.75 40.6327 25.7549 40.594C25.7597 40.5552 24.9516 39.7399 24.7557 39.7617C24.5597 39.7835 24.596 40.4052 25.1258 40.6278H25.1234Z" fill="#B85F87"/>
</g>
<g style="mix-blend-mode:color-dodge" opacity="0.5">
<path d="M21.3317 34.8624C20.9397 35.0439 21.9244 40.4487 22.9962 40.5431C24.068 40.6374 24.0583 37.5479 26.0301 37.5576C28.0019 37.5697 28.1422 40.4221 28.8874 40.8141C29.6325 41.206 30.4454 41.3874 30.5301 40.9544C30.6148 40.5213 30.7382 37.289 30.1842 36.8923C29.6325 36.4955 21.6631 34.7076 21.3341 34.86L21.3317 34.8624Z" fill="#B83014"/>
</g>
<g style="mix-blend-mode:multiply" opacity="0.2">
<path d="M22.8295 44.7891C22.6699 44.6512 23.6497 43.8988 24.2424 43.8456C24.8352 43.7923 27.465 44.1044 28.0505 44.2859C28.636 44.4673 30.2691 46.0859 30.0562 46.202C29.8433 46.3182 23.3618 45.2512 22.8295 44.7891Z" fill="#B52666"/>
</g>
<path d="M67.3753 60.1061C68.9164 60.1278 69.4342 63.6263 67.143 63.844C64.8519 64.0617 63.9228 60.0553 67.3753 60.1061Z" fill="url(#paint14_radial_1022_4685)"/>
<g style="mix-blend-mode:multiply" opacity="0.2">
<path d="M68.1515 60.469C68.1515 60.469 70.5661 60.8875 69.487 62.898C68.4104 64.911 66.3249 64.6835 65.6596 63.9432C64.9943 63.2029 65.1201 62.1505 65.1201 62.1505C65.1201 62.1505 65.4975 63.3916 67.0798 63.0021C68.4612 62.6634 68.6209 61.7658 68.1515 60.469Z" fill="#B52666"/>
</g>
<g style="mix-blend-mode:screen" opacity="0.5">
<path d="M66.823 60.4691C67.7907 60.5513 67.7085 62.0973 66.6657 62.1795C65.623 62.2618 65.473 60.3529 66.823 60.4691Z" fill="#545770"/>
</g>
<g style="mix-blend-mode:screen" opacity="0.5">
<path d="M65.8186 60.9988C66.4863 61.1247 66.617 61.7464 65.9323 61.9158C65.2476 62.0851 65.3226 60.9045 65.8186 60.9988Z" fill="#545770"/>
</g>
<path d="M45.2981 62.944C46.8393 62.9657 47.357 66.4641 45.0659 66.6819C42.7747 66.8996 41.8457 62.8932 45.2981 62.944Z" fill="url(#paint15_radial_1022_4685)"/>
<g style="mix-blend-mode:multiply" opacity="0.2">
<path d="M46.0734 63.3069C46.0734 63.3069 48.4879 63.7255 47.4089 65.7359C46.3323 67.7489 44.2468 67.5214 43.5815 66.7811C42.9161 66.0408 43.042 64.9884 43.042 64.9884C43.042 64.9884 43.4194 66.2295 45.0016 65.84C46.3831 65.5013 46.5428 64.6037 46.0734 63.3069Z" fill="#B52666"/>
</g>
<g style="mix-blend-mode:screen" opacity="0.5">
<path d="M44.7449 63.3069C45.7126 63.3892 45.6304 64.9351 44.5876 65.0174C43.5449 65.0997 43.3949 63.1908 44.7449 63.3069Z" fill="#545770"/>
</g>
<g style="mix-blend-mode:screen" opacity="0.5">
<path d="M43.7414 63.8368C44.4092 63.9626 44.5398 64.5843 43.8552 64.7537C43.1705 64.923 43.2455 63.7424 43.7414 63.8368Z" fill="#545770"/>
</g>
<path d="M13.9388 57.2609C15.4799 57.2827 15.9976 60.7811 13.7065 60.9988C11.4154 61.2166 10.4863 57.2101 13.9388 57.2609Z" fill="url(#paint16_radial_1022_4685)"/>
<g style="mix-blend-mode:multiply" opacity="0.2">
<path d="M14.715 57.6262C14.715 57.6262 17.1296 58.0448 16.0505 60.0553C14.9739 62.0682 12.8884 61.8408 12.2231 61.1004C11.5577 60.3601 11.6836 59.3077 11.6836 59.3077C11.6836 59.3077 12.061 60.5488 13.6432 60.1593C15.0247 59.8206 15.1844 58.923 14.715 57.6262Z" fill="#B52666"/>
</g>
<g style="mix-blend-mode:screen" opacity="0.5">
<path d="M13.1355 57.8197C14.1032 57.902 14.021 59.448 12.9782 59.5302C11.9355 59.6125 11.7855 57.7036 13.1355 57.8197Z" fill="#545770"/>
</g>
<g style="mix-blend-mode:screen" opacity="0.5">
<path d="M12.676 58.2553C13.3438 58.3811 13.4744 59.0029 12.7897 59.1722C12.105 59.3416 12.18 58.1609 12.676 58.2553Z" fill="#545770"/>
</g>
<path d="M45.8304 32.639C47.3715 32.6608 47.8892 36.1592 45.5981 36.377C43.307 36.5947 42.3779 32.5882 45.8304 32.639Z" fill="url(#paint17_radial_1022_4685)"/>
<g style="mix-blend-mode:multiply" opacity="0.2">
<path d="M46.6027 33.0043C46.6027 33.0043 49.0172 33.4229 47.9382 35.4334C46.8616 37.4463 44.7761 37.2189 44.1108 36.4785C43.4454 35.7382 43.5712 34.6858 43.5712 34.6858C43.5712 34.6858 43.9487 35.9269 45.5309 35.5374C46.9124 35.1987 47.0721 34.3011 46.6027 33.0043Z" fill="#B52666"/>
</g>
<g style="mix-blend-mode:screen" opacity="0.5">
<path d="M45.0271 33.1978C45.9948 33.2801 45.9126 34.8261 44.8698 34.9083C43.8271 34.9906 43.6771 33.0817 45.0271 33.1978Z" fill="#545770"/>
</g>
<g style="mix-blend-mode:screen" opacity="0.5">
<path d="M44.5637 33.6334C45.2315 33.7592 45.3621 34.381 44.6774 34.5503C43.9927 34.7197 44.0677 33.539 44.5637 33.6334Z" fill="#545770"/>
</g>
<path d="M16.6787 17.6244C18.111 18.1978 17.3392 21.6502 15.123 21.0309C12.9045 20.4139 13.473 16.3397 16.6787 17.6244Z" fill="url(#paint18_radial_1022_4685)"/>
<g style="mix-blend-mode:multiply" opacity="0.2">
<path d="M17.271 18.2414C17.271 18.2414 19.3734 19.497 17.6484 20.9898C15.921 22.4825 14.0556 21.5244 13.7 20.593C13.3443 19.664 13.8379 18.7252 13.8379 18.7252C13.8379 18.7252 13.746 20.0196 15.3621 20.2228C16.7726 20.4019 17.2444 19.6204 17.271 18.2414Z" fill="#B52666"/>
</g>
<g style="mix-blend-mode:screen" opacity="0.5">
<path d="M15.7307 17.8566C16.6041 18.28 15.9727 19.6954 14.971 19.3978C13.9694 19.1002 14.5114 17.2663 15.7307 17.8566Z" fill="#545770"/>
</g>
<g style="mix-blend-mode:screen" opacity="0.5">
<path d="M15.1441 18.0986C15.7223 18.4566 15.6207 19.0808 14.9215 18.9937C14.2223 18.9066 14.7159 17.8324 15.1441 18.0986Z" fill="#545770"/>
</g>
<path d="M57.7395 62.5763C59.2807 62.598 59.7984 66.0964 57.5073 66.3142C55.2161 66.5319 54.2871 62.5254 57.7395 62.5763Z" fill="url(#paint19_radial_1022_4685)"/>
<g style="mix-blend-mode:multiply" opacity="0.2">
<path d="M58.2937 62.7529C58.2937 62.7529 60.6792 62.494 60.3768 64.5698C60.0744 66.6456 57.4881 67.6763 56.426 67.1223C55.3639 66.5706 55.4703 64.519 55.4703 64.519C55.4703 64.519 55.9155 66.0263 57.28 65.54C58.6445 65.0537 58.9905 63.6698 58.2937 62.7504V62.7529Z" fill="#B52666"/>
</g>
<g style="mix-blend-mode:screen" opacity="0.5">
<path d="M56.6246 63.1472C57.5754 63.2101 57.8221 64.923 56.7673 64.8142C55.7125 64.7053 55.7463 63.0892 56.6246 63.1472Z" fill="#545770"/>
</g>
<g style="mix-blend-mode:screen" opacity="0.5">
<path d="M56.3247 63.7835C56.8352 63.7835 56.3755 64.7198 56.2328 64.4488C56.0901 64.1779 55.807 63.7835 56.3247 63.7835Z" fill="#545770"/>
</g>
<path d="M27.6731 60.2271C29.2143 60.2488 29.732 63.7473 27.4409 63.965C25.1497 64.1827 24.2207 60.1763 27.6731 60.2271Z" fill="url(#paint20_radial_1022_4685)"/>
<g style="mix-blend-mode:multiply" opacity="0.2">
<path d="M28.2273 60.4036C28.2273 60.4036 30.6128 60.1448 30.3104 62.2206C30.008 64.2964 27.4217 65.3271 26.3596 64.773C25.2975 64.2214 25.4039 62.1698 25.4039 62.1698C25.4039 62.1698 25.8491 63.677 27.2136 63.1908C28.5781 62.7045 28.9217 61.3206 28.2273 60.4012V60.4036Z" fill="#B52666"/>
</g>
<g style="mix-blend-mode:screen" opacity="0.5">
<path d="M26.5591 60.7981C27.5099 60.861 27.7567 62.5739 26.7019 62.465C25.647 62.3561 25.6809 60.74 26.5591 60.7981Z" fill="#545770"/>
</g>
<g style="mix-blend-mode:screen" opacity="0.5">
<path d="M26.2632 61.4343C26.7737 61.4343 26.314 62.3706 26.1713 62.0997C26.0285 61.8287 25.7455 61.4343 26.2632 61.4343Z" fill="#545770"/>
</g>
<path d="M11.4729 25.0446C13.0141 25.0663 13.5318 28.5647 11.2407 28.7825C8.94954 29.0002 8.0205 24.9938 11.4729 25.0446Z" fill="url(#paint21_radial_1022_4685)"/>
<g style="mix-blend-mode:multiply" opacity="0.2">
<path d="M12.0223 25.2211C12.0223 25.2211 14.4078 24.9622 14.1053 27.0381C13.8029 29.1139 11.2166 30.1445 10.1545 29.5905C9.0924 29.0389 9.19885 26.9873 9.19885 26.9873C9.19885 26.9873 9.64402 28.4945 11.0085 28.0082C12.3731 27.5219 12.719 26.1381 12.0223 25.2187V25.2211Z" fill="#B52666"/>
</g>
<g style="mix-blend-mode:screen" opacity="0.5">
<path d="M10.358 25.6155C11.3088 25.6784 11.5555 27.3913 10.5007 27.2825C9.44586 27.1736 9.47973 25.5575 10.358 25.6155Z" fill="#545770"/>
</g>
<g style="mix-blend-mode:screen" opacity="0.5">
<path d="M10.0542 26.2518C10.5647 26.2518 10.105 27.1881 9.96229 26.9171C9.81955 26.6462 9.53649 26.2518 10.0542 26.2518Z" fill="#545770"/>
</g>
<path d="M49.8341 24.2873C50.8405 24.6695 50.7341 28.0155 48.2034 27.7663C45.6727 27.5171 46.7276 23.1018 49.8341 24.2873Z" fill="url(#paint22_radial_1022_4685)"/>
<path d="M59.7571 20.518C59.8877 20.0389 58.4942 18.8365 57.2918 18.6817C55.6659 18.4688 54.0135 20.9389 55.1095 21.3212C56.2055 21.7034 59.5829 21.1567 59.7571 20.518Z" fill="url(#paint23_radial_1022_4685)"/>
<path d="M28.1155 14.3316C28.2461 13.8526 26.8526 12.6502 25.6501 12.4953C24.0243 12.2824 22.3719 14.7526 23.4679 15.1349C24.5639 15.5171 27.9413 14.9704 28.1155 14.3316Z" fill="url(#paint24_radial_1022_4685)"/>
<g style="mix-blend-mode:multiply" opacity="0.2">
<path d="M58.7546 19.2792C58.7546 19.2792 59.9425 20.2809 58.2345 20.8857C56.5264 21.4881 54.8764 21.0188 54.8352 20.6922C54.7941 20.3655 55.0288 20.0099 55.0288 20.0099C55.0288 20.0099 54.0901 21.2026 54.8304 21.5196C55.5731 21.8365 61.324 21.9551 60.678 20.9994C60.0345 20.0462 58.7546 19.2768 58.7546 19.2768V19.2792Z" fill="#B52666"/>
</g>
<g style="mix-blend-mode:multiply" opacity="0.2">
<path d="M49.4624 24.1688C49.4624 24.1688 51.1028 23.5906 51.2407 25.272C51.3786 26.9559 50.1108 29.2519 48.6786 28.9132C47.2463 28.5745 46.9294 26.8979 46.9294 26.8979C46.9294 26.8979 48.1778 27.8898 49.1552 26.6632C50.135 25.4366 49.4624 24.1688 49.4624 24.1688Z" fill="#B52666"/>
</g>
<g style="mix-blend-mode:multiply" opacity="0.2">
<path d="M27.3575 13.2695C27.3164 13.1727 29.4575 14.0582 28.8212 14.6025C28.1849 15.1469 26.2252 15.7251 24.9285 15.7154C23.6317 15.7058 22.9857 15.338 22.9857 14.9945C22.9857 14.6509 23.1744 14.2783 23.1744 14.2783C23.1744 14.2783 23.0534 14.7598 23.6728 14.9025C24.2922 15.0453 27.9865 14.6896 27.3575 13.267V13.2695Z" fill="#B52666"/>
</g>
<g style="mix-blend-mode:screen" opacity="0.5">
<path d="M56.8265 18.8099C57.4991 18.9648 57.3854 20.5688 56.2798 20.2736C55.1741 19.9785 55.9532 18.6091 56.8265 18.8099Z" fill="#545770"/>
</g>
<g style="mix-blend-mode:screen" opacity="0.5">
<path d="M56.2792 19.1534C56.584 19.2163 56.5671 19.8502 56.1413 19.8308C55.7155 19.8115 55.5316 18.9962 56.2792 19.1534Z" fill="#545770"/>
</g>
<g style="mix-blend-mode:screen" opacity="0.5">
<path d="M47.5727 24.9648C48.7195 25.0712 48.5259 26.5712 47.6888 26.6486C46.8517 26.7236 46.8445 24.8994 47.5727 24.9648Z" fill="#545770"/>
</g>
<g style="mix-blend-mode:screen" opacity="0.5">
<path d="M47.5702 25.4994C47.7565 25.5139 47.8871 26.0196 47.546 26.0607C47.2024 26.1018 47.0016 25.4583 47.5702 25.4994Z" fill="#545770"/>
</g>
<g style="mix-blend-mode:screen" opacity="0.5">
<path d="M25.2552 12.58C25.7802 12.6308 25.7076 14.2494 24.6576 14.2179C23.61 14.1865 24.2995 12.4857 25.2552 12.58Z" fill="#545770"/>
</g>
<g style="mix-blend-mode:screen" opacity="0.5">
<path d="M24.5956 12.9695C25.0165 12.7905 25.4181 13.4655 24.8085 13.6155C24.1988 13.7655 24.1794 13.1437 24.5956 12.9695Z" fill="#545770"/>
</g>
<g style="mix-blend-mode:overlay" opacity="0.5">
<path d="M51.0042 20.0026C52.2816 20.4889 44.9316 23.8664 41.0146 24.0889C37.0977 24.3115 21.5 21.7059 22.671 20.3075C23.8419 18.9066 29.2468 17.1042 32.6775 16.976C36.1106 16.8478 49.0372 19.2526 51.0042 20.0026Z" fill="#FF8AD2"/>
</g>
<g style="mix-blend-mode:soft-light" opacity="0.5">
<path d="M43.2394 18.8922C44.0813 19.3591 39.8644 20.7357 37.1765 20.0656C34.4885 19.393 33.5861 17.6196 34.7595 17.3341C35.9329 17.0486 42.2087 18.3212 43.2394 18.8922Z" fill="#F7FFC9"/>
</g>
<path d="M32.1234 16.6905C33.2122 16.8115 32.8807 18.3066 32.0509 18.0502C31.221 17.7937 30.4492 16.5066 32.1234 16.6905Z" fill="white"/>
<g style="mix-blend-mode:multiply" opacity="0.6">
<path d="M66.3821 46.0375C67.9184 46.577 65.9709 54.9746 64.1394 57.0916C62.3079 59.2085 56.6466 59.0077 56.0466 58.0641C55.4466 57.1206 55.6208 48.7109 56.291 48.2246C56.9611 47.7383 65.937 45.8802 66.3821 46.0375Z" fill="#BA64CF"/>
</g>
<g style="mix-blend-mode:multiply" opacity="0.6">
<path d="M64.7834 36.1543C65.5213 34.5406 65.1971 30.2487 61.5076 29.8204C57.8181 29.3922 56.6447 34.6834 56.8019 35.3414C56.9592 35.9995 64.5584 36.6455 64.781 36.1568L64.7834 36.1543Z" fill="#BA64CF"/>
</g>
<g style="mix-blend-mode:multiply" opacity="0.2">
<path d="M42.1998 48.931C43.1651 50.3391 42.1417 57.3674 38.3675 58.1972C34.5933 59.0271 21.9231 56.3658 19.9198 53.5932C17.9166 50.8206 16.8013 46.7294 17.6021 46.1294C18.4029 45.5294 41.1401 47.3875 42.1974 48.9335L42.1998 48.931Z" fill="#9264CF"/>
</g>
<g style="mix-blend-mode:overlay" opacity="0.1">
<path d="M34.29 48.5802C35.0521 49.0544 29.594 53.8932 23.2335 52.577C16.873 51.2609 16.1012 45.723 17.473 45.5318C18.8448 45.3407 33.061 47.8157 34.29 48.5802Z" fill="#FF8AD2"/>
</g>
<path style="mix-blend-mode:color-dodge" d="M54.6486 20.6627C54.4251 19.7187 55.0092 18.7723 55.9531 18.5488C56.8971 18.3253 57.8435 18.9093 58.067 19.8533C58.2905 20.7973 57.7064 21.7437 56.7625 21.9672C55.8185 22.1907 54.8721 21.6066 54.6486 20.6627Z" fill="url(#paint25_radial_1022_4685)"/>
<path style="mix-blend-mode:color-dodge" d="M43.2914 34.8933C43.0693 33.949 43.6547 33.0034 44.5989 32.7813C45.5432 32.5591 46.4888 33.1445 46.711 34.0888C46.9332 35.033 46.3478 35.9786 45.4035 36.2008C44.4592 36.423 43.5136 35.8376 43.2914 34.8933Z" fill="url(#paint26_radial_1022_4685)"/>
<path style="mix-blend-mode:color-dodge" d="M14.3321 20.2605C13.5086 19.7479 13.2565 18.6647 13.7691 17.8412C14.2818 17.0176 15.3649 16.7655 16.1885 17.2782C17.0121 17.7908 17.2641 18.874 16.7515 19.6975C16.2389 20.5211 15.1557 20.7732 14.3321 20.2605Z" fill="url(#paint27_radial_1022_4685)"/>
<path style="mix-blend-mode:color-dodge" d="M29.0717 37.0462C28.8495 36.1019 29.4349 35.1563 30.3792 34.9341C31.3235 34.712 32.2691 35.2973 32.4913 36.2416C32.7134 37.1859 32.1281 38.1315 31.1838 38.3537C30.2395 38.5759 29.2939 37.9905 29.0717 37.0462Z" fill="url(#paint28_radial_1022_4685)"/>
<path style="mix-blend-mode:screen" d="M15.6629 21.7374L16.6234 21.5269C16.379 20.4043 17.0903 19.2938 18.2129 19.0495L18.0024 18.089C16.8798 18.3333 15.7693 17.622 15.525 16.4994L14.5645 16.7099C14.8088 17.8325 14.0975 18.943 12.975 19.1874L13.1854 20.1478C14.308 19.9035 15.4185 20.6148 15.6629 21.7374Z" fill="url(#paint29_radial_1022_4685)"/>
<path style="mix-blend-mode:screen" opacity="0.63" d="M17.2004 18.9382C16.1673 14.2034 14.631 10.5163 13.7649 10.705C12.8987 10.8937 13.0342 14.8857 14.0673 19.6204C15.1004 24.3575 16.6367 28.0422 17.5028 27.8535C18.3689 27.6648 18.2335 23.6729 17.2004 18.9382Z" fill="url(#paint30_radial_1022_4685)"/>
<path style="mix-blend-mode:screen" opacity="0.63" d="M16.1923 19.1583C15.1616 14.4212 14.0729 10.6373 13.7632 10.705C13.4535 10.7728 14.039 14.6655 15.0721 19.4027C16.1052 24.1398 17.1915 27.9237 17.5012 27.8559C17.8108 27.7882 17.2253 23.8954 16.1923 19.1583Z" fill="url(#paint31_radial_1022_4685)"/>
<path style="mix-blend-mode:screen" opacity="0.63" d="M15.3211 17.8518C10.3106 18.943 6.37186 20.3946 6.52428 21.0938C6.67671 21.793 10.8622 21.4736 15.8727 20.3825C20.8832 19.2914 24.822 17.8397 24.6695 17.1405C24.5171 16.4414 20.3316 16.7607 15.3211 17.8518Z" fill="url(#paint32_radial_1022_4685)"/>
<path style="mix-blend-mode:screen" opacity="0.63" d="M15.5137 18.7277C10.5032 19.8188 6.47732 20.8785 6.52571 21.0938C6.57168 21.3091 10.6725 20.5978 15.6854 19.5067C20.696 18.4156 24.7218 17.3559 24.6734 17.1406C24.6274 16.9252 20.5266 17.6365 15.5137 18.7277Z" fill="url(#paint33_radial_1022_4685)"/>
<path style="mix-blend-mode:screen" opacity="0.63" d="M15.9936 18.4954C12.7298 16.3978 9.90402 14.9776 9.68144 15.3212C9.46128 15.6647 11.929 17.6438 15.1928 19.739C18.4565 21.8366 21.2823 23.2567 21.5049 22.9132C21.7251 22.5696 19.2573 20.5906 15.9936 18.4954Z" fill="url(#paint34_radial_1022_4685)"/>
<path style="mix-blend-mode:screen" opacity="0.63" d="M14.9734 18.718C12.8758 21.9817 11.4556 24.8076 11.7992 25.0301C12.1427 25.2503 14.1218 22.7825 16.2169 19.5188C18.3145 16.2551 19.7347 13.4293 19.3911 13.2067C19.0476 12.9841 17.0685 15.4543 14.9734 18.718Z" fill="url(#paint35_radial_1022_4685)"/>
<path style="mix-blend-mode:screen" d="M45.9549 37.4681L46.9154 37.2576C46.671 36.135 47.3823 35.0245 48.5049 34.7801L48.2944 33.8196C47.1718 34.064 46.0613 33.3527 45.817 32.2301L44.8565 32.4406C45.1008 33.5632 44.3895 34.6737 43.267 34.918L43.4774 35.8785C44.6 35.6342 45.7105 36.3455 45.9549 37.4681Z" fill="url(#paint36_radial_1022_4685)"/>
<path style="mix-blend-mode:screen" opacity="0.63" d="M47.4894 34.6689C46.4564 29.9318 44.9201 26.2471 44.0539 26.4358C43.1878 26.6245 43.3233 30.6165 44.3564 35.3512C45.3894 40.0883 46.9257 43.773 47.7919 43.5843C48.658 43.3956 48.5225 39.4036 47.4894 34.6689Z" fill="url(#paint37_radial_1022_4685)"/>
<path style="mix-blend-mode:screen" opacity="0.63" d="M46.4852 34.889C45.4522 30.1519 44.3659 26.368 44.0562 26.4357C43.7465 26.5035 44.332 30.3962 45.3651 35.1333C46.3981 39.8705 47.4844 43.6544 47.7941 43.5866C48.1038 43.5189 47.5183 39.6261 46.4852 34.889Z" fill="url(#paint38_radial_1022_4685)"/>
<path style="mix-blend-mode:screen" opacity="0.63" d="M45.6131 33.5826C40.6026 34.6737 36.6639 36.1253 36.8163 36.8245C36.9687 37.5237 41.1542 37.2044 46.1647 36.1132C51.1752 35.0221 55.114 33.5705 54.9615 32.8713C54.8091 32.1721 50.6236 32.4915 45.6131 33.5826Z" fill="url(#paint39_radial_1022_4685)"/>
<path style="mix-blend-mode:screen" opacity="0.63" d="M45.8018 34.4584C40.7912 35.5495 36.7654 36.6092 36.8138 36.8246C36.8598 37.0399 40.9606 36.3286 45.9735 35.2374C50.984 34.1463 55.0099 33.0866 54.9615 32.8713C54.9155 32.656 50.8147 33.3673 45.8018 34.4584Z" fill="url(#paint40_radial_1022_4685)"/>
<path style="mix-blend-mode:screen" opacity="0.63" d="M46.2904 34.2261C43.0267 32.1285 40.2009 30.7083 39.9783 31.0519C39.7582 31.3954 42.2259 33.3745 45.4896 35.4697C48.7534 37.5672 51.5792 38.9874 51.8018 38.6439C52.0219 38.3003 49.5542 36.3213 46.2904 34.2261Z" fill="url(#paint41_radial_1022_4685)"/>
<path style="mix-blend-mode:screen" opacity="0.63" d="M45.2693 34.4487C43.1717 37.7124 41.7515 40.5383 42.0951 40.7609C42.4386 40.981 44.4177 38.5133 46.5128 35.2495C48.6104 31.9858 50.0306 29.16 49.687 28.9374C49.3435 28.7172 47.3644 31.185 45.2693 34.4487Z" fill="url(#paint42_radial_1022_4685)"/>
<path style="mix-blend-mode:screen" d="M27.6655 63.2271L27.8759 63.1811C27.68 62.2763 28.2534 61.3836 29.1582 61.1852L29.1122 60.9747C28.2074 61.1706 27.3146 60.5973 27.1163 59.6924L26.9058 59.7384C27.1017 60.6432 26.5283 61.536 25.6235 61.7344L25.6695 61.9448C26.5743 61.7489 27.4671 62.3223 27.6655 63.2271Z" fill="url(#paint43_radial_1022_4685)"/>
<path style="mix-blend-mode:screen" opacity="0.63" d="M28.501 61.3376C27.7849 58.0545 26.7204 55.4997 26.1204 55.6303C25.5204 55.7609 25.6147 58.5287 26.3309 61.8118C27.047 65.0949 28.1115 67.6497 28.7115 67.5191C29.3115 67.3884 29.2172 64.6207 28.501 61.3376Z" fill="url(#paint44_radial_1022_4685)"/>
<path style="mix-blend-mode:screen" opacity="0.63" d="M27.8036 61.49C27.0875 58.2069 26.3351 55.5843 26.1198 55.6303C25.9044 55.6762 26.3109 58.3762 27.027 61.6593C27.7431 64.9424 28.4956 67.565 28.7109 67.519C28.9262 67.4731 28.5198 64.7731 27.8036 61.49Z" fill="url(#paint45_radial_1022_4685)"/>
<path style="mix-blend-mode:screen" opacity="0.63" d="M27.1971 60.5851C23.7229 61.3424 20.9915 62.3489 21.0979 62.8327C21.2044 63.3166 24.1052 63.0964 27.5794 62.3392C31.0536 61.5819 33.7851 60.5755 33.6786 60.0916C33.5722 59.6077 30.6714 59.8279 27.1971 60.5851Z" fill="url(#paint46_radial_1022_4685)"/>
<path style="mix-blend-mode:screen" opacity="0.63" d="M27.329 61.1924C23.8548 61.9497 21.0653 62.6852 21.0968 62.8328C21.1282 62.9828 23.971 62.4892 27.4452 61.732C30.9194 60.9747 33.7089 60.2392 33.6775 60.0916C33.646 59.9416 30.8033 60.4352 27.329 61.1924Z" fill="url(#paint47_radial_1022_4685)"/>
<path style="mix-blend-mode:screen" opacity="0.63" d="M27.6684 61.0304C25.4063 59.5763 23.4466 58.5916 23.2942 58.8311C23.1418 59.0682 24.8523 60.44 27.1144 61.8941C29.3765 63.3481 31.3362 64.3328 31.4886 64.0933C31.641 63.8562 29.9305 62.4844 27.6684 61.0304Z" fill="url(#paint48_radial_1022_4685)"/>
<path style="mix-blend-mode:screen" opacity="0.63" d="M26.9588 61.1852C25.5048 63.4473 24.5201 65.407 24.7596 65.5594C24.9991 65.7118 26.3685 64.0013 27.8225 61.7392C29.2766 59.4771 30.2612 57.5174 30.0217 57.365C29.7822 57.2126 28.4129 58.923 26.9588 61.1852Z" fill="url(#paint49_radial_1022_4685)"/>
<defs>
<linearGradient id="paint0_linear_1022_4685" x1="26.9992" y1="62.2036" x2="31.8888" y2="34.4051" gradientUnits="userSpaceOnUse">
<stop stop-color="#D90000"/>
<stop offset="0.39" stop-color="#A80000"/>
<stop offset="1" stop-color="#FF4336"/>
</linearGradient>
<linearGradient id="paint1_linear_1022_4685" x1="29.7213" y1="41.6632" x2="28.7487" y2="71.6972" gradientUnits="userSpaceOnUse">
<stop stop-color="white"/>
<stop offset="0.11" stop-color="#F6F0F4"/>
<stop offset="0.32" stop-color="#DFC9D9"/>
<stop offset="0.62" stop-color="#BB8AAC"/>
<stop offset="0.97" stop-color="#893470"/>
<stop offset="1" stop-color="#862E6C"/>
</linearGradient>
<linearGradient id="paint2_linear_1022_4685" x1="60.8136" y1="83.6828" x2="61.3604" y2="-1.59272" gradientUnits="userSpaceOnUse">
<stop stop-color="#D90000"/>
<stop offset="0.39" stop-color="#800000"/>
<stop offset="1" stop-color="#FF4336"/>
</linearGradient>
<linearGradient id="paint3_linear_1022_4685" x1="60.847" y1="52.2019" x2="60.9075" y2="65.8206" gradientUnits="userSpaceOnUse">
<stop stop-color="white"/>
<stop offset="0.11" stop-color="#F6F0F4"/>
<stop offset="0.32" stop-color="#DFC9D9"/>
<stop offset="0.62" stop-color="#BB8AAC"/>
<stop offset="0.97" stop-color="#893470"/>
<stop offset="1" stop-color="#862E6C"/>
</linearGradient>
<linearGradient id="paint4_linear_1022_4685" x1="60.8361" y1="65.1722" x2="60.2894" y2="-20.0089" gradientUnits="userSpaceOnUse">
<stop stop-color="#D90000"/>
<stop offset="0.39" stop-color="#800000"/>
<stop offset="1" stop-color="#FF4336"/>
</linearGradient>
<linearGradient id="paint5_linear_1022_4685" x1="60.4226" y1="28.7994" x2="60.771" y2="42.2559" gradientUnits="userSpaceOnUse">
<stop stop-color="#CC0000"/>
<stop offset="0.02" stop-color="#CD0707"/>
<stop offset="0.18" stop-color="#DA4747"/>
<stop offset="0.34" stop-color="#E57F7F"/>
<stop offset="0.49" stop-color="#EEADAD"/>
<stop offset="0.64" stop-color="#F5D0D0"/>
<stop offset="0.78" stop-color="#FAEAEA"/>
<stop offset="0.9" stop-color="#FDF9F9"/>
<stop offset="1" stop-color="white"/>
</linearGradient>
<linearGradient id="paint6_linear_1022_4685" x1="60.917" y1="15.5509" x2="60.3098" y2="60.6649" gradientUnits="userSpaceOnUse">
<stop stop-color="white"/>
<stop offset="0.11" stop-color="#F6F0F4"/>
<stop offset="0.32" stop-color="#DFC9D9"/>
<stop offset="0.62" stop-color="#BB8AAC"/>
<stop offset="0.97" stop-color="#893470"/>
<stop offset="1" stop-color="#862E6C"/>
</linearGradient>
<linearGradient id="paint7_linear_1022_4685" x1="33.5059" y1="40.4874" x2="37.5389" y2="18.1784" gradientUnits="userSpaceOnUse">
<stop stop-color="#D90000"/>
<stop offset="0.39" stop-color="#A80000"/>
<stop offset="1" stop-color="#FF4336"/>
</linearGradient>
<linearGradient id="paint8_linear_1022_4685" x1="33.1233" y1="22.0009" x2="14.8837" y2="84.8682" gradientUnits="userSpaceOnUse">
<stop stop-color="white"/>
<stop offset="0.11" stop-color="#F6F0F4"/>
<stop offset="0.32" stop-color="#DFC9D9"/>
<stop offset="0.62" stop-color="#BB8AAC"/>
<stop offset="0.97" stop-color="#893470"/>
<stop offset="1" stop-color="#862E6C"/>
</linearGradient>
<linearGradient id="paint9_linear_1022_4685" x1="96.7578" y1="48.3697" x2="0.210435" y2="56.6391" gradientUnits="userSpaceOnUse">
<stop stop-color="#C03C0F"/>
<stop offset="0.11" stop-color="#C54611"/>
<stop offset="0.29" stop-color="#D56118"/>
<stop offset="0.53" stop-color="#EF8D23"/>
<stop offset="0.66" stop-color="#FFA82A"/>
<stop offset="0.8" stop-color="#FDB71B"/>
<stop offset="1" stop-color="#FAD500"/>
</linearGradient>
<linearGradient id="paint10_linear_1022_4685" x1="87.0179" y1="42.2365" x2="2.7561" y2="38.8252" gradientUnits="userSpaceOnUse">
<stop stop-color="#C03C0F"/>
<stop offset="0.11" stop-color="#C54611"/>
<stop offset="0.29" stop-color="#D56118"/>
<stop offset="0.53" stop-color="#EF8D23"/>
<stop offset="0.66" stop-color="#FFA82A"/>
<stop offset="0.8" stop-color="#FDB71B"/>
<stop offset="1" stop-color="#FAD500"/>
</linearGradient>
<linearGradient id="paint11_linear_1022_4685" x1="66.4118" y1="45.2632" x2="48.1722" y2="23.426" gradientUnits="userSpaceOnUse">
<stop stop-color="#C03C0F"/>
<stop offset="0.11" stop-color="#C54611"/>
<stop offset="0.29" stop-color="#D56118"/>
<stop offset="0.53" stop-color="#EF8D23"/>
<stop offset="0.66" stop-color="#FFA82A"/>
<stop offset="0.8" stop-color="#FDB71B"/>
<stop offset="1" stop-color="#FAD500"/>
</linearGradient>
<linearGradient id="paint12_linear_1022_4685" x1="-2.40595" y1="69.6045" x2="27.345" y2="6.77108" gradientUnits="userSpaceOnUse">
<stop stop-color="#C03C0F"/>
<stop offset="0.11" stop-color="#C54611"/>
<stop offset="0.29" stop-color="#D56118"/>
<stop offset="0.53" stop-color="#EF8D23"/>
<stop offset="0.66" stop-color="#FFA82A"/>
<stop offset="0.8" stop-color="#FDB71B"/>
<stop offset="1" stop-color="#FAD500"/>
</linearGradient>
<linearGradient id="paint13_linear_1022_4685" x1="32.7936" y1="49.4052" x2="24.7685" y2="33.4761" gradientUnits="userSpaceOnUse">
<stop stop-color="#C03C0F"/>
<stop offset="0.11" stop-color="#C54611"/>
<stop offset="0.29" stop-color="#D56118"/>
<stop offset="0.53" stop-color="#EF8D23"/>
<stop offset="0.66" stop-color="#FFA82A"/>
<stop offset="0.8" stop-color="#FDB71B"/>
<stop offset="1" stop-color="#FAD500"/>
</linearGradient>
<radialGradient id="paint14_radial_1022_4685" cx="0" cy="0" r="1" gradientUnits="userSpaceOnUse" gradientTransform="translate(67.0995 62.1916) rotate(180) scale(2.88873)">
<stop stop-color="#FFEB6E"/>
<stop offset="0.47" stop-color="#FFAE00"/>
<stop offset="1" stop-color="#C22424"/>
</radialGradient>
<radialGradient id="paint15_radial_1022_4685" cx="0" cy="0" r="1" gradientUnits="userSpaceOnUse" gradientTransform="translate(45.0223 65.0295) rotate(180) scale(2.88873)">
<stop stop-color="#FFEB6E"/>
<stop offset="0.47" stop-color="#FFAE00"/>
<stop offset="1" stop-color="#C22424"/>
</radialGradient>
<radialGradient id="paint16_radial_1022_4685" cx="0" cy="0" r="1" gradientUnits="userSpaceOnUse" gradientTransform="translate(13.663 59.3488) rotate(180) scale(2.88873)">
<stop stop-color="#FFEB6E"/>
<stop offset="0.47" stop-color="#FFAE00"/>
<stop offset="1" stop-color="#C22424"/>
</radialGradient>
<radialGradient id="paint17_radial_1022_4685" cx="0" cy="0" r="1" gradientUnits="userSpaceOnUse" gradientTransform="translate(45.5546 34.7269) rotate(180) scale(2.88873)">
<stop stop-color="#FFEB6E"/>
<stop offset="0.47" stop-color="#FFAE00"/>
<stop offset="1" stop-color="#C22424"/>
</radialGradient>
<radialGradient id="paint18_radial_1022_4685" cx="0" cy="0" r="1" gradientUnits="userSpaceOnUse" gradientTransform="translate(15.6725 19.4685) rotate(-159) scale(2.88873)">
<stop stop-color="#FFEB6E"/>
<stop offset="0.47" stop-color="#FFAE00"/>
<stop offset="1" stop-color="#C22424"/>
</radialGradient>
<radialGradient id="paint19_radial_1022_4685" cx="0" cy="0" r="1" gradientUnits="userSpaceOnUse" gradientTransform="translate(57.4637 64.6618) rotate(180) scale(2.88873 2.88873)">
<stop stop-color="#FFEB6E"/>
<stop offset="0.47" stop-color="#FFAE00"/>
<stop offset="1" stop-color="#C22424"/>
</radialGradient>
<radialGradient id="paint20_radial_1022_4685" cx="0" cy="0" r="1" gradientUnits="userSpaceOnUse" gradientTransform="translate(27.3973 62.315) rotate(180) scale(2.88873)">
<stop stop-color="#FFEB6E"/>
<stop offset="0.47" stop-color="#FFAE00"/>
<stop offset="1" stop-color="#C22424"/>
</radialGradient>
<radialGradient id="paint21_radial_1022_4685" cx="0" cy="0" r="1" gradientUnits="userSpaceOnUse" gradientTransform="translate(11.1947 27.1325) rotate(180) scale(2.88873)">
<stop stop-color="#FFEB6E"/>
<stop offset="0.47" stop-color="#FFAE00"/>
<stop offset="1" stop-color="#C22424"/>
</radialGradient>
<radialGradient id="paint22_radial_1022_4685" cx="0" cy="0" r="1" gradientUnits="userSpaceOnUse" gradientTransform="translate(48.8107 26.1429) rotate(180) scale(2.89115)">
<stop stop-color="#FFEB6E"/>
<stop offset="0.47" stop-color="#FFAE00"/>
<stop offset="1" stop-color="#C22424"/>
</radialGradient>
<radialGradient id="paint23_radial_1022_4685" cx="0" cy="0" r="1" gradientUnits="userSpaceOnUse" gradientTransform="translate(57.5653 20.3062) rotate(-175.28) scale(3.37744)">
<stop stop-color="#FFEB6E"/>
<stop offset="0.47" stop-color="#FFAE00"/>
<stop offset="1" stop-color="#C22424"/>
</radialGradient>
<radialGradient id="paint24_radial_1022_4685" cx="0" cy="0" r="1" gradientUnits="userSpaceOnUse" gradientTransform="translate(25.9214 14.1202) rotate(-175.28) scale(3.37744 3.37744)">
<stop stop-color="#FFEB6E"/>
<stop offset="0.47" stop-color="#FFAE00"/>
<stop offset="1" stop-color="#C22424"/>
</radialGradient>
<radialGradient id="paint25_radial_1022_4685" cx="0" cy="0" r="1" gradientUnits="userSpaceOnUse" gradientTransform="translate(56.3574 20.2613) rotate(-180) scale(1.75646)">
<stop stop-color="#FFDA47"/>
<stop offset="0.12" stop-color="#C6A937"/>
<stop offset="0.24" stop-color="#927D28"/>
<stop offset="0.37" stop-color="#65561C"/>
<stop offset="0.5" stop-color="#403712"/>
<stop offset="0.62" stop-color="#241F0A"/>
<stop offset="0.75" stop-color="#100D04"/>
<stop offset="0.88" stop-color="#040301"/>
<stop offset="1"/>
</radialGradient>
<radialGradient id="paint26_radial_1022_4685" cx="0" cy="0" r="1" gradientUnits="userSpaceOnUse" gradientTransform="translate(45.003 34.4935) rotate(180) scale(0.120968)">
<stop stop-color="#FFDA47"/>
<stop offset="0.12" stop-color="#C6A937"/>
<stop offset="0.24" stop-color="#927D28"/>
<stop offset="0.37" stop-color="#65561C"/>
<stop offset="0.5" stop-color="#403712"/>
<stop offset="0.62" stop-color="#241F0A"/>
<stop offset="0.75" stop-color="#100D04"/>
<stop offset="0.88" stop-color="#040301"/>
<stop offset="1"/>
</radialGradient>
<radialGradient id="paint27_radial_1022_4685" cx="0" cy="0" r="1" gradientUnits="userSpaceOnUse" gradientTransform="translate(15.2615 18.7676) rotate(180) scale(1.75646)">
<stop stop-color="#FFDA47"/>
<stop offset="0.12" stop-color="#C6A937"/>
<stop offset="0.24" stop-color="#927D28"/>
<stop offset="0.37" stop-color="#65561C"/>
<stop offset="0.5" stop-color="#403712"/>
<stop offset="0.62" stop-color="#241F0A"/>
<stop offset="0.75" stop-color="#100D04"/>
<stop offset="0.88" stop-color="#040301"/>
<stop offset="1"/>
</radialGradient>
<radialGradient id="paint28_radial_1022_4685" cx="0" cy="0" r="1" gradientUnits="userSpaceOnUse" gradientTransform="translate(30.782 36.6451) rotate(-180) scale(0.120968)">
<stop stop-color="#FFDA47"/>
<stop offset="0.12" stop-color="#C6A937"/>
<stop offset="0.24" stop-color="#927D28"/>
<stop offset="0.37" stop-color="#65561C"/>
<stop offset="0.5" stop-color="#403712"/>
<stop offset="0.62" stop-color="#241F0A"/>
<stop offset="0.75" stop-color="#100D04"/>
<stop offset="0.88" stop-color="#040301"/>
<stop offset="1"/>
</radialGradient>
<radialGradient id="paint29_radial_1022_4685" cx="0" cy="0" r="1" gradientUnits="userSpaceOnUse" gradientTransform="translate(15.5957 19.1178) rotate(167.71) scale(2.57179 2.57179)">
<stop offset="0.04" stop-color="white"/>
<stop offset="0.15" stop-color="#D1D1D1"/>
<stop offset="0.33" stop-color="#929292"/>
<stop offset="0.49" stop-color="#5E5E5E"/>
<stop offset="0.65" stop-color="#353535"/>
<stop offset="0.79" stop-color="#181818"/>
<stop offset="0.91" stop-color="#060606"/>
<stop offset="1"/>
</radialGradient>
<radialGradient id="paint30_radial_1022_4685" cx="0" cy="0" r="1" gradientUnits="userSpaceOnUse" gradientTransform="translate(12.6624 19.9358) rotate(167.71) scale(1.62654 8.78333)">
<stop offset="0.04" stop-color="#FFFF00"/>
<stop offset="0.15" stop-color="#D1D100"/>
<stop offset="0.33" stop-color="#929200"/>
<stop offset="0.49" stop-color="#5E5E00"/>
<stop offset="0.65" stop-color="#353500"/>
<stop offset="0.79" stop-color="#181800"/>
<stop offset="0.91" stop-color="#060600"/>
<stop offset="1"/>
</radialGradient>
<radialGradient id="paint31_radial_1022_4685" cx="0" cy="0" r="1" gradientUnits="userSpaceOnUse" gradientTransform="translate(6.1603 21.3516) rotate(167.72) scale(0.596399 8.78333)">
<stop offset="0.04" stop-color="#FFFF00"/>
<stop offset="0.15" stop-color="#D1D100"/>
<stop offset="0.33" stop-color="#929200"/>
<stop offset="0.49" stop-color="#5E5E00"/>
<stop offset="0.65" stop-color="#353500"/>
<stop offset="0.79" stop-color="#181800"/>
<stop offset="0.91" stop-color="#060600"/>
<stop offset="1"/>
</radialGradient>
<radialGradient id="paint32_radial_1022_4685" cx="0" cy="0" r="1" gradientUnits="userSpaceOnUse" gradientTransform="translate(15.9553 18.8274) rotate(77.7) scale(1.30123 9.27129)">
<stop offset="0.04" stop-color="#FFFF00"/>
<stop offset="0.15" stop-color="#D1D100"/>
<stop offset="0.33" stop-color="#929200"/>
<stop offset="0.49" stop-color="#5E5E00"/>
<stop offset="0.65" stop-color="#353500"/>
<stop offset="0.79" stop-color="#181800"/>
<stop offset="0.91" stop-color="#060600"/>
<stop offset="1"/>
</radialGradient>
<radialGradient id="paint33_radial_1022_4685" cx="0" cy="0" r="1" gradientUnits="userSpaceOnUse" gradientTransform="translate(16.1869 19.883) rotate(77.68) scale(0.379526 9.27129)">
<stop offset="0.04" stop-color="#FFFF00"/>
<stop offset="0.15" stop-color="#D1D100"/>
<stop offset="0.33" stop-color="#929200"/>
<stop offset="0.49" stop-color="#5E5E00"/>
<stop offset="0.65" stop-color="#353500"/>
<stop offset="0.79" stop-color="#181800"/>
<stop offset="0.91" stop-color="#060600"/>
<stop offset="1"/>
</radialGradient>
<radialGradient id="paint34_radial_1022_4685" cx="0" cy="0" r="1" gradientUnits="userSpaceOnUse" gradientTransform="translate(12.755 22.33) rotate(122.7) scale(0.759053 7.04835)">
<stop offset="0.04" stop-color="#FFFF00"/>
<stop offset="0.15" stop-color="#D1D100"/>
<stop offset="0.33" stop-color="#929200"/>
<stop offset="0.49" stop-color="#5E5E00"/>
<stop offset="0.65" stop-color="#353500"/>
<stop offset="0.79" stop-color="#181800"/>
<stop offset="0.91" stop-color="#060600"/>
<stop offset="1"/>
</radialGradient>
<radialGradient id="paint35_radial_1022_4685" cx="0" cy="0" r="1" gradientUnits="userSpaceOnUse" gradientTransform="translate(10.3998 16.5654) rotate(32.7) scale(0.759053 7.04835)">
<stop offset="0.04" stop-color="#FFFF00"/>
<stop offset="0.15" stop-color="#D1D100"/>
<stop offset="0.33" stop-color="#929200"/>
<stop offset="0.49" stop-color="#5E5E00"/>
<stop offset="0.65" stop-color="#353500"/>
<stop offset="0.79" stop-color="#181800"/>
<stop offset="0.91" stop-color="#060600"/>
<stop offset="1"/>
</radialGradient>
<radialGradient id="paint36_radial_1022_4685" cx="0" cy="0" r="1" gradientUnits="userSpaceOnUse" gradientTransform="translate(45.8875 34.8486) rotate(167.71) scale(0.120968)">
<stop offset="0.04" stop-color="white"/>
<stop offset="0.15" stop-color="#D1D1D1"/>
<stop offset="0.33" stop-color="#929292"/>
<stop offset="0.49" stop-color="#5E5E5E"/>
<stop offset="0.65" stop-color="#353535"/>
<stop offset="0.79" stop-color="#181818"/>
<stop offset="0.91" stop-color="#060606"/>
<stop offset="1"/>
</radialGradient>
<radialGradient id="paint37_radial_1022_4685" cx="0" cy="0" r="1" gradientUnits="userSpaceOnUse" gradientTransform="translate(43.3398 35.5993) rotate(167.71) scale(1.62654 8.78332)">
<stop offset="0.04" stop-color="#FFFF00"/>
<stop offset="0.15" stop-color="#D1D100"/>
<stop offset="0.33" stop-color="#929200"/>
<stop offset="0.49" stop-color="#5E5E00"/>
<stop offset="0.65" stop-color="#353500"/>
<stop offset="0.79" stop-color="#181800"/>
<stop offset="0.91" stop-color="#060600"/>
<stop offset="1"/>
</radialGradient>
<radialGradient id="paint38_radial_1022_4685" cx="0" cy="0" r="1" gradientUnits="userSpaceOnUse" gradientTransform="translate(37.4651 36.8835) rotate(167.72) scale(0.596399 8.78333)">
<stop offset="0.04" stop-color="#FFFF00"/>
<stop offset="0.15" stop-color="#D1D100"/>
<stop offset="0.33" stop-color="#929200"/>
<stop offset="0.49" stop-color="#5E5E00"/>
<stop offset="0.65" stop-color="#353500"/>
<stop offset="0.79" stop-color="#181800"/>
<stop offset="0.91" stop-color="#060600"/>
<stop offset="1"/>
</radialGradient>
<radialGradient id="paint39_radial_1022_4685" cx="0" cy="0" r="1" gradientUnits="userSpaceOnUse" gradientTransform="translate(46.2337 34.6622) rotate(77.7) scale(1.30123 9.27129)">
<stop offset="0.04" stop-color="#FFFF00"/>
<stop offset="0.15" stop-color="#D1D100"/>
<stop offset="0.33" stop-color="#929200"/>
<stop offset="0.49" stop-color="#5E5E00"/>
<stop offset="0.65" stop-color="#353500"/>
<stop offset="0.79" stop-color="#181800"/>
<stop offset="0.91" stop-color="#060600"/>
<stop offset="1"/>
</radialGradient>
<radialGradient id="paint40_radial_1022_4685" cx="0" cy="0" r="1" gradientUnits="userSpaceOnUse" gradientTransform="translate(46.2058 34.5694) rotate(77.68) scale(0.379526 9.27129)">
<stop offset="0.04" stop-color="#FFFF00"/>
<stop offset="0.15" stop-color="#D1D100"/>
<stop offset="0.33" stop-color="#929200"/>
<stop offset="0.49" stop-color="#5E5E00"/>
<stop offset="0.65" stop-color="#353500"/>
<stop offset="0.79" stop-color="#181800"/>
<stop offset="0.91" stop-color="#060600"/>
<stop offset="1"/>
</radialGradient>
<radialGradient id="paint41_radial_1022_4685" cx="0" cy="0" r="1" gradientUnits="userSpaceOnUse" gradientTransform="translate(43.1933 38.0495) rotate(122.7) scale(0.759053 7.04835)">
<stop offset="0.04" stop-color="#FFFF00"/>
<stop offset="0.15" stop-color="#D1D100"/>
<stop offset="0.33" stop-color="#929200"/>
<stop offset="0.49" stop-color="#5E5E00"/>
<stop offset="0.65" stop-color="#353500"/>
<stop offset="0.79" stop-color="#181800"/>
<stop offset="0.91" stop-color="#060600"/>
<stop offset="1"/>
</radialGradient>
<radialGradient id="paint42_radial_1022_4685" cx="0" cy="0" r="1" gradientUnits="userSpaceOnUse" gradientTransform="translate(41.4518 32.7707) rotate(32.7) scale(0.759053 7.04835)">
<stop offset="0.04" stop-color="#FFFF00"/>
<stop offset="0.15" stop-color="#D1D100"/>
<stop offset="0.33" stop-color="#929200"/>
<stop offset="0.49" stop-color="#5E5E00"/>
<stop offset="0.65" stop-color="#353500"/>
<stop offset="0.79" stop-color="#181800"/>
<stop offset="0.91" stop-color="#060600"/>
<stop offset="1"/>
</radialGradient>
<radialGradient id="paint43_radial_1022_4685" cx="0" cy="0" r="1" gradientUnits="userSpaceOnUse" gradientTransform="translate(27.3904 61.4611) rotate(167.71) scale(1.78308)">
<stop offset="0.04" stop-color="white"/>
<stop offset="0.15" stop-color="#D1D1D1"/>
<stop offset="0.33" stop-color="#929292"/>
<stop offset="0.49" stop-color="#5E5E5E"/>
<stop offset="0.65" stop-color="#353535"/>
<stop offset="0.79" stop-color="#181818"/>
<stop offset="0.91" stop-color="#060606"/>
<stop offset="1"/>
</radialGradient>
<radialGradient id="paint44_radial_1022_4685" cx="0" cy="0" r="1" gradientUnits="userSpaceOnUse" gradientTransform="translate(24.4869 62.2588) rotate(167.71) scale(1.12791 6.09071)">
<stop offset="0.04" stop-color="#FFFF00"/>
<stop offset="0.15" stop-color="#D1D100"/>
<stop offset="0.33" stop-color="#929200"/>
<stop offset="0.49" stop-color="#5E5E00"/>
<stop offset="0.65" stop-color="#353500"/>
<stop offset="0.79" stop-color="#181800"/>
<stop offset="0.91" stop-color="#060600"/>
<stop offset="1"/>
</radialGradient>
<radialGradient id="paint45_radial_1022_4685" cx="0" cy="0" r="1" gradientUnits="userSpaceOnUse" gradientTransform="translate(18.0392 63.6674) rotate(167.72) scale(0.413567 6.09071)">
<stop offset="0.04" stop-color="#FFFF00"/>
<stop offset="0.15" stop-color="#D1D100"/>
<stop offset="0.33" stop-color="#929200"/>
<stop offset="0.49" stop-color="#5E5E00"/>
<stop offset="0.65" stop-color="#353500"/>
<stop offset="0.79" stop-color="#181800"/>
<stop offset="0.91" stop-color="#060600"/>
<stop offset="1"/>
</radialGradient>
<radialGradient id="paint46_radial_1022_4685" cx="0" cy="0" r="1" gradientUnits="userSpaceOnUse" gradientTransform="translate(27.7866 61.372) rotate(77.7) scale(0.902328 6.42909)">
<stop offset="0.04" stop-color="#FFFF00"/>
<stop offset="0.15" stop-color="#D1D100"/>
<stop offset="0.33" stop-color="#929200"/>
<stop offset="0.49" stop-color="#5E5E00"/>
<stop offset="0.65" stop-color="#353500"/>
<stop offset="0.79" stop-color="#181800"/>
<stop offset="0.91" stop-color="#060600"/>
<stop offset="1"/>
</radialGradient>
<radialGradient id="paint47_radial_1022_4685" cx="0" cy="0" r="1" gradientUnits="userSpaceOnUse" gradientTransform="translate(27.5174 60.1326) rotate(77.68) scale(0.263179 6.42909)">
<stop offset="0.04" stop-color="#FFFF00"/>
<stop offset="0.15" stop-color="#D1D100"/>
<stop offset="0.33" stop-color="#929200"/>
<stop offset="0.49" stop-color="#5E5E00"/>
<stop offset="0.65" stop-color="#353500"/>
<stop offset="0.79" stop-color="#181800"/>
<stop offset="0.91" stop-color="#060600"/>
<stop offset="1"/>
</radialGradient>
<radialGradient id="paint48_radial_1022_4685" cx="0" cy="0" r="1" gradientUnits="userSpaceOnUse" gradientTransform="translate(24.2322 65.3758) rotate(122.7) scale(0.526358 4.88761)">
<stop offset="0.04" stop-color="#FFFF00"/>
<stop offset="0.15" stop-color="#D1D100"/>
<stop offset="0.33" stop-color="#929200"/>
<stop offset="0.49" stop-color="#5E5E00"/>
<stop offset="0.65" stop-color="#353500"/>
<stop offset="0.79" stop-color="#181800"/>
<stop offset="0.91" stop-color="#060600"/>
<stop offset="1"/>
</radialGradient>
<radialGradient id="paint49_radial_1022_4685" cx="0" cy="0" r="1" gradientUnits="userSpaceOnUse" gradientTransform="translate(22.8686 59.4608) rotate(32.7) scale(0.526358 4.88761)">
<stop offset="0.04" stop-color="#FFFF00"/>
<stop offset="0.15" stop-color="#D1D100"/>
<stop offset="0.33" stop-color="#929200"/>
<stop offset="0.49" stop-color="#5E5E00"/>
<stop offset="0.65" stop-color="#353500"/>
<stop offset="0.79" stop-color="#181800"/>
<stop offset="0.91" stop-color="#060600"/>
<stop offset="1"/>
</radialGradient>
</defs>
</svg>
