<svg width="60" height="45" viewBox="0 0 60 45" fill="none" xmlns="http://www.w3.org/2000/svg">
<g clip-path="url(#clip0_60_72978)">
<path d="M0 0H60V45H0V0Z" fill="#012169"/>
<path d="M45.4033 16.9125L45.5908 17.1L45.4033 16.9125Z" fill="#49497D"/>
<path d="M45.5908 16.9125L45.7783 17.1L45.5908 16.9125Z" fill="#0E0E6E"/>
<path d="M45.0186 17.1L45.2061 17.2875L45.0186 17.1Z" fill="#262678"/>
<path d="M45.2158 17.1L45.4033 17.2875L45.2158 17.1Z" fill="#808067"/>
<path d="M45.7783 17.1L45.9658 17.2875L45.7783 17.1Z" fill="#58587B"/>
<path d="M38.7373 17.2969L38.9248 17.4844L38.7373 17.2969Z" fill="#0E0E6E"/>
<path d="M44.6436 17.2969L44.8311 17.4844L44.6436 17.2969Z" fill="#1B1B74"/>
<path d="M44.8311 17.2969L45.0186 17.4844L44.8311 17.2969Z" fill="#6E6C70"/>
<path d="M39.0751 17.625C39.0751 22.5562 38.5126 28.0969 42.1688 31.95C42.9188 32.7375 44.3626 34.5469 45.5907 34.4812C46.8751 34.4062 48.5345 32.5031 49.2657 31.575C52.4532 27.375 51.9563 22.3687 52.0595 17.4937C50.6251 18.1406 49.9032 18.3562 48.647 18.3375C47.7095 18.4312 46.2751 17.8219 45.4126 17.4C44.8501 17.775 44.0345 18.2344 42.5626 18.2812C40.8751 18.3562 40.3313 18.0656 39.0751 17.625Z" fill="#CCCC33"/>
<path d="M45.9746 17.2969L46.1621 17.4844L45.9746 17.2969Z" fill="#99994E"/>
<path d="M46.1621 17.2969L46.3496 17.4844L46.1621 17.2969Z" fill="#49497D"/>
<path d="M52.0596 17.2969L52.2471 17.4844L52.0596 17.2969Z" fill="#0E0E6E"/>
<path d="M38.9346 17.4844L39.1221 17.6719L38.9346 17.4844Z" fill="#A4A43D"/>
<path d="M39.1221 17.4844L39.3096 17.6719L39.1221 17.4844Z" fill="#6E6C70"/>
<path d="M39.3096 17.4844L39.4971 17.6719L39.3096 17.4844Z" fill="#3A3A7C"/>
<path d="M44.25 17.4844L44.4375 17.6719L44.25 17.4844Z" fill="#1B1B74"/>
<path d="M44.4375 17.4844L44.625 17.6719L44.4375 17.4844Z" fill="#6E6C70"/>
<path d="M44.6436 17.4844L44.8311 17.6719L44.6436 17.4844Z" fill="#A4A43D"/>
<path d="M45.4033 17.4844L45.5908 17.6719L45.4033 17.4844Z" fill="#D0D045"/>
<path d="M46.1621 17.4844L46.3496 17.6719L46.1621 17.4844Z" fill="#A4A43D"/>
<path d="M46.3496 17.4844L46.5371 17.6719L46.3496 17.4844Z" fill="#8D8D5B"/>
<path d="M46.5469 17.4844L46.7344 17.6719L46.5469 17.4844Z" fill="#3A3A7C"/>
<path d="M51.4873 17.4844L51.6748 17.6719L51.4873 17.4844Z" fill="#262678"/>
<path d="M51.6846 17.4844L51.8721 17.6719L51.6846 17.4844Z" fill="#53527C"/>
<path d="M51.8721 17.4844L52.0596 17.6719L51.8721 17.4844Z" fill="#8D8D5B"/>
<path d="M39.6934 17.6812L39.8809 17.8687L39.6934 17.6812Z" fill="#737370"/>
<path d="M39.8809 17.6812L40.0684 17.8687L39.8809 17.6812Z" fill="#53527C"/>
<path d="M40.0684 17.6812L40.2559 17.8687L40.0684 17.6812Z" fill="#1B1B74"/>
<path d="M43.875 17.6812L44.0625 17.8687L43.875 17.6812Z" fill="#262678"/>
<path d="M44.0625 17.6812L44.25 17.8687L44.0625 17.6812Z" fill="#6E6C70"/>
<path d="M44.25 17.6812L44.4375 17.8687L44.25 17.6812Z" fill="#A4A43D"/>
<path d="M45.2158 17.6812L45.4033 17.8687L45.2158 17.6812Z" fill="#E5E59D"/>
<path d="M39.4592 18.1687C39.3654 20.7562 39.4404 23.6625 39.8342 26.4187C40.2936 27.8719 40.2279 28.6687 40.8936 29.5312L50.1748 29.4562C50.7373 28.5469 51.1592 27.1687 51.2061 26.6156C51.7311 23.8312 51.7404 20.7469 51.7592 17.9906C50.7383 18.5521 49.5722 18.7938 48.4123 18.6844C47.405 18.6238 46.4257 18.3285 45.5529 17.8219C44.6623 18.3469 44.3529 18.5906 42.8904 18.6562C41.7467 18.7125 40.8279 18.8062 39.4592 18.1687Z" fill="white"/>
<path d="M45.5908 17.6812L45.7783 17.8687L45.5908 17.6812Z" fill="#F2F1D7"/>
<path d="M45.7783 17.6812L45.9658 17.8687L45.7783 17.6812Z" fill="#D9D868"/>
<path d="M46.5469 17.6812L46.7344 17.8687L46.5469 17.6812Z" fill="#A4A43D"/>
<path d="M46.7344 17.6812L46.9219 17.8687L46.7344 17.6812Z" fill="#99994E"/>
<path d="M46.9219 17.6812L47.1094 17.8687L46.9219 17.6812Z" fill="#49497D"/>
<path d="M47.1094 17.6812L47.2969 17.8687L47.1094 17.6812Z" fill="#0E0E6E"/>
<path d="M50.9248 17.6812L51.1123 17.8687L50.9248 17.6812Z" fill="#3A3A7C"/>
<path d="M51.1123 17.6812L51.2998 17.8687L51.1123 17.6812Z" fill="#666677"/>
<path d="M51.2998 17.6812L51.4873 17.8687L51.2998 17.6812Z" fill="#99994E"/>
<path d="M51.4871 17.6812L51.6746 17.8687L51.4871 17.6812ZM40.0684 17.8687L40.2559 18.0562L40.0684 17.8687Z" fill="#A4A43D"/>
<path d="M40.2656 17.8687L40.4531 18.0562L40.2656 17.8687Z" fill="#99994E"/>
<path d="M40.4531 17.8687L40.6406 18.0562L40.4531 17.8687Z" fill="#6E6C70"/>
<path d="M40.6406 17.8687L40.8281 18.0562L40.6406 17.8687Z" fill="#49497D"/>
<path d="M40.8281 17.8687L41.0156 18.0562L40.8281 17.8687ZM43.3031 17.8687L43.4906 18.0562L43.3031 17.8687Z" fill="#1B1B74"/>
<path d="M43.4902 17.8687L43.6777 18.0562L43.4902 17.8687Z" fill="#53527C"/>
<path d="M43.6875 17.8687L43.875 18.0562L43.6875 17.8687Z" fill="#8D8D5B"/>
<path d="M43.875 17.8687L44.0625 18.0562L43.875 17.8687Z" fill="#A4A43D"/>
<path d="M44.8311 17.8687L45.0186 18.0562L44.8311 17.8687Z" fill="#E5E59D"/>
<path d="M45.0186 17.8687L45.2061 18.0562L45.0186 17.8687Z" fill="#FBFAF2"/>
<path d="M45.9746 17.8687L46.1621 18.0562L45.9746 17.8687Z" fill="#F2F1D2"/>
<path d="M46.1621 17.8687L46.3496 18.0562L46.1621 17.8687Z" fill="#D9D868"/>
<path d="M47.1094 17.8687L47.2969 18.0562L47.1094 17.8687Z" fill="#A4A43D"/>
<path d="M47.3066 17.8687L47.4941 18.0562L47.3066 17.8687Z" fill="#6E6C70"/>
<path d="M47.4941 17.8687L47.6816 18.0562L47.4941 17.8687Z" fill="#3A3A7C"/>
<path d="M49.9688 17.8687L50.1562 18.0562L49.9688 17.8687Z" fill="#0E0E6E"/>
<path d="M50.1562 17.8687L50.3438 18.0562L50.1562 17.8687Z" fill="#32327B"/>
<path d="M50.3438 17.8687L50.5312 18.0562L50.3438 17.8687Z" fill="#58587B"/>
<path d="M50.5312 17.8687L50.7188 18.0562L50.5312 17.8687Z" fill="#808067"/>
<path d="M50.8594 17.925L50.9812 17.9906L50.8594 17.925Z" fill="#A4A43D"/>
<path d="M39.3096 18.0562L39.4971 18.2437L39.3096 18.0562Z" fill="#DDDC7A"/>
<path d="M39.4971 18.0562L39.6846 18.2437L39.4971 18.0562Z" fill="#D0D045"/>
<path d="M40.959 18.1125L41.0902 18.1781L40.959 18.1125Z" fill="#A4A43D"/>
<path d="M41.2129 18.0562L41.4004 18.2437L41.2129 18.0562Z" fill="#808067"/>
<path d="M41.4004 18.0562L41.5879 18.2437L41.4004 18.0562Z" fill="#666677"/>
<path d="M41.5967 18.0562L41.7842 18.2437L41.5967 18.0562Z" fill="#58587B"/>
<path d="M41.7842 18.0562L41.9717 18.2437L41.7842 18.0562Z" fill="#49497D"/>
<path d="M42.9277 18.0562L43.1152 18.2437L42.9277 18.0562Z" fill="#737370"/>
<path d="M43.1152 18.0562L43.3027 18.2437L43.1152 18.0562Z" fill="#99994E"/>
<path d="M43.3027 18.0562L43.4902 18.2437L43.3027 18.0562Z" fill="#A4A43D"/>
<path d="M44.4375 18.0562L44.625 18.2437L44.4375 18.0562Z" fill="#E5E59D"/>
<path d="M44.6436 18.0562L44.8311 18.2437L44.6436 18.0562Z" fill="#FBFAF2"/>
<path d="M46.3496 18.0562L46.5371 18.2437L46.3496 18.0562Z" fill="#F2F1D2"/>
<path d="M46.5469 18.0562L46.7344 18.2437L46.5469 18.0562Z" fill="#D9D868"/>
<path d="M47.6152 18.1125L47.7465 18.1781L47.6246 18.1125H47.6152Z" fill="#A4A43D"/>
<path d="M47.8779 18.0562L48.0654 18.2437L47.8779 18.0562Z" fill="#808067"/>
<path d="M48.0654 18.0562L48.2529 18.2437L48.0654 18.0562Z" fill="#666677"/>
<path d="M48.2529 18.0562L48.4404 18.2437L48.2529 18.0562Z" fill="#58587B"/>
<path d="M48.4502 18.0562L48.6377 18.2437L48.4502 18.0562Z" fill="#3A3A7C"/>
<path d="M49.3311 18.1125L49.4623 18.1781L49.3311 18.1125Z" fill="#58587B"/>
<path d="M49.584 18.0562L49.7715 18.2437L49.584 18.0562Z" fill="#737370"/>
<path d="M49.7715 18.0562L49.959 18.2437L49.7715 18.0562Z" fill="#99994E"/>
<path d="M49.9688 18.0562L50.1562 18.2437L49.9688 18.0562Z" fill="#A4A43D"/>
<path d="M51.4873 18.0562L51.6748 18.2437L51.4873 18.0562Z" fill="#DDDC7A"/>
<path d="M51.6846 18.0562L51.8721 18.2437L51.6846 18.0562Z" fill="#D0D045"/>
<path d="M39.6934 18.2437L39.8809 18.4312L39.6934 18.2437Z" fill="#F2F1D7"/>
<path d="M39.8809 18.2437L40.0684 18.4312L39.8809 18.2437Z" fill="#E0DEA1"/>
<path d="M40.0684 18.2437L40.2559 18.4312L40.0684 18.2437Z" fill="#DDDC7A"/>
<path d="M43.875 18.2437L44.0625 18.4312L43.875 18.2437Z" fill="#D9D868"/>
<path d="M44.0625 18.2437L44.25 18.4312L44.0625 18.2437Z" fill="#E5E3AF"/>
<path d="M46.7344 18.2437L46.9219 18.4312L46.7344 18.2437Z" fill="#F6F6E4"/>
<path d="M46.9219 18.2437L47.1094 18.4312L46.9219 18.2437Z" fill="#E1E18C"/>
<path d="M50.7188 18.2437L50.9062 18.4312L50.7188 18.2437Z" fill="#D4D456"/>
<path d="M50.9248 18.2437L51.1123 18.4312L50.9248 18.2437Z" fill="#E1E18C"/>
<path d="M51.1123 18.2437L51.2998 18.4312L51.1123 18.2437Z" fill="#EEEDC1"/>
<path d="M40.4531 18.4312L40.6406 18.6187L40.4531 18.4312Z" fill="#F2F1D2"/>
<path d="M40.6406 18.4312L40.8281 18.6187L40.6406 18.4312Z" fill="#E0DEA1"/>
<path d="M40.8281 18.4312L41.0156 18.6187L40.8281 18.4312Z" fill="#DDDC7A"/>
<path d="M41.0254 18.4312L41.2129 18.6187L41.0254 18.4312Z" fill="#D0D045"/>
<path d="M43.3027 18.4312L43.4902 18.6187L43.3027 18.4312Z" fill="#DDDC7A"/>
<path d="M43.4902 18.4312L43.6777 18.6187L43.4902 18.4312Z" fill="#E5E3AF"/>
<path d="M43.6875 18.4312L43.875 18.6187L43.6875 18.4312Z" fill="#F6F6E4"/>
<path d="M47.3066 18.4312L47.4941 18.6187L47.3066 18.4312Z" fill="#EEEDC1"/>
<path d="M47.4941 18.4312L47.6816 18.6187L47.4941 18.4312Z" fill="#E1E18C"/>
<path d="M47.6816 18.4312L47.8691 18.6187L47.6816 18.4312Z" fill="#D4D456"/>
<path d="M49.9688 18.4312L50.1562 18.6187L49.9688 18.4312Z" fill="#D9D868"/>
<path d="M50.1562 18.4312L50.3438 18.6187L50.1562 18.4312Z" fill="#E1E18C"/>
<path d="M50.3438 18.4312L50.5312 18.6187L50.3438 18.4312Z" fill="#EEEDC1"/>
<path d="M50.5312 18.4312L50.7188 18.6187L50.5312 18.4312Z" fill="#F6F6E4"/>
<path d="M41.4004 18.6187L41.5879 18.8062L41.4004 18.6187Z" fill="#F2F1D7"/>
<path d="M41.5967 18.6187L41.7842 18.8062L41.5967 18.6187Z" fill="#F2F1D2"/>
<path d="M41.7842 18.6187L41.9717 18.8062L41.7842 18.6187Z" fill="#EEEDC1"/>
<path d="M42.6748 18.6844L42.7967 18.75L42.6748 18.6844Z" fill="#F2F1D2"/>
<path d="M42.9277 18.6187L43.1152 18.8062L42.9277 18.6187Z" fill="#FBFAF2"/>
<path d="M43.875 18.6187L44.25 18.9937V18.6187H43.875Z" fill="#FEF8F1"/>
<path d="M48.0654 18.6187L48.2529 18.8062L48.0654 18.6187Z" fill="#F2F1D7"/>
<path d="M48.2529 18.6187L48.4404 18.8062L48.2529 18.6187Z" fill="#F2F1D2"/>
<path d="M48.4502 18.6187L48.6377 18.8062L48.4502 18.6187Z" fill="#E5E3AF"/>
<path d="M48.7691 18.6844L48.891 18.75L48.7598 18.6844H48.7691Z" fill="#E5E59D"/>
<path d="M49.0215 18.6187L49.209 18.8062L49.0215 18.6187Z" fill="#E0DEA1"/>
<path d="M49.3311 18.6844L49.4623 18.75L49.3311 18.6844Z" fill="#F2F1D2"/>
<path d="M49.584 18.6187L49.7715 18.8062L49.584 18.6187Z" fill="#FBFAF2"/>
<path d="M43.4902 18.8156L43.6777 19.0031L43.4902 18.8156Z" fill="#FEF8F1"/>
<path d="M43.6875 18.8156L43.875 19.0031L43.6875 18.8156Z" fill="#FBBE66"/>
<path d="M43.4902 19.0031L43.6777 19.1906L43.4902 19.0031Z" fill="#FBC477"/>
<path d="M43.875 19.0031L44.0625 19.1906L43.875 19.0031Z" fill="#FCB144"/>
<path d="M43.4902 19.2L43.6777 19.3875L43.4902 19.2Z" fill="#FE9F11"/>
<path d="M43.875 19.2L44.0625 19.3875L43.875 19.2Z" fill="#FEA522"/>
<path d="M43.3027 19.3875L43.4902 19.575L43.3027 19.3875ZM44.0715 19.3875L44.259 19.575L44.0715 19.3875Z" fill="#FAE3C9"/>
<path d="M45.0186 19.3875L45.2061 19.575L45.0186 19.3875Z" fill="#FBEAD6"/>
<path d="M45.2158 19.3875L45.4033 19.575L45.2158 19.3875Z" fill="#F9D6AA"/>
<path d="M45.9746 19.3875L46.1621 19.575L45.9746 19.3875Z" fill="#FAE3C9"/>
<path d="M46.1621 19.3875L46.3496 19.575L46.1621 19.3875Z" fill="#FEF8F1"/>
<path d="M43.3027 19.575L43.4902 19.7625L43.3027 19.575Z" fill="#F9D099"/>
<path d="M44.0625 19.575L44.25 19.7625L44.0625 19.575Z" fill="#FDAB33"/>
<path d="M44.4375 19.575L44.625 19.7625L44.4375 19.575Z" fill="#FCF1E4"/>
<path d="M44.6436 19.575L44.8311 19.7625L44.6436 19.575Z" fill="#FBC477"/>
<path d="M44.8311 19.575L45.0186 19.7625L44.8311 19.575Z" fill="#FEA522"/>
<path d="M46.3496 19.575L46.5371 19.7625L46.3496 19.575Z" fill="#FCB755"/>
<path d="M46.5469 19.575L46.7344 19.7625L46.5469 19.575Z" fill="#F9D6AA"/>
<path d="M43.3027 19.7719L43.4902 19.9594L43.3027 19.7719Z" fill="#FACA88"/>
<path d="M44.25 19.7719L44.4375 19.9594L44.25 19.7719ZM46.7344 19.7719L46.9219 19.9594L46.7344 19.7719Z" fill="#FEA522"/>
<path d="M46.9219 19.7719L47.1094 19.9594L46.9219 19.7719Z" fill="#F8DCBB"/>
<path d="M39.3096 19.9594L39.4971 20.1469L39.3096 19.9594Z" fill="#F6F6E4"/>
<path d="M43.3027 19.9594L43.4902 20.1469L43.3027 19.9594Z" fill="#FBC477"/>
<path d="M47.1094 19.9594L47.2969 20.1469L47.1094 19.9594Z" fill="#FBBE66"/>
<path d="M47.3066 19.9594L47.4941 20.1469L47.3066 19.9594Z" fill="#F8DCBB"/>
<path d="M43.3027 20.1469L43.4902 20.3344L43.3027 20.1469Z" fill="#FACA88"/>
<path d="M47.6816 20.1469L47.8691 20.3344L47.6816 20.1469Z" fill="#FCB755"/>
<path d="M47.8779 20.1469L48.0654 20.3344L47.8779 20.1469Z" fill="#F8DCBB"/>
<path d="M43.1152 20.3438L43.3027 20.5312L43.1152 20.3438Z" fill="#FEF8F1"/>
<path d="M43.3027 20.3438L43.4902 20.5312L43.3027 20.3438Z" fill="#FE9F11"/>
<path d="M48.6377 20.3438L48.8252 20.5312L48.6377 20.3438Z" fill="#FDAB33"/>
<path d="M48.834 20.3438L49.0215 20.5312L48.834 20.3438Z" fill="#FCB144"/>
<path d="M49.0215 20.3438L49.209 20.5312L49.0215 20.3438Z" fill="#FBC477"/>
<path d="M49.209 20.3438L49.584 20.7188L49.209 20.3438Z" fill="#F9D6AA"/>
<path d="M49.3965 20.3438L49.584 20.5312L49.3965 20.3438Z" fill="#FEF8F1"/>
<path d="M43.1152 20.5312L43.3027 20.7188L43.1152 20.5312Z" fill="#FCB144"/>
<path d="M45.7783 20.5312L45.9658 20.7188L45.7783 20.5312Z" fill="#FDAB33"/>
<path d="M45.9746 20.5312L46.1621 20.7188L45.9746 20.5312ZM46.7246 20.5312L46.9121 20.7188L46.7246 20.5312Z" fill="#FBC477"/>
<path d="M46.9219 20.5312L47.1094 20.7188L46.9219 20.5312Z" fill="#FEA522"/>
<path d="M42.9277 20.7188L43.1152 20.9062L42.9277 20.7188Z" fill="#FAE3C9"/>
<path d="M45.4033 20.7188L45.5908 20.9062L45.4033 20.7188Z" fill="#FCB144"/>
<path d="M45.5908 20.7188L45.7783 20.9062L45.5908 20.7188Z" fill="#FAE3C9"/>
<path d="M47.1094 20.7188L47.2969 20.9062L47.1094 20.7188Z" fill="#F8DCBB"/>
<path d="M47.3066 20.7188L47.4941 20.9062L47.3066 20.7188Z" fill="#FDAB33"/>
<path d="M48.4502 20.7188L48.6377 20.9062L48.4502 20.7188Z" fill="#FE9F11"/>
<path d="M48.6377 20.7188L48.8252 20.9062L48.6377 20.7188Z" fill="#FCB755"/>
<path d="M48.834 20.7188L49.0215 20.9062L48.834 20.7188Z" fill="#F9D099"/>
<path d="M49.0215 20.7188L49.209 20.9062L49.0215 20.7188Z" fill="#FBEAD6"/>
<path d="M42.9277 20.9062L43.1152 21.0938L42.9277 20.9062Z" fill="#FCB144"/>
<path d="M45.2158 20.9062L45.4033 21.0938L45.2158 20.9062Z" fill="#FBBE66"/>
<path d="M47.4941 20.9062L47.6816 21.0938L47.4941 20.9062Z" fill="#F9D099"/>
<path d="M48.2529 20.9062L48.4404 21.0938L48.2529 20.9062Z" fill="#FBEAD6"/>
<path d="M42.7402 21.0938L42.9277 21.2812L42.7402 21.0938Z" fill="#FCF1E4"/>
<path d="M45.0186 21.0938L45.2061 21.2812L45.0186 21.0938Z" fill="#FBBE66"/>
<path d="M47.6816 21.0938L47.8691 21.2812L47.6816 21.0938Z" fill="#F9D099"/>
<path d="M48.2529 21.0938L48.4404 21.2812L48.2529 21.0938Z" fill="#FAE3C9"/>
<path d="M42.7402 21.2812L42.9277 21.4688L42.7402 21.2812Z" fill="#FBC477"/>
<path d="M44.8311 21.2812L45.0186 21.4688L44.8311 21.2812ZM47.8779 21.2812L48.0654 21.4688L47.8779 21.2812Z" fill="#FCB144"/>
<path d="M48.2529 21.2812L48.4404 21.4688L48.2529 21.2812Z" fill="#FBBE66"/>
<path d="M39.3096 21.4688L39.4971 21.6562L39.3096 21.4688Z" fill="#F6F6E4"/>
<path d="M42.7402 21.4688L42.9277 21.6562L42.7402 21.4688Z" fill="#FEA522"/>
<path d="M44.8311 21.4688L45.0186 21.6562L44.8311 21.4688Z" fill="#FBEAD6"/>
<path d="M47.8779 21.4688L48.0654 21.6562L47.8779 21.4688Z" fill="#FCF1E4"/>
<path d="M48.4502 21.4688L48.6377 21.6562L48.4502 21.4688Z" fill="#FEF8F1"/>
<path d="M42.5527 21.675L42.7402 21.8625L42.5527 21.675Z" fill="#FCF1E4"/>
<path d="M44.6436 21.675L44.8311 21.8625L44.6436 21.675Z" fill="#FBBE66"/>
<path d="M48.0654 21.675L48.2529 21.8625L48.0654 21.675Z" fill="#FACA88"/>
<path d="M48.4502 21.675L48.6377 21.8625L48.4502 21.675Z" fill="#F9D099"/>
<path d="M42.5527 21.8625L42.7402 22.05L42.5527 21.8625Z" fill="#F9D6AA"/>
<path d="M44.6436 21.8625L44.8311 22.05L44.6436 21.8625Z" fill="#FCF1E4"/>
<path d="M45.5908 21.8625L45.7783 22.05L45.5908 21.8625Z" fill="#FAE3C9"/>
<path d="M45.7783 21.8625L45.9658 22.05L45.7783 21.8625Z" fill="#FEA522"/>
<path d="M45.9746 21.8625L46.1621 22.05L45.9746 21.8625Z" fill="#FCB144"/>
<path d="M46.1621 21.8625L46.3496 22.05L46.1621 21.8625Z" fill="#F9D6AA"/>
<path d="M48.0654 21.8625L48.2529 22.05L48.0654 21.8625Z" fill="#FEF8F1"/>
<path d="M48.2529 21.8625L48.4404 22.05L48.2529 21.8625Z" fill="#FEA522"/>
<path d="M48.4502 21.8625L48.6377 22.05L48.4502 21.8625Z" fill="#FDAB33"/>
<path d="M42.5533 22.05L42.3564 22.6125L42.5439 22.05H42.5533Z" fill="#FACA88"/>
<path d="M44.4375 22.05L44.625 22.2375L44.4375 22.05Z" fill="#FEA522"/>
<path d="M44.6436 22.05L44.8311 22.2375L44.6436 22.05Z" fill="#FEF8F1"/>
<path d="M45.5908 22.05L45.7783 22.2375L45.5908 22.05Z" fill="#F9D099"/>
<path d="M46.3496 22.05L46.5371 22.2375L46.3496 22.05Z" fill="#FDAB33"/>
<path d="M46.5469 22.05L46.7344 22.2375L46.5469 22.05Z" fill="#FAE3C9"/>
<path d="M48.2529 22.05L48.4404 22.2375L48.2529 22.05Z" fill="#F8DCBB"/>
<path d="M48.4502 22.05L48.6377 22.2375L48.4502 22.05Z" fill="#FF9900"/>
<path d="M48.7031 22.1812L48.7594 22.3031L48.7031 22.1812Z" fill="#FBEAD6"/>
<path d="M44.8311 22.2375L45.0186 22.425L44.8311 22.2375Z" fill="#FEA522"/>
<path d="M45.0186 22.2375L45.2061 22.425L45.0186 22.2375Z" fill="#FBBE66"/>
<path d="M45.2158 22.2375L45.4033 22.425L45.2158 22.2375Z" fill="#FACA88"/>
<path d="M45.4033 22.2375L45.5908 22.425L45.4033 22.2375Z" fill="#FCB144"/>
<path d="M45.5908 22.2375L45.7783 22.425L45.5908 22.2375Z" fill="#FAE3C9"/>
<path d="M45.7783 22.2375L45.9658 22.425L45.7783 22.2375Z" fill="#FE9F11"/>
<path d="M46.7344 22.2375L46.9219 22.425L46.7344 22.2375Z" fill="#FDAB33"/>
<path d="M46.9219 22.2375L47.1094 22.425L46.9219 22.2375Z" fill="#FBC477"/>
<path d="M47.1094 22.2375L47.2969 22.425L47.1094 22.2375Z" fill="#FACA88"/>
<path d="M47.3066 22.2375L47.4941 22.425L47.3066 22.2375Z" fill="#F9D6AA"/>
<path d="M47.6152 22.3031L47.7465 22.3688L47.6246 22.3031H47.6152Z" fill="#FAE3C9"/>
<path d="M47.8779 22.2375L48.0654 22.425L47.8779 22.2375Z" fill="#FEF8F1"/>
<path d="M48.4502 22.2375L48.6377 22.425L48.4502 22.2375Z" fill="#FBC477"/>
<path d="M40.2656 22.4344L40.4531 22.6219L40.2656 22.4344Z" fill="#FEF8F1"/>
<path d="M40.4531 22.4344L40.6406 22.6219L40.4531 22.4344Z" fill="#FCF1E4"/>
<path d="M45.4033 22.4344L45.5908 22.6219L45.4033 22.4344Z" fill="#FCB755"/>
<path d="M45.7783 22.4344L45.9658 22.6219L45.7783 22.4344Z" fill="#FBEAD6"/>
<path d="M45.9746 22.4344L46.1621 22.6219L45.9746 22.4344Z" fill="#FEA522"/>
<path d="M47.4941 22.4344L47.6816 22.6219L47.4941 22.4344Z" fill="#FE9F11"/>
<path d="M47.6816 22.4344L47.4941 22.8094L47.6816 22.4344Z" fill="#FCB144"/>
<path d="M48.0654 22.4344L48.2529 22.6219L48.0654 22.4344Z" fill="#FE9F11"/>
<path d="M48.2529 22.4344L48.4404 22.6219L48.2529 22.4344Z" fill="#FBBE66"/>
<path d="M48.4502 22.4344L48.6377 22.6219L48.4502 22.4344Z" fill="#FCF1E4"/>
<path d="M40.2656 22.6219L40.4531 22.8094L40.2656 22.6219Z" fill="#FAE3C9"/>
<path d="M40.4531 22.6219L40.8281 22.9969L40.4531 22.6219Z" fill="#FE9F11"/>
<path d="M40.6406 22.6219L40.8281 22.8094L40.6406 22.6219ZM42.3562 22.6219L42.5437 22.8094L42.3562 22.6219Z" fill="#FBEAD6"/>
<path d="M42.5527 22.6219L42.7402 22.8094L42.5527 22.6219Z" fill="#FAE3C9"/>
<path d="M44.25 22.6219L44.4375 22.8094L44.25 22.6219Z" fill="#FE9F11"/>
<path d="M44.4375 22.6219L44.625 22.8094L44.4375 22.6219Z" fill="#FBC477"/>
<path d="M44.6436 22.6219L44.8311 22.8094L44.6436 22.6219Z" fill="#FEA522"/>
<path d="M45.2158 22.6219L45.4033 22.8094L45.2158 22.6219Z" fill="#FBC477"/>
<path d="M45.4033 22.6219L45.5908 22.8094L45.4033 22.6219Z" fill="#FEF8F1"/>
<path d="M46.1621 22.6219L46.3496 22.8094L46.1621 22.6219Z" fill="#FBC477"/>
<path d="M47.6816 22.6219L47.8691 22.8094L47.6816 22.6219Z" fill="white"/>
<path d="M47.8779 22.6219L48.0654 22.8094L47.8779 22.6219Z" fill="#FDAB33"/>
<path d="M48.6377 22.6219L48.8252 22.8094L48.6377 22.6219Z" fill="#FBC477"/>
<path d="M40.2656 22.8094L40.4531 22.9969L40.2656 22.8094Z" fill="#FEF8F1"/>
<path d="M40.8281 22.8094L41.0156 22.9969L40.8281 22.8094Z" fill="#FBEAD6"/>
<path d="M41.7842 22.8094L41.9717 22.9969L41.7842 22.8094Z" fill="#F9D6AA"/>
<path d="M42.7402 22.8094L42.9277 22.9969L42.7402 22.8094Z" fill="#FE9F11"/>
<path d="M43.0498 22.875L43.1811 22.9406L43.0498 22.875Z" fill="#F9D6AA"/>
<path d="M44.25 22.8094L44.4375 22.9969L44.25 22.8094Z" fill="#F8DCBB"/>
<path d="M44.8311 22.8094L45.0186 22.9969L44.8311 22.8094Z" fill="#FCF1E4"/>
<path d="M46.3496 22.8094L46.5371 22.9969L46.3496 22.8094Z" fill="#F9D6AA"/>
<path d="M47.6816 22.8094L47.8691 22.9969L47.6816 22.8094Z" fill="#FDAB33"/>
<path d="M48.834 22.8094L49.0215 22.9969L48.834 22.8094Z" fill="#FCB755"/>
<path d="M49.0215 22.8094L49.209 22.9969L49.0215 22.8094Z" fill="#FEF8F1"/>
<path d="M38.7373 23.0063L38.9248 23.1938L38.7373 23.0063Z" fill="#53527C"/>
<path d="M40.4531 23.0063L40.6406 23.1938L40.4531 23.0063Z" fill="#FCB755"/>
<path d="M40.8281 23.0063L41.0156 23.1938L40.8281 23.0063Z" fill="#FEA522"/>
<path d="M41.5967 23.0063L41.7842 23.1938L41.5967 23.0063Z" fill="#FBEAD6"/>
<path d="M41.9717 23.0063L42.1592 23.1938L41.9717 23.0063Z" fill="#FE9F11"/>
<path d="M42.1689 23.0063L42.3564 23.1938L42.1689 23.0063Z" fill="#FCF1E4"/>
<path d="M42.7402 23.0063L42.9277 23.1938L42.7402 23.0063Z" fill="#FBBE66"/>
<path d="M42.9277 23.0063L43.1152 23.1938L42.9277 23.0063Z" fill="#FBC477"/>
<path d="M43.1152 23.0063L43.3027 23.1938L43.1152 23.0063Z" fill="#FBBE66"/>
<path d="M44.0625 23.0063L44.25 23.1938L44.0625 23.0063Z" fill="#FEA522"/>
<path d="M46.5469 23.0063L46.7344 23.1938L46.5469 23.0063Z" fill="#F9D6AA"/>
<path d="M49.0215 23.0063L49.209 23.1938L49.0215 23.0063Z" fill="#FCB144"/>
<path d="M52.0596 23.0063L52.2471 23.1938L52.0596 23.0063Z" fill="#8D8D5B"/>
<path d="M39.3096 23.1938L39.4971 23.3813L39.3096 23.1938Z" fill="#E5E3AF"/>
<path d="M40.4531 23.1938L40.6406 23.3813L40.4531 23.1938Z" fill="#F8DCBB"/>
<path d="M41.0254 23.1938L41.2129 23.3813L41.0254 23.1938Z" fill="#FDAB33"/>
<path d="M41.5967 23.1938L41.7842 23.3813L41.5967 23.1938Z" fill="#FE9F11"/>
<path d="M41.9717 23.1938L42.1592 23.3813L41.9717 23.1938Z" fill="#FACA88"/>
<path d="M42.7402 23.1938L42.9277 23.3813L42.7402 23.1938Z" fill="#FCF1E4"/>
<path d="M44.0625 23.1938L44.25 23.3813L44.0625 23.1938ZM46.7344 23.1938L46.9219 23.3813L46.7344 23.1938Z" fill="#F9D099"/>
<path d="M49.209 23.1938L49.3965 23.3813L49.209 23.1938Z" fill="#FBBE66"/>
<path d="M40.6406 23.3813L40.8281 23.5688L40.6406 23.3813Z" fill="#FEA522"/>
<path d="M41.2129 23.3813L41.4004 23.5688L41.2129 23.3813Z" fill="#FDAB33"/>
<path d="M41.4004 23.3813L41.5879 23.5688L41.4004 23.3813Z" fill="#FEA522"/>
<path d="M41.7842 23.3813L41.9717 23.5688L41.7842 23.3813Z" fill="#FE9F11"/>
<path d="M41.9717 23.3813L42.1592 23.5688L41.9717 23.3813Z" fill="#FEF8F1"/>
<path d="M42.9277 23.3813L43.1152 23.5688L42.9277 23.3813Z" fill="#FBBE66"/>
<path d="M44.0625 23.3813L44.25 23.5688L44.0625 23.3813Z" fill="#FEF8F1"/>
<path d="M46.9219 23.3813L47.1094 23.5688L46.9219 23.3813Z" fill="#FBBE66"/>
<path d="M49.3965 23.3813L49.584 23.5688L49.3965 23.3813Z" fill="#F9D099"/>
<path d="M40.6406 23.5781L40.8281 23.7656L40.6406 23.5781Z" fill="#F9D6AA"/>
<path d="M41.7842 23.5781L41.9717 23.7656L41.7842 23.5781Z" fill="#F9D099"/>
<path d="M42.9277 23.5781L43.1152 23.7656L42.9277 23.5781Z" fill="#FCF1E4"/>
<path d="M43.875 23.5781L44.0625 23.7656L43.875 23.5781ZM47.1094 23.5781L47.2969 23.7656L47.1094 23.5781Z" fill="#FDAB33"/>
<path d="M49.584 23.5781L49.7715 23.7656L49.584 23.5781Z" fill="#FBEAD6"/>
<path d="M40.8281 23.7656L41.0156 23.9531L40.8281 23.7656Z" fill="#FEA522"/>
<path d="M41.5967 23.7656L41.7842 23.9531L41.5967 23.7656Z" fill="#FE9F11"/>
<path d="M43.1152 23.7656L43.3027 23.9531L43.1152 23.7656Z" fill="#FCB144"/>
<path d="M43.875 23.7656L44.0625 23.9531L43.875 23.7656Z" fill="#FACA88"/>
<path d="M47.1094 23.7656L47.2969 23.9531L47.1094 23.7656Z" fill="#F8DCBB"/>
<path d="M49.584 23.7656L49.7715 23.9531L49.584 23.7656Z" fill="#FCB144"/>
<path d="M39.3096 23.9625L39.4971 24.15L39.3096 23.9625Z" fill="#D3D079"/>
<path d="M40.8281 23.9625L41.0156 24.15L40.8281 23.9625ZM43.1156 23.9625L43.3031 24.15L43.1156 23.9625Z" fill="#FACA88"/>
<path d="M43.875 23.9625L44.0625 24.15L43.875 23.9625ZM47.1094 23.9625L47.2969 24.15L47.1094 23.9625Z" fill="#FAE3C9"/>
<path d="M49.7715 23.9625L49.959 24.15L49.7715 23.9625Z" fill="#F8DCBB"/>
<path d="M51.4873 23.9625L51.6748 24.15L51.4873 23.9625Z" fill="#F2F1D7"/>
<path d="M52.125 24.0844L52.1906 24.2063L52.125 24.0844Z" fill="#58587B"/>
<path d="M39.3652 24.2719L39.4402 24.4031L39.3746 24.2719H39.3652Z" fill="#D9D868"/>
<path d="M40.8281 24.15L41.0156 24.3375L40.8281 24.15Z" fill="#F8DCBB"/>
<path d="M46.9219 24.15L47.1094 24.3375L46.9219 24.15Z" fill="#F9D6AA"/>
<path d="M47.1094 24.15L47.2969 24.3375L47.1094 24.15Z" fill="#FE9F11"/>
<path d="M49.7715 24.15L49.959 24.3375L49.7715 24.15Z" fill="#FCB144"/>
<path d="M51.5527 24.2719L51.6184 24.4031L51.5527 24.2719Z" fill="#F2F1D2"/>
<path d="M40.8281 24.3375L41.0156 24.525L40.8281 24.3375Z" fill="#FCF1E4"/>
<path d="M46.7344 24.3375L46.9219 24.525L46.7344 24.3375Z" fill="#FEF8F1"/>
<path d="M46.9219 24.3375L47.1094 24.525L46.9219 24.3375Z" fill="#FE9F11"/>
<path d="M47.4941 24.3375L47.3066 24.7125L47.4941 24.3375Z" fill="#FDAB33"/>
<path d="M47.6816 24.3375L47.8691 24.525L47.6816 24.3375Z" fill="#FCB755"/>
<path d="M49.9688 24.3375L50.1562 24.525L49.9688 24.3375Z" fill="#FEA522"/>
<path d="M50.1562 24.3375L50.3438 24.525L50.1562 24.3375Z" fill="#F9D099"/>
<path d="M52.0596 24.3375L52.2471 24.525L52.0596 24.3375Z" fill="#53527C"/>
<path d="M38.9902 24.6562L39.0559 24.7781L38.9902 24.6562Z" fill="#808067"/>
<path d="M41.0254 24.525L41.2129 24.7125L41.0254 24.525ZM41.5879 24.525L41.7754 24.7125L41.5879 24.525Z" fill="#FEA522"/>
<path d="M43.6875 24.525L43.875 24.7125L43.6875 24.525Z" fill="#FE9F11"/>
<path d="M46.7344 24.525L46.9219 24.7125L46.7344 24.525Z" fill="#FAE3C9"/>
<path d="M47.4941 24.525L47.6816 24.7125L47.4941 24.525Z" fill="#FEF8F1"/>
<path d="M47.8779 24.525L48.0654 24.7125L47.8779 24.525Z" fill="#FCB144"/>
<path d="M50.3438 24.525L50.5312 24.7125L50.3438 24.525Z" fill="#FCB755"/>
<path d="M50.5312 24.525L50.9062 24.9L50.5312 24.525Z" fill="#FEF8F1"/>
<path d="M51.5527 24.6562L51.6184 24.7781L51.5527 24.6562Z" fill="#E5E59D"/>
<path d="M52.125 24.6562L52.1906 24.7781L52.125 24.6562Z" fill="#32327B"/>
<path d="M41.0908 24.8438L41.1471 24.975L41.0908 24.8438Z" fill="#FCB755"/>
<path d="M41.7842 24.7125L41.9717 24.9L41.7842 24.7125Z" fill="#FEF8F1"/>
<path d="M43.6875 24.7125L43.875 24.9L43.6875 24.7125Z" fill="#FBBE66"/>
<path d="M46.7344 24.7125L46.9219 24.9L46.7344 24.7125Z" fill="#FBEAD6"/>
<path d="M47.1094 24.7125L47.2969 24.9L47.1094 24.7125Z" fill="#FE9F11"/>
<path d="M47.3066 24.7125L47.4941 24.9L47.3066 24.7125Z" fill="#FCF1E4"/>
<path d="M47.8779 24.7125L48.0654 24.9L47.8779 24.7125Z" fill="#FBEAD6"/>
<path d="M50.5312 24.7125L50.7188 24.9L50.5312 24.7125Z" fill="#FDAB33"/>
<path d="M38.9346 24.9L39.1221 25.0875L38.9346 24.9Z" fill="#666677"/>
<path d="M39.4971 24.9L39.6846 25.0875L39.4971 24.9Z" fill="#F6F6E4"/>
<path d="M41.7842 24.9L41.9717 25.0875L41.7842 24.9Z" fill="#F9D6AA"/>
<path d="M43.3027 24.9L43.4902 25.0875L43.3027 24.9Z" fill="#FDAB33"/>
<path d="M43.4902 24.9L43.6777 25.0875L43.4902 24.9Z" fill="#FE9F11"/>
<path d="M43.6875 24.9L43.875 25.0875L43.6875 24.9Z" fill="#FCF1E4"/>
<path d="M46.9219 24.9L47.1094 25.0875L46.9219 24.9Z" fill="#FEA522"/>
<path d="M47.1094 24.9L47.2969 25.0875L47.1094 24.9ZM48.0656 24.9L48.2531 25.0875L48.0656 24.9Z" fill="#FACA88"/>
<path d="M50.7188 24.9L50.9062 25.0875L50.7188 24.9Z" fill="#FCB144"/>
<path d="M51.4873 24.9L51.6748 25.0875L51.4873 24.9Z" fill="#DDDC7A"/>
<path d="M38.9346 25.0969L39.1221 25.2844L38.9346 25.0969Z" fill="#58587B"/>
<path d="M39.4971 25.0969L39.6846 25.2844L39.4971 25.0969Z" fill="#F2F1D2"/>
<path d="M41.0908 25.2188L41.1471 25.35L41.0908 25.2188Z" fill="#FCB144"/>
<path d="M41.7842 25.0969L41.9717 25.2844L41.7842 25.0969Z" fill="#FEA522"/>
<path d="M43.6875 25.0969L43.875 25.2844L43.6875 25.0969Z" fill="#FEF8F1"/>
<path d="M43.875 25.0969L44.0625 25.2844L43.875 25.0969Z" fill="#FEA522"/>
<path d="M44.25 25.0969L44.4375 25.2844L44.25 25.0969Z" fill="#FCB144"/>
<path d="M44.4375 25.0969L44.625 25.2844L44.4375 25.0969Z" fill="#FBEAD6"/>
<path d="M46.9219 25.0969L47.1094 25.2844L46.9219 25.0969Z" fill="#F8DCBB"/>
<path d="M47.1094 25.0969L47.2969 25.2844L47.1094 25.0969Z" fill="#FCF1E4"/>
<path d="M48.0654 25.0969L48.2529 25.2844L48.0654 25.0969Z" fill="#FEF8F1"/>
<path d="M48.2529 25.0969L48.4404 25.2844L48.2529 25.0969Z" fill="#FE9F11"/>
<path d="M50.9248 25.0969L51.1123 25.2844L50.9248 25.0969Z" fill="#FBEAD6"/>
<path d="M51.4873 25.0969L51.6748 25.2844L51.4873 25.0969Z" fill="#D9D868"/>
<path d="M38.9346 25.2844L39.1221 25.4719L38.9346 25.2844Z" fill="#3A3A7C"/>
<path d="M39.4971 25.2844L39.6846 25.4719L39.4971 25.2844Z" fill="#E5E3AF"/>
<path d="M41.9717 25.2844L42.1592 25.4719L41.9717 25.2844Z" fill="#FACA88"/>
<path d="M43.875 25.2844L44.0625 25.4719L43.875 25.2844Z" fill="#FBEAD6"/>
<path d="M44.4375 25.2844L44.625 25.4719L44.4375 25.2844Z" fill="#FE9F11"/>
<path d="M44.6436 25.2844L44.8311 25.4719L44.6436 25.2844Z" fill="#FCF1E4"/>
<path d="M46.7344 25.2844L46.9219 25.4719L46.7344 25.2844Z" fill="#FBEAD6"/>
<path d="M46.9219 25.2844L47.1094 25.4719L46.9219 25.2844Z" fill="#FAE3C9"/>
<path d="M47.1094 25.2844L47.2969 25.4719L47.1094 25.2844Z" fill="#FBEAD6"/>
<path d="M48.2529 25.2844L48.4404 25.4719L48.2529 25.2844ZM49.7811 25.2844L49.9686 25.4719L49.7811 25.2844Z" fill="#FBBE66"/>
<path d="M49.9688 25.2844L50.1562 25.4719L49.9688 25.2844Z" fill="#FCF1E4"/>
<path d="M50.1562 25.2844L50.3438 25.4719L50.1562 25.2844Z" fill="#FEF8F1"/>
<path d="M50.3438 25.2844L50.5312 25.4719L50.3438 25.2844Z" fill="#F8DCBB"/>
<path d="M50.5312 25.2844L50.7188 25.4719L50.5312 25.2844Z" fill="#FCB755"/>
<path d="M50.9248 25.2844L51.1123 25.4719L50.9248 25.2844Z" fill="#FAE3C9"/>
<path d="M51.8721 25.2844L52.0596 25.4719L51.8721 25.2844Z" fill="#808067"/>
<path d="M38.9346 25.4812L39.1221 25.6687L38.9346 25.4812Z" fill="#32327B"/>
<path d="M39.1777 25.5938L39.2434 25.7344L39.1871 25.6031L39.1777 25.5938Z" fill="#A4A43D"/>
<path d="M39.4971 25.4812L39.6846 25.6687L39.4971 25.4812Z" fill="#E5E59D"/>
<path d="M41.0254 25.4812L41.2129 25.6687L41.0254 25.4812Z" fill="#FBC477"/>
<path d="M42.1689 25.4812L42.3564 25.6687L42.1689 25.4812Z" fill="#F9D6AA"/>
<path d="M44.0625 25.4812L44.25 25.6687L44.0625 25.4812Z" fill="#FBBE66"/>
<path d="M44.6436 25.4812L44.8311 25.6687L44.6436 25.4812Z" fill="#F9D099"/>
<path d="M46.3496 25.4812L46.5371 25.6687L46.3496 25.4812Z" fill="#FAE3C9"/>
<path d="M46.5469 25.4812L46.7344 25.6687L46.5469 25.4812Z" fill="#FCB144"/>
<path d="M47.3066 25.4812L47.4941 25.6687L47.3066 25.4812Z" fill="#FAE3C9"/>
<path d="M48.2529 25.4812L48.4404 25.6687L48.2529 25.4812Z" fill="#F8DCBB"/>
<path d="M49.7715 25.4812L49.959 25.6687L49.7715 25.4812Z" fill="#F9D099"/>
<path d="M50.7188 25.4812L50.9062 25.6687L50.7188 25.4812Z" fill="#FBC477"/>
<path d="M50.9248 25.4812L51.1123 25.6687L50.9248 25.4812Z" fill="#FBEAD6"/>
<path d="M51.8721 25.4812L52.0596 25.6687L51.8721 25.4812Z" fill="#737370"/>
<path d="M39.4971 25.6687L39.6846 25.8562L39.4971 25.6687Z" fill="#D9D868"/>
<path d="M41.0254 25.6687L41.2129 25.8562L41.0254 25.6687Z" fill="#F9D099"/>
<path d="M42.3564 25.6687L42.5439 25.8562L42.3564 25.6687ZM44.0721 25.6687L44.2596 25.8562L44.0721 25.6687Z" fill="#F9D6AA"/>
<path d="M44.6436 25.6687L44.8311 25.8562L44.6436 25.6687Z" fill="#FBC477"/>
<path d="M45.5908 25.6687L45.7783 25.8562L45.5908 25.6687Z" fill="#FEF8F1"/>
<path d="M45.7783 25.6687L45.9658 25.8562L45.7783 25.6687Z" fill="#F8DCBB"/>
<path d="M45.9746 25.6687L46.1621 25.8562L45.9746 25.6687Z" fill="#FBC477"/>
<path d="M46.1621 25.6687L46.3496 25.8562L46.1621 25.6687Z" fill="#FEA522"/>
<path d="M47.3066 25.6687L47.4941 25.8562L47.3066 25.6687Z" fill="#FBEAD6"/>
<path d="M51.2998 25.6687L51.4873 25.8562L51.2998 25.6687Z" fill="#F2F1D2"/>
<path d="M51.8721 25.6687L52.0596 25.8562L51.8721 25.6687Z" fill="#58587B"/>
<path d="M39.1221 25.8562L39.3096 26.0437L39.1221 25.8562Z" fill="#99994E"/>
<path d="M39.4971 25.8562L39.6846 26.0437L39.4971 25.8562Z" fill="#D0D045"/>
<path d="M42.5527 25.8562L42.7402 26.0437L42.5527 25.8562Z" fill="#FCB144"/>
<path d="M42.7402 25.8562L42.9277 26.0437L42.7402 25.8562Z" fill="#FAE3C9"/>
<path d="M44.0625 25.8562L44.25 26.0437L44.0625 25.8562Z" fill="#FEF8F1"/>
<path d="M44.8311 25.8562L45.0186 26.0437L44.8311 25.8562Z" fill="#FCB755"/>
<path d="M45.0186 25.8562L45.2061 26.0437L45.0186 25.8562Z" fill="#FBC477"/>
<path d="M45.2158 25.8562L45.4033 26.0437L45.2158 25.8562Z" fill="#FCB144"/>
<path d="M45.4033 25.8562L45.5908 26.0437L45.4033 25.8562Z" fill="#FEA522"/>
<path d="M46.9219 25.8562L47.1094 26.0437L46.9219 25.8562Z" fill="#FE9F11"/>
<path d="M47.1094 25.8562L47.2969 26.0437L47.1094 25.8562Z" fill="#F9D6AA"/>
<path d="M49.7715 25.8562L49.959 26.0437L49.7715 25.8562Z" fill="#FEF8F1"/>
<path d="M51.2998 25.8562L51.4873 26.0437L51.2998 25.8562Z" fill="#E0DEA1"/>
<path d="M51.8721 25.8562L52.0596 26.0437L51.8721 25.8562Z" fill="#3A3A7C"/>
<path d="M39.1221 26.0531L39.3096 26.2406L39.1221 26.0531Z" fill="#737370"/>
<path d="M39.6934 26.0531L39.8809 26.2406L39.6934 26.0531Z" fill="#FBFAF2"/>
<path d="M41.2129 26.0531L41.4004 26.2406L41.2129 26.0531Z" fill="#FEA522"/>
<path d="M42.9277 26.0531L43.1152 26.2406L42.9277 26.0531Z" fill="#FE9F11"/>
<path d="M43.1152 26.0531L43.3027 26.2406L43.1152 26.0531Z" fill="#FCB144"/>
<path d="M43.3027 26.0531L43.4902 26.2406L43.3027 26.0531Z" fill="#FBC477"/>
<path d="M43.4902 26.0531L43.6777 26.2406L43.4902 26.0531Z" fill="#FACA88"/>
<path d="M43.6875 26.0531L43.875 26.2406L43.6875 26.0531Z" fill="#FBC477"/>
<path d="M43.875 26.0531L44.0625 26.2406L43.875 26.0531Z" fill="#FCB144"/>
<path d="M44.0625 26.0531L44.25 26.2406L44.0625 26.0531Z" fill="#FDAB33"/>
<path d="M46.7344 26.0531L46.9219 26.2406L46.7344 26.0531Z" fill="#FBC477"/>
<path d="M46.9219 26.0531L47.1094 26.2406L46.9219 26.0531Z" fill="#FEF8F1"/>
<path d="M49.584 26.0531L49.7715 26.2406L49.584 26.0531Z" fill="#FDAB33"/>
<path d="M51.2998 26.0531L51.4873 26.2406L51.2998 26.0531Z" fill="#E1E18C"/>
<path d="M51.7402 26.175L51.8059 26.3063L51.7402 26.175Z" fill="#A4A43D"/>
<path d="M51.8721 26.0531L52.0596 26.2406L51.8721 26.0531Z" fill="#262678"/>
<path d="M39.1221 26.2406L39.3096 26.4281L39.1221 26.2406Z" fill="#58587B"/>
<path d="M39.6934 26.2406L39.8809 26.4281L39.6934 26.2406Z" fill="#F2F1D2"/>
<path d="M41.2129 26.2406L41.4004 26.4281L41.2129 26.2406Z" fill="#FACA88"/>
<path d="M46.3496 26.2406L46.5371 26.4281L46.3496 26.2406Z" fill="#FE9F11"/>
<path d="M46.5469 26.2406L46.7344 26.4281L46.5469 26.2406Z" fill="#FBEAD6"/>
<path d="M48.2529 26.2406L48.4404 26.4281L48.2529 26.2406Z" fill="#FBC477"/>
<path d="M49.584 26.2406L49.7715 26.4281L49.584 26.2406Z" fill="#FACA88"/>
<path d="M51.2998 26.2406L51.4873 26.4281L51.2998 26.2406Z" fill="#D4D456"/>
<path d="M39.1221 26.4281L39.3096 26.6156L39.1221 26.4281Z" fill="#32327B"/>
<path d="M39.6934 26.4281L39.8809 26.6156L39.6934 26.4281Z" fill="#E5E59D"/>
<path d="M41.2129 26.4281L41.4004 26.6156L41.2129 26.4281Z" fill="#FEF8F1"/>
<path d="M41.4004 26.4281L41.5879 26.6156L41.4004 26.4281Z" fill="#FE9F11"/>
<path d="M46.3496 26.4281L46.5371 26.6156L46.3496 26.4281Z" fill="#FBEAD6"/>
<path d="M48.2529 26.4281L48.4404 26.6156L48.2529 26.4281Z" fill="#FEA522"/>
<path d="M49.584 26.4281L49.7715 26.6156L49.584 26.4281Z" fill="#FCF1E4"/>
<path d="M51.6846 26.4281L51.8721 26.6156L51.6846 26.4281Z" fill="#808067"/>
<path d="M39.1221 26.6156L39.3096 26.8031L39.1221 26.6156Z" fill="#0E0E6E"/>
<path d="M39.3096 26.6156L39.4971 26.8031L39.3096 26.6156Z" fill="#A4A43D"/>
<path d="M39.6934 26.6156L39.8809 26.8031L39.6934 26.6156Z" fill="#D9D868"/>
<path d="M41.4004 26.6156L41.5879 26.8031L41.4004 26.6156Z" fill="#F8DCBB"/>
<path d="M48.0654 26.6156L48.2529 26.8031L48.0654 26.6156Z" fill="#F9D6AA"/>
<path d="M49.3965 26.6156L49.584 26.8031L49.3965 26.6156Z" fill="#FACA88"/>
<path d="M51.1123 26.6156L51.2998 26.8031L51.1123 26.6156Z" fill="#F2F1D2"/>
<path d="M51.6846 26.6156L51.8721 26.8031L51.6846 26.6156Z" fill="#58587B"/>
<path d="M39.3096 26.8125L39.4971 27L39.3096 26.8125Z" fill="#8D8D5B"/>
<path d="M41.5967 26.8125L41.7842 27L41.5967 26.8125Z" fill="#F9D6AA"/>
<path d="M45.4033 26.8125L45.5908 27L45.4033 26.8125Z" fill="#FDAB33"/>
<path d="M45.5908 26.8125L45.7783 27L45.5908 26.8125Z" fill="white"/>
<path d="M45.9092 26.8687L46.0404 26.9344L45.9092 26.8687Z" fill="#FCB144"/>
<path d="M47.8779 26.8125L47.6904 27.1875L47.8779 26.8125Z" fill="#FEF8F1"/>
<path d="M48.0654 26.8125L48.2529 27L48.0654 26.8125Z" fill="#FE9F11"/>
<path d="M49.209 26.8125L49.0215 27.1875L49.209 26.8125Z" fill="#FDAB33"/>
<path d="M51.1123 26.8125L51.2998 27L51.1123 26.8125Z" fill="#E5E59D"/>
<path d="M51.6846 26.8125L51.8721 27L51.6846 26.8125Z" fill="#3A3A7C"/>
<path d="M39.3096 27L39.4971 27.1875L39.3096 27Z" fill="#666677"/>
<path d="M39.8809 27L40.0684 27.1875L39.8809 27Z" fill="#F2F1D2"/>
<path d="M41.7842 27L41.9717 27.1875L41.7842 27Z" fill="#F9D6AA"/>
<path d="M45.4033 27L45.5908 27.1875L45.4033 27Z" fill="#FE9F11"/>
<path d="M45.5908 27L45.7783 27.1875L45.5908 27Z" fill="#FACA88"/>
<path d="M45.7783 27L45.9658 27.1875L45.7783 27Z" fill="#FEA522"/>
<path d="M45.9746 27L46.1621 27.1875L45.9746 27Z" fill="#FCF1E4"/>
<path d="M47.8779 27L48.0654 27.1875L47.8779 27Z" fill="#FDAB33"/>
<path d="M49.209 27L49.3965 27.1875L49.209 27Z" fill="#FEF8F1"/>
<path d="M51.1123 27L51.2998 27.1875L51.1123 27Z" fill="#D9D868"/>
<path d="M51.4873 27L51.6748 27.1875L51.4873 27Z" fill="#A4A43D"/>
<path d="M51.6846 27L51.8721 27.1875L51.6846 27Z" fill="#0E0E6E"/>
<path d="M39.3096 27.1875L39.4971 27.375L39.3096 27.1875Z" fill="#3A3A7C"/>
<path d="M39.8809 27.1875L40.0684 27.375L39.8809 27.1875Z" fill="#E5E59D"/>
<path d="M41.9717 27.1875L42.3467 27.5625L41.9717 27.1875Z" fill="#FAE3C9"/>
<path d="M42.1689 27.1875L42.3564 27.375L42.1689 27.1875Z" fill="#FE9F11"/>
<path d="M45.7783 27.1875L45.9658 27.375L45.7783 27.1875Z" fill="#F8DCBB"/>
<path d="M47.4941 27.1875L47.6816 27.375L47.4941 27.1875Z" fill="#FCF1E4"/>
<path d="M47.6816 27.1875L47.8691 27.375L47.6816 27.1875Z" fill="#FDAB33"/>
<path d="M48.834 27.1875L49.0215 27.375L48.834 27.1875Z" fill="#FCB144"/>
<path d="M49.0215 27.1875L49.209 27.375L49.0215 27.1875Z" fill="#FEF8F1"/>
<path d="M50.9248 27.1875L51.1123 27.375L50.9248 27.1875Z" fill="#FBFAF2"/>
<path d="M51.4873 27.1875L51.6748 27.375L51.4873 27.1875Z" fill="#8D8D5B"/>
<path d="M39.3096 27.375L39.4971 27.5625L39.3096 27.375Z" fill="#0E0E6E"/>
<path d="M39.4971 27.375L39.6846 27.5625L39.4971 27.375Z" fill="#A4A43D"/>
<path d="M39.8809 27.375L40.0684 27.5625L39.8809 27.375Z" fill="#D4D456"/>
<path d="M45.5908 27.375L45.7783 27.5625L45.5908 27.375Z" fill="#F9D6AA"/>
<path d="M47.3066 27.375L47.4941 27.5625L47.3066 27.375Z" fill="#F9D099"/>
<path d="M47.4941 27.375L47.6816 27.5625L47.4941 27.375Z" fill="#FE9F11"/>
<path d="M48.6377 27.375L48.8252 27.5625L48.6377 27.375Z" fill="#FACA88"/>
<path d="M50.9248 27.375L51.1123 27.5625L50.9248 27.375Z" fill="#EEEDC1"/>
<path d="M51.4873 27.375L51.6748 27.5625L51.4873 27.375Z" fill="#58587B"/>
<path d="M39.4971 27.5625L39.6846 27.75L39.4971 27.5625Z" fill="#737370"/>
<path d="M40.0684 27.5625L40.2559 27.75L40.0684 27.5625Z" fill="#F6F6E4"/>
<path d="M42.1689 27.5625L42.3564 27.75L42.1689 27.5625Z" fill="#FBBE66"/>
<path d="M45.2158 27.5625L45.4033 27.75L45.2158 27.5625Z" fill="#FCB144"/>
<path d="M45.459 27.7031L45.5246 27.825L45.459 27.7031Z" fill="#F8DCBB"/>
<path d="M46.9219 27.5625L47.1094 27.75L46.9219 27.5625Z" fill="#FBBE66"/>
<path d="M47.1094 27.5625L47.2969 27.75L47.1094 27.5625Z" fill="#FE9F11"/>
<path d="M48.2529 27.5625L48.4404 27.75L48.2529 27.5625Z" fill="#FBC477"/>
<path d="M48.4502 27.5625L48.6377 27.75L48.4502 27.5625Z" fill="#FCF1E4"/>
<path d="M50.9248 27.5625L51.1123 27.75L50.9248 27.5625Z" fill="#D3D079"/>
<path d="M51.2998 27.5625L51.4873 27.75L51.2998 27.5625Z" fill="#A4A43D"/>
<path d="M51.4873 27.5625L51.6748 27.75L51.4873 27.5625Z" fill="#262678"/>
<path d="M39.4971 27.75L39.6846 27.9375L39.4971 27.75Z" fill="#49497D"/>
<path d="M40.0684 27.75L40.2559 27.9375L40.0684 27.75Z" fill="#E0DEA1"/>
<path d="M41.9717 27.75L42.1592 27.9375L41.9717 27.75Z" fill="#FAE3C9"/>
<path d="M44.6436 27.75L44.8311 27.9375L44.6436 27.75Z" fill="#FDAB33"/>
<path d="M44.8311 27.75L45.0186 27.9375L44.8311 27.75Z" fill="#FBC477"/>
<path d="M45.0186 27.75L45.2061 27.9375L45.0186 27.75Z" fill="#FBEAD6"/>
<path d="M45.5908 27.75L45.7783 27.9375L45.5908 27.75Z" fill="#FCB144"/>
<path d="M48.0654 27.75L48.2529 27.9375L48.0654 27.75Z" fill="#F9D6AA"/>
<path d="M51.2998 27.75L51.4873 27.9375L51.2998 27.75Z" fill="#99994E"/>
<path d="M39.4971 27.9563L39.6846 28.1438L39.4971 27.9563Z" fill="#0E0E6E"/>
<path d="M39.6934 27.9563L39.8809 28.1438L39.6934 27.9563Z" fill="#A4A43D"/>
<path d="M40.0684 27.9563L40.2559 28.1438L40.0684 27.9563Z" fill="#D4D456"/>
<path d="M41.7842 27.9563L41.9717 28.1438L41.7842 27.9563Z" fill="#F9D099"/>
<path d="M41.9717 27.9563L42.1592 28.1438L41.9717 27.9563ZM42.9279 27.9563L43.1154 28.1438L42.9279 27.9563Z" fill="#FE9F11"/>
<path d="M43.1152 27.9563L43.3027 28.1438L43.1152 27.9563Z" fill="#F9D6AA"/>
<path d="M43.3027 27.9563L43.4902 28.1438L43.3027 27.9563Z" fill="#F9D099"/>
<path d="M44.0625 27.9563L44.25 28.1438L44.0625 27.9563Z" fill="#F9D6AA"/>
<path d="M44.25 27.9563L44.4375 28.1438L44.25 27.9563Z" fill="#FAE3C9"/>
<path d="M44.4375 27.9563L44.625 28.1438L44.4375 27.9563Z" fill="#FEF8F1"/>
<path d="M45.9746 27.9563L46.1621 28.1438L45.9746 27.9563Z" fill="#FBEAD6"/>
<path d="M46.1621 27.9563L46.3496 28.1438L46.1621 27.9563Z" fill="#FAE3C9"/>
<path d="M46.3496 27.9563L46.5371 28.1438L46.3496 27.9563Z" fill="#FACA88"/>
<path d="M46.5469 27.9563L46.7344 28.1438L46.5469 27.9563Z" fill="#FBC477"/>
<path d="M46.7344 27.9563L46.9219 28.1438L46.7344 27.9563Z" fill="#FDAB33"/>
<path d="M47.6816 27.9563L47.8691 28.1438L47.6816 27.9563Z" fill="#FE9F11"/>
<path d="M47.8779 27.9563L48.0654 28.1438L47.8779 27.9563Z" fill="#F9D6AA"/>
<path d="M50.7188 27.9563L50.9062 28.1438L50.7188 27.9563Z" fill="#E5E3AF"/>
<path d="M51.2998 27.9563L51.4873 28.1438L51.2998 27.9563Z" fill="#666677"/>
<path d="M39.6934 28.1438L39.8809 28.3313L39.6934 28.1438Z" fill="#737370"/>
<path d="M40.2656 28.1438L40.4531 28.3313L40.2656 28.1438Z" fill="#F2F1D7"/>
<path d="M41.5967 28.1438L41.7842 28.3313L41.5967 28.1438Z" fill="#FEA522"/>
<path d="M42.5527 28.1438L42.7402 28.3313L42.5527 28.1438Z" fill="#FE9F11"/>
<path d="M42.7402 28.1438L42.9277 28.3313L42.7402 28.1438Z" fill="#FBBE66"/>
<path d="M42.9277 28.1438L43.1152 28.3313L42.9277 28.1438Z" fill="#FCF1E4"/>
<path d="M47.4941 28.1438L47.6816 28.3313L47.4941 28.1438Z" fill="#FEA522"/>
<path d="M47.6816 28.1438L47.8691 28.3313L47.6816 28.1438Z" fill="#FBEAD6"/>
<path d="M50.7188 28.1438L50.9062 28.3313L50.7188 28.1438Z" fill="#DDDC7A"/>
<path d="M51.1123 28.1438L51.2998 28.3313L51.1123 28.1438Z" fill="#A4A43D"/>
<path d="M51.2998 28.1438L51.4873 28.3313L51.2998 28.1438Z" fill="#262678"/>
<path d="M39.6934 28.3313L39.8809 28.5188L39.6934 28.3313Z" fill="#49497D"/>
<path d="M39.9375 28.4625L40.0125 28.5844L39.9375 28.4625Z" fill="#A4A43D"/>
<path d="M40.2656 28.3313L40.4531 28.5188L40.2656 28.3313Z" fill="#D3D079"/>
<path d="M41.7842 28.3313L41.9717 28.5188L41.7842 28.3313Z" fill="#F9D099"/>
<path d="M41.9717 28.3313L42.1592 28.5188L41.9717 28.3313Z" fill="#FCB144"/>
<path d="M42.1689 28.3313L42.3564 28.5188L42.1689 28.3313Z" fill="#FACA88"/>
<path d="M42.3564 28.3313L42.5439 28.5188L42.3564 28.3313Z" fill="#F8DCBB"/>
<path d="M42.5527 28.3313L42.7402 28.5188L42.5527 28.3313Z" fill="#FEF8F1"/>
<path d="M46.7344 28.3313L46.9219 28.5188L46.7344 28.3313Z" fill="#F8DCBB"/>
<path d="M47.4941 28.3313L47.6816 28.5188L47.4941 28.3313Z" fill="#FCF1E4"/>
<path d="M50.5312 28.3313L50.7188 28.5188L50.5312 28.3313Z" fill="#F6F6E4"/>
<path d="M51.1123 28.3313L51.2998 28.5188L51.1123 28.3313Z" fill="#8D8D5B"/>
<path d="M40.4531 28.5188L40.6406 28.7063L40.4531 28.5188Z" fill="#FBFAF2"/>
<path d="M46.7344 28.5188L46.9219 28.7063L46.7344 28.5188Z" fill="#FBBE66"/>
<path d="M47.3066 28.5188L47.4941 28.7063L47.3066 28.5188Z" fill="#FACA88"/>
<path d="M50.5312 28.5188L50.7188 28.7063L50.5312 28.5188Z" fill="#E1E18C"/>
<path d="M51.1123 28.5188L51.2998 28.7063L51.1123 28.5188Z" fill="#49497D"/>
<path d="M39.8809 28.7156L40.0684 28.9031L39.8809 28.7156Z" fill="#58587B"/>
<path d="M40.4531 28.7156L40.6406 28.9031L40.4531 28.7156Z" fill="#E5E59D"/>
<path d="M46.7344 28.7156L46.9219 28.9031L46.7344 28.7156Z" fill="#FE9F11"/>
<path d="M47.1094 28.7156L47.2969 28.9031L47.1094 28.7156Z" fill="#FDAB33"/>
<path d="M50.3438 28.7156L50.5312 28.9031L50.3438 28.7156Z" fill="#FBFAF2"/>
<path d="M50.9248 28.7156L51.1123 28.9031L50.9248 28.7156Z" fill="#A4A43D"/>
<path d="M51.1123 28.7156L51.2998 28.9031L51.1123 28.7156Z" fill="#0E0E6E"/>
<path d="M39.8809 28.9031L40.0684 29.0906L39.8809 28.9031Z" fill="#1B1B74"/>
<path d="M40.0684 28.9031L40.2559 29.0906L40.0684 28.9031Z" fill="#A4A43D"/>
<path d="M40.4531 28.9031L40.6406 29.0906L40.4531 28.9031Z" fill="#D0D045"/>
<path d="M46.5469 28.9031L46.7344 29.0906L46.5469 28.9031Z" fill="#FBEAD6"/>
<path d="M46.9219 28.9031L47.1094 29.0906L46.9219 28.9031Z" fill="#FE9F11"/>
<path d="M47.1094 28.9031L47.2969 29.0906L47.1094 28.9031Z" fill="#FBEAD6"/>
<path d="M50.3438 28.9031L50.5312 29.0906L50.3438 28.9031Z" fill="#E5E59D"/>
<path d="M50.9248 28.9031L51.1123 29.0906L50.9248 28.9031Z" fill="#666677"/>
<path d="M40.0684 29.0906L40.2559 29.2781L40.0684 29.0906Z" fill="#6E6C70"/>
<path d="M40.6406 29.0906L40.8281 29.2781L40.6406 29.0906Z" fill="#E5E3AF"/>
<path d="M46.5938 29.2219L46.6687 29.3531L46.5938 29.2219Z" fill="#FACA88"/>
<path d="M46.9219 29.0906L47.1094 29.2781L46.9219 29.0906Z" fill="#FAE3C9"/>
<path d="M50.1562 29.0906L50.3438 29.2781L50.1562 29.0906Z" fill="#FBFAF2"/>
<path d="M50.7188 29.0906L50.9062 29.2781L50.7188 29.0906Z" fill="#A4A43D"/>
<path d="M50.9246 29.0906L51.1121 29.2781L50.9246 29.0906ZM40.0684 29.2781L40.2559 29.4656L40.0684 29.2781Z" fill="#1B1B74"/>
<path d="M40.2656 29.2875L40.4531 29.475L40.2656 29.2875Z" fill="#A4A43D"/>
<path d="M40.6406 29.2875L40.8281 29.475L40.6406 29.2875Z" fill="#D0D045"/>
<path d="M40.8281 29.2875L41.0156 29.475L40.8281 29.2875Z" fill="#FBFAF2"/>
<path d="M46.7344 29.2875L46.9219 29.475L46.7344 29.2875Z" fill="#F9D6AA"/>
<path d="M50.1562 29.2875L50.3438 29.475L50.1562 29.2875Z" fill="#E5E59D"/>
<path d="M50.7188 29.2875L50.9062 29.475L50.7188 29.2875ZM40.2656 29.475L40.4531 29.6625L40.2656 29.475Z" fill="#6E6C70"/>
<path d="M40.8281 29.475L41.0156 29.6625L40.8281 29.475Z" fill="#8CBF84"/>
<path d="M40.9121 29.475C41.5684 30.8625 43.9121 34.1438 45.6934 34.0875C47.4371 34.0219 49.3965 30.8063 50.1559 29.475H40.9121Z" fill="#00CCFF"/>
<path d="M50.5312 29.475L50.7188 29.6625L50.5312 29.475Z" fill="#A4A43D"/>
<path d="M50.7188 29.475L50.9062 29.6625L50.7188 29.475ZM40.2656 29.6625L40.4531 29.85L40.2656 29.6625Z" fill="#1B1B74"/>
<path d="M40.4531 29.6625L40.6406 29.85L40.4531 29.6625Z" fill="#A4A43D"/>
<path d="M40.8281 29.6625L41.0156 29.85L40.8281 29.6625Z" fill="#ADB333"/>
<path d="M41.0254 29.6625L41.2129 29.85L41.0254 29.6625Z" fill="#1AC5B5"/>
<path d="M49.9688 29.6625L50.1562 29.85L49.9688 29.6625Z" fill="#68B070"/>
<path d="M50.5312 29.6625L50.7188 29.85L50.5312 29.6625Z" fill="#666677"/>
<path d="M40.4531 29.8594L40.6406 30.0469L40.4531 29.8594Z" fill="#58587B"/>
<path d="M41.0254 29.8594L41.2129 30.0469L41.0254 29.8594Z" fill="#7FB15C"/>
<path d="M49.7715 29.8594L49.959 30.0469L49.7715 29.8594Z" fill="#27C2AA"/>
<path d="M50.3438 29.8594L50.1562 30.2344L50.3438 29.8594Z" fill="#A4A43D"/>
<path d="M50.5312 29.8594L50.7188 30.0469L50.5312 29.8594ZM40.4531 30.0469L40.6406 30.2344L40.4531 30.0469Z" fill="#0E0E6E"/>
<path d="M40.6406 30.0469L41.0156 30.4219L40.6406 30.0469Z" fill="#A4A43D"/>
<path d="M41.2129 30.0469L41.4004 30.2344L41.2129 30.0469Z" fill="#34BE9E"/>
<path d="M49.7715 30.0469L49.959 30.2344L49.7715 30.0469Z" fill="#96B247"/>
<path d="M50.3438 30.0469L50.5312 30.2344L50.3438 30.0469Z" fill="#53527C"/>
<path d="M40.6406 30.2437L40.8281 30.4312L40.6406 30.2437Z" fill="#3A3A7C"/>
<path d="M41.2129 30.2437L41.4004 30.4312L41.2129 30.2437Z" fill="#A2B23D"/>
<path d="M41.4004 30.2437L41.5879 30.4312L41.4004 30.2437Z" fill="#0DC9C1"/>
<path d="M49.584 30.2437L49.7715 30.4312L49.584 30.2437Z" fill="#5BB47C"/>
<path d="M50.1562 30.2437L50.3438 30.4312L50.1562 30.2437Z" fill="#8D8D5B"/>
<path d="M40.8281 30.4312L41.0156 30.6187L40.8281 30.4312Z" fill="#737370"/>
<path d="M41.4004 30.4312L41.5879 30.6187L41.4004 30.4312Z" fill="#74B166"/>
<path d="M49.3965 30.4312L49.584 30.6187L49.3965 30.4312Z" fill="#27C2AA"/>
<path d="M49.9688 30.4312L49.7812 30.8062L49.9688 30.4312Z" fill="#A4A43D"/>
<path d="M50.1562 30.4312L50.3438 30.6187L50.1562 30.4312Z" fill="#262678"/>
<path d="M40.8281 30.6187L41.0156 30.8062L40.8281 30.6187Z" fill="#0E0E6E"/>
<path d="M41.0254 30.6187L41.4004 30.9937L41.0254 30.6187Z" fill="#A4A43D"/>
<path d="M41.5967 30.6187L41.7842 30.8062L41.5967 30.6187Z" fill="#42BB92"/>
<path d="M49.209 30.6187L49.3965 30.8062L49.209 30.6187Z" fill="#0DC9C1"/>
<path d="M49.3965 30.6187L49.584 30.8062L49.3965 30.6187Z" fill="#96B247"/>
<path d="M49.9688 30.6187L50.1562 30.8062L49.9688 30.6187Z" fill="#58587B"/>
<path d="M41.0254 30.8062L41.2129 30.9937L41.0254 30.8062Z" fill="#3A3A7C"/>
<path d="M41.5967 30.8062L41.7842 30.9937L41.5967 30.8062Z" fill="#ADB333"/>
<path d="M41.7842 30.8062L41.9717 30.9937L41.7842 30.8062Z" fill="#27C2AA"/>
<path d="M49.209 30.8062L49.3965 30.9937L49.209 30.8062Z" fill="#74B166"/>
<path d="M49.7715 30.8062L49.959 30.9937L49.7715 30.8062Z" fill="#8D8D5B"/>
<path d="M41.2129 30.9937L41.4004 31.1812L41.2129 30.9937Z" fill="#6E6C70"/>
<path d="M41.7842 30.9937L41.9717 31.1812L41.7842 30.9937Z" fill="#96B247"/>
<path d="M41.9717 30.9937L42.1592 31.1812L41.9717 30.9937Z" fill="#0DC9C1"/>
<path d="M49.0215 30.9937L49.209 31.1812L49.0215 30.9937Z" fill="#42BB92"/>
<path d="M49.584 30.9937L49.209 31.5562L49.584 30.9937Z" fill="#A4A43D"/>
<path d="M49.7715 30.9937L49.959 31.1812L49.7715 30.9937Z" fill="#1B1B74"/>
<path d="M41.2129 31.1812L41.4004 31.3687L41.2129 31.1812Z" fill="#0E0E6E"/>
<path d="M41.4004 31.1812L41.5879 31.3687L41.4004 31.1812Z" fill="#8D8D5B"/>
<path d="M41.9717 31.1812L42.1592 31.3687L41.9717 31.1812Z" fill="#7FB15C"/>
<path d="M48.834 31.1812L49.0215 31.3687L48.834 31.1812Z" fill="#34BE9E"/>
<path d="M49.584 31.1812L49.7715 31.3687L49.584 31.1812Z" fill="#3A3A7C"/>
<path d="M41.4004 31.3781L41.5879 31.5656L41.4004 31.3781Z" fill="#1B1B74"/>
<path d="M41.5967 31.3781L43.6873 33.4688L41.5967 31.3781Z" fill="#A4A43D"/>
<path d="M42.1689 31.3781L42.3564 31.5656L42.1689 31.3781Z" fill="#74B166"/>
<path d="M48.6377 31.3781L48.8252 31.5656L48.6377 31.3781Z" fill="#27C2AA"/>
<path d="M48.834 31.3781L49.0215 31.5656L48.834 31.3781Z" fill="#ADB333"/>
<path d="M49.3965 31.3781L49.584 31.5656L49.3965 31.3781Z" fill="#666677"/>
<path d="M41.5967 31.5656L41.7842 31.7531L41.5967 31.5656Z" fill="#32327B"/>
<path d="M42.3564 31.5656L42.5439 31.7531L42.3564 31.5656Z" fill="#42BB92"/>
<path d="M48.4504 31.5656L47.6816 32.5219L48.4598 31.5562L48.4504 31.5656Z" fill="#0DC9C1"/>
<path d="M48.6377 31.5656L48.8252 31.7531L48.6377 31.5656Z" fill="#ADB333"/>
<path d="M49.209 31.5656L49.3965 31.7531L49.209 31.5656Z" fill="#737370"/>
<path d="M41.7842 31.7625L41.9717 31.95L41.7842 31.7625Z" fill="#49497D"/>
<path d="M42.5527 31.7625L42.7402 31.95L42.5527 31.7625Z" fill="#42BB92"/>
<path d="M48.4502 31.7625L48.6377 31.95L48.4502 31.7625Z" fill="#96B247"/>
<path d="M49.0215 31.7625L48.834 32.1375L49.0215 31.7625Z" fill="#8D8D5B"/>
<path d="M49.209 31.7625L49.3965 31.95L49.209 31.7625Z" fill="#0E0E6E"/>
<path d="M41.9717 31.95L42.1592 32.1375L41.9717 31.95Z" fill="#53527C"/>
<path d="M42.7402 31.95L42.9277 32.1375L42.7402 31.95Z" fill="#42BB92"/>
<path d="M48.2529 31.95L48.4404 32.1375L48.2529 31.95Z" fill="#96B247"/>
<path d="M49.0215 31.95L49.209 32.1375L49.0215 31.95Z" fill="#0E0E6E"/>
<path d="M42.1689 32.1375L42.3564 32.325L42.1689 32.1375Z" fill="#6E6C70"/>
<path d="M42.9277 32.1375L43.1152 32.325L42.9277 32.1375Z" fill="#42BB92"/>
<path d="M48.0654 32.1375L48.2529 32.325L48.0654 32.1375Z" fill="#96B247"/>
<path d="M48.6377 32.1375L48.2627 32.7L48.6377 32.1375Z" fill="#A4A43D"/>
<path d="M48.834 32.1375L49.0215 32.325L48.834 32.1375Z" fill="#262678"/>
<path d="M42.3564 32.3344L42.5439 32.5219L42.3564 32.3344Z" fill="#6E6C70"/>
<path d="M43.1152 32.3344L43.3027 32.5219L43.1152 32.3344Z" fill="#42BB92"/>
<path d="M47.8779 32.3344L48.0654 32.5219L47.8779 32.3344Z" fill="#96B247"/>
<path d="M48.6377 32.3344L48.8252 32.5219L48.6377 32.3344Z" fill="#262678"/>
<path d="M42.5527 32.5219L42.7402 32.7094L42.5527 32.5219Z" fill="#6E6C70"/>
<path d="M43.3027 32.5219L43.4902 32.7094L43.3027 32.5219Z" fill="#68B070"/>
<path d="M47.4941 32.5219L47.6816 32.7094L47.4941 32.5219Z" fill="#27C2AA"/>
<path d="M47.6816 32.5219L47.8691 32.7094L47.6816 32.5219Z" fill="#ADB333"/>
<path d="M48.4502 32.5219L48.6377 32.7094L48.4502 32.5219Z" fill="#262678"/>
<path d="M42.7402 32.7094L42.9277 32.8969L42.7402 32.7094Z" fill="#666677"/>
<path d="M43.4902 32.7094L43.6777 32.8969L43.4902 32.7094Z" fill="#74B166"/>
<path d="M47.3066 32.7094L47.4941 32.8969L47.3066 32.7094Z" fill="#34BE9E"/>
<path d="M47.4941 32.7094L47.6816 32.8969L47.4941 32.7094Z" fill="#ADB333"/>
<path d="M48.0654 32.7094L47.8779 33.0844L48.0654 32.7094Z" fill="#8D8D5B"/>
<path d="M48.2529 32.7094L48.4404 32.8969L48.2529 32.7094Z" fill="#262678"/>
<path d="M42.9277 32.8969L43.1152 33.0844L42.9277 32.8969Z" fill="#49497D"/>
<path d="M43.6875 32.8969L43.875 33.0844L43.6875 32.8969Z" fill="#96B247"/>
<path d="M43.875 32.8969L44.0625 33.0844L43.875 32.8969Z" fill="#0DC9C1"/>
<path d="M47.1094 32.8969L47.2969 33.0844L47.1094 32.8969Z" fill="#42BB92"/>
<path d="M48.0654 32.8969L48.2529 33.0844L48.0654 32.8969Z" fill="#0E0E6E"/>
<path d="M43.1152 33.0938L43.3027 33.2812L43.1152 33.0938Z" fill="#49497D"/>
<path d="M43.875 33.0938L44.0625 33.2812L43.875 33.0938Z" fill="#A2B23D"/>
<path d="M44.0625 33.0938L44.25 33.2812L44.0625 33.0938Z" fill="#27C2AA"/>
<path d="M46.9219 33.0938L47.1094 33.2812L46.9219 33.0938Z" fill="#74B166"/>
<path d="M47.4941 33.0938L46.9316 33.8438L47.4941 33.0938Z" fill="#A4A43D"/>
<path d="M47.6816 33.0938L47.8691 33.2812L47.6816 33.0938Z" fill="#808067"/>
<path d="M47.8779 33.0938L48.0654 33.2812L47.8779 33.0938Z" fill="#0E0E6E"/>
<path d="M43.3027 33.2812L43.4902 33.4688L43.3027 33.2812Z" fill="#262678"/>
<path d="M44.0625 33.2812L44.25 33.4688L44.0625 33.2812Z" fill="#ADB333"/>
<path d="M44.25 33.2812L44.4375 33.4688L44.25 33.2812Z" fill="#42BB92"/>
<path d="M46.5469 33.2812L46.7344 33.4688L46.5469 33.2812Z" fill="#0DC9C1"/>
<path d="M46.7344 33.2812L46.9219 33.4688L46.7344 33.2812Z" fill="#96B247"/>
<path d="M47.4941 33.2812L47.6816 33.4688L47.4941 33.2812Z" fill="#6E6C70"/>
<path d="M43.4902 33.4688L43.6777 33.6562L43.4902 33.4688Z" fill="#1B1B74"/>
<path d="M43.6875 33.4688L43.875 33.6562L43.6875 33.4688Z" fill="#8D8D5B"/>
<path d="M44.4375 33.4688L44.625 33.6562L44.4375 33.4688Z" fill="#74B166"/>
<path d="M44.6436 33.4688L44.8311 33.6562L44.6436 33.4688Z" fill="#0DC9C1"/>
<path d="M46.3496 33.4688L46.5371 33.6562L46.3496 33.4688Z" fill="#34BE9E"/>
<path d="M46.5469 33.4688L46.7344 33.6562L46.5469 33.4688Z" fill="#ADB333"/>
<path d="M47.3066 33.4688L47.4941 33.6562L47.3066 33.4688Z" fill="#49497D"/>
<path d="M43.6875 33.6562L43.875 33.8438L43.6875 33.6562Z" fill="#0E0E6E"/>
<path d="M43.875 33.6562L44.0625 33.8438L43.875 33.6562Z" fill="#6E6C70"/>
<path d="M44.0625 33.6562L44.4375 34.0312L44.0625 33.6562Z" fill="#A4A43D"/>
<path d="M44.6436 33.6562L44.8311 33.8438L44.6436 33.6562Z" fill="#96B247"/>
<path d="M44.8311 33.6562L45.0186 33.8438L44.8311 33.6562Z" fill="#27C2AA"/>
<path d="M46.1621 33.6562L46.3496 33.8438L46.1621 33.6562Z" fill="#68B070"/>
<path d="M47.1094 33.6562L47.2969 33.8438L47.1094 33.6562Z" fill="#32327B"/>
<path d="M44.0625 33.8438L44.25 34.0312L44.0625 33.8438Z" fill="#49497D"/>
<path d="M45.0186 33.8438L45.2061 34.0312L45.0186 33.8438Z" fill="#5BB47C"/>
<path d="M45.7783 33.8438L45.9658 34.0312L45.7783 33.8438Z" fill="#27C2AA"/>
<path d="M45.9746 33.8438L46.1621 34.0312L45.9746 33.8438Z" fill="#96B247"/>
<path d="M46.5469 33.8438L46.3594 34.2188L46.5469 33.8438Z" fill="#A4A43D"/>
<path d="M46.7344 33.8438L46.9219 34.0312L46.7344 33.8438Z" fill="#808067"/>
<path d="M46.9219 33.8438L47.1094 34.0312L46.9219 33.8438Z" fill="#0E0E6E"/>
<path d="M44.25 34.0312L44.4375 34.2188L44.25 34.0312Z" fill="#262678"/>
<path d="M44.4375 34.0312L44.625 34.2188L44.4375 34.0312Z" fill="#8D8D5B"/>
<path d="M45.2158 34.0312L45.4033 34.2188L45.2158 34.0312Z" fill="#8BB252"/>
<path d="M45.4033 34.0312L45.5908 34.2188L45.4033 34.0312Z" fill="#1AC5B5"/>
<path d="M45.5908 34.0312L45.7783 34.2188L45.5908 34.0312Z" fill="#5BB47C"/>
<path d="M46.5469 34.0312L46.7344 34.2188L46.5469 34.0312Z" fill="#58587B"/>
<path d="M44.4375 34.2375L44.625 34.425L44.4375 34.2375Z" fill="#0E0E6E"/>
<path d="M44.6436 34.2375L44.8311 34.425L44.6436 34.2375Z" fill="#666677"/>
<path d="M44.8311 34.2375L45.0186 34.425L44.8311 34.2375Z" fill="#A4A43D"/>
<path d="M46.1621 34.2375L46.3496 34.425L46.1621 34.2375Z" fill="#99994E"/>
<path d="M46.3498 34.2375L46.5373 34.425L46.3498 34.2375ZM44.8311 34.425L45.0186 34.6125L44.8311 34.425Z" fill="#32327B"/>
<path d="M45.0186 34.425L45.2061 34.6125L45.0186 34.425Z" fill="#99994E"/>
<path d="M45.7783 34.425L45.9658 34.6125L45.7783 34.425Z" fill="#A4A43D"/>
<path d="M45.9746 34.425L46.1621 34.6125L45.9746 34.425Z" fill="#666677"/>
<path d="M46.1623 34.425L46.3498 34.6125L46.1623 34.425ZM45.0186 34.6125L45.2061 34.8L45.0186 34.6125Z" fill="#0E0E6E"/>
<path d="M45.2158 34.6125L45.4033 34.8L45.2158 34.6125Z" fill="#666677"/>
<path d="M45.4033 34.6125L45.5908 34.8L45.4033 34.6125Z" fill="#A4A43D"/>
<path d="M45.5908 34.6125L45.7783 34.8L45.5908 34.6125Z" fill="#99994E"/>
<path d="M45.7783 34.6125L45.9658 34.8L45.7783 34.6125Z" fill="#32327B"/>
<path d="M45.4033 34.8L45.5908 34.9875L45.4033 34.8Z" fill="#262678"/>
<path d="M45.5908 34.8L45.7783 34.9875L45.5908 34.8Z" fill="#0E0E6E"/>
<path d="M45.7776 22.05C46.0776 22.7438 47.0151 23.5031 47.2776 23.8781C46.9495 24.2531 46.8839 24.2156 46.9214 24.9094C47.4839 24.3094 47.5026 24.2531 47.8776 24.3375C48.6839 25.1438 48.0183 26.8688 47.3526 27.2438C46.687 27.6469 46.8089 27.2344 45.8058 27.7313C46.2651 28.125 46.7995 27.675 47.2308 27.7969C47.4651 28.0781 47.1183 28.5844 47.2964 29.0719C47.6714 29.0344 47.6339 28.2563 47.7276 27.975C48.0089 26.9438 49.6964 26.2313 49.7808 25.2844C50.137 25.125 50.4839 25.2375 50.9058 25.4719C50.6995 24.5906 49.9964 24.6 49.7995 24.3281C49.3495 23.6344 48.9464 22.8469 47.9808 22.6406C47.2308 22.4813 47.2964 22.6875 46.8276 22.3594C46.5276 22.1344 45.637 21.7031 45.7776 22.05Z" fill="#FF9900"/>
<path fill-rule="evenodd" clip-rule="evenodd" d="M47.8973 22.8375C47.8973 22.8785 47.881 22.9179 47.852 22.9469C47.8229 22.9759 47.7836 22.9922 47.7426 22.9922C47.7016 22.9922 47.6622 22.9759 47.6332 22.9469C47.6042 22.9179 47.5879 22.8785 47.5879 22.8375C47.5879 22.7965 47.6042 22.7571 47.6332 22.7281C47.6622 22.6991 47.7016 22.6828 47.7426 22.6828C47.7836 22.6828 47.8229 22.6991 47.852 22.7281C47.881 22.7571 47.8973 22.7965 47.8973 22.8375Z" fill="white"/>
<path d="M43.425 24.9844C43.8937 24.4031 44.1375 23.2031 44.3437 22.8094C44.8312 22.9219 44.8125 22.9969 45.4219 22.6406C44.625 22.4156 44.5594 22.4344 44.4656 22.0688C44.8031 20.9719 46.6406 20.7563 47.2781 21.1688C47.9531 21.5719 47.5312 21.6563 48.4406 22.2938C48.5719 21.7125 47.925 21.45 47.8312 21.0188C47.9719 20.6719 48.5812 20.7375 48.9187 20.3625C48.7125 20.0344 48.0469 20.4375 47.7562 20.4938C46.725 20.7281 45.2906 19.575 44.4187 19.9313C44.1094 19.6969 44.0437 19.3313 44.0437 18.8344C43.3781 19.4438 43.7156 20.0531 43.5562 20.3625C43.1625 21.0844 42.6469 21.8156 42.9187 22.7625C43.125 23.4938 43.275 23.3438 43.2187 23.9156C43.1531 24.2813 43.1812 25.275 43.425 24.9844Z" fill="#FF9900"/>
<path fill-rule="evenodd" clip-rule="evenodd" d="M43.1247 22.7438C43.209 22.7063 43.3028 22.7344 43.3403 22.8094C43.3533 22.8358 43.3582 22.8654 43.3545 22.8946C43.3507 22.9237 43.3385 22.9512 43.3193 22.9734C43.3001 22.9957 43.2748 23.0119 43.2465 23.0199C43.2182 23.0279 43.1882 23.0274 43.1602 23.0185C43.1322 23.0096 43.1074 22.9926 43.0889 22.9697C43.0705 22.9468 43.0591 22.919 43.0563 22.8898C43.0536 22.8605 43.0594 22.831 43.0732 22.8051C43.0871 22.7791 43.1082 22.7578 43.134 22.7438H43.1247Z" fill="white"/>
<path d="M47.2785 25.3875C46.5285 25.2938 45.3941 25.6969 44.9347 25.7344C44.7941 25.2563 44.8597 25.2188 44.241 24.8906C44.4566 25.6969 44.5035 25.7344 44.241 26.0156C43.1347 26.2875 41.991 24.825 42.0097 24.0656C42.0097 23.2875 42.3097 23.5969 42.3847 22.4719C41.8222 22.6594 41.9347 23.3625 41.6066 23.6719C41.2316 23.7281 40.9878 23.175 40.4816 23.0813C40.3128 23.4281 40.9972 23.7844 41.1941 24.0094C41.9347 24.7781 41.6816 26.5875 42.441 27.15C42.4035 27.5438 42.1222 27.7875 41.691 28.0313C42.5628 28.3031 42.9097 27.6844 43.2566 27.6563C44.0816 27.6375 44.9722 27.6938 45.6472 26.9719C46.1535 26.4094 45.9566 26.3625 46.4722 26.1281C46.8191 25.9969 47.6535 25.4531 47.2785 25.3781V25.3875Z" fill="#FF9900"/>
<path fill-rule="evenodd" clip-rule="evenodd" d="M45.5153 26.8031C45.498 26.7927 45.483 26.7789 45.4711 26.7626C45.4592 26.7464 45.4506 26.7279 45.4458 26.7083C45.441 26.6887 45.4401 26.6684 45.4432 26.6485C45.4463 26.6285 45.4532 26.6094 45.4637 26.5922C45.4742 26.5749 45.4879 26.5599 45.5042 26.548C45.5205 26.5361 45.5389 26.5275 45.5585 26.5227C45.5781 26.5179 45.5984 26.517 45.6183 26.5201C45.6383 26.5232 45.6574 26.5302 45.6746 26.5406C45.7095 26.5618 45.7344 26.5959 45.7441 26.6354C45.7538 26.675 45.7473 26.7168 45.7262 26.7516C45.7051 26.7864 45.671 26.8114 45.6314 26.821C45.5919 26.8307 45.5501 26.8243 45.5153 26.8031Z" fill="white"/>
<path d="M0 0H30V22.5H0V0Z" fill="#012169"/>
<path d="M3.51562 0L14.9531 8.48438L26.3438 0H30V2.90625L18.75 11.2969L30 19.6406V22.5H26.25L15 14.1094L3.79688 22.5H0V19.6875L11.2031 11.3438L0 3V0H3.51562Z" fill="white"/>
<path d="M19.875 13.1719L30 20.625V22.5L17.2969 13.1719H19.875ZM11.25 14.1094L11.5312 15.75L2.53125 22.5H0L11.25 14.1094ZM30 0V0.140625L18.3281 8.95312L18.4219 6.89062L27.6562 0H30ZM0 0L11.2031 8.25H8.39062L0 1.96875V0Z" fill="#C8102E"/>
<path d="M11.2969 0V22.5H18.7969V0H11.2969ZM0 7.5V15H30V7.5H0Z" fill="white"/>
<path d="M0 9.04688V13.5469H30V9.04688H0ZM12.7969 0V22.5H17.2969V0H12.7969Z" fill="#C8102E"/>
</g>
<defs>
<clipPath id="clip0_60_72978">
<rect width="60" height="45" rx="4" fill="white"/>
</clipPath>
</defs>
</svg>
