<svg width="60" height="45" viewBox="0 0 60 45" fill="none" xmlns="http://www.w3.org/2000/svg">
<g clip-path="url(#clip0_60_72982)">
<path d="M0 0H60V45H0V0Z" fill="#E41E20"/>
<path d="M25.5002 8.74687C25.0689 8.74687 24.3471 8.8875 24.3564 9.21562C23.1377 9.01875 23.0158 9.51562 23.0908 9.96562C23.2033 9.7875 23.3439 9.68437 23.4564 9.675C23.6158 9.64687 23.7846 9.70312 23.9627 9.80625C24.1307 9.91164 24.2823 10.0412 24.4127 10.1906C23.9814 10.2937 23.6439 10.2281 23.3064 10.1719C23.1157 10.1312 22.9344 10.0549 22.7721 9.94687C22.6314 9.85312 22.5846 9.75937 22.3689 9.54375C22.1158 9.28125 21.8439 9.35625 21.9283 9.75937C22.1252 10.1344 22.4533 10.3031 22.8658 10.3781C23.0627 10.4062 23.3627 10.4719 23.7002 10.4719C24.0377 10.4719 24.4127 10.425 24.6189 10.4719C24.4971 10.5469 24.3564 10.6875 24.0752 10.7344C23.7939 10.7906 23.3721 10.5656 23.1096 10.5094C23.1377 10.725 23.4189 10.9312 23.9627 11.0437C24.8627 11.2312 25.6033 11.3812 26.1002 11.6531C26.4931 11.8722 26.8401 12.1651 27.1221 12.5156C27.5627 13.0312 27.5908 13.4344 27.6096 13.5281C27.7033 14.3531 27.4127 14.8219 26.8689 14.9719C26.6064 15.0375 26.1189 14.9062 25.9502 14.7C25.7627 14.4937 25.6033 14.1375 25.6502 13.575C25.6971 13.3687 25.9408 12.7969 25.7346 12.6844C24.757 12.1472 23.7455 11.6743 22.7064 11.2687C22.4721 11.175 22.2846 11.4937 22.2096 11.625C21.5173 11.5285 20.8553 11.279 20.2715 10.8947C19.6877 10.5104 19.1968 10.0008 18.8346 9.40312C18.4408 8.69062 17.7752 9.40312 17.8877 10.0875C18.0658 10.8375 18.6377 11.3812 19.3314 11.775C20.0346 12.1594 20.9252 12.5437 21.8158 12.525C22.3033 12.6187 22.2939 13.2375 21.7221 13.3594C20.5877 13.3594 19.6783 13.3406 18.8252 12.5156C18.1783 11.925 17.8221 12.6281 18.0002 13.0219C18.3189 14.25 20.0721 14.5969 21.8439 14.2031C22.5377 14.0906 22.1252 14.8219 21.9377 14.8312C21.1877 15.3656 19.8658 15.8812 18.6939 14.8312C18.1596 14.4187 17.7939 14.7562 18.0002 15.3469C18.5158 16.8937 20.5033 16.5656 21.8627 15.8156C22.2096 15.6187 22.5283 16.0687 22.1064 16.4156C20.4096 17.5969 19.5658 17.6156 18.7971 17.1656C17.8408 16.7812 17.7658 17.8406 18.3283 18.1969C18.9564 18.5719 20.5596 18.2906 21.7408 17.5406C22.2471 17.1656 22.2658 17.7562 21.9471 17.9906C20.5502 19.2 19.9971 19.5187 18.5439 19.3219C17.8221 19.2656 17.8314 20.1562 18.3939 20.5031C19.1721 20.9812 20.6908 20.1937 21.8627 19.2094C22.3596 18.9469 22.4439 19.3781 22.2002 19.8937C21.6812 20.6281 20.9757 21.2106 20.1564 21.5812C19.5002 21.8344 18.8814 21.7969 18.4408 21.6469C17.8971 21.4594 17.8314 22.0219 18.1314 22.5281C18.3096 22.8375 19.0502 22.9312 19.8564 22.65C20.6627 22.3687 21.5252 21.6937 22.1158 20.9156C22.6314 20.4562 22.5752 21.0656 22.3314 21.4969C21.1502 23.3719 20.0627 24.0656 18.6283 23.9531C18.0002 23.8406 17.8502 24.3281 18.2533 24.7969C18.9658 25.3781 19.8471 25.3594 20.6346 24.7781C21.3189 24.1219 22.6408 22.6781 23.3346 21.9094C23.8221 21.525 23.9814 21.9094 23.8314 22.6969C23.7002 23.1469 23.3814 23.6344 22.4908 23.9719C21.8814 24.3187 22.3408 24.7969 22.7908 24.8156C23.0439 24.8156 23.5502 24.5156 23.9439 24.0844C24.4502 23.5031 24.4877 23.1187 24.7689 22.2187C25.0314 21.7875 25.5096 21.9937 25.5096 22.4437C25.2752 23.3437 25.0877 23.5031 24.6189 23.8687C24.1783 24.2906 24.9283 24.4312 25.1814 24.2531C25.9127 23.7656 26.1752 23.1281 26.4189 22.5469C26.6064 22.1344 27.1127 22.3312 26.8689 23.0156C26.3064 24.6469 25.3689 25.2844 23.7471 25.6219C23.5877 25.65 23.4846 25.7437 23.5408 25.9312L24.1971 26.5875C23.1939 26.8875 22.3783 27.0562 21.3658 27.3375L19.9783 26.4187C19.8564 26.1187 19.7908 25.65 19.0596 25.9781C18.5721 25.7531 18.3377 25.8375 18.0658 26.0719C18.4596 26.0719 18.6283 26.1844 18.7877 26.3625C18.9939 26.8969 19.4627 26.9531 19.9408 26.8031C20.2502 27.0562 20.4096 27.2625 20.7283 27.525L19.1627 27.4781C18.6002 26.8875 18.1689 26.9156 17.7752 27.3844C17.4658 27.4312 17.3439 27.4312 17.1377 27.7969C17.4564 27.6656 17.6627 27.6281 17.8033 27.7687C18.3939 28.1156 18.7783 28.0406 19.0689 27.7687L20.7096 27.8719C20.5033 28.0594 20.2221 28.1531 20.0064 28.3219C19.1627 28.0781 18.7127 28.4156 18.5627 29.1C18.4442 29.3743 18.4052 29.6764 18.4502 29.9719C18.5252 29.6906 18.6658 29.4562 18.9096 29.3156C19.6596 29.5031 19.9408 29.1937 19.9877 28.7437C20.3627 28.4437 20.9064 28.3781 21.2721 28.0781C21.7033 28.2094 21.9096 28.2937 22.3408 28.4344C22.4908 28.9031 22.8377 29.0812 23.4002 28.9594C24.0564 28.9781 23.9439 29.2594 24.0002 29.475C24.1877 29.1656 24.1783 28.8562 23.7658 28.575C23.6158 28.1719 23.2783 27.9844 22.8471 28.2187C22.4346 28.1062 22.3314 27.9375 21.9189 27.8156C22.9502 27.4875 23.6814 27.4125 24.7127 27.0844L25.4346 27.7219C25.5752 27.8062 25.7064 27.825 25.7908 27.7219C26.4377 26.7844 26.7283 25.9687 27.3189 25.35C27.5533 25.0875 27.8439 24.75 28.1627 24.6656C28.3221 24.6187 28.5189 24.6469 28.6502 24.7875C28.7721 24.9187 28.8752 25.1719 28.8377 25.5562C28.7721 26.0906 28.6408 26.2687 28.4908 26.5875C28.3314 26.9156 28.1533 27.1125 27.9564 27.3656C27.5814 27.8625 27.0752 28.1531 26.7752 28.35C26.1752 28.7344 25.9314 28.5656 25.4627 28.5375C24.8627 28.6031 24.7127 28.8937 25.2002 29.2969C25.6502 29.5406 26.0627 29.5687 26.4002 29.5031C26.6814 29.4469 27.0189 29.0812 27.2627 28.8844C27.5252 28.575 27.9752 28.9406 27.6658 29.3062C27.1127 29.9625 26.5689 30.3937 25.8846 30.3844C25.1627 30.4781 25.3033 30.8812 25.7721 31.0781C26.6346 31.425 27.4033 30.7687 27.7971 30.3281C28.0971 30 28.3127 29.9906 28.2658 30.5062C27.9564 31.4344 27.5533 31.7906 26.8783 31.8375C26.3346 31.7812 26.3252 32.2125 26.7283 32.4937C27.6283 33.1125 28.2846 32.0437 28.5939 31.4062C28.8096 30.825 29.1471 31.0969 29.1846 31.575C29.1846 32.2219 28.9033 32.7375 28.1252 33.3937C28.7158 34.3406 29.4096 35.3062 30.0002 36.2531L31.8002 16.1906L30.0002 13.0312C29.8127 12.8625 29.1752 12.1125 29.0158 12C28.9502 11.9437 28.9221 11.9062 29.0064 11.8687C29.0908 11.8312 29.2877 11.7937 29.4283 11.775C29.0533 11.3906 28.7158 11.2687 27.9939 11.0625C28.1721 10.9875 28.3408 11.025 28.8658 11.0062C28.5437 10.5734 28.1046 10.2416 27.6002 10.05C27.9939 9.76875 28.0689 9.75 28.4627 9.42187C27.8416 9.37389 27.2282 9.25435 26.6346 9.06562C26.2801 8.89715 25.8998 8.7894 25.5096 8.74687H25.5002ZM25.5752 9.53437C25.9314 9.53437 26.1471 9.65625 26.1471 9.80625C26.1471 9.95625 25.9314 10.0781 25.5752 10.0781C25.2189 10.0781 24.9939 9.9375 24.9939 9.79687C24.9939 9.64687 25.2189 9.53437 25.5752 9.53437Z" fill="black"/>
</g>
<defs>
<clipPath id="clip0_60_72982">
<rect width="60" height="45" rx="4" fill="white"/>
</clipPath>
</defs>
</svg>
