<svg width="60" height="45" viewBox="0 0 60 45" fill="none" xmlns="http://www.w3.org/2000/svg">
<g clip-path="url(#clip0_60_73011)">
<path d="M0 0H60V45H0V0Z" fill="#000066"/>
<path d="M-0.0566406 22.5L59.9434 0V45L-0.0566406 22.5Z" fill="#BD1021"/>
<path d="M5.59668 22.5L59.9717 2.40938V42.5906" fill="white"/>
<path d="M44.4379 25.35C44.916 25.3781 44.9066 25.8562 44.9066 25.8562L46.5941 25.8937C46.8098 25.3031 47.0441 25.3687 47.4566 25.6687C47.7077 25.8394 47.9825 25.9721 48.2723 26.0625C48.4316 25.2187 49.6316 25.3875 49.6316 25.3875C50.1566 24.1687 50.1941 24.1781 49.8848 24.0281C49.7011 23.9351 49.5506 23.7878 49.4535 23.6062C49.1723 23.2594 49.0223 22.7531 48.9848 22.4437C48.9473 22.1344 48.591 22.5937 48.516 22.5C48.4598 22.4062 47.9254 22.4625 47.9254 22.4625C48.0566 22.6031 47.6066 22.5187 47.6066 22.5187C47.6535 22.5562 47.6066 22.6781 47.6066 22.6781C47.5691 22.6219 47.2223 22.5656 47.2223 22.5656C47.1961 22.6208 47.1613 22.6714 47.1191 22.7156C46.9316 22.6406 46.5566 22.65 46.5566 22.65C46.1979 22.6379 45.8432 22.729 45.5348 22.9125C45.3848 22.9969 44.841 23.2687 44.3816 23.7094C43.941 24.1406 43.6879 24.0844 43.6879 24.0844C43.5566 24.5719 42.4879 25.1625 42.4879 25.1625C42.3191 25.3125 41.7754 25.3875 41.5035 25.1625C41.2316 24.9375 41.5035 24.5156 41.5035 24.5156C41.616 24.3281 41.7098 24.3375 41.7191 23.6719C41.7285 23.2312 42.1879 22.875 42.6566 22.3594C43.2473 21.7219 44.0629 20.6719 44.0629 20.6719C44.0629 20.9906 44.2316 21.0469 44.2316 21.0469C44.391 20.7187 44.6254 20.4562 44.6254 20.4562C44.6348 20.4844 44.6723 20.4937 44.6723 20.4937C44.8598 20.25 44.9535 20.1562 44.9535 20.1562C44.9066 20.1281 44.391 20.1562 43.9223 20.5687C43.4535 20.9812 43.1348 20.85 43.1348 20.85C42.8066 20.7375 42.7785 20.475 42.7785 20.475C42.5441 19.4531 43.4723 18.7219 43.4723 18.7219C42.216 18.4219 43.1254 16.8187 44.691 16.1437C46.2473 15.4687 46.2285 15.1594 46.2285 15.1594C46.2972 15.2451 46.3539 15.3397 46.3973 15.4406C46.4066 15.4406 46.5285 15.2625 47.4285 14.8687C48.3285 14.4656 48.7598 14.1187 48.7598 14.1187C48.8723 14.3437 48.8535 14.4937 48.8535 14.4937C51.3191 13.6406 53.7285 11.6625 53.7285 11.6625C53.8035 11.8219 53.7754 12.075 53.7754 12.075C54.1691 11.7 55.6223 10.8375 55.6223 10.8375C55.6328 10.9937 55.5976 11.1495 55.521 11.286C55.4444 11.4225 55.3298 11.5338 55.191 11.6062C55.2273 11.6737 55.2526 11.7465 55.266 11.8219C55.7231 11.5358 56.1732 11.2389 56.616 10.9312C57.0191 11.2781 56.6535 11.85 56.6535 11.85C56.8035 11.8219 56.8973 11.7 56.8973 11.7C57.0098 12.3 56.3441 12.825 56.3441 12.825C56.466 12.825 56.6535 12.7031 56.6535 12.7031C56.5316 13.3594 55.3035 14.0719 55.3035 14.0719C55.4816 14.2406 55.3035 14.4469 55.1535 14.5406C55.0129 14.6344 54.7504 14.85 54.8348 14.9344C54.9098 15.0281 55.4629 14.6344 55.4629 14.6344C55.5566 14.9062 54.8535 15.4406 54.8535 15.4406C55.341 15.5062 56.691 14.8875 56.691 14.8875C56.5879 15.4125 56.0723 15.825 55.4441 16.0594C54.816 16.2937 54.8441 16.3406 54.8441 16.3406C54.9566 16.4156 55.8285 16.1719 55.8285 16.1719C55.566 16.7531 54.6566 17.1562 54.6566 17.1562C54.9098 17.3719 55.2473 17.1187 55.5941 16.8844C56.0031 16.6271 56.4445 16.4254 56.9066 16.2844C57.4035 16.1062 57.7691 16.2375 57.7691 16.2375C58.2004 16.1062 58.5566 16.2937 58.5566 16.2937C59.3723 16.3594 59.4566 16.6594 59.4566 16.6594C59.5504 16.6781 59.616 16.7156 59.8316 16.875C60.0285 17.025 60.0191 17.4937 60.0191 17.7375C60.0004 17.9625 59.9348 17.9625 59.8973 18.0187C59.8598 18.0937 59.8504 18.1687 59.8504 18.2531C59.8504 18.3469 59.6441 18.9 58.3785 18.9H56.4754C56.3629 18.9 56.241 18.9656 56.241 18.9656C55.7066 19.2281 55.9879 18.7781 55.3598 19.3031C54.7223 19.8187 54.4035 19.7344 54.4035 19.7344C54.0494 20.0964 53.6635 20.4258 53.2504 20.7187C52.8754 20.9625 52.941 20.9344 53.2785 21.075C53.616 21.2156 54.1035 21.075 54.1035 21.075C53.7848 21.2906 54.0098 21.3937 54.0098 21.3937C54.4223 21.1406 54.6848 21.2344 54.6848 21.2344C54.816 21.6 54.3285 22.1719 54.3285 22.1719C54.516 22.2 54.8723 22.1719 54.8723 22.1719C54.7785 22.425 54.441 22.6969 54.1785 22.7719C53.9254 22.8656 53.9629 22.8937 54.0473 23.0531C54.1129 23.2031 54.0566 23.3625 54.0566 23.3625C53.6066 23.0531 53.5879 23.325 53.5879 23.325C53.541 23.7 53.5504 24.225 53.5504 24.225C53.2316 24.0656 53.2223 24.2719 53.2223 24.2719C53.1285 24.6094 52.7441 24.9937 52.7441 24.9937C52.7254 24.7875 52.5379 24.7312 52.5379 24.7312C52.3316 25.125 51.966 25.3594 51.966 25.3594C51.9191 25.6875 52.0129 26.1656 52.0129 26.1656C51.7691 26.1094 51.6848 26.1094 51.6379 26.1656C51.6098 26.2312 51.6941 26.2594 51.6941 26.2594L54.8254 26.3344C54.8723 26.3344 55.0598 26.3625 55.0598 26.6906C55.0598 27.0375 54.7785 27.0562 54.7785 27.0562L51.366 26.9719C51.366 26.9719 51.3754 27.0656 51.1973 27.1594C51.0191 27.2531 51.0848 27.0562 51.0379 27.4781C50.9816 27.8906 50.3066 27.4406 50.3066 27.4406C50.1941 27.6094 49.9316 27.8156 49.9316 27.8156C49.7723 27.3469 49.6129 27.2156 49.3691 27.6094C49.1254 28.0125 49.8191 27.9469 49.8191 27.9469C49.8191 27.9469 53.8316 27.3562 54.0473 27.3375C54.2629 27.3094 54.5066 27.3281 54.6098 27.6281C54.7035 27.9375 54.1129 27.9844 54.1129 27.9844L49.9879 28.4344C49.9035 28.6781 49.566 28.6594 49.566 28.6594C49.5941 28.8937 49.3504 29.0344 49.2285 29.1281C49.0973 29.2031 48.7035 29.175 48.7035 29.175C48.2348 29.4937 47.991 29.2406 47.991 29.2406C47.6816 29.3719 47.4848 29.3156 47.2316 29.2031C46.9691 29.0906 46.9973 28.7812 46.9973 28.7812L44.391 29.0625C44.3158 29.0867 44.2458 29.1249 44.1848 29.175C44.2785 29.2969 43.9973 29.5781 43.9973 29.5781C44.0816 29.625 44.2316 29.775 44.2504 30.0937C44.2691 30.4406 43.8285 30.4969 44.0441 30.75C44.2598 30.9844 44.6723 30.7781 45.1223 30.5625C45.5723 30.3469 46.0129 30.375 46.2004 30.375C46.3879 30.375 46.9316 30.525 47.2691 30.6375C47.6066 30.75 47.7191 30.675 47.7379 30.5062C47.7566 30.3469 47.916 30.2906 47.916 30.2906C47.8691 30.4594 47.9629 30.5344 47.9629 30.5344C48.0849 30.5149 48.2024 30.4736 48.3098 30.4125C48.291 30.5437 48.1223 30.6187 48.1223 30.6187C47.8035 30.8344 48.2535 30.7594 48.2535 30.7594C49.1441 30.5719 49.4723 30.5906 49.6973 30.6187C50.1538 30.7533 50.6016 30.9161 51.0379 31.1062C51.0754 30.9937 51.0473 30.7312 51.0473 30.7312C51.3285 30.8062 51.441 30.9656 51.441 30.9656C51.5535 30.8531 51.4785 30.6469 51.4785 30.6469C52.3879 31.1625 51.291 31.3969 51.0004 31.4906C50.7191 31.5844 50.7191 31.7062 50.7191 31.7062C50.9535 31.6312 51.1223 31.6031 51.3191 31.5844C51.5254 31.5656 51.4504 31.5844 51.9285 31.4906C52.416 31.3969 52.6598 31.6031 52.6598 31.6031C52.2566 31.6219 52.1441 31.7437 52.1441 31.7437C52.3879 31.9031 52.1441 32.0625 52.1441 32.0625C51.7879 31.5937 51.4691 32.0719 51.4691 32.0719C51.6763 32.0718 51.881 32.1166 52.0691 32.2031L52.5754 32.4562C52.9129 32.6062 52.8473 32.5125 53.1004 32.6062C53.3629 32.7 53.2598 32.9531 53.2598 32.9531C53.1566 32.7469 52.9129 32.6719 52.9129 32.6719C52.8941 32.9531 52.6223 33 52.6223 33C52.9598 32.625 52.2379 32.4562 51.891 32.4656C51.5535 32.4656 51.3004 32.6906 51.3004 32.6906C51.9848 33.3375 52.4535 33.1219 52.4535 33.1219C52.3691 33.3562 51.8066 33.2625 51.8066 33.2625C52.0691 33.4687 52.041 33.6 52.041 33.6C51.9004 33.4687 51.666 33.5344 51.1785 33.225C50.691 32.8969 50.2504 33.0094 50.2504 33.0094C50.7379 33.5062 50.0816 33.8156 50.0816 33.8156C49.8379 33.9656 50.1754 34.1437 50.1754 34.1437C49.8754 34.2 49.8379 33.9 49.8379 33.9C49.6785 33.8625 49.4441 34.05 49.4441 34.05C49.4629 33.75 49.8754 33.9 49.8754 33.5812C49.8941 33.2531 49.5004 33 48.3473 33.1594C47.1848 33.3187 46.8473 32.9531 46.8473 32.9531C46.7535 32.9531 46.7348 33.0469 46.7348 33.0469C46.9223 33.2344 47.0066 33.3094 46.9785 33.4406C46.941 33.5625 47.0348 33.6094 47.0348 33.6094C46.8191 33.5906 46.8098 33.3469 46.8098 33.3469C46.8098 33.45 46.7629 33.4594 46.6879 33.5625C46.6129 33.6656 46.6879 33.8156 46.6879 33.8156C46.5941 33.7406 46.4348 33.6469 46.5941 33.4125C46.7066 33.2437 46.341 33.0187 46.341 33.0187C46.2004 32.8781 45.816 33.0187 45.816 33.0187C45.5956 33.0658 45.3671 33.0588 45.15 32.9984C44.9329 32.938 44.7336 32.826 44.5691 32.6719C44.4754 32.6719 44.2973 32.6156 44.2973 32.6156C43.4629 32.9906 42.7316 32.1844 42.7316 32.1844C42.1035 32.3062 41.8129 31.9969 41.6254 31.6969C41.5174 31.4924 41.3465 31.328 41.1379 31.2281C40.8941 31.0781 40.6504 30.6469 40.8941 30.4125C41.0816 30.2156 41.0348 30.1687 41.0348 30.1687C40.7066 29.6156 41.6066 29.4469 41.6254 29.3062C41.6535 29.1187 41.841 28.9969 42.0473 28.9875C42.2535 28.9687 42.2535 28.9875 42.3941 28.8562C42.516 28.7156 42.7691 28.8844 42.7691 28.8844C42.8348 28.8469 43.2848 28.5 43.6785 28.6781C44.0816 28.8562 44.4191 28.7344 44.4191 28.7344C44.7004 28.6687 47.0441 28.3594 47.0441 28.3594C47.1848 28.125 47.2973 27.8531 47.9441 27.7031C48.591 27.5531 49.0691 27.1406 49.0691 27.1406C48.9566 27.0281 48.7691 27.0281 48.6754 27.0187C48.5723 27.0187 48.3754 26.8312 48.3754 26.8312C48.2535 26.8875 48.1879 26.8594 47.3441 27.375C46.5848 27.8437 46.566 26.925 46.566 26.925H44.9066C44.8785 27.2719 44.6254 27.4125 44.6254 27.4125L44.016 27.4406C43.6785 27.2719 43.6785 26.6719 43.6785 26.6719C41.8598 26.7 40.8566 27.3469 40.8566 27.3469C38.7941 26.2969 37.1816 26.0531 37.1816 26.0531C38.5023 25.9574 39.7964 25.6339 41.0066 25.0969C41.8171 25.5874 42.7333 25.8767 43.6785 25.9406C43.7254 25.4344 44.0629 25.3125 44.0629 25.3125L44.4379 25.35Z" fill="black"/>
<path d="M41.4654 29.4937C40.9497 29.7937 41.0435 29.9625 41.0904 30.0562C41.1372 30.15 41.1372 30.2437 40.9966 30.3937C40.856 30.5344 40.8654 30.5812 40.8654 30.5812C40.8935 31.0875 41.2404 31.2 41.3997 31.3312C41.531 31.425 41.7372 31.7531 41.7372 31.7531C42.0091 32.1375 42.2904 32.1469 42.4966 32.1469C42.7122 32.1469 42.6841 32.1187 42.5904 32.025L42.2716 31.7719C42.4805 31.8606 42.6688 31.9915 42.8247 32.1562C43.3497 32.7375 43.8372 32.6625 44.0529 32.6437C44.2685 32.6156 44.2404 32.4844 44.2404 32.4844C44.1674 32.4617 44.0917 32.4491 44.0154 32.4469C43.2185 32.3719 42.9841 31.8469 42.9841 31.8469C43.3889 32.2028 43.9076 32.4023 44.4466 32.4094C44.6716 32.4 44.6622 32.4656 44.606 32.4844L44.381 32.4656C44.2779 32.4656 44.2779 32.4937 44.2966 32.5406C44.3247 32.5781 44.4279 32.5781 44.5497 32.5781C44.681 32.5781 44.5779 32.5875 44.906 32.8406C45.2435 33.1031 46.0591 32.8875 46.0591 32.8875C45.5247 32.7656 45.4591 32.5125 45.4591 32.5125C44.7372 32.6062 44.4466 32.175 44.4466 32.175C44.2832 32.0481 44.1073 31.9381 43.9216 31.8469C43.5279 31.6687 43.4529 31.3031 43.4529 31.3031C43.5747 31.4719 43.7997 31.6594 44.081 31.7344C44.3622 31.8094 44.4372 31.8469 44.4372 31.8469C44.3652 31.8631 44.2898 31.8566 44.2216 31.8281C43.9404 31.7344 44.0997 31.8562 44.0997 31.8562C44.4185 32.1094 44.5029 32.0906 44.5029 32.0906C45.3091 32.175 44.906 31.8469 44.906 31.8469C45.4872 31.9875 45.581 31.7719 45.581 31.7719C45.7029 32.025 46.1435 31.9312 46.1435 31.9312C45.5622 32.2125 46.0029 32.1281 46.0029 32.1281C46.5935 32.025 46.7154 32.175 46.7154 32.175C46.8654 32.3156 47.0341 32.3062 47.0341 32.3062C47.0341 32.3062 47.1466 32.3062 47.3622 32.3437C47.5872 32.3906 47.9435 32.5781 48.2622 32.55C48.5904 32.5031 48.6372 32.6062 48.6372 32.6062C48.581 32.5781 48.431 32.5594 48.1872 32.6719C47.9341 32.7937 47.4935 32.8219 46.856 32.6719C46.2185 32.5219 46.1622 32.55 46.1622 32.55C46.3216 32.6531 46.4529 32.8219 46.481 32.925C46.5091 33.0375 46.6216 33.0375 46.6216 33.0375C46.6685 32.8969 46.856 32.8406 46.856 32.8406C47.0025 32.9445 47.1596 33.0325 47.3247 33.1031C47.3622 33.0375 47.3247 32.9812 47.3247 32.9812C47.5685 33.2156 47.8497 33.1406 47.8497 33.1406C47.9247 33.0937 47.906 32.9531 47.906 32.9531C47.9997 32.9531 48.0185 33.0094 48.0935 33.0656C48.1591 33.1031 48.3747 33.075 48.3747 33.075C48.2997 33.0375 48.2341 32.9156 48.2341 32.9156C48.5622 32.7 49.2654 32.7937 49.2654 32.7937C49.7622 32.8875 49.706 33.2156 49.706 33.2156C49.7944 33.268 49.8736 33.3345 49.9404 33.4125C49.9872 33.3 49.9404 33.1781 49.9404 33.1781C50.1841 33.2906 50.2216 33.5531 50.2216 33.5531C50.5029 33.2531 49.9685 32.9156 49.9685 32.9156C50.2216 32.8781 50.5029 32.8969 50.6716 32.9156C50.9002 32.9553 51.1139 33.0556 51.2904 33.2062C51.4872 33.3656 51.8435 33.4406 51.8435 33.4406C51.8341 33.375 51.6372 33.2531 51.5904 33.2344C51.5529 33.2156 51.5341 33.15 51.5341 33.15C51.7122 33.1875 51.8247 33.1687 51.8247 33.1687C51.2247 32.7937 51.0654 32.6156 51.0654 32.6156C51.2904 32.6437 51.4216 32.5031 51.4216 32.5031C50.9435 32.5031 50.9154 32.3906 50.9154 32.3906C50.981 32.4 51.206 32.4562 51.4966 32.4C51.7872 32.3437 52.1716 32.4 52.1716 32.4C51.9654 32.0625 51.1685 32.1187 50.906 32.1375C50.6435 32.1562 50.5497 32.1187 50.5497 32.1187C50.5872 32.1 50.6341 32.0625 50.831 32.0531C51.0372 32.0531 51.2341 32.0719 51.4685 31.9031C51.6841 31.7531 52.0029 31.8094 52.0029 31.8094C51.9279 31.6594 51.5622 31.6031 51.2529 31.8094C50.9247 32.0062 50.6435 31.95 50.6435 31.95C51.1404 31.875 51.2904 31.6969 51.2904 31.6969C51.1404 31.6594 51.056 31.7062 50.7466 31.7719C50.4466 31.8281 50.3716 31.725 50.3716 31.725C50.6997 31.5281 50.9341 31.4437 50.9341 31.4437C50.6529 31.3875 50.3904 31.2562 50.3904 31.2562C50.0904 31.5375 49.8654 31.6875 49.2935 31.4062C48.731 31.1062 48.431 31.1437 48.431 31.1437C48.9372 30.8531 49.4435 30.975 49.8185 31.2C50.1935 31.4156 50.2872 31.2375 50.2872 31.2375C50.1747 31.1719 50.1935 31.0969 50.1935 31.0969C51.0935 31.5562 51.4872 31.2844 51.6841 31.1437C51.881 31.0031 51.5904 30.825 51.5904 30.825C51.5716 31.1062 51.2154 31.2562 50.9154 31.1531C50.6341 31.0594 50.3529 30.9281 49.9404 30.75C49.5279 30.5812 49.0029 30.675 48.5247 30.7687C48.0372 30.8719 47.9716 30.825 47.9247 30.7875C47.8779 30.75 47.8591 30.6281 47.606 30.7312C47.3622 30.8344 46.781 30.5625 46.4247 30.4781C46.0685 30.3844 45.4779 30.4312 44.9716 30.7125C44.4654 31.0031 44.2029 30.9281 44.0529 30.8625C43.9029 30.7875 43.7997 30.6 43.9685 30.4312C44.1372 30.2625 44.156 30.2156 44.1372 29.9625C44.1185 29.7187 43.8747 29.5687 43.8747 29.5687C44.0997 29.3344 44.156 29.2875 44.081 29.1937C44.006 29.0812 44.1185 29.0812 44.2497 29.025C44.381 28.9687 44.3247 28.9594 44.2966 28.8844C44.2591 28.8094 44.1841 28.8281 44.1841 28.8281C43.8935 28.8375 43.7247 28.7531 43.7247 28.7531C43.2372 28.5281 42.7779 28.9687 42.7779 28.9687C42.4966 28.7531 42.431 28.9031 42.3841 28.95C42.3372 28.9969 42.2341 29.0437 42.1029 29.0437C41.9904 29.0625 41.8122 29.1094 41.7466 29.2219C41.7466 29.2219 41.6904 29.3156 41.756 29.4094C41.756 29.4094 41.831 29.5219 41.6997 29.6625C41.5591 29.8031 41.5122 29.8312 41.5591 29.9719C41.5966 30.0937 41.5872 30.1969 41.531 30.2812C41.531 30.2812 41.4654 30.2156 41.4841 30.1219C41.5029 30.0281 41.5029 29.9719 41.4841 29.9344C41.4841 29.9344 41.3435 30.0656 41.3154 30.1594C41.3154 30.1594 41.2591 30.0094 41.4654 29.8125C41.6529 29.625 41.7466 29.5125 41.6904 29.4375C41.6529 29.3812 41.5029 29.475 41.4747 29.4937H41.4654Z" fill="#FFC221"/>
<path d="M42.0372 31.6875C42.0372 31.6875 41.7841 31.5 41.8122 31.2281C41.8404 30.975 41.8404 30.9469 41.8122 30.8812C41.8122 30.8812 41.7654 30.9094 41.7747 31.0125C41.7747 31.1062 41.756 31.2094 41.7466 31.2281C41.7466 31.2281 41.6247 31.0125 41.5591 30.9656C41.5591 30.9656 41.6154 30.7406 41.5404 30.6469C41.4747 30.5437 41.3997 30.5344 41.3154 30.5719C41.2029 30.6094 41.1185 30.7125 41.5029 31.0219C41.5029 31.0219 41.6435 31.1437 41.7372 31.3875C41.831 31.6312 41.9997 31.6687 42.0279 31.6875H42.0372ZM43.256 30.9562C43.256 30.9562 43.2466 30.8156 43.3779 30.5531C43.4242 30.4742 43.4509 30.3854 43.4558 30.294C43.4607 30.2027 43.4436 30.1115 43.406 30.0281C43.3779 29.9531 43.3497 29.9812 43.4904 29.8687C43.6497 29.7281 43.4247 29.55 43.706 29.3062C43.706 29.3062 43.8747 29.1562 43.9216 29.0906C43.9216 29.0906 43.6404 29.2406 43.4341 29.325C43.2466 29.4 42.5341 29.7562 42.6841 29.9906C42.8529 30.225 42.8341 30.2437 42.806 30.3469C42.806 30.3469 42.3747 30.1125 42.5247 29.7469C42.5247 29.7469 42.5997 29.6062 42.7779 29.4281C42.9466 29.2781 42.8529 29.4656 43.181 29.2687C43.181 29.2687 43.4341 29.1187 43.5841 28.9031C43.5841 28.9031 43.3966 29.0156 43.3404 29.0344C43.3404 29.0344 42.9654 29.1094 42.7966 29.2687C42.6466 29.4281 42.3185 29.7094 42.4216 30.0187C42.4216 30.0187 42.0466 29.9812 41.9529 29.5781C41.9529 29.5781 41.2404 30.4594 42.7404 30.8719C42.7404 30.8719 43.0216 30.9469 43.2654 30.9656L43.256 30.9562Z" fill="black"/>
<path d="M49.8376 28.0312C50.4001 27.9375 53.6251 27.45 53.9251 27.4219C54.2438 27.3937 54.3657 27.3469 54.4782 27.6094C54.6001 27.8906 54.0282 27.9 54.0282 27.9L50.1751 28.3406C49.9876 28.3594 49.9407 28.2844 49.9407 28.2844L49.8001 28.0969C49.8001 28.0969 49.7532 28.0406 49.8376 28.0219V28.0312Z" fill="#FFC221"/>
<path d="M41.9342 29.7844C41.9342 29.7844 41.5217 30.6563 43.153 30.8719C43.153 30.8719 43.1624 30.7781 43.228 30.6375C43.303 30.4969 43.4436 30.2156 43.303 30.0375C43.1717 29.8594 43.4155 29.9531 43.4436 29.7188C43.4905 29.4844 43.4249 29.5125 43.5374 29.3625C43.5374 29.3625 43.0311 29.55 42.8249 29.7844C42.6374 30.0094 43.0967 30.1781 42.8249 30.4313C42.8249 30.4313 42.5905 30.3375 42.4499 30.0938C42.4499 30.0938 42.1405 30.0938 41.9342 29.7844Z" fill="#5A3719"/>
<path d="M43.5465 30.8625C43.5465 30.8625 43.9496 31.2094 44.4278 31.2C44.9059 31.1719 45.1215 31.05 45.2434 30.8625C45.2434 30.8625 45.3371 31.0031 45.3371 31.1063C45.3371 31.1063 45.7496 30.7594 46.4621 31.0594C47.1746 31.3594 46.9684 31.275 47.1278 31.2938C47.1278 31.2938 46.8184 31.2469 46.1246 31.5656C45.4028 31.8938 43.5278 31.7813 43.5371 30.8625H43.5465Z" fill="black"/>
<path d="M42.8718 29.3063C42.8718 29.3063 43.0499 29.3344 43.228 29.1281C43.228 29.1281 42.9843 29.175 42.8718 29.3156V29.3063ZM41.4937 30.9375C41.4937 30.9375 41.1562 30.675 41.3718 30.6188C41.3718 30.6188 41.5312 30.5906 41.4937 30.9375Z" fill="#5A3719"/>
<path d="M48.8623 32.6062C48.8623 32.6062 49.0498 32.2781 49.5654 32.2781C50.0811 32.2781 50.1373 32.5219 50.7936 32.5594C50.7936 32.5594 50.0061 32.7844 49.4623 32.5875C49.1811 32.4844 48.9186 32.5687 48.8623 32.6062Z" fill="black"/>
<path d="M43.7158 31.0969C43.7158 31.0969 44.5033 31.5656 45.1877 31.05C45.1877 31.05 45.2439 31.1062 45.3002 31.2375C45.3002 31.2375 45.8252 30.7312 46.7533 31.275C46.7533 31.275 46.6408 31.2656 46.2002 31.4437C45.6283 31.6969 44.1939 31.8656 43.7158 31.0875V31.0969Z" fill="#5A3719"/>
<path d="M46.7158 31.5656C46.7158 31.5656 47.4658 31.6594 48.0939 31.6219C48.4783 31.6031 48.9002 31.5281 48.6939 31.6594C48.4783 31.7813 48.5908 31.8 49.4814 31.725C50.3627 31.6313 49.4721 31.8844 50.0814 31.9688C50.0814 31.9688 48.5908 32.7188 46.7158 31.5656Z" fill="black"/>
<path d="M48.6748 31.0969C48.6748 31.0969 49.1061 30.9375 49.5186 31.125C49.9217 31.3125 49.8561 31.3312 50.1279 31.3594C50.1279 31.3594 49.9404 31.6312 49.4998 31.4156C49.0498 31.2 48.9373 31.1531 48.6748 31.0969ZM49.1623 32.4375C49.1623 32.4375 49.5936 32.2219 50.0623 32.4375C50.1186 32.475 50.2498 32.5312 50.3717 32.55C50.3717 32.55 50.0154 32.6719 49.6404 32.55C49.4811 32.5031 49.3592 32.4656 49.1623 32.4375ZM47.0342 31.6687C47.0342 31.6687 47.9998 31.7625 48.5154 31.6594C48.5154 31.6594 47.9154 31.9406 49.4248 31.8187C49.4248 31.8187 49.7529 31.7812 49.7061 31.8281C49.6779 31.875 49.6498 31.9219 49.8186 31.9687C49.8186 31.9687 48.6936 32.475 47.0342 31.6687Z" fill="#5A3719"/>
<path d="M42.2534 30.8625C42.2534 30.8625 42.2722 30.9281 42.4784 31.0219C42.6941 31.125 42.8066 31.2937 42.8534 31.3875C42.8861 31.4532 42.9322 31.5114 42.9887 31.5582C43.0452 31.605 43.1109 31.6395 43.1816 31.6594C43.1816 31.6594 42.4316 31.8187 42.0941 31.4156C42.0941 31.4156 41.8409 31.1344 42.2441 30.8531" fill="black"/>
<path d="M48.1594 32.5875C48.1594 32.5875 47.8688 32.5688 47.4563 32.4281C47.0532 32.2875 46.95 32.4094 46.7157 32.2406C46.4907 32.0625 46.0313 32.175 45.9469 32.1844C45.8532 32.1938 45.6094 32.1844 45.9188 31.9875C45.9188 31.9875 45.675 31.9875 45.5813 31.8563C45.5813 31.8563 45.4688 31.9688 45.0563 31.9313C45.0563 31.9313 45.2438 32.2125 44.4938 32.1281C44.6196 32.2732 44.7858 32.3774 44.9712 32.4275C45.1566 32.4776 45.3527 32.4713 45.5344 32.4094C45.5344 32.4281 45.4875 32.6438 45.8157 32.7375C46.1719 32.8219 46.2375 32.8875 46.4157 32.9531C46.4157 32.9531 46.4438 32.8125 45.9844 32.4844C45.9844 32.4844 46.2282 32.4656 46.5844 32.55C46.9407 32.6344 47.7282 32.8406 48.1594 32.5875ZM48.3469 32.9344C48.3469 32.9344 48.4219 33.1031 48.6469 33.0656C48.8719 33.0281 49.2469 32.9719 49.6032 33.1406C49.6032 33.1406 49.6688 32.8406 48.9469 32.8219C48.9469 32.8219 48.4969 32.8406 48.3469 32.9344ZM42.2344 30.9656C42.2344 30.9656 41.9532 31.2 42.2063 31.4344C42.4313 31.65 42.7875 31.6313 42.9563 31.6219C42.9563 31.6219 42.8625 31.5656 42.7688 31.4344C42.675 31.2938 42.675 31.2 42.4875 31.1156C42.2907 31.0313 42.2719 31.0125 42.2344 30.9656ZM41.9532 29.7844C41.9532 29.7844 41.5219 30.6563 43.1719 30.8719C43.1719 30.8719 43.1719 30.7781 43.2375 30.6375C43.2938 30.4969 43.4344 30.2156 43.3125 30.0375C43.1625 29.8594 43.4157 29.9531 43.4532 29.7188C43.4907 29.4844 43.425 29.5125 43.5469 29.3625C43.5469 29.3625 43.0313 29.55 42.825 29.7844C42.6375 30.0094 43.0969 30.1781 42.825 30.4313C42.825 30.4313 42.5907 30.3375 42.45 30.0938C42.45 30.0938 42.1407 30.0938 41.9344 29.7844H41.9532Z" fill="#5A3719"/>
<path d="M46.2471 31.8094C46.2471 31.8094 46.5939 31.7531 47.4658 32.0813C48.3471 32.4 48.7127 32.325 48.8346 32.3156C48.8346 32.3156 48.3471 32.5781 47.5783 32.2406C46.9033 31.9406 46.8658 32.0531 46.2471 31.8094Z" fill="black"/>
<path d="M51.7315 31.6125C51.7315 31.6125 51.919 31.6125 52.0502 31.6594C52.0502 31.6594 52.1158 31.5937 52.3033 31.5656C52.3033 31.5656 52.1815 31.4531 51.7315 31.6125ZM51.1315 31.125C51.1315 31.125 51.3283 31.125 51.394 31.0125C51.394 31.0125 51.2908 30.8906 51.1315 30.825C51.1315 30.825 51.169 30.975 51.1315 31.125ZM44.4096 28.8937C44.4096 28.8937 44.3627 28.8 44.5783 28.7625L47.5127 28.3406C47.5127 28.3406 47.6533 28.3406 47.6721 28.4344C47.7002 28.5375 47.6627 28.6125 46.9971 28.6875L44.5971 28.9875C44.5971 28.9875 44.419 29.0156 44.4096 28.8937Z" fill="#FFC221"/>
<path d="M47.0625 28.7719C47.0625 28.7719 47.0625 29.1563 47.4563 29.2125C47.8313 29.2688 47.9719 29.1938 48.0656 28.9969C48.0938 28.9313 48.2156 28.5281 48.0469 28.5C47.9719 28.4906 47.8594 28.5 47.775 28.5281C47.6438 28.5938 47.5219 28.6594 47.5594 28.7156C47.6531 28.8656 47.6719 28.9031 47.6531 28.9031C47.5406 28.9313 47.4844 28.8469 47.4656 28.7906C47.4375 28.7156 47.5125 28.6781 47.2594 28.7156C47.1469 28.725 47.0719 28.725 47.0719 28.7719H47.0625ZM48.7031 28.4719C48.8906 28.5 48.8813 28.9219 48.6469 29.1188C48.3844 29.325 48.1406 29.2406 48.1406 29.2406C48.0094 29.1938 48.0281 29.2031 48.1313 29.0531C48.225 28.9125 48.2719 28.7156 48.2156 28.5844C48.1969 28.5375 48.2437 28.5 48.3094 28.4906C48.3094 28.4906 48.4969 28.4531 48.7031 28.4719Z" fill="#FFC221"/>
<path d="M48.8715 28.5094C48.8715 28.5094 49.0215 28.6969 48.834 29.025C48.834 29.025 48.759 29.1188 48.9372 29.1094C49.1059 29.0906 49.509 28.9031 49.4715 28.6594C49.4715 28.6594 49.4528 28.6031 49.3497 28.6031C49.2465 28.6031 49.3309 28.5563 49.3778 28.5281C49.4153 28.5281 49.5559 28.4719 49.1997 28.2469C49.1997 28.2469 49.1434 28.1906 49.0778 28.2188C49.0215 28.2375 48.834 28.3125 48.834 28.425C48.834 28.4719 48.8715 28.5188 48.8715 28.5188V28.5094Z" fill="#FFC221"/>
<path d="M49.2566 28.2094C49.2566 28.2094 49.5379 28.4063 49.5379 28.4719C49.5379 28.5281 49.5098 28.6125 49.5848 28.5938C49.6598 28.5938 49.9598 28.5281 49.866 28.3313C49.791 28.1344 49.7066 28.05 49.566 28.0125C49.4254 27.9563 49.3879 28.0219 49.266 28.1156C49.266 28.1156 49.1816 28.1719 49.2566 28.2094ZM47.7473 28.4906C47.7473 28.4906 47.7941 28.35 47.541 28.2844C47.541 28.2844 47.6441 28.1906 47.8598 28.2469C48.066 28.2844 48.0473 28.4344 48.0473 28.4438C48.0473 28.4438 47.8785 28.4438 47.7473 28.4906ZM48.291 28.4531C48.291 28.4531 48.5723 28.4063 48.7129 28.4156C48.7129 28.4156 48.5629 28.1063 48.1785 28.2C48.1785 28.2 48.3191 28.3688 48.291 28.4531ZM48.7879 28.3781C48.7879 28.3781 48.7879 28.275 49.0316 28.1813C49.0316 28.1813 48.9191 28.0688 48.7504 28.0875C48.5629 28.0875 48.516 28.1531 48.516 28.1531C48.516 28.1531 48.7316 28.2281 48.7879 28.3781ZM48.8816 28.0406C48.8816 28.0406 49.041 28.0781 49.1348 28.1625C49.1348 28.1625 49.2754 28.0031 49.3973 27.975C49.3973 27.975 49.1629 27.8438 48.8816 28.0406Z" fill="#FFC221"/>
<path d="M40.8562 27.2719C40.8562 27.2719 41.5312 26.6906 41.9062 26.7656C42.2812 26.8406 42.0937 26.7844 42.5062 26.7188C42.9187 26.6625 43.35 26.6156 43.5188 26.6344C43.5188 26.6344 43.0125 26.2781 42.1219 26.2875C42.1219 26.2875 41.5031 26.5031 41.0625 26.7844C41.0625 26.7844 40.2281 26.325 39.375 26.5969C39.375 26.5969 40.3031 26.9438 40.8562 27.2719Z" fill="#5A3719"/>
<path d="M48.0184 28.2563L48.1309 28.2375C48.1309 28.2375 48.3184 28.4719 48.1871 28.4719C48.0746 28.4719 48.1121 28.4438 48.0934 28.3781C48.083 28.3302 48.0565 28.2872 48.0184 28.2563ZM47.1746 28.275C47.1746 28.275 47.0996 28.3688 47.2309 28.35C47.3902 28.3219 47.3621 28.35 47.5215 28.2281C47.5215 28.2281 47.634 28.125 47.8215 28.1906C47.8215 28.1906 47.9902 28.2469 48.1215 28.1813C48.2527 28.1063 48.2809 28.1156 48.3559 28.125C48.4309 28.125 48.4309 28.1438 48.5152 28.0688C48.609 28.0031 48.7777 28.0594 48.8809 27.975C48.984 27.8813 49.1152 27.9563 48.8809 27.7875C48.8809 27.7875 48.834 27.7406 48.834 27.6938C48.834 27.6938 48.9277 27.7313 49.0027 27.7875C49.0777 27.8625 49.1902 27.8344 49.209 27.825C49.209 27.825 49.2277 27.6094 49.4246 27.4219C49.6402 27.2344 49.6402 27.2156 49.5184 27.2156C49.3965 27.2156 49.1902 27.1594 49.1152 27.2156C49.0402 27.2719 48.4402 27.6656 48.084 27.7313C47.7277 27.7969 47.3996 27.9 47.1746 28.275ZM37.6777 26.0813C37.6777 26.0813 38.7746 26.3625 39.0184 26.475C39.0184 26.475 39.0746 26.2969 38.5777 26.1563C38.5777 26.1563 39.7871 26.1188 41.0527 26.7C41.0527 26.7 41.6715 26.175 43.6496 26.3344C43.6496 26.3344 43.6496 26.1656 43.6684 26.025C43.6684 26.025 42.2809 25.9875 41.0059 25.2094C41.0059 25.2094 39.8527 25.7719 37.6777 26.0813ZM43.7434 26.6063C43.6777 25.5 44.0996 25.3875 44.0996 25.3875C44.0996 25.3875 44.2965 25.3875 44.5121 25.4344C44.5121 25.4344 44.1746 25.8375 44.2684 26.6344C44.2684 26.6344 44.3059 26.7563 44.0152 26.7563C43.7246 26.7563 43.7434 26.6156 43.7434 26.6156V26.6063Z" fill="#FFC221"/>
<path d="M44.0439 27.3469C44.0439 27.3469 43.8283 27.1313 43.8096 26.8875C43.8096 26.8875 43.8096 26.8313 44.0158 26.8313C44.2314 26.8313 44.2502 26.8125 44.2971 26.9344C44.3533 27.0563 44.4846 27.3094 44.5127 27.3375L44.0439 27.3469Z" fill="#5A3719"/>
<path d="M44.4848 26.7844C44.4674 26.6445 44.4611 26.5034 44.4661 26.3625C44.4755 25.7438 44.5786 25.8 44.6255 25.875H44.8411C44.8411 25.875 44.6817 25.1812 44.4942 25.5937C44.3566 25.8991 44.3079 26.237 44.3536 26.5687C44.363 26.7562 44.3817 26.8781 44.4098 26.9437L44.4848 26.7844Z" fill="#FFC221"/>
<path d="M46.8939 26.7844C46.8939 26.7844 47.2971 26.8594 46.6783 27C46.6783 27 46.7064 27.7688 47.4471 27.2344C47.4471 27.2344 47.8877 26.9531 48.1971 26.8406C48.1971 26.8406 48.3471 26.7844 48.3283 26.6719C48.3283 26.6719 48.3471 26.5313 48.1877 26.5688C48.1877 26.5688 48.0564 26.5688 47.9721 26.5406C47.9721 26.5406 47.8783 26.4281 47.8221 26.4656C47.7658 26.5125 47.6252 26.4844 47.7377 26.625C47.8502 26.7563 47.8783 26.7188 47.9252 26.6813C47.9814 26.6438 48.2158 26.55 48.0096 26.7469C47.8033 26.9438 47.6158 26.6344 47.5408 26.5781L46.8939 26.7844ZM44.8314 26.8781H44.6439C44.6439 26.8781 44.5502 27.0281 44.4846 26.7844L44.4189 26.9344C44.4189 26.9344 44.6346 27.7594 44.8314 26.8781Z" fill="#5A3719"/>
<path d="M44.5686 25.9313C44.5686 25.9313 44.4749 26.475 44.5967 26.7938L46.5749 26.8406C46.5749 26.8406 46.5561 26.4656 46.5749 25.9313H46.3124C46.3124 25.9313 46.2655 26.3625 46.3124 26.6344H46.2655C46.2655 26.6344 46.228 26.2594 46.2655 25.9313H46.0311C46.0311 25.9313 45.9936 26.3344 46.0311 26.6344H45.9842C45.9842 26.6344 45.9467 26.2875 45.9842 25.9313H45.7499C45.7499 25.9313 45.703 26.2969 45.7499 26.6344H45.6936C45.6936 26.6344 45.6467 26.2688 45.6936 25.9313H45.4405C45.4405 25.9313 45.3842 26.2688 45.4405 26.6344H45.3936C45.3936 26.6344 45.3374 26.2969 45.3936 25.9313H45.1405C45.1405 25.9313 45.0842 26.325 45.1405 26.6344H45.0842C45.0842 26.6344 45.0467 26.2594 45.0936 25.9313H44.8592C44.8592 25.9313 44.7936 26.2594 44.8592 26.6344H44.7936C44.7936 26.6344 44.7561 26.3531 44.8124 25.9313H44.5686ZM46.6592 26.9063C46.6592 26.9063 46.6124 25.95 46.7905 25.6875C46.978 25.4438 47.0249 25.5 47.3342 25.6875C47.653 25.8938 48.0561 26.1094 48.1311 26.1375C48.1874 26.1656 48.2811 26.1844 48.2811 26.3625C48.2811 26.5406 48.3092 26.5875 48.0374 26.3625C48.0092 26.3344 47.878 26.2219 47.7842 26.1938C47.5405 26.1094 47.8405 26.2406 47.9249 26.3719C47.9999 26.4656 48.0655 26.4656 47.8686 26.5125C47.4615 26.6312 47.0582 26.7625 46.6592 26.9063Z" fill="#FFC221"/>
<path d="M47.3435 26.2125C47.3435 26.2125 47.2029 26.0437 47.3904 25.9969C47.5779 25.9594 47.5872 26.2781 47.6247 26.475C47.6529 26.6812 47.3904 26.2781 47.3623 26.2219L47.3435 26.2125ZM47.0904 27.0562C47.0904 27.0562 46.8747 27.1406 47.0247 27.2062C47.156 27.2719 47.5404 26.9531 47.4185 26.9719C47.2685 27 47.0904 27.0656 47.0904 27.0656V27.0562ZM47.3716 26.775C47.3716 26.775 47.5591 26.7469 47.5216 26.8219C47.4935 26.9156 47.4279 26.8594 47.3904 26.8406C47.3622 26.8219 47.2404 26.775 47.381 26.7656L47.3716 26.775Z" fill="black"/>
<path d="M48.3748 26.5125C48.3748 26.5125 48.4311 26.8875 48.7498 26.9813C48.7498 26.9813 48.9373 27.0188 48.8904 26.8594C48.8904 26.8594 48.8623 26.7188 48.8342 26.6719C48.8061 26.6063 48.6842 26.5781 48.6654 26.5688C48.6467 26.5688 48.6373 26.5219 48.7217 26.55C48.8154 26.5781 48.8154 26.5875 48.8154 26.5219C48.8154 26.4563 48.7592 26.4844 48.6842 26.4469C48.6467 26.4281 48.6842 26.4094 48.7123 26.4188C48.7498 26.4188 48.8342 26.4469 48.8342 26.325C48.8342 26.325 48.8436 26.25 48.7498 26.25C48.6467 26.25 48.6561 26.1938 48.6842 26.1844C48.7123 26.1844 48.8248 26.2594 48.8623 26.1281C48.8904 26.0063 48.7123 26.0813 48.7311 26.0156C48.7592 25.9406 48.8904 26.0438 48.8904 25.9688C48.9092 25.8938 49.0123 25.8656 48.8342 25.8375C48.7498 25.8281 48.8342 25.7813 48.9279 25.8C49.0217 25.8094 49.0779 25.6875 49.1436 25.65C49.1998 25.6031 49.5373 25.4063 49.0873 25.4719C48.6467 25.5375 48.5154 25.7531 48.4967 25.8C48.3849 26.0197 48.3424 26.2681 48.3748 26.5125Z" fill="#FFC221"/>
<path d="M49.4066 26.7937C49.4723 26.7937 49.5191 26.7937 49.5379 26.8406C49.6129 26.9906 49.4441 26.9344 49.3504 27.0469C49.2566 27.1594 49.2566 27.1406 49.1254 27.0937C48.9941 27.0562 48.9379 26.8594 48.9379 26.8594C48.9379 26.7937 48.9848 26.7844 49.0504 26.8031C49.0504 26.8031 49.266 26.8219 49.416 26.8031L49.4066 26.7937ZM48.9379 26.7187C48.9379 26.7187 48.9379 26.7562 49.0223 26.7656C49.0879 26.7656 49.3035 26.7937 49.4441 26.7562C49.4441 26.7562 49.4816 26.7469 49.4629 26.6625C49.4629 26.6625 49.4629 26.5969 49.3504 26.625C49.2285 26.6437 49.0691 26.625 49.0035 26.6156C48.9473 26.5969 48.9098 26.6156 48.9285 26.7094L48.9379 26.7187ZM48.9191 26.4469C48.9191 26.4469 48.9098 26.5687 49.0223 26.5781C49.1441 26.5969 49.2941 26.5969 49.3504 26.5781C49.3973 26.5781 49.4816 26.5594 49.491 26.4844C49.491 26.4187 49.5098 26.3719 49.3691 26.4094C49.2285 26.4469 49.0504 26.4094 49.0316 26.4094C49.0223 26.4094 48.9191 26.3812 48.9191 26.4469ZM48.966 26.2125C48.966 26.2125 48.9379 26.2687 48.9473 26.325C48.9473 26.3719 49.0316 26.3906 49.1816 26.3906C49.3316 26.3906 49.4629 26.3719 49.4816 26.325C49.491 26.2594 49.5285 26.2031 49.416 26.2312C49.2941 26.2406 49.1348 26.25 49.0785 26.2312C49.0223 26.2031 48.9754 26.1937 48.966 26.2125Z" fill="#FFC221"/>
<path d="M54.5721 26.8125C54.5721 26.8125 54.5721 26.9063 54.6564 27.0188L50.4189 26.8969C50.4189 26.8969 50.4752 26.8594 50.4939 26.6906L54.5721 26.8125Z" fill="#5A3719"/>
<path d="M49.0035 26.0437C49.0035 26.0437 48.966 26.1469 49.041 26.175C49.1066 26.1938 49.2473 26.2125 49.416 26.1844C49.416 26.1844 49.5098 26.1844 49.5379 26.0906C49.566 25.9969 49.566 26.0531 49.3223 26.0156C49.3223 26.0156 49.2473 25.9875 49.4629 25.9875C49.4629 25.9875 49.5941 25.9875 49.6035 25.9688C49.6316 25.95 49.791 25.8094 49.5754 25.8281C49.3598 25.8281 49.4723 25.7812 49.5754 25.7812C49.6879 25.7812 49.7254 25.8094 49.7629 25.7812C49.8004 25.7531 49.7629 25.7625 49.6973 25.7063C49.6316 25.65 49.6879 25.6594 49.7254 25.6969C49.7723 25.725 49.8004 25.7438 49.8473 25.6969C49.8941 25.65 49.8098 25.5844 49.8473 25.6031C49.8754 25.6031 49.9035 25.6781 50.0348 25.6031C50.1848 25.5375 50.3629 25.575 50.4098 25.6031C50.466 25.65 50.616 25.6969 50.7004 25.6031C50.7941 25.5281 50.5973 25.4437 50.6723 25.4344C50.766 25.425 50.8223 25.4531 50.8504 25.3875C50.8879 25.3125 50.7191 25.2563 50.8785 25.2188C51.0285 25.1719 50.8973 24.75 50.8504 24.7031C50.8504 24.7031 50.6723 24.8062 50.4941 25.1062C50.2973 25.4156 50.1848 25.5938 49.9316 25.5C49.566 25.3594 49.3691 25.5562 49.3223 25.5938C49.2285 25.65 49.5098 25.6687 49.341 25.6781C49.1816 25.6781 49.1816 25.6969 49.1723 25.7156C49.1535 25.7437 49.1723 25.7625 49.2004 25.7719C49.2285 25.7719 49.2848 25.8281 49.191 25.8281C49.0973 25.8281 49.0223 25.8 49.0504 25.9125C49.0504 25.9125 49.0504 25.9313 49.1066 25.9406C49.1629 25.9406 49.1816 26.0156 49.0785 26.0156C49.0035 26.0156 49.0035 26.0344 49.0035 26.0437ZM49.3879 27.1031C49.3879 27.1031 49.3223 27.15 49.416 27.1594C49.5285 27.1594 49.5754 27.1875 49.6129 27.1312C49.6504 27.075 49.7816 27.0938 49.6879 27.0188C49.5941 26.9438 49.5379 26.9906 49.3879 27.1125V27.1031Z" fill="#FFC221"/>
<path d="M49.8281 25.8281C49.8281 25.8281 50.1844 25.5 50.475 25.7156C50.775 25.95 50.7938 25.9781 50.8031 25.9875C50.8031 25.9875 50.8406 26.0156 50.7656 26.0813C50.6812 26.1563 50.7656 26.1562 50.85 26.1094C50.9344 26.0625 50.9437 26.1094 50.9812 26.1562C51.0281 26.2031 51.0844 26.2312 50.9531 26.2312H50.5219C50.5219 26.2312 50.325 26.25 50.4281 26.1656C50.5219 26.0812 50.5031 25.9875 50.4562 25.9781C50.4 25.9781 50.4563 26.0344 50.4281 26.0719C50.3906 26.1094 50.325 26.1375 50.25 26.1375C50.175 26.1375 50.1187 26.1937 50.2312 26.2312C50.3344 26.2687 50.2125 26.2969 50.1562 26.2969C50.1 26.2969 49.8281 26.3156 50.1094 26.3531C50.3906 26.3812 50.0812 26.3812 50.2969 26.4937C50.5219 26.625 50.3531 26.8969 50.2687 26.925C50.2687 26.925 50.175 26.9719 50.2875 26.9625C50.4094 26.9437 50.475 26.9344 50.3813 27C50.3063 27.0562 50.1375 27.2719 49.9125 27.1125C49.9125 27.1125 49.8 27.0562 49.9875 27.0469C50.175 27.0469 49.8375 27 49.7719 26.9531C49.725 26.925 49.4906 26.7 49.6313 26.7187C49.7813 26.7562 49.725 26.6719 49.6406 26.6438C49.5656 26.6156 49.5469 26.4937 49.6406 26.5125C49.7344 26.5406 49.8281 26.5969 49.9219 26.5875C49.9875 26.5875 49.9687 26.5594 49.8094 26.5125C49.65 26.4562 49.5844 26.4469 49.6219 26.325C49.6594 26.1844 49.8375 26.3719 49.7906 26.2688C49.7531 26.175 49.6031 26.2219 49.6781 26.0906C49.7531 25.9594 49.7719 26.0156 49.8188 26.0344C49.8469 26.0438 49.9125 26.0344 49.8094 25.9594C49.7344 25.9125 49.8094 25.8375 49.8281 25.8281Z" fill="#FFC221"/>
<path d="M50.0811 25.9219C50.0811 25.9219 50.0811 25.875 50.1561 25.8844C50.2123 25.8844 50.1936 25.8656 50.2123 25.8469C50.2311 25.8469 50.3904 25.8938 50.2404 25.9406C50.1842 25.9688 50.0904 25.9594 50.0904 25.9219H50.0811Z" fill="black"/>
<path d="M50.4283 26.2969C50.4283 26.2969 50.3065 26.3531 50.4096 26.4844C50.5033 26.5781 50.5033 26.625 50.5033 26.6906C50.494 26.7656 54.5721 26.8125 54.5721 26.8125C54.5721 26.8125 54.5721 26.5406 54.7408 26.3906L50.4283 26.2969Z" fill="#FFC221"/>
<path d="M54.6377 26.7375C54.6377 26.7375 54.6564 26.5125 54.7877 26.4469C54.8533 26.4 54.9377 26.4187 54.9752 26.5969C55.0314 26.85 54.8158 27.075 54.7221 26.9719C54.6283 26.8781 54.6471 26.7375 54.6471 26.7375H54.6377Z" fill="#5A3719"/>
<path d="M49.9595 27.6937C49.9595 27.6937 50.2314 27.4594 50.2782 27.3562C50.2782 27.3562 51.0095 27.8812 50.9626 27.3937L50.9814 27.15C50.9814 27.15 51.2532 27.1781 51.2907 26.9625L50.6064 26.9344C50.6064 26.9344 50.5314 26.925 50.4189 27.0375C50.3251 27.15 50.1001 27.2719 49.9032 27.1687C49.9032 27.1687 49.8095 27.0937 49.7251 27.1687C49.6314 27.2156 49.6314 27.2344 49.7064 27.3094C49.7814 27.3844 49.9314 27.5812 49.9595 27.6844V27.6937ZM51.5345 26.25L51.1314 26.2312C51.1314 26.2312 50.9907 26.025 50.7001 25.8C50.7001 25.8 50.6157 25.7625 50.7751 25.6312C50.9439 25.5 50.9908 25.3687 50.9908 25.3031C50.9908 25.2469 50.9907 25.1437 51.047 25.2094C51.1032 25.2844 51.5157 25.6687 51.5907 25.5562C51.647 25.4437 51.6564 25.3969 51.6564 25.3594C51.6751 25.3219 51.6845 25.2187 51.7501 25.3312C51.8064 25.4344 51.8439 25.4062 51.8532 25.6875C51.8532 25.6875 51.8532 25.9687 51.9001 26.0625C51.9001 26.0625 51.3751 25.9031 51.5439 26.25H51.5345ZM49.7907 25.3875C49.7907 25.3875 50.1001 25.575 50.2595 25.3312C50.4001 25.0969 50.5032 25.0687 50.3907 24.8344C50.2782 24.6187 50.3908 24.5156 50.4751 24.4219C50.5689 24.3281 50.6439 24.3469 50.6439 23.9906C50.6626 23.625 50.9064 23.5219 51.0189 23.4C51.1314 23.2875 51.4126 23.1187 50.9814 23.0531C50.5689 22.9781 49.7251 22.7719 49.5095 22.4437C49.2939 22.1156 49.2001 22.3031 49.2001 22.3219C49.2001 22.3406 49.1251 22.575 49.3407 23.0062C49.5564 23.4375 49.7345 23.7187 49.9501 23.85C50.1564 23.9906 50.3439 24.0656 50.2314 24.3562C50.1189 24.6469 49.9501 25.1625 49.7907 25.3875Z" fill="#7B3C20"/>
<path d="M50.9252 24.4688C50.9252 24.4688 50.9815 25.2188 51.5159 25.4813C51.5159 25.4813 51.6377 25.2 51.5909 24.9094C51.5909 24.9094 51.769 24.9188 51.8159 25.0031C51.8159 25.0031 51.8159 24.7875 51.5721 24.7031C51.319 24.6375 51.4409 24.1406 51.5346 24.0938C51.619 24.0375 51.5909 23.9344 51.5346 23.85C51.469 23.7563 51.4596 23.6344 51.6659 23.6906C51.8815 23.7469 51.8534 23.6344 51.7127 23.5313C51.5909 23.4281 51.5909 23.2969 51.7784 23.2969C51.9659 23.2969 52.2471 23.1188 52.0784 23.0719C51.8909 23.0156 51.844 22.95 52.0784 22.8844C52.3315 22.8094 52.4534 22.725 52.2659 22.6969C52.0784 22.6781 51.9565 22.6125 52.1346 22.5844C52.3127 22.5563 52.1065 22.3688 51.9002 22.3688C51.6846 22.35 51.244 22.4344 51.5909 22.1531C51.9471 21.8719 51.0846 22.0781 51.4409 21.8906C51.7971 21.7031 51.319 21.7875 51.2534 21.7875C51.1877 21.7875 51.1877 21.7875 51.2159 21.6938C51.2346 21.6 51.169 21.5438 51.0565 21.6094C50.9627 21.6656 50.9627 21.6656 50.9627 21.5438C50.9627 21.4031 50.8409 21.5063 50.7659 21.5438C50.6815 21.5719 50.4846 21.7219 50.4002 21.6375C50.3346 21.5531 50.2877 21.4781 50.044 21.6188C49.8002 21.7594 49.8565 21.6375 49.8565 21.5719C49.8565 21.5063 49.9502 21.2531 49.6315 21.525C49.3127 21.7969 49.5659 21.2438 49.3034 21.4313C49.0502 21.6188 49.0221 21.6563 48.9752 21.5719C48.9284 21.4781 48.8815 21.4125 48.6002 21.6C48.3096 21.7781 48.5252 21.4781 48.5534 21.4125C48.6002 21.3563 48.7221 20.9438 48.469 21.2625C48.469 21.2625 48.3471 21.4875 48.0752 21.0844C48.0752 21.0844 47.794 21.4875 47.7096 21.3094C47.6346 21.1219 47.569 21.1219 47.4659 21.2344C47.3721 21.3469 47.4471 21.225 47.4002 21.1219C47.3627 21.0281 47.3346 20.85 46.8565 21.1969C46.3784 21.5531 47.0252 21.2906 46.6596 21.45C46.294 21.6094 45.394 22.1063 46.2096 22.0031C47.0252 21.8813 45.8159 22.3125 46.0971 22.3969C46.3784 22.4719 46.2846 22.725 47.3534 22.425C48.4034 22.1438 48.2346 22.3875 48.7784 22.1438C49.3221 21.9188 48.6471 22.2281 49.3784 22.2188C50.1002 22.2 49.5002 22.2188 49.6409 22.3688C49.7815 22.5188 50.3909 22.8656 50.9627 22.9313C51.5346 22.9875 51.6846 22.7719 51.5159 23.025C51.3471 23.2688 51.2909 23.3625 51.1971 23.4563C51.1034 23.5313 50.8221 23.7375 50.8221 24.075C50.8221 24.4219 50.3721 24.4781 50.5409 24.8531L50.9252 24.4781V24.4688Z" fill="#5A3719"/>
<path d="M51.8719 25.3031C51.8719 25.3031 51.7406 25.2094 51.7406 25.0406C51.7406 25.0406 51.8344 25.0594 51.8719 25.1156C51.8719 25.1156 52.2 24.7406 51.7969 24.6094C51.4125 24.4781 51.6094 24.1125 51.7406 24.1125C51.8719 24.1125 51.9 24.0844 51.7781 23.925C51.6656 23.7844 51.6844 23.775 51.9 23.7375C52.1156 23.7 52.0968 23.6437 51.9937 23.5969C51.9266 23.5568 51.8665 23.5062 51.8156 23.4469C51.8156 23.4469 52.4531 23.175 52.2469 23.0437C52.0406 22.9219 52.2469 22.95 52.4344 22.8281C52.6219 22.6969 52.6406 22.6687 52.6687 22.6125C52.6687 22.6125 52.4812 22.6406 52.35 22.6125C52.35 22.6125 52.5094 22.5281 52.35 22.3969C52.1906 22.2656 52.1344 22.1531 51.8812 22.2094C51.6281 22.275 51.7125 22.1906 51.8062 22.0875C51.9 21.9844 51.8625 21.9281 51.6844 21.9C51.6844 21.9 51.7031 21.7875 51.8437 21.6656C51.8437 21.6656 51.4969 21.6844 51.375 21.6281C51.375 21.6281 51.525 21.5344 51.525 21.4125C51.525 21.4125 51.3375 21.4781 51.1031 21.4594C51.1031 21.4594 51.2437 21.3375 51.2437 21.2344C51.2437 21.2344 50.8312 21.3281 50.6437 21.4687C50.6437 21.4687 50.5969 21.4687 50.5687 21.4125C50.5312 21.375 50.5125 21.3187 50.0531 21.4687C50.0531 21.4687 50.1 21.2625 50.2125 21.1875C50.325 21.1125 50.3062 20.9437 49.6031 21.3844C49.6031 21.3844 49.5094 21.3281 49.425 21.1125C49.425 21.1125 49.2656 21.3281 49.1531 21.4031C49.1531 21.4031 49.0594 21.45 49.0594 21.3094C49.0781 21.1687 48.9937 21.2625 48.9281 21.3094C48.8531 21.3469 48.8062 21.45 48.8344 21.1687C48.8625 20.8875 48.7406 20.8312 48.7406 20.8312C48.7406 20.8312 48.525 21.1406 48.3937 21.1781C48.3937 21.1781 48.1594 20.9531 48.075 20.8031C48 20.6531 48 20.5969 47.9156 20.8594C47.8312 21.1125 47.7281 21.1406 47.7281 21.1406C47.7281 21.1406 47.5875 21.0187 47.5781 20.9531C47.5781 20.9531 47.55 21.0187 47.5031 21.0469C47.5031 21.0469 47.3812 20.9062 47.3906 20.7C47.3906 20.7 46.6219 21.1219 46.5281 21.375C46.5281 21.375 45.8062 21.3281 45.5156 21.3844C45.5156 21.3844 45.5812 21.1594 45.7687 21.0375C45.7687 21.0375 45.5812 21.0187 45.5812 20.8219C45.5812 20.8219 45.7312 20.8406 45.825 20.8219C45.9187 20.8031 45.6937 20.5312 45.9281 20.5219C46.1625 20.5125 46.3219 20.6344 46.2094 20.3156C46.1156 20.0062 46.1531 20.0062 46.1531 20.0062C46.1531 20.0062 46.5656 20.25 46.6312 20.1844C46.7062 20.1281 46.5844 19.9969 46.95 20.0531C47.3156 20.1187 47.2125 19.9125 47.3625 19.8937C47.5031 19.8937 47.5781 19.9875 47.4844 19.3219C47.3906 18.6562 47.9344 19.65 47.5687 18.6469C47.5687 18.6469 47.475 18.3375 47.2594 18.2062C47.2594 18.2062 47.2031 18.4219 46.9594 18.2344C46.7156 18.0469 46.2281 17.9719 46.4344 17.8219C46.6406 17.6625 46.7344 17.4562 46.6781 17.3344C46.6781 17.3344 46.4344 17.5781 46.0219 17.4C45.6844 17.2594 45.6094 17.5219 45.2719 17.4469C45.2719 17.4469 45.2719 17.3531 45.5625 17.1281C45.8437 16.9125 45.3937 17.2031 45.225 17.25C45.0469 17.2875 45 17.25 45.3656 16.9594C45.7406 16.6781 46.4906 16.1625 46.3969 15.7406C46.3969 15.7406 46.5656 15.9562 47.025 15.7969C47.4937 15.6375 47.8312 15.5812 47.9625 15.3281C48.1125 15.0937 48.4687 14.8594 48.5625 14.8031C48.6656 14.7562 48.7875 14.7094 48.6469 14.9437C48.4969 15.1687 48.2719 15.5625 47.6344 15.825C46.9969 16.0875 46.7437 16.275 46.6312 16.4156C46.5187 16.5562 45.9375 16.8656 46.3219 16.8187C46.6969 16.7531 47.3437 16.8187 47.0344 16.725C46.7344 16.6406 46.3875 16.7812 46.6687 16.5281C46.95 16.275 46.9969 16.1906 47.4094 16.0219C47.8219 15.8437 48.2719 15.45 48.225 15.8719C48.1781 16.2844 47.4187 16.725 47.2312 16.8656C47.0437 16.9969 47.1187 16.9781 47.1187 17.0344C47.1187 17.0906 47.0812 17.2031 47.0062 17.25C46.9312 17.3062 46.9594 17.3625 46.9781 17.475C46.9969 17.5969 46.9594 17.6437 47.0156 17.6625C47.0719 17.6719 47.1281 17.6812 47.1469 17.7656C47.1656 17.8594 47.2031 17.8594 47.3156 17.8594C47.4187 17.8406 47.5031 17.8594 47.5031 17.9156C47.5031 17.9812 47.6156 18.075 47.625 17.8781C47.6344 17.6719 47.7187 17.6437 47.5125 17.7375C47.3062 17.8219 47.2687 17.7937 47.2687 17.7C47.2687 17.6062 47.25 17.625 47.175 17.6156C47.0812 17.6156 47.0531 17.4937 47.2031 17.4094C47.3531 17.3344 47.3531 17.4094 47.5406 17.2594C47.7281 17.1 47.7281 17.0719 47.7562 16.9781C47.7844 16.9125 47.4844 17.2031 47.3437 17.2594C47.2031 17.3344 47.25 17.2125 47.2687 17.0625C47.2969 16.9031 47.6437 16.6875 47.8031 16.6875C47.9719 16.6875 48.3281 16.7812 48.1781 16.9969C48.0187 17.2125 47.5781 17.4844 47.7562 17.5031C47.9531 17.5219 47.9812 17.4469 48.0937 17.5406C48.2062 17.6344 48.0937 17.8406 48.0562 17.9531C48.0059 18.051 47.9357 18.1372 47.85 18.2062C47.85 18.2062 47.6437 17.85 47.6531 18.1312C47.6531 18.4219 47.6062 18.525 47.6531 18.5344C47.7 18.5437 47.9156 18.6937 47.9906 18.6937C48.0656 18.6937 47.6062 18.9094 47.8031 18.9281C47.9906 18.9375 48.3 18.8344 48.4031 18.6469C48.4031 18.6469 48.0094 18.5531 47.85 18.4031C47.85 18.4031 48.3094 18.2906 48.1781 17.8594C48.1781 17.8594 48.6375 17.9812 48.4312 18.1875C48.2437 18.3844 48.1218 18.3562 48.2906 18.4125C48.4687 18.4687 48.5437 18.525 48.5437 18.525C48.5437 18.525 48.6656 18.5812 48.5906 18.675C48.525 18.7687 48.525 18.9187 48.5906 18.9094C48.6375 18.9094 48.8344 18.8156 48.675 18.7219C48.5062 18.6281 48.8531 18.6469 48.7125 18.5625C48.5625 18.4687 48.525 18.4594 48.4875 18.4125C48.4406 18.3844 50.3344 17.2687 49.3781 17.6812C49.3781 17.6812 49.575 17.25 49.8562 17.25C50.1375 17.25 50.1562 17.4656 49.9969 17.6437C49.8375 17.8031 49.7343 18.075 49.3687 18.1312C49.3687 18.1312 49.8937 18.3844 49.275 18.8062C49.275 18.8062 49.1343 18.8719 49.1812 18.9187C49.2281 18.9656 49.6031 18.7594 49.65 18.6375C49.6759 18.5743 49.7141 18.5169 49.7624 18.4687C49.8107 18.4204 49.8681 18.3822 49.9312 18.3562C50.0718 18.2906 50.775 17.8125 50.9812 17.4562C51.1969 17.0906 51.2437 17.0812 51.6562 16.7531C52.0687 16.425 51.9937 16.4906 52.05 16.4156C52.0969 16.3312 52.1156 16.2 52.3031 16.0969C52.4906 15.9844 53.2219 15.5906 53.4562 15.4219C53.6812 15.2531 54.15 14.9531 54.3562 14.6906C54.5531 14.4375 55.1062 14.1094 55.2375 14.1656C55.3687 14.2312 55.2187 14.4281 54.9094 14.6719C54.5812 14.9062 53.7844 15.5437 53.6625 15.6469C53.3445 15.9032 52.9908 16.1116 52.6125 16.2656C52.3594 16.2937 52.3875 16.3875 52.2375 16.5469C52.0875 16.7062 51.7406 17.0531 51.6281 17.1469C51.5062 17.2406 51.225 17.4281 51.2156 17.5687C51.1969 17.7094 51.2625 17.7187 51.0375 17.925C50.7042 18.2306 50.3284 18.4864 49.9219 18.6844C49.9219 18.6844 50.3437 18.8344 50.0906 19.1156C49.8469 19.3969 49.8562 19.3594 49.8469 19.3781C49.8469 19.3781 50.475 19.2844 50.0344 19.7812C50.0344 19.7812 49.9406 19.9219 50.1375 19.7812C50.3531 19.6031 50.2687 19.3969 50.2312 19.3594C50.2312 19.3594 50.5781 19.1437 50.9719 19.1437C51.3562 19.1437 51.3469 19.1156 50.9906 19.0125C50.9906 19.0125 51.2437 18.7125 51.4594 18.8625C51.6656 19.0031 51.5906 19.0969 51.375 19.2187C51.15 19.3312 50.8312 19.3781 50.5781 19.5187C50.5781 19.5187 51.0469 19.6125 51.2906 19.4156C51.5343 19.2281 51.5531 19.3219 51.5719 19.3594C51.6187 19.3969 51.6469 19.4531 51.5344 19.6031C51.4219 19.7625 51.4125 19.7719 51.4219 19.8094C51.4219 19.8469 51.4125 19.95 51.1875 19.9969C50.9719 20.025 50.8594 20.1187 50.9437 20.2219C51.0094 20.3344 51.0094 20.5969 50.8312 20.5687C50.6437 20.5406 50.6812 20.3906 50.6156 20.3344C50.5406 20.2781 50.4375 20.1937 50.1094 20.3531C49.7719 20.5312 49.7531 20.325 49.7625 20.2125C49.7625 20.2125 49.5468 20.4 49.3687 20.2312C49.1812 20.0531 49.35 19.9875 49.4625 19.9031C49.5562 19.8094 49.9781 19.6219 49.725 19.6687C49.4719 19.6969 49.0969 19.7062 49.0125 19.5187C48.9187 19.3219 49.2 19.3406 49.2375 19.3594C49.2844 19.3781 49.4531 19.5187 49.4719 19.3312C49.4719 19.1437 49.7531 19.1156 49.6594 19.0875C49.5656 19.05 49.425 19.1719 49.3875 19.2094C49.3875 19.2094 49.2 18.9375 48.8812 19.0219C48.5625 19.1156 48.975 19.0875 49.0687 19.0969C49.1437 19.1156 49.0969 19.2656 48.8156 19.5281C48.5344 19.7812 48.6562 19.6969 48.8625 19.6969C49.0781 19.6969 49.6031 19.6969 49.2937 19.9406C48.9937 20.1937 48.8719 20.3156 48.7312 20.2781C48.5625 20.2312 48.7312 20.1281 48.8062 20.0812C48.8812 20.0344 48.9187 19.9687 48.7687 20.025C48.6187 20.0719 48.5719 20.0906 48.45 19.8844C48.3375 19.6687 48.375 19.7344 48.4312 19.5937C48.4875 19.4531 48.6 19.3125 48.4687 19.3594C48.3187 19.4156 48.3375 19.425 48.3469 19.2656C48.3562 19.1062 48.1875 19.0687 48.1875 19.0687C48.1875 19.0687 48.2625 19.2281 48.1968 19.3312C48.1406 19.425 48.1312 19.4625 48.2344 19.4812C48.3281 19.5187 48.4218 19.6031 48.2906 19.6969C48.1593 19.7812 48.1781 19.7625 48.2531 19.8187C48.3469 19.8844 48.4687 19.9406 48.3375 20.0719C48.2062 20.2031 48.3094 20.1656 48.375 20.1656C48.45 20.1656 48.5906 20.2219 48.5906 20.3531C48.5906 20.4656 48.5906 20.4937 48.8062 20.3812C49.0218 20.2594 49.4344 20.2781 49.4344 20.4375C49.4344 20.6062 49.3781 20.6531 49.6031 20.5125C49.8281 20.3719 49.9312 20.6437 50.0906 20.5125C50.2406 20.3719 50.3344 20.25 50.5219 20.475C50.7 20.7 50.6437 20.7562 50.4281 20.925C50.2125 21.0844 50.5312 20.9625 50.7 20.8781C50.8687 20.7937 51.3281 20.7375 51.5906 20.8594C51.8625 20.9719 51.9375 20.9531 52.1344 20.8594C52.3312 20.7844 52.4344 20.7656 52.725 20.9625C53.0344 21.1687 53.2594 21.2062 53.4187 21.1969C53.4187 21.1969 53.0906 21.3281 52.7156 21.3469C52.3406 21.375 52.1531 21.4406 52.0875 21.4969C52.0875 21.4969 52.3031 21.6375 52.35 21.7969C52.35 21.7969 52.5937 21.7687 52.7062 21.8156C52.7062 21.8156 52.65 21.9937 52.8 22.0875C52.95 22.1812 53.0531 22.2187 52.9406 22.3406C52.8281 22.4719 53.1187 22.4156 52.95 22.5937C52.7906 22.7812 52.7531 22.875 52.7437 23.0156C52.7437 23.1656 52.7812 23.1844 52.6406 23.2031C52.4906 23.2125 52.6594 23.3812 52.5937 23.5781C52.5281 23.7656 52.125 23.7375 52.1437 24.2531C52.1437 24.2531 52.2562 24 52.5 23.7844C52.7344 23.5594 52.7437 23.5406 52.7344 23.4094C52.7344 23.2781 52.725 23.3062 52.8469 23.2031C52.9781 23.1094 52.7906 23.0156 52.9219 22.8656C53.0437 22.725 52.9406 22.7531 53.0906 22.6125C53.2312 22.4625 52.95 22.4531 53.1094 22.3031C53.25 22.1531 52.7344 21.975 52.8937 21.8812C53.0344 21.7875 53.2969 21.6562 52.425 21.6656C52.425 21.6656 52.6406 21.3281 53.3625 21.3937C53.3625 21.3937 53.175 21.5437 53.1562 21.675L53.3062 21.7219C53.3062 21.7219 53.2687 21.825 53.1281 21.9375C53.1281 21.9375 53.5219 22.1531 53.5875 22.2937C53.5875 22.2937 53.3437 22.3687 53.2781 22.4625C53.2781 22.4625 53.3906 22.5844 53.4281 22.7437C53.4281 22.7437 53.1562 22.7062 53.1281 22.9031C53.0906 23.1 53.0062 22.9687 53.0062 23.0906C53.0062 23.2125 53.0156 23.25 52.9219 23.2781C52.8281 23.2781 52.9125 23.3812 52.9219 23.4469C52.9406 23.5125 52.9781 23.6625 52.9594 23.7094C52.9594 23.7094 52.8187 23.7094 52.7625 23.7281C52.7625 23.7281 52.8 24.0094 52.6406 24.0562C52.4812 24.0937 52.7344 24.15 52.5562 24.1781C52.3875 24.2062 52.4156 24.225 52.2094 24.6C52.2094 24.6 52.3875 24.5062 52.5656 24.375C52.7531 24.2531 52.5469 24.2812 52.8469 24C53.1562 23.6906 53.1 23.6719 53.0719 23.5219C53.0531 23.3719 53.0437 23.2406 53.1562 23.1C53.2687 22.9594 53.2969 22.8 53.6906 22.8187C53.6906 22.8187 53.5781 22.5562 53.4375 22.4906C53.4375 22.4906 53.625 22.3687 53.8125 22.35C53.8125 22.35 53.6437 22.1344 53.2875 21.9375C53.2875 21.9375 53.5687 21.6937 53.6531 21.5719C53.6531 21.5719 53.5125 21.6 53.4 21.5719C53.4 21.5719 53.4562 21.45 53.7187 21.2812C53.7187 21.2812 53.8594 21.4125 53.85 21.5531C53.85 21.5531 54.3 21.3 54.5531 21.3281C54.5531 21.3281 54.6844 21.6469 54.0562 22.2656C54.0562 22.2656 54.45 22.2937 54.6187 22.2656C54.6187 22.2656 54.525 22.5656 54.0562 22.7344C53.5875 22.9219 54.15 23.1281 53.6719 23.0906C53.2031 23.0531 53.3437 23.2125 53.3531 23.4562C53.3719 23.7 53.3812 23.9531 53.3719 24.0187C53.3719 24.0187 52.9969 23.8969 52.9969 24.2625C53.0062 24.6375 52.8094 24.7125 52.7625 24.7406C52.7625 24.7406 52.65 24.6469 52.4812 24.5812C52.4812 24.5812 52.2469 25.0406 51.8719 25.3031Z" fill="#5A3719"/>
<path d="M51.3187 20.6719C51.3187 20.6719 51.45 20.6531 51.675 20.7844C51.8906 20.925 52.1062 20.6438 51.8625 20.5688C51.6187 20.4938 51.8625 20.4 52.0875 20.5875C52.3125 20.7656 52.3968 20.6719 52.4812 20.6156C52.5562 20.55 52.6593 20.5125 52.5093 20.4094C52.3593 20.3063 52.6031 20.3531 52.725 20.4375C52.8375 20.5031 52.7906 20.5781 52.7812 20.5969C52.7625 20.6156 52.7531 20.8688 52.9687 20.6438C53.1937 20.4094 53.3156 20.1938 53.3062 20.0813C53.3062 20.0813 53.4281 20.1563 53.4468 20.2969C53.4656 20.4375 53.6343 20.2219 53.6906 20.1469C53.7468 20.0719 53.8406 19.8656 53.8312 19.7344C53.8312 19.7344 53.9812 19.9688 54.2062 19.7344C54.4312 19.5 54.3375 19.6406 54.6 19.575C54.907 19.4927 55.1837 19.3234 55.3968 19.0875C55.5843 18.8531 55.5937 19.0125 55.8281 18.9563C56.0625 18.9 56.55 18.5625 56.5968 18.3844C56.6343 18.2063 56.625 18.0938 56.5593 18.1594C56.4937 18.2156 56.5218 18.1594 56.4187 18.1031C56.3156 18.0375 56.1656 18.1875 56.1656 18.1875C56.1656 18.1875 56.3156 18.3 56.1937 18.3469C56.0812 18.4031 55.9781 18.5625 55.7625 18.4969C55.5468 18.4406 55.3125 18.7031 55.3125 18.7031C55.3125 18.7031 55.5 18.8531 55.2468 18.9563C54.9937 19.05 55.0312 19.0875 54.8812 18.975C54.8812 18.975 54.6093 19.3219 54.45 19.3969C54.45 19.3969 54.3843 19.3969 54.3375 19.3219C54.3375 19.3219 54.15 19.5188 54.075 19.5563C54.075 19.5563 53.9531 19.4625 53.8593 19.4156C53.8593 19.4156 53.6437 19.6875 53.4656 19.7625C53.4656 19.7625 53.4093 19.6688 53.2968 19.6031C53.2968 19.6031 53.2406 19.9406 52.8656 20.1469C52.8656 20.1469 52.8843 20.0531 52.6968 19.9313C52.6968 19.9313 52.2281 20.3344 52.05 20.3719C51.8625 20.4094 52.0312 20.2875 52.05 20.2313C52.0875 20.1844 52.2 20.0156 51.975 19.95C51.75 19.8844 51.7875 19.9969 51.7406 20.0156C51.6843 20.0344 51.6843 19.9781 51.5343 19.9969C51.3843 20.0156 51.4125 20.0813 51.3468 20.1094C51.2718 20.1281 51.0093 20.0625 51.0281 20.2406C51.0375 20.4094 51.1687 20.5313 50.9343 20.6344C50.7 20.7281 51.0281 20.7094 51.3187 20.6719Z" fill="#7B3C20"/>
<path d="M52.2656 20.1844C52.2656 20.1844 52.3219 19.95 52.125 19.8562C52.125 19.8562 53.3625 19.6594 52.425 19.1812C52.425 19.1812 53.5406 18.9656 53.2688 18.6094C53.0156 18.2531 52.7625 18.3281 52.725 18.3281C52.6875 18.3281 52.9594 18.1312 53.0344 18.1594C53.1 18.1875 53.9906 18.525 53.7656 18.225C53.5406 17.9437 53.5594 17.9531 53.5219 17.8687C53.5219 17.8687 53.8125 17.8687 54.2625 18.3C54.2625 18.3 54.3563 18.2062 54.3469 18.0281C54.3469 18.0281 54.6562 18.1219 54.7594 18.2156C54.7594 18.2156 54.8156 18.1031 54.7875 18.0469C54.7875 18.0469 55.0688 18.1875 55.1625 18.3469C55.1625 18.3469 55.2844 18.2344 55.3031 18.1031C55.3031 18.1031 55.5844 18.225 55.65 18.3094C55.65 18.3094 55.7438 18.1875 55.7063 18.0281C55.7063 18.0281 56.1656 18.15 56.2219 17.8781C56.2219 17.8781 56.6813 17.9719 56.3813 18.15C56.0063 18.3844 56.3437 18.0937 55.95 18.3656C55.65 18.5812 55.4813 18.825 55.3313 18.7781C55.2281 18.7312 55.0969 19.05 54.9563 18.9C54.8156 18.7406 54.8156 18.8062 54.7031 18.9656C54.6258 19.0828 54.538 19.1926 54.4406 19.2937C54.4406 19.2937 54.3656 19.2469 54.2906 19.1812C54.2906 19.1812 54.2156 19.3312 54.1031 19.4437C54.1031 19.4437 54.0094 19.3219 53.8594 19.2562C53.8594 19.2562 53.6438 19.5094 53.5031 19.6031C53.5031 19.6031 53.3719 19.4719 53.2312 19.425C53.2312 19.425 53.2125 19.7812 52.9406 19.9594C52.9406 19.9594 52.8844 19.8469 52.6969 19.7719C52.6969 19.7719 52.5656 19.9875 52.2656 20.175V20.1844Z" fill="#5A3719"/>
<path d="M51.619 19.6406C51.619 19.6406 51.469 19.7531 51.5628 19.875C51.6565 20.0063 51.6659 19.8563 51.7878 19.8469C51.9097 19.8281 53.4284 19.5656 52.0503 19.1625C52.0503 19.1625 52.1159 19.1063 52.3409 19.0875C52.5847 19.0594 53.4472 18.8344 53.044 18.525C52.6409 18.225 52.3034 18.6281 52.6409 18.2625C52.9222 17.9719 52.6972 17.8313 52.6972 17.8313C52.6972 17.8313 51.9003 18.3563 51.7222 18.4594C51.5534 18.5531 51.2909 18.7406 51.5909 18.8344C51.9003 18.9281 52.0972 18.5156 52.1253 18.6094C52.1534 18.7031 51.5253 19.0594 51.619 19.2094C51.7034 19.3781 51.6847 19.5188 51.844 19.4813C51.994 19.4531 52.4065 19.5563 52.0784 19.5469C51.7315 19.5375 51.6097 19.6406 51.6097 19.6406H51.619Z" fill="#5A3719"/>
<path d="M52.1629 18.8719C52.1629 18.8719 52.0223 18.975 52.2098 18.9281C52.3973 18.8812 52.7629 18.7969 52.6973 18.7031C52.6223 18.6094 52.3786 18.7219 52.1629 18.8719Z" fill="black"/>
<path d="M54.5998 17.2969C54.5998 17.2969 55.3029 17.2781 55.5842 17.475C55.8654 17.6625 56.0154 17.7937 56.0998 17.8312C56.0998 17.8312 56.0904 18.0937 55.631 17.8969C55.631 17.8969 55.6685 18.0281 55.6123 18.1594C55.6123 18.1594 55.4529 18.0469 55.256 18C55.256 18 55.2185 18.0937 55.1623 18.1594C55.1623 18.1594 54.9654 17.9531 54.731 17.8875C54.731 17.8875 54.6935 17.9906 54.656 18.0375C54.656 18.0375 54.4123 17.8875 54.2248 17.8875C54.2248 17.8875 54.2623 18.0469 54.2248 18.1031C54.2248 18.1031 53.7185 17.7 53.2592 17.7469C53.2592 17.7469 53.4748 18.075 53.6154 18.225C53.6154 18.225 52.6967 18.1594 52.8654 17.6625C53.006 17.1656 52.8467 17.2875 53.4467 17.2875H54.5998V17.2969Z" fill="#7B3C20"/>
<path d="M50.2783 18.6656C50.2783 18.6656 50.1751 18.7594 50.2783 18.825C50.3814 18.9 50.747 18.6375 50.7939 18.6C50.8501 18.5625 50.9814 18.5625 50.7939 18.7031C50.6064 18.8438 50.4376 18.9844 50.3251 19.1344C50.3251 19.1344 50.9251 18.9656 51.3189 18.6281C51.722 18.2812 51.3095 18.5062 51.9751 18.1781C52.6595 17.85 53.0158 17.325 52.6501 17.3812C52.2939 17.4375 51.9658 17.85 51.6751 18.0094C51.3939 18.1688 51.2345 18.1969 51.2814 18.1031C51.3189 18.0094 51.5345 18.0469 51.9283 17.7281C52.3126 17.4188 52.2283 17.4469 52.2283 17.3344C52.2283 17.2219 52.0876 16.9594 52.6689 16.6406C53.2501 16.3312 55.0689 15.2812 55.2283 14.9062C55.2283 14.9062 54.6939 14.9625 53.9908 15.4781C53.6051 15.8005 53.1836 16.0774 52.7345 16.3031C52.547 16.3781 52.5658 16.3219 52.4439 16.4813C52.1409 16.8003 51.825 17.1068 51.497 17.4C51.3751 17.4938 51.3283 17.55 51.3189 17.7562C51.3189 17.85 50.5314 18.4406 50.2876 18.6656H50.2783Z" fill="#5A3719"/>
<path d="M52.6872 17.2781C52.6872 17.2781 52.5465 17.3344 52.4059 17.2781C52.284 17.2125 52.3309 16.9406 52.6403 16.7625C53.0119 16.5599 53.4093 16.4085 53.8215 16.3125C53.8215 16.3125 53.7747 16.6688 52.8747 16.9781C52.8747 16.9781 52.9309 17.1656 52.6872 17.2781Z" fill="#5A3719"/>
<path d="M53.0059 17.0438C53.0059 17.0438 53.034 17.1375 53.0059 17.2125C53.0059 17.2125 54.684 17.3719 55.5465 16.35C55.5465 16.35 54.3559 16.4625 53.8871 16.7531C53.8871 16.7531 54.1871 16.3781 55.0777 16.0688C55.9684 15.7594 56.334 15.375 56.409 15.1594C56.409 15.1594 55.284 15.5625 54.7496 15.5625C54.7496 15.5625 54.6371 15.5625 54.534 15.6094C54.4309 15.675 53.709 16.1906 53.5215 16.2844C53.5215 16.2844 53.9246 16.2469 54.0746 16.1156C54.0746 16.1156 53.7934 16.8656 53.0059 17.0531V17.0438Z" fill="#AA5323"/>
<path d="M49.7812 18C49.7812 18 49.5656 18.1594 49.6594 18.225C49.7531 18.3094 49.9031 18.3188 50.2219 18.0469C50.5594 17.7656 51.3563 17.0906 50.8594 17.0625C50.8594 17.0625 50.2031 17.025 50.2312 17.4188C50.25 17.8125 49.8188 17.9813 49.7812 18ZM48.2906 17.7656C48.2906 17.7656 48.7219 18.0188 48.5531 18.225C48.5531 18.225 49.8656 17.1188 49.4906 16.875C49.1344 16.6313 48.8438 17.0906 48.9281 17.1281C49.0219 17.1844 49.2094 17.0906 49.1438 17.1844C48.8765 17.3978 48.5946 17.592 48.3 17.7656H48.2906ZM47.9531 17.4094C47.9531 17.4094 48.2344 17.5031 48.2531 17.625C48.2625 17.7375 49.1156 17.025 48.8906 16.7156C48.7875 16.575 48.3281 16.5281 48.2906 16.7906C48.2719 17.0719 48.7219 16.7625 48.5719 16.9594C48.3656 17.2125 48.0187 17.3719 47.9531 17.4094ZM51.0094 16.8094C51.0094 16.8094 50.8312 16.9406 51 17.025C51.1688 17.0906 51.2625 16.9688 51.3469 16.9031C51.4313 16.8281 51.8438 16.5281 51.9281 16.3406C52.0219 16.1531 52.1625 16.0875 52.3125 15.9938C52.4531 15.9 53.4938 15.375 54.1406 14.8031C54.7781 14.2313 54.5156 14.3813 55.1719 14.0156C55.8281 13.65 56.2688 13.3125 56.4094 12.9094C56.4094 12.9094 56.1 13.0031 55.8281 13.1906C55.499 13.4023 55.1646 13.6055 54.825 13.8C54.7031 13.8469 54.5437 13.8563 54.45 13.95C54.3562 14.0438 54.3562 14.1656 54.0469 14.4188C53.7188 14.6906 52.0781 15.8531 51.8719 16.0125C51.5794 16.2727 51.2919 16.5384 51.0094 16.8094Z" fill="#5A3719"/>
<path d="M49.6875 17.1938C49.6875 17.1938 49.875 17.1 50.2125 17.1188C50.55 17.1375 51.8812 15.8438 52.275 15.5906C52.8739 15.1794 53.4586 14.7479 54.0281 14.2969C54.1969 14.1281 54.2156 13.9594 54.3656 13.8656C54.5063 13.7719 54.6469 13.7813 54.9656 13.5938C55.2937 13.4063 56.8687 12.4688 56.775 11.925C56.775 11.925 54.4313 13.3313 53.8969 13.7813C53.1477 14.3654 52.3752 14.919 51.5813 15.4406C51.3188 15.6188 51.1125 15.9094 50.6531 16.2656C50.2125 16.6313 49.7625 16.9406 49.6875 17.2031V17.1938Z" fill="#AA5323"/>
<path d="M49.2002 16.6875C49.2002 16.6875 49.6314 16.65 49.6877 16.8656C49.6877 16.8656 50.6252 16.2281 50.8314 15.9656C51.0377 15.7031 50.7564 15.8531 51.2908 15.5062C52.151 14.933 52.9951 14.3359 53.8221 13.7156C54.0752 13.5 54.5533 13.2 54.9377 12.9469C55.3127 12.6844 56.8033 11.9531 56.6346 11.3531L55.3033 12.2437C55.0502 12.4125 54.9377 12.3187 54.6939 12.5156C54.4502 12.7125 53.8971 13.1062 53.8033 13.2281C53.373 13.5969 52.9223 13.9412 52.4533 14.2594C52.0408 14.5406 51.1314 15.0656 50.6814 15.4594C50.1948 15.8803 49.701 16.2928 49.2002 16.6969V16.6875Z" fill="#AA5323"/>
<path d="M47.8496 16.575C47.8496 16.575 48.0652 16.575 48.1402 16.6594C48.1402 16.6594 48.5434 16.2937 48.9746 16.6594C48.9746 16.6594 50.5496 15.5813 50.709 15.3094C50.8684 15.0469 51.1309 15.0375 51.7402 14.5969C52.359 14.1469 52.7434 13.95 53.1465 13.6406C53.559 13.3219 53.9059 12.9562 54.1965 12.7687C54.4871 12.5812 55.2277 12.0938 55.1152 11.6719C55.1152 11.6719 54.5059 12.0094 54.1215 12.4406C53.7277 12.8719 53.7652 12.5062 53.3621 12.8625C52.8991 13.2888 52.386 13.6571 51.834 13.9594C51.3184 14.2125 51.6277 14.1844 51.2527 14.4281C50.8871 14.6625 50.9152 14.6156 50.784 14.6625C50.5999 14.7059 50.4332 14.8039 50.3059 14.9437C50.1559 15.1031 49.7996 15.3187 49.4059 15.5531C48.8564 15.8445 48.3354 16.1866 47.8496 16.575Z" fill="#AA5323"/>
<path d="M48.3282 15.75C48.3282 15.75 48.2344 15.5719 48.3938 15.4406C48.5438 15.3187 48.825 14.9906 48.8625 14.7844C48.9094 14.5687 48.8719 14.6062 49.3125 14.4281C50.5812 13.8951 51.7831 13.2155 52.8938 12.4031C53.0625 12.2625 53.4938 11.9719 53.6719 11.8219C53.6719 11.8219 53.7469 12.0562 53.5594 12.2156C52.9156 12.7204 52.2425 13.1869 51.5438 13.6125C51.3375 13.7156 50.8313 13.9781 50.6438 14.1281C50.4657 14.2781 50.4938 14.3156 49.6875 14.7187C48.8907 15.1031 48.8438 15.15 48.8719 15.1781C48.9 15.2156 49.2657 15.0562 49.4344 14.9531C49.6032 14.8594 50.2594 14.55 50.4657 14.3906C50.6745 14.2209 50.8936 14.0643 51.1219 13.9219C51.6968 13.5921 52.2596 13.2419 52.8094 12.8719C53.1375 12.6187 53.2313 12.5437 53.3063 12.5906C53.3719 12.6281 53.4938 12.6281 53.3438 12.7781C53.1938 12.9281 52.7157 13.3406 52.5282 13.4625C52.3407 13.5844 51.7688 13.9312 51.6094 14.0062C51.45 14.1 51.3844 14.2406 51.2907 14.3062C51.2063 14.3812 50.9438 14.5594 50.6344 14.6344C50.325 14.7094 50.2594 14.9437 50.0438 15.0844C49.8282 15.2156 48.3563 16.0219 48.3094 16.05C48.3094 16.05 48.3938 15.9562 48.3282 15.75Z" fill="#AA5323"/>
<path d="M53.4657 12.4125C53.4657 12.4125 53.3814 12.4875 53.4282 12.525C53.4845 12.5812 53.6907 12.7312 53.9532 12.4687C54.3198 12.1273 54.7115 11.8139 55.1251 11.5312C55.3407 11.3906 55.4626 11.2687 55.4532 11.0906C55.4532 11.0906 54.3845 11.6531 53.4657 12.4125ZM54.9282 12.3187C54.9282 12.3187 55.0876 12.0469 55.4907 11.7844C55.8939 11.5312 56.5032 11.1562 56.5689 11.0719C56.5689 11.0719 56.7189 11.2312 56.4095 11.4281C56.0675 11.6399 55.7299 11.8587 55.397 12.0844C55.3314 12.15 55.2095 12.2344 54.9282 12.3187Z" fill="#AA5323"/>
<path d="M46.7809 15.2812C46.7809 15.2812 46.3309 15.525 46.4902 15.675C46.6496 15.8156 46.884 15.7688 46.9965 15.7313L47.2965 15.6375C47.334 15.6375 47.7184 15.5156 47.8215 15.3375C47.9152 15.15 48.1777 14.9438 48.384 14.7938C48.5902 14.6531 48.6652 14.4938 48.6371 14.3906L46.7809 15.2812ZM44.1184 17.3438C44.1184 17.3438 44.4371 17.1563 44.8684 17.2781C44.8684 17.2781 44.8496 17.175 44.7746 17.1188C44.7746 17.1188 45.309 16.9781 45.4215 16.7438C45.534 16.5094 45.5621 16.5563 45.6559 16.5C45.7684 16.425 46.4715 15.8625 46.3871 15.7406C46.3027 15.6187 46.2934 15.45 46.2277 15.3937C46.2277 15.3937 46.0871 15.5906 45.384 15.9281C44.709 16.2656 43.9402 16.5094 43.3777 17.2594C42.8246 18.0094 42.8809 18.4406 43.5652 18.6375C43.5652 18.6375 44.034 18.3375 45.2152 18.4406C46.3777 18.5437 46.7715 18.9844 46.8465 19.0594C46.9215 19.1438 47.1559 19.4344 46.9309 19.9125C46.9309 19.9125 47.1652 20.0156 47.1746 19.7906C47.2027 19.575 47.2121 19.6219 47.2684 19.65C47.3246 19.6875 47.3902 19.6969 47.3621 19.5187C47.3388 19.281 47.2653 19.051 47.1465 18.8438C47.0434 18.7031 47.1652 18.7687 47.2309 18.7875C47.2965 18.8156 47.5402 19.0219 47.3996 18.6469C47.259 18.2906 47.2121 18.4594 47.2121 18.4781C47.2121 18.5063 47.1746 18.5906 46.8559 18.3469C46.6087 18.1596 46.329 18.0198 46.0309 17.9344C45.8152 17.8781 45.9652 17.8781 46.0965 17.8406C46.2277 17.7844 46.3871 17.7656 46.4527 17.6156C46.4527 17.6156 46.3215 17.6438 46.0965 17.5594C45.9144 17.5059 45.7225 17.495 45.5356 17.5275C45.3486 17.56 45.1717 17.6351 45.0184 17.7469C45.0184 17.7469 45.1309 17.325 44.784 17.3438C44.4465 17.3719 44.2027 17.3625 43.8465 17.6437C43.8465 17.6437 43.8184 17.2125 44.1652 16.9875C44.5121 16.7531 44.4652 16.8938 44.6527 16.8375C44.8402 16.7813 44.8684 16.5844 44.784 16.5187C44.784 16.5187 45.234 16.6031 45.984 15.975C45.984 15.975 45.5809 16.5094 45.0934 16.6125C45.0934 16.6125 45.009 16.8937 44.559 16.9594C44.109 17.025 44.1277 17.2781 44.1277 17.3438H44.1184Z" fill="#7B3C20"/>
<path d="M42.8439 19.9406C42.8439 19.9406 43.0502 18.6187 44.2971 18.525C45.3658 18.4312 45.7127 18.5719 45.9283 18.6469C46.1439 18.7219 46.6783 18.8719 46.4721 19.0406C46.2658 19.2094 46.1439 19.1812 46.1439 19.1812C46.1439 19.1812 46.3783 18.9094 46.1627 18.8719C45.9471 18.825 45.9377 18.9562 45.9096 19.0594C45.8721 19.1812 45.8627 19.3031 45.7596 19.3969C45.7596 19.3969 45.6471 19.2656 45.4877 19.3781C45.3283 19.4906 45.4689 19.4906 45.5346 19.4719C45.5908 19.4531 45.6752 19.425 45.6564 19.5187C45.6471 19.6125 45.5627 19.7812 45.3002 19.9125C45.0471 20.0437 45.0564 20.0344 44.7564 20.0906C44.4471 20.1375 44.1658 20.2594 43.7721 20.5875C43.3783 20.925 42.9564 20.8125 42.8721 20.4469C42.7971 20.1281 42.8346 19.9406 42.8346 19.9406H42.8439Z" fill="#5A3719"/>
<path d="M44.25 19.8937C44.25 19.8937 44.3625 19.6406 44.1562 19.5187C44.1562 19.5187 43.5094 19.6312 43.3125 19.4344C43.3125 19.4344 44.0156 19.3969 44.4563 19.2187C44.8875 19.0594 44.7656 18.9375 44.6156 18.9C44.4656 18.8719 44.1844 18.9469 44.1562 19.0875C44.1562 19.0875 44.0625 18.9375 44.175 18.8437C44.2969 18.7406 44.4562 18.7219 44.6156 18.7687C44.775 18.8062 44.9062 18.8812 45.4219 18.6187C45.4219 18.6187 45.7125 18.6844 45.7312 18.8812C45.7312 19.0875 45.7031 19.1625 45.675 19.1906C45.6563 19.2281 45.6187 19.2844 45.5531 19.2844C45.4969 19.2656 45.4125 19.2562 45.3375 19.3969C45.2719 19.5375 45.2156 19.65 45.0938 19.7437C45.0938 19.7437 45.2344 19.3125 44.8594 19.2094C44.8594 19.2094 44.55 19.3969 44.3156 19.4062C44.3156 19.4062 44.6156 19.6875 44.2406 19.8937H44.25Z" fill="black"/>
<path d="M44.9347 19.1062C44.9347 19.1062 44.7847 18.9562 44.9722 18.9281C45.1597 18.9187 45.4035 19.0594 45.366 19.1812C45.3097 19.2937 45.0847 19.2844 44.9347 19.1062Z" fill="#5A3719"/>
<path d="M55.5564 17.025C55.5564 17.025 55.2095 17.1187 55.5376 17.3344C55.8564 17.55 56.0064 17.7281 56.2407 17.7844C56.4751 17.85 56.7095 17.925 56.7095 18.1594C56.7095 18.3937 56.6626 18.4875 56.5314 18.6469C56.4095 18.8062 56.6064 18.8719 56.7751 18.7875C56.9439 18.6937 57.0845 18.6469 57.197 18.5812C57.3001 18.5156 57.4782 18.525 57.3282 18.6094C57.1501 18.7031 56.9814 18.75 57.197 18.75C57.4126 18.7594 58.7157 18.7875 58.9876 18.6937C59.2689 18.6094 59.6251 18.5812 59.6439 18.225C59.6439 18.225 59.6626 18.075 59.7657 18C59.8595 17.9344 59.9345 17.7844 59.7845 17.8875C59.6439 17.9906 59.5314 18.0469 59.5032 18.0094C59.4751 17.9812 59.4564 17.9531 59.5689 17.9062C59.6814 17.8594 59.7376 17.9062 59.8407 17.7656C59.9345 17.6156 59.9345 17.6344 59.8782 17.5781C59.822 17.5219 59.7095 17.4844 59.7657 17.4094C59.822 17.3344 59.8782 17.1281 59.6345 17.25C59.4001 17.3719 58.922 17.7 58.697 17.7469C58.4907 17.7937 58.322 17.8594 58.0314 17.9156C57.7501 17.9812 57.5626 18.0469 57.2345 18.225C56.9251 18.3937 56.9532 18.1219 57.0001 18.0844C57.0001 18.0844 57.122 18.3 57.4407 18.0187C57.7595 17.7469 57.6564 18.0094 58.4345 17.7469C59.2126 17.4937 59.0251 17.4562 59.3251 17.2969C59.6345 17.1375 59.9251 17.1281 59.7001 16.9219C59.4939 16.6969 59.4751 16.6875 59.2032 16.9219C58.762 17.2455 58.2459 17.452 57.7032 17.5219C57.7032 17.5219 59.4657 16.7719 59.2876 16.6594C59.1339 16.5582 58.9666 16.4793 58.7907 16.425C58.6689 16.3969 58.6314 16.3687 58.3501 16.5C58.0689 16.6219 58.022 16.65 57.947 16.6594C57.8532 16.6594 57.6189 16.7156 57.2907 16.8844C56.9532 17.0625 56.7751 17.1281 56.5407 17.2594C56.5407 17.2594 56.7001 16.95 57.3939 16.7437C58.0876 16.5375 58.4345 16.35 58.3689 16.3125C58.3032 16.275 58.1157 16.2375 57.9939 16.2656C57.8532 16.2937 57.9001 16.2562 57.4689 16.425C57.047 16.5937 57.2251 16.5562 56.8876 16.6312C56.5407 16.6969 56.4095 16.7719 56.2407 16.8469C56.2407 16.8469 56.3157 16.7531 56.5314 16.6687C56.6532 16.6312 56.4095 16.5844 56.7376 16.575H56.8314C57.1135 16.511 57.3851 16.4069 57.6376 16.2656C57.572 16.2562 57.1595 16.2094 56.747 16.4156C56.3251 16.6031 56.5126 16.5375 56.372 16.5562C56.222 16.5937 55.9032 16.7812 55.8095 16.875C55.7064 16.9594 55.5564 17.0156 55.5564 17.0156V17.025Z" fill="white"/>
<path d="M45.2529 18.9188C45.2529 18.9188 45.4216 18.9656 45.4591 19.0875C45.506 19.2 45.6091 19.0313 45.6091 18.9844C45.5998 18.9281 45.4966 18.7031 45.3279 18.8063C45.1404 18.9094 45.2341 18.9094 45.2529 18.9188Z" fill="#5A3719"/>
<path d="M44.8035 21.1875C44.8035 21.1875 45.1504 21.0188 45.4504 21.0469C45.4504 21.0469 45.3285 20.6344 45.5348 20.7C45.7316 20.775 45.6754 20.7375 45.7223 20.7375C45.7223 20.7375 45.7316 20.4656 45.6754 20.3625C45.6754 20.3625 45.891 20.4094 46.1066 20.4094C46.1066 20.4094 45.9004 20.025 46.1254 19.7531C46.1662 19.83 46.2221 19.8979 46.2898 19.9527C46.3574 20.0074 46.4354 20.048 46.5191 20.0719V19.8563C46.5191 19.8563 46.6785 19.8281 46.8004 19.8938C46.9316 19.9688 47.0348 19.1813 46.6598 19.0219C46.6598 19.0219 46.566 19.1625 46.2191 19.2375C45.8723 19.3125 45.8723 19.3781 45.7316 19.6406C45.591 19.9031 45.4504 19.9125 45.1504 20.1094C44.8691 20.2969 44.6816 20.6719 44.6816 20.7094C44.6816 20.7094 44.8223 20.8969 44.8035 21.1875Z" fill="#7B3C20"/>
<path d="M56.5407 16.6688C56.6626 16.65 56.4095 16.5844 56.7282 16.575H56.822C57.1074 16.5119 57.3821 16.4077 57.6376 16.2656C57.572 16.2563 57.1595 16.2094 56.747 16.4063C56.3345 16.6031 56.5126 16.5375 56.372 16.5656C56.222 16.5938 55.9032 16.7813 55.8095 16.875C55.7064 16.9594 55.5564 17.0156 55.5564 17.0156C55.5564 17.0156 55.2095 17.1094 55.5376 17.3344C55.8564 17.55 56.0064 17.7281 56.2407 17.7844C56.4751 17.85 56.7095 17.925 56.7095 18.1594C56.7145 18.2485 56.7013 18.3377 56.6707 18.4215C56.64 18.5053 56.5926 18.582 56.5314 18.6469C56.4095 18.8063 56.6064 18.8719 56.7751 18.7875C56.9439 18.6938 57.0845 18.6469 57.197 18.5813C57.3001 18.5156 57.4782 18.525 57.3189 18.6094C57.1501 18.7031 56.9814 18.75 57.197 18.75C57.4126 18.7594 58.7157 18.7875 58.9876 18.6938C59.2689 18.6094 59.6251 18.5813 59.6439 18.225C59.6439 18.225 59.6626 18.075 59.7657 18C59.8595 17.9344 59.9345 17.7844 59.7845 17.8875C59.6439 17.9906 59.522 18.0469 59.5032 18.0094C59.4751 17.9813 59.4564 17.9531 59.5689 17.9063C59.6814 17.8594 59.7376 17.9063 59.8407 17.7656C59.9345 17.6156 59.9345 17.6344 59.8782 17.5781L59.7845 17.4938C59.7845 17.4938 59.7001 17.4281 59.6064 17.4844C59.4001 17.5982 59.1794 17.6834 58.9501 17.7375C58.8001 17.7469 58.622 17.8219 58.3407 17.9625C58.0595 18.1031 57.572 18.3938 57.497 18.1219L57.2345 18.2156C56.9157 18.3844 56.9532 18.15 57.0001 18.0844C57.0001 18.0844 56.8314 18.2719 56.8407 18.1031C56.8407 17.9344 56.9532 17.9625 57.1501 17.9063C57.3376 17.85 57.6189 17.7188 57.5064 17.625C57.3845 17.5313 57.2532 17.7188 57.1126 17.7938C56.9814 17.8594 56.7095 17.9063 56.6626 17.7094C56.6251 17.5125 56.6251 17.3719 56.2595 17.3531C55.8845 17.3344 55.8939 17.1 55.997 16.9969C56.1001 16.9031 56.1845 16.7344 56.5314 16.6688H56.5407Z" fill="#999999"/>
<path d="M57.7123 18.4594C57.7123 18.4594 58.2842 18.1969 58.8092 18.075C59.3436 17.9531 58.9217 18.0937 58.8373 18.1125C58.7436 18.1406 57.928 18.4125 57.7311 18.5062C57.5436 18.6 57.5717 18.525 57.7123 18.4687V18.4594ZM57.8436 18.5812C57.8436 18.5812 58.4905 18.3656 58.6123 18.45C58.7342 18.5437 58.6311 18.5062 58.4905 18.525C58.3405 18.5344 57.9561 18.6 57.853 18.6C57.7498 18.6 57.8436 18.5812 57.8436 18.5812ZM58.8748 18.3469C58.8748 18.3469 59.0061 18.3281 59.0155 18.3844C59.0248 18.4219 58.9592 18.4312 58.8936 18.4219C58.828 18.4125 58.7717 18.375 58.8842 18.3469H58.8748Z" fill="black"/>
<path d="M41.8123 23.9906C41.8123 23.9906 41.7841 23.4094 42.0748 23.1281C42.3654 22.8469 43.7435 21.3938 43.9591 20.9906C43.9591 20.9906 44.1466 21.1125 44.1466 21.3469C44.1466 21.3469 44.381 20.9438 44.5685 20.7844C44.5685 20.7844 44.7279 20.9531 44.7091 21.2906C44.7091 21.2906 45.0373 21.1125 45.5529 21.1125C45.5529 21.1125 45.3654 21.3375 45.356 21.4781C45.356 21.4781 46.0685 21.3844 46.4529 21.45C46.4529 21.45 45.4591 22.0125 45.731 22.0594C46.0216 22.1063 46.3123 22.0594 46.3123 22.0594C46.3123 22.0594 45.9935 22.3688 45.4873 22.4344C45.4873 22.4344 46.1341 22.4344 46.256 22.575C46.256 22.575 45.6373 22.6688 45.131 23.0438C45.131 23.0438 45.0935 23.025 45.0935 22.8844C45.0935 22.8844 45.0654 23.0156 44.9248 23.1375C44.7841 23.25 44.4466 23.5125 44.3154 23.6344C44.1841 23.7563 43.9591 24.0094 43.6966 24.0094C43.6966 24.0094 43.7529 23.8125 43.5654 23.7469C43.468 23.7137 43.3632 23.7093 43.2634 23.7343C43.1636 23.7592 43.0732 23.8124 43.0029 23.8875C43.0029 23.8875 42.3466 23.8969 42.1216 23.9344C42.1216 23.9344 42.2716 23.6906 42.4029 23.6906C42.5529 23.6906 43.1154 23.7844 43.1623 23.3906C43.2185 23.0156 42.806 23.1094 42.956 22.8844C43.1154 22.6594 43.0779 22.6781 43.0873 22.6406C43.0873 22.6406 42.956 22.7156 42.881 22.9219C42.82 23.1499 42.6806 23.349 42.4873 23.4844C42.3027 23.6034 42.1486 23.7639 42.0373 23.9531C42.0373 23.9531 41.9154 23.9531 41.8123 23.9906Z" fill="white"/>
<path d="M42.4502 23.6438C42.4502 23.6438 42.4783 23.5688 42.6658 23.5313C42.8721 23.5031 42.8814 23.4094 42.8533 23.3625C42.8252 23.325 42.7127 23.325 42.9002 23.1C42.9002 23.1 42.9752 23.1281 43.0127 23.175C43.0689 23.2313 43.2846 23.6906 42.4502 23.6438Z" fill="white"/>
<path d="M41.9902 23.2406C41.9902 23.6156 42.4871 23.475 42.4871 23.475C42.355 23.5725 42.2354 23.6858 42.1309 23.8125C42.1684 23.625 41.8496 23.5781 41.8496 23.5781C41.8782 23.4589 41.9257 23.3449 41.9902 23.2406ZM43.7996 21.225L43.959 20.9906C43.959 20.9906 44.1465 21.1125 44.1465 21.3469C44.1465 21.3469 44.3809 20.9438 44.5684 20.7844C44.5684 20.7844 44.7277 20.9531 44.709 21.2906C44.709 21.2906 45.0371 21.1125 45.5527 21.1125C45.5527 21.1125 45.3652 21.3375 45.3559 21.4781C45.3559 21.4781 46.0684 21.3844 46.4527 21.45C46.4527 21.45 45.459 22.0125 45.7309 22.0594C46.0215 22.1063 46.3121 22.0594 46.3121 22.0594C46.3121 22.0594 45.9934 22.3688 45.4871 22.4344C45.4871 22.4344 46.134 22.4344 46.2559 22.575C46.2559 22.575 46.0684 22.6031 45.8246 22.6875C45.8246 22.6875 45.6465 22.5188 45.1121 22.5469C45.1121 22.5469 45.5246 22.3031 45.8621 22.2281C45.8621 22.2281 45.7121 22.0406 45.4871 22.2188C45.4871 22.2188 45.0277 21.9094 45.4121 21.6375C45.4121 21.6375 45.1496 21.5906 44.9715 21.7125C44.9715 21.7125 44.9715 21.4969 45.1684 21.4031C45.1684 21.4031 44.6621 21.3094 44.5402 21.6844C44.5402 21.6844 44.4465 21.5438 44.4934 21.3656C44.4934 21.3656 44.184 21.5438 44.0434 21.7406C44.0434 21.7406 43.9965 21.3656 43.7996 21.225ZM42.8246 23.625C42.7402 23.6438 42.609 23.6531 42.4496 23.6438C42.4496 23.6438 42.4684 23.5969 42.5715 23.55C42.5715 23.55 42.609 23.625 42.8246 23.625Z" fill="#999999"/>
<path d="M43.7441 22.1906C43.7441 22.1906 43.9785 22.3781 44.0535 22.4719C44.0535 22.4719 44.2691 22.3406 44.3348 22.2187C44.3348 22.2187 44.5129 22.3219 44.5598 22.4812C44.5598 22.4812 44.6816 22.4062 44.7004 22.2937C44.7004 22.2937 44.9816 22.35 45.0941 22.4437C45.0941 22.4437 45.1316 22.1625 45.0941 21.9937C45.0941 21.9937 45.291 22.0125 45.4129 22.0594C45.4129 22.0594 45.3004 21.8719 45.8816 21.6375C45.8816 21.6375 45.441 21.7406 45.2723 21.9187C45.2723 21.9187 45.0848 21.9375 45.0004 21.8812V22.3031C45.0004 22.3031 44.8879 22.2469 44.6723 22.2C44.6723 22.2 44.616 22.2937 44.5785 22.3125C44.5785 22.3125 44.4379 22.2 44.3816 22.0594C44.3816 22.0594 44.166 22.2562 44.1004 22.3406C44.1004 22.3406 43.8848 22.1906 43.7441 22.1906Z" fill="black"/>
<path d="M42.4219 25.0594C42.4219 25.0594 42.5156 25.0969 42.7312 24.9281C42.9469 24.7594 43.5469 24.375 43.5938 24.0656C43.6594 23.7563 43.4062 23.7469 43.2188 23.8313C43.0125 23.925 43.0969 24.0844 43.1062 24.15C43.1062 24.2063 43.125 24.4219 42.7969 24.7125L42.4219 25.0594Z" fill="#FFC221"/>
<path d="M42.3659 25.1531C42.3659 25.1531 41.8784 24.9469 42.3096 24.7312C42.7409 24.5156 42.9377 24.4594 42.9846 24.2719C43.0409 24.0937 43.0034 24.1312 42.844 24.2062C42.6846 24.2719 42.0752 24.5625 41.9815 24.3C41.9815 24.3 42.2346 24.3937 42.544 24.2437C42.8627 24.0844 43.1252 24.0469 42.919 23.9812C42.5748 23.9453 42.2272 23.9611 41.8877 24.0281C41.7565 24.0656 41.794 24.0562 41.7659 24.1781C41.7471 24.3 41.6159 24.5531 41.5596 24.6187C41.5127 24.6937 41.3909 24.9937 41.6159 25.1344C41.73 25.198 41.8579 25.233 41.9885 25.2363C42.1192 25.2396 42.2487 25.211 42.3659 25.1531Z" fill="#FFC221"/>
<path d="M42.178 24.0938C42.178 24.0938 42.0562 24.1125 42.0843 24.1594C42.103 24.2063 42.1312 24.1969 42.178 24.1969C42.2062 24.1969 42.2718 24.1781 42.2812 24.15C42.2812 24.1219 42.2062 24.0844 42.178 24.1031V24.0938Z" fill="black"/>
<path d="M42.328 25.0406C42.328 25.0406 42.103 24.9375 42.3655 24.7969C42.6187 24.6563 42.8905 24.5156 42.928 24.4594C42.928 24.4594 42.8062 24.6375 42.328 25.0406Z" fill="white"/>
</g>
<defs>
<clipPath id="clip0_60_73011">
<rect width="60" height="45" rx="4" fill="white"/>
</clipPath>
</defs>
</svg>
