<svg width="24" height="18" viewBox="0 0 24 18" fill="none" xmlns="http://www.w3.org/2000/svg">
<g clip-path="url(#clip0_3925_31897)">
<path fill-rule="evenodd" clip-rule="evenodd" d="M0 0H24V18H0V0Z" fill="#229E45"/>
<path fill-rule="evenodd" clip-rule="evenodd" d="M12.0529 16.35L23.3591 9.01124L11.9854 1.64999L0.641602 9.02624L12.0529 16.35Z" fill="#F8E509"/>
<path fill-rule="evenodd" clip-rule="evenodd" d="M16.9798 9C16.9798 11.6362 14.8386 13.7737 12.1948 13.7737C11.2501 13.7723 10.327 13.4907 9.54223 12.9647C8.75748 12.4387 8.1463 11.6918 7.78597 10.8185C7.42563 9.94514 7.33231 8.98459 7.5178 8.05823C7.70329 7.13188 8.15926 6.28132 8.82808 5.61408C9.4969 4.94683 10.3485 4.49286 11.2753 4.30955C12.2021 4.12624 13.1624 4.22182 14.0349 4.58421C14.9074 4.9466 15.6528 5.55953 16.177 6.34552C16.7012 7.13151 16.9805 8.05526 16.9798 9Z" fill="#2B49A3"/>
<path fill-rule="evenodd" clip-rule="evenodd" d="M10.6236 11.8612L10.4736 11.775L10.3236 11.85L10.3573 11.6812L10.2373 11.5537L10.4061 11.535L10.4886 11.385L10.5598 11.5425L10.7248 11.5725L10.6011 11.685M13.8261 12.6712L13.6798 12.585L13.5298 12.66L13.5598 12.4912L13.4436 12.3675L13.6123 12.3487L13.6911 12.195L13.7661 12.3525L13.9311 12.3825L13.8036 12.4987M12.4461 11.3737L12.3186 11.2987L12.1873 11.3662L12.2173 11.22L12.1123 11.1112L12.2623 11.0962L12.3298 10.9612L12.3898 11.1L12.5361 11.1262L12.4236 11.2275M15.6861 10.9087L15.5586 10.8337L15.4273 10.9012L15.4573 10.755L15.3561 10.65L15.5023 10.635L15.5698 10.5037L15.6298 10.6387L15.7723 10.665L15.6636 10.7625M12.3898 9.9375L12.2398 9.855L12.0898 9.93L12.1198 9.7575L12.0036 9.63375L12.1723 9.615L12.2511 9.46125L12.3261 9.61875L12.4911 9.64875L12.3636 9.76875M8.44109 8.45625L8.29109 8.37375L8.14109 8.44875L8.17859 8.27625L8.05484 8.1525L8.22734 8.13375L8.30234 7.98L8.37734 8.1375L8.54234 8.1675L8.41859 8.28375M8.91734 10.4287L8.76734 10.3425L8.61734 10.4175L8.65109 10.2487L8.53109 10.125L8.69984 10.1025L8.77859 9.9525L8.85359 10.11L9.01859 10.14L8.89484 10.2562M13.8448 7.7325L13.7098 7.6575L13.5748 7.725L13.6048 7.575L13.4998 7.4625L13.6498 7.44375L13.7211 7.30875L13.7848 7.45125L13.9348 7.4775L13.8223 7.57875M13.5711 9.015L13.4698 8.955L13.3611 9.0075L13.3836 8.8875L13.3011 8.80125L13.4211 8.78625L13.4773 8.68125L13.5261 8.79375L13.6386 8.8125L13.5561 8.895M8.22359 10.785L8.12234 10.7287L8.02109 10.7775L8.04359 10.665L7.96484 10.5825L8.07734 10.5675L8.12984 10.4662L8.17859 10.5712L8.29109 10.5937L8.20484 10.6687M15.7123 11.2425L15.6298 11.2012L15.5473 11.2387L15.5661 11.1525L15.5023 11.0925L15.5923 11.0812L15.6373 11.0062L15.6748 11.0812L15.7686 11.1L15.6973 11.1562" fill="#FFFFEF"/>
<path fill-rule="evenodd" clip-rule="evenodd" d="M8.22359 10.785L8.12234 10.7287L8.02109 10.7775L8.04359 10.665L7.96484 10.5825L8.07734 10.5675L8.12984 10.4662L8.17859 10.5712L8.29109 10.5937L8.20484 10.6687" fill="#FFFFEF"/>
<path fill-rule="evenodd" clip-rule="evenodd" d="M8.22359 10.785L8.12234 10.7287L8.02109 10.7775L8.04359 10.665L7.96484 10.5825L8.07734 10.5675L8.12984 10.4662L8.17859 10.5712L8.29109 10.5937L8.20484 10.6687M9.79109 10.7812L9.69359 10.7287L9.59234 10.7775L9.61484 10.665L9.53609 10.5825L9.64859 10.5675L9.70109 10.4662L9.74984 10.5712L9.86234 10.59L9.77609 10.6687M9.59609 11.3062L9.49859 11.25L9.39734 11.3025L9.41984 11.19L9.34109 11.1037L9.45359 11.0887L9.50609 10.9875L9.55484 11.0925L9.66734 11.115L9.58109 11.19M12.8586 10.3575L12.7611 10.2975L12.6561 10.35L12.6786 10.2375L12.6036 10.1512L12.7161 10.14L12.7686 10.0387L12.8136 10.1437L12.9261 10.1625L12.8436 10.2412M11.9023 10.3537L11.8011 10.2975L11.6998 10.35L11.7223 10.2375L11.6473 10.1512L11.7598 10.14L11.8123 10.035L11.8573 10.1437L11.9698 10.1625L11.8873 10.2412M9.30734 10.0237L9.24359 9.98625L9.17984 10.0162L9.19484 9.945L9.14609 9.8925L9.21734 9.885L9.24734 9.82125L9.27734 9.88875L9.34859 9.9L9.29609 9.94875M15.5886 11.6512L15.4911 11.595L15.3898 11.6475L15.4123 11.535L15.3336 11.4487L15.4461 11.4337L15.4986 11.3325L15.5473 11.4375L15.6598 11.46L15.5736 11.535M14.7936 11.76L14.7111 11.7075L14.6248 11.7525L14.6436 11.655L14.5798 11.5875L14.6736 11.5762L14.7186 11.49L14.7561 11.58L14.8498 11.595L14.7786 11.6625M15.1686 11.7487L15.0936 11.7037L15.0148 11.7412L15.0298 11.655L14.9698 11.5912L15.0561 11.58L15.0973 11.505L15.1348 11.58L15.2211 11.5987L15.1573 11.6587M16.2486 10.8037L16.1736 10.7662L16.0986 10.8037L16.1173 10.7175L16.0573 10.6537L16.1436 10.6425L16.1811 10.5675L16.2186 10.6462L16.2973 10.6612L16.2373 10.7212M14.7823 12.2887L14.6886 12.2362L14.5873 12.2812L14.6098 12.1762L14.5348 12.1012L14.6473 12.09L14.6961 11.9962L14.7411 12.0937L14.8536 12.1125L14.7673 12.1837M14.7898 12.7162L14.6998 12.6637L14.6098 12.7125L14.6323 12.6075L14.5611 12.5325L14.6623 12.5175L14.7073 12.4237L14.7486 12.5212L14.8498 12.54L14.7748 12.615M14.0623 11.7487L13.9911 11.7037L13.9161 11.7412L13.9311 11.6587L13.8748 11.595L13.9573 11.5875L13.9948 11.5125L14.0323 11.5875L14.1148 11.6025L14.0548 11.6625M13.3873 11.7487L13.3123 11.7037L13.2373 11.7412L13.2561 11.6587L13.1961 11.595L13.2823 11.5875L13.3198 11.5125L13.3573 11.5875L13.4361 11.6025L13.3761 11.6625M12.2361 10.74L12.1611 10.6987L12.0861 10.7362L12.1048 10.65L12.0448 10.59L12.1273 10.5787L12.1648 10.5037L12.2023 10.5787L12.2848 10.5975L12.2248 10.6537M12.3636 12.7912L12.3036 12.7575L12.2361 12.7912L12.2511 12.7162L12.2023 12.6637L12.2736 12.6562L12.3073 12.5925L12.3373 12.66L12.4086 12.6712L12.3561 12.72M10.6236 9.4725L10.4736 9.38625L10.3236 9.46125L10.3573 9.2925L10.2373 9.16875L10.4061 9.14625L10.4886 8.99625L10.5598 9.15375L10.7248 9.18375L10.6011 9.3" fill="#FFFFEF"/>
<path fill-rule="evenodd" clip-rule="evenodd" d="M16.6648 10.7175C16.7577 10.4764 16.8305 10.2281 16.8823 9.97499C14.3398 7.74374 11.5086 6.59999 7.93105 6.83624C7.8013 7.08731 7.69461 7.34964 7.6123 7.61999C11.8498 7.21499 14.9623 9.08999 16.6648 10.7175Z" fill="white"/>
<path d="M15.5251 9.46501L15.6114 9.51376C15.5985 9.53922 15.5945 9.56827 15.6001 9.59626C15.6089 9.62339 15.6277 9.64618 15.6526 9.66001C15.6789 9.67876 15.7051 9.69001 15.7276 9.68626C15.7501 9.68626 15.7651 9.67501 15.7764 9.66001C15.7829 9.65005 15.7856 9.63805 15.7839 9.62626C15.7808 9.61241 15.7744 9.59952 15.7651 9.58876C15.7576 9.57751 15.7389 9.55126 15.7089 9.52126C15.678 9.48943 15.6549 9.45094 15.6414 9.40876C15.632 9.37683 15.6344 9.34261 15.6482 9.31232C15.662 9.28203 15.6862 9.2577 15.7164 9.24376C15.7436 9.23237 15.7738 9.22975 15.8026 9.23626C15.8379 9.24438 15.8711 9.2597 15.9001 9.28126C15.9526 9.31876 15.9864 9.35626 15.9976 9.40126C16.0028 9.4223 16.0035 9.44421 15.9996 9.46554C15.9957 9.48687 15.9874 9.50713 15.9751 9.52501L15.8851 9.46876C15.8964 9.44626 15.9001 9.42376 15.8926 9.40501C15.8889 9.38626 15.8739 9.36751 15.8476 9.35251C15.8284 9.33701 15.8048 9.32785 15.7801 9.32626C15.7733 9.32603 15.7666 9.32765 15.7606 9.33095C15.7547 9.33426 15.7498 9.33911 15.7464 9.34501C15.7389 9.35626 15.7389 9.36751 15.7426 9.38251C15.7464 9.39751 15.7651 9.42751 15.8026 9.46501C15.8401 9.50251 15.8626 9.53626 15.8776 9.55876C15.891 9.58333 15.8971 9.61124 15.8951 9.63916C15.8931 9.66707 15.8831 9.69383 15.8664 9.71626C15.8488 9.74175 15.824 9.76136 15.7951 9.77251C15.767 9.78545 15.7356 9.78938 15.7051 9.78376C15.6714 9.77626 15.6376 9.76126 15.6001 9.73501C15.5439 9.69751 15.5101 9.65626 15.4989 9.61126C15.4866 9.56023 15.4947 9.50645 15.5214 9.46126L15.5251 9.46501ZM15.0901 9.18001L15.1839 9.22876C15.1723 9.25466 15.1696 9.28369 15.1764 9.31126C15.186 9.33699 15.2046 9.35834 15.2289 9.37126C15.2589 9.39001 15.2814 9.39751 15.3039 9.39376C15.3264 9.39376 15.3414 9.38251 15.3526 9.36376C15.3583 9.35484 15.3609 9.34431 15.3601 9.33376C15.3601 9.32251 15.3526 9.30751 15.3414 9.29626C15.3222 9.27307 15.3021 9.25055 15.2814 9.22876C15.2401 9.18751 15.2139 9.15376 15.2064 9.12376C15.2002 9.10446 15.1984 9.08405 15.201 9.06397C15.2036 9.04389 15.2105 9.02461 15.2214 9.00751C15.2356 8.98436 15.2565 8.96607 15.2814 8.95501C15.3071 8.94313 15.3359 8.93921 15.3639 8.94376C15.3986 8.9496 15.4317 8.96235 15.4614 8.98126C15.5176 9.01876 15.5514 9.05626 15.5626 9.09751C15.5695 9.11858 15.5716 9.14089 15.5691 9.1629C15.5665 9.1849 15.5592 9.20609 15.5476 9.22501L15.4539 9.17251C15.4651 9.14626 15.4689 9.12751 15.4614 9.10876C15.4539 9.09001 15.4389 9.07126 15.4126 9.05626C15.3919 9.04137 15.3669 9.03348 15.3414 9.03376C15.3352 9.03417 15.3292 9.0361 15.324 9.03937C15.3188 9.04264 15.3144 9.04715 15.3114 9.05251C15.3039 9.06376 15.3039 9.07501 15.3076 9.09001C15.3114 9.10501 15.3339 9.13501 15.3714 9.17251C15.4089 9.21001 15.4351 9.24001 15.4464 9.26251C15.4614 9.28602 15.4694 9.31335 15.4694 9.34126C15.4694 9.36916 15.4614 9.39649 15.4464 9.42001C15.4302 9.44617 15.4067 9.46702 15.3789 9.48001C15.3507 9.49295 15.3193 9.49688 15.2889 9.49126C15.2503 9.48473 15.2133 9.47072 15.1801 9.45001C15.1316 9.42417 15.0943 9.38148 15.0751 9.33001C15.0606 9.27994 15.066 9.22621 15.0901 9.18001ZM14.5576 9.03751L14.8314 8.58751L15.1614 8.79376L15.1164 8.86876L14.8764 8.71876L14.8164 8.82001L15.0414 8.95876L14.9926 9.03376L14.7676 8.89501L14.6926 9.01876L14.9439 9.16876L14.8989 9.24376L14.5614 9.03751H14.5576ZM13.7814 8.40001L13.8226 8.32501L14.0251 8.42626L13.9314 8.61376C13.9014 8.62126 13.8639 8.62501 13.8189 8.62126C13.7757 8.61649 13.7337 8.60378 13.6951 8.58376C13.6497 8.56165 13.6109 8.52803 13.5826 8.48626C13.5568 8.44745 13.5437 8.40158 13.5451 8.35501C13.547 8.30652 13.5598 8.2591 13.5826 8.21626C13.6051 8.17116 13.6387 8.13247 13.6801 8.10376C13.7198 8.07635 13.7669 8.06193 13.8151 8.06251C13.8526 8.06251 13.8901 8.07376 13.9351 8.10001C13.9951 8.12626 14.0326 8.16376 14.0514 8.20501C14.0709 8.24596 14.0749 8.29259 14.0626 8.33626L13.9614 8.30626C13.9676 8.28114 13.9649 8.25465 13.9539 8.23126C13.9426 8.20876 13.9239 8.19376 13.8939 8.17876C13.8764 8.16878 13.857 8.16261 13.8369 8.16067C13.8169 8.15874 13.7967 8.16106 13.7776 8.16751C13.7401 8.17876 13.7064 8.21251 13.6801 8.26501C13.6539 8.31751 13.6426 8.36626 13.6539 8.40751C13.659 8.42707 13.6684 8.44526 13.6814 8.46081C13.6944 8.47636 13.7106 8.48888 13.7289 8.49751C13.7476 8.50876 13.7701 8.51626 13.7926 8.51626C13.815 8.51965 13.8377 8.51965 13.8601 8.51626L13.8901 8.45626L13.7814 8.40001ZM10.3989 7.56376L10.4739 7.03876L10.6314 7.06501L10.6726 7.43251L10.8189 7.09501L10.9764 7.11751L10.9014 7.63501L10.8001 7.62001L10.8639 7.21126L10.6989 7.60501L10.5976 7.59001L10.5564 7.16626L10.4964 7.57876L10.3989 7.56376ZM9.87012 7.50001L9.91887 6.97501L10.3051 7.01251L10.2976 7.10251L10.0164 7.07626L10.0051 7.18876L10.2676 7.21501L10.2564 7.30501L9.99387 7.27876L9.98262 7.42126L10.2751 7.44751L10.2676 7.53751L9.87012 7.50001Z" fill="#309E3A"/>
<path d="M8.11906 7.17375C8.11906 7.1175 8.13031 7.07625 8.14531 7.03875C8.15845 7.01208 8.17623 6.98795 8.19781 6.9675C8.21704 6.9481 8.24 6.93279 8.26531 6.9225C8.30281 6.91125 8.34031 6.90375 8.37781 6.90375C8.45656 6.90375 8.51656 6.93375 8.56531 6.97875C8.58851 7.00741 8.60577 7.04042 8.61607 7.07583C8.62637 7.11125 8.62951 7.14836 8.62531 7.185C8.62531 7.2675 8.59906 7.335 8.55031 7.38375C8.52525 7.4069 8.49562 7.42454 8.46332 7.43552C8.43102 7.4465 8.39678 7.45058 8.36281 7.4475C8.32929 7.44784 8.29605 7.44136 8.26511 7.42847C8.23417 7.41558 8.20617 7.39654 8.18281 7.3725C8.13614 7.31727 8.11322 7.24582 8.11906 7.17375Z" fill="#309E3A"/>
<path d="M8.22754 7.17375C8.22754 7.23 8.23879 7.275 8.26504 7.30875C8.29129 7.33875 8.32504 7.3575 8.37004 7.3575C8.38951 7.35886 8.40903 7.35587 8.4272 7.34873C8.44536 7.3416 8.46171 7.3305 8.47504 7.31625C8.50129 7.28625 8.51254 7.24125 8.51629 7.1775C8.51629 7.1175 8.50879 7.0725 8.47879 7.0425C8.46657 7.02739 8.45116 7.01517 8.43365 7.00674C8.41614 6.99831 8.39697 6.99388 8.37754 6.99375C8.35781 6.99312 8.33819 6.99682 8.32005 7.0046C8.3019 7.01237 8.28569 7.02403 8.27254 7.03875C8.24254 7.06875 8.23129 7.11375 8.22754 7.17375Z" fill="#F7FFFF"/>
<path d="M8.7373 7.44376L8.7448 6.91876H8.9698C9.02605 6.91876 9.06355 6.92626 9.0898 6.93751C9.11605 6.94501 9.1348 6.96376 9.1498 6.98626C9.1648 7.00876 9.1723 7.03876 9.1723 7.07251C9.1726 7.10859 9.1592 7.14343 9.1348 7.17001C9.10708 7.19598 9.07141 7.21184 9.03355 7.21501L9.0898 7.26001C9.1048 7.27501 9.12355 7.30501 9.14605 7.34626L9.2098 7.45126H9.0823L9.0073 7.33126L8.9548 7.25626C8.94571 7.24594 8.93408 7.23819 8.92105 7.23376C8.904 7.22879 8.88632 7.22626 8.86855 7.22626H8.84605V7.44376H8.7373Z" fill="#309E3A"/>
<path d="M8.84961 7.14376H8.92461C8.97711 7.14376 9.01086 7.14376 9.02211 7.13626C9.03336 7.13626 9.04461 7.12501 9.05211 7.11751C9.05961 7.11001 9.06336 7.09126 9.06336 7.08001C9.06336 7.05751 9.05961 7.04251 9.04836 7.03501C9.04086 7.02376 9.02586 7.01626 9.01086 7.01251H8.93586L8.84961 7.00876V7.14001V7.14376Z" fill="white"/>
<path d="M9.33777 6.94501L9.53277 6.95626C9.57402 6.95626 9.60777 6.96001 9.63027 6.96751C9.65946 6.9781 9.68533 6.99621 9.70527 7.02001C9.72687 7.04623 9.74226 7.077 9.75027 7.11001C9.76152 7.14376 9.76527 7.18501 9.76152 7.23376C9.76149 7.27203 9.75515 7.31004 9.74277 7.34626C9.72777 7.38376 9.70527 7.41376 9.67902 7.43626C9.65717 7.45426 9.63153 7.46708 9.60402 7.47376C9.58152 7.48126 9.54777 7.48126 9.51027 7.48126L9.31152 7.47001L9.33777 6.94501Z" fill="#309E3A"/>
<path d="M9.43867 7.03876L9.41992 7.38751H9.56242C9.58117 7.38751 9.59617 7.38001 9.60742 7.36876C9.61867 7.35751 9.62992 7.34251 9.63742 7.32001C9.64492 7.29751 9.65242 7.26376 9.65242 7.22251L9.64867 7.12876C9.64332 7.10898 9.63299 7.09091 9.61867 7.07626C9.60622 7.06373 9.59071 7.05468 9.57367 7.05001C9.54531 7.04369 9.51645 7.03993 9.48742 7.03876H9.43867Z" fill="white"/>
<path d="M11.9102 7.8825L12.0339 7.3725L12.1989 7.41L12.3189 7.4475C12.3452 7.4625 12.3677 7.485 12.3789 7.51875C12.3939 7.54875 12.3939 7.5825 12.3864 7.62375C12.3789 7.65375 12.3677 7.68 12.3489 7.69875C12.3352 7.71521 12.3179 7.72845 12.2985 7.73753C12.2791 7.7466 12.2579 7.75128 12.2364 7.75125C12.2102 7.75125 12.1727 7.74375 12.1239 7.7325L12.0602 7.71375L12.0152 7.90875L11.9102 7.8825Z" fill="#309E3A"/>
<path d="M12.113 7.48499L12.083 7.62748L12.1393 7.64249C12.1768 7.64999 12.2068 7.65749 12.2218 7.65374C12.2363 7.65171 12.2499 7.64521 12.2607 7.63514C12.2714 7.62507 12.2788 7.61191 12.2818 7.59749C12.2818 7.57874 12.2818 7.56374 12.2743 7.54874C12.266 7.53349 12.2528 7.52157 12.2368 7.51498L12.1655 7.49623L12.1168 7.48499H12.113Z" fill="white"/>
<path d="M12.3975 8.02875L12.5737 7.53375L12.78 7.60875C12.8362 7.6275 12.87 7.64625 12.8925 7.66125C12.9112 7.68 12.9262 7.69875 12.93 7.72875C12.9337 7.75875 12.9375 7.785 12.93 7.815C12.915 7.8525 12.8925 7.87875 12.8625 7.8975C12.8325 7.9125 12.795 7.91625 12.75 7.90875C12.765 7.9275 12.78 7.94625 12.7875 7.96875L12.8175 8.07L12.84 8.18625L12.7237 8.145L12.6862 8.01C12.6794 7.97947 12.6706 7.94941 12.66 7.92C12.655 7.90834 12.6473 7.89804 12.6375 7.89C12.63 7.87875 12.615 7.87125 12.5887 7.86375L12.57 7.85625L12.495 8.06625L12.3975 8.02875Z" fill="#309E3A"/>
<path d="M12.6004 7.7775L12.6717 7.80375C12.7204 7.8225 12.7504 7.83 12.7654 7.83C12.7767 7.83 12.7879 7.83 12.7992 7.81875C12.8104 7.81125 12.8179 7.8 12.8217 7.785C12.8292 7.77 12.8292 7.755 12.8217 7.74C12.8161 7.72546 12.8055 7.71346 12.7917 7.70625L12.7167 7.68L12.6417 7.65375L12.5967 7.7775H12.6004Z" fill="white"/>
<path d="M13.0125 8.01C13.0254 7.96609 13.0471 7.92526 13.0762 7.89C13.0952 7.86737 13.1181 7.84832 13.1437 7.83375C13.167 7.82061 13.1924 7.81173 13.2187 7.8075C13.2562 7.8075 13.2937 7.8075 13.335 7.8225C13.3685 7.83079 13.3999 7.84611 13.427 7.86745C13.4542 7.88878 13.4765 7.91564 13.4925 7.94625C13.5225 8.00625 13.5225 8.0775 13.5 8.16C13.4814 8.23087 13.4356 8.29153 13.3725 8.32875C13.3162 8.3625 13.2487 8.36625 13.1775 8.34375C13.1441 8.33523 13.1128 8.31983 13.0857 8.29851C13.0585 8.2772 13.0362 8.25046 13.02 8.22C13.005 8.18721 12.9966 8.15178 12.9953 8.11574C12.994 8.07971 12.9998 8.04377 13.0125 8.01Z" fill="#309E3A"/>
<path d="M13.1172 8.04001C13.1022 8.09626 13.0984 8.14501 13.1172 8.18251C13.1359 8.22001 13.1622 8.24251 13.2034 8.25751C13.2409 8.26876 13.2784 8.26501 13.3159 8.24251C13.3534 8.22376 13.3759 8.18251 13.3947 8.12251C13.4134 8.06626 13.4134 8.02126 13.3947 7.98376C13.3873 7.96597 13.3761 7.95002 13.3618 7.93706C13.3475 7.9241 13.3306 7.91444 13.3122 7.90876C13.2937 7.90239 13.2741 7.90009 13.2547 7.90204C13.2353 7.90398 13.2165 7.91011 13.1997 7.92001C13.1622 7.94251 13.1359 7.98001 13.1172 8.04001Z" fill="white"/>
<path d="M14.0361 8.74125L14.2761 8.27625L14.4749 8.3775C14.5123 8.39547 14.5466 8.41955 14.5761 8.44875C14.5949 8.4675 14.6061 8.49 14.6061 8.52C14.6061 8.55 14.6061 8.57625 14.5911 8.6025C14.5767 8.63621 14.5499 8.66308 14.5161 8.6775C14.4786 8.685 14.4411 8.685 14.3999 8.67C14.4149 8.6925 14.4224 8.715 14.4299 8.73375C14.4374 8.75625 14.4411 8.79 14.4449 8.83875L14.4524 8.95875L14.3399 8.9025L14.3249 8.76375C14.3231 8.73229 14.3193 8.70098 14.3136 8.67C14.3111 8.65597 14.3046 8.64296 14.2949 8.6325L14.2499 8.60625L14.2311 8.595L14.1299 8.79L14.0361 8.74125Z" fill="#309E3A"/>
<path d="M14.2686 8.51999L14.3398 8.55749C14.3848 8.57999 14.4148 8.59499 14.4261 8.59499C14.4373 8.59499 14.4523 8.59499 14.4636 8.58749C14.4748 8.58374 14.4823 8.57249 14.4898 8.55749C14.4973 8.54249 14.5011 8.52749 14.4973 8.51249C14.4927 8.49756 14.4835 8.48445 14.4711 8.47499C14.4491 8.46152 14.4266 8.44901 14.4036 8.43749L14.3286 8.39999L14.2686 8.51999Z" fill="white"/>
<path d="M15.9785 9.70124C16.0028 9.66269 16.0347 9.6295 16.0723 9.60374C16.0975 9.58759 16.1255 9.57616 16.1548 9.56999C16.182 9.56444 16.2101 9.56444 16.2373 9.56999C16.2748 9.57749 16.3085 9.59249 16.3423 9.61499C16.3715 9.63317 16.3966 9.65723 16.4159 9.68564C16.4353 9.71405 16.4485 9.74618 16.4548 9.77999C16.466 9.84374 16.4473 9.91499 16.4023 9.98624C16.3646 10.0482 16.304 10.0927 16.2335 10.11C16.2 10.1172 16.1652 10.1173 16.1316 10.1102C16.098 10.1031 16.0663 10.089 16.0385 10.0687C16.0094 10.0506 15.9843 10.0265 15.9649 9.99809C15.9455 9.96969 15.9323 9.93755 15.926 9.90374C15.9148 9.83624 15.9335 9.76874 15.9785 9.70124Z" fill="#309E3A"/>
<path d="M16.0727 9.76123C16.0352 9.80998 16.024 9.85498 16.0315 9.89623C16.0343 9.91523 16.041 9.93341 16.0514 9.94958C16.0617 9.96575 16.0754 9.97952 16.0915 9.98998C16.129 10.0162 16.1665 10.0237 16.204 10.0125C16.2415 10.0012 16.279 9.97498 16.3127 9.92248C16.3465 9.86998 16.3615 9.82498 16.354 9.78748C16.3502 9.74998 16.3277 9.71623 16.294 9.68998C16.2602 9.66373 16.219 9.65998 16.1815 9.67123C16.144 9.67873 16.1065 9.70873 16.069 9.76123H16.0727Z" fill="white"/>
<path d="M11.3174 7.66874L11.4036 7.30124L11.6736 7.36499L11.6624 7.42499L11.4636 7.37999L11.4449 7.46249L11.6286 7.50374L11.6136 7.56749L11.4299 7.52249L11.4074 7.62374L11.6136 7.67249L11.5986 7.73249L11.3174 7.66874Z" fill="#309E3A"/>
</g>
<defs>
<clipPath id="clip0_3925_31897">
<rect width="24" height="18" rx="4" fill="white"/>
</clipPath>
</defs>
</svg>
