<svg width="60" height="45" viewBox="0 0 60 45" fill="none" xmlns="http://www.w3.org/2000/svg">
<g clip-path="url(#clip0_60_72959)">
<path d="M0 0H60V45H0V0Z" fill="#EE1C25"/>
<path d="M7.19997 16.65L11.2499 4.5L15.2999 16.65L4.5 9.225H17.9998L7.19997 16.65Z" fill="#FFFF00"/>
<path d="M24.7663 4.73284L20.5984 5.65648L23.3786 2.41679L23.1059 6.77698L20.793 2.9169L24.7663 4.73284Z" fill="#FFFF00"/>
<path d="M28.9723 10.0638L24.7724 9.29866L28.5914 7.39081L26.6491 11.304L26.0142 6.84897L28.9723 10.0638Z" fill="#FFFF00"/>
<path d="M28.3591 17.5429L24.8364 15.1313L29.1015 14.947L25.732 17.7277L26.9694 13.4011L28.3591 17.5429Z" fill="#FFFF00"/>
<path d="M23.061 22.4288L20.7431 18.8438L24.7484 20.3211L20.5664 21.5846L23.3788 18.0717L23.061 22.4288Z" fill="#FFFF00"/>
</g>
<defs>
<clipPath id="clip0_60_72959">
<rect width="60" height="45" rx="4" fill="white"/>
</clipPath>
</defs>
</svg>
