<svg width="60" height="45" viewBox="0 0 60 45" fill="none" xmlns="http://www.w3.org/2000/svg">
<g clip-path="url(#clip0_60_72998)">
<path d="M0 0H60V45H0V0Z" fill="#008000"/>
<path d="M30.0002 28.7531C33.4537 28.7531 36.2533 25.9535 36.2533 22.5C36.2533 19.0465 33.4537 16.2469 30.0002 16.2469C26.5467 16.2469 23.7471 19.0465 23.7471 22.5C23.7471 25.9535 26.5467 28.7531 30.0002 28.7531Z" fill="#FFE000"/>
<path d="M31.9496 27.6469C34.7921 27.6469 37.0965 25.3425 37.0965 22.5C37.0965 19.6575 34.7921 17.3531 31.9496 17.3531C29.1071 17.3531 26.8027 19.6575 26.8027 22.5C26.8027 25.3425 29.1071 27.6469 31.9496 27.6469Z" fill="#008000"/>
<path d="M10.2938 22.7906C13.9078 22.7906 16.8375 19.8609 16.8375 16.2469C16.8375 12.6329 13.9078 9.70312 10.2938 9.70312C6.67974 9.70312 3.75 12.6329 3.75 16.2469C3.75 19.8609 6.67974 22.7906 10.2938 22.7906Z" fill="#FFE000"/>
<path d="M9.84375 21.1875H11.4844C11.4844 21.1875 11.55 21.0375 11.4656 20.9625C11.3719 20.8875 11.025 20.8688 11.1187 20.6063C11.3062 20.0625 11.3438 20.2312 11.4656 18.9375C11.5548 17.8298 11.6173 16.7201 11.6531 15.6094H11.4094C11.4094 15.6094 11.4562 16.2375 11.3156 17.0625C11.1844 17.8875 11.1375 17.9531 10.9875 18.5906C10.9168 18.9494 10.8133 19.3009 10.6781 19.6406C10.5469 20.0156 10.5281 20.025 10.3219 20.3719C10.1062 20.7094 10.1813 20.5781 10.0688 20.7844C10.0031 20.8875 9.9375 20.8594 9.89062 20.9344C9.85312 21.0094 9.84375 21.1875 9.84375 21.1875Z" fill="#802000"/>
<path fill-rule="evenodd" clip-rule="evenodd" d="M11.3335 15.5391H11.7256L11.7233 15.6116C11.6875 16.7235 11.6249 17.8343 11.5356 18.9431L11.5355 18.9441C11.4747 19.5902 11.4344 19.8769 11.3848 20.0706C11.3597 20.1685 11.3324 20.2419 11.3003 20.3238C11.2952 20.3366 11.29 20.3497 11.2847 20.363C11.2564 20.4347 11.2241 20.5161 11.1851 20.6292L11.1849 20.6299C11.1665 20.6813 11.1726 20.7107 11.1824 20.7296C11.1938 20.7514 11.2171 20.7722 11.2552 20.7928C11.2906 20.812 11.3311 20.827 11.3737 20.8427C11.3768 20.8439 11.3799 20.845 11.383 20.8462L11.3842 20.8466C11.4247 20.8616 11.4756 20.8805 11.5095 20.9076L11.5109 20.9087L11.5122 20.9099C11.5808 20.9709 11.5831 21.0575 11.5763 21.1118C11.5727 21.1407 11.5659 21.1662 11.5602 21.1842C11.5573 21.1933 11.5546 21.2007 11.5526 21.2061C11.5515 21.2088 11.5507 21.211 11.55 21.2126L11.5492 21.2146L11.5489 21.2152L11.5488 21.2155L11.5487 21.2156C11.5487 21.2156 11.5487 21.2157 11.4843 21.1875L11.5487 21.2157L11.5303 21.2578H9.84365V21.1875C9.77344 21.1838 9.77344 21.1838 9.77344 21.1838L9.77345 21.1836L9.77348 21.1831L9.77358 21.1814L9.77397 21.1751C9.77432 21.1697 9.77486 21.1621 9.77563 21.1528C9.77715 21.1341 9.77961 21.1083 9.78331 21.08C9.79023 21.0269 9.80291 20.9524 9.82764 20.9029L9.82913 20.8999L9.8309 20.8971C9.86348 20.845 9.90567 20.8244 9.93386 20.8106C9.93639 20.8094 9.93882 20.8082 9.94111 20.807C9.96488 20.7951 9.98518 20.7839 10.0081 20.7485C10.0544 20.6637 10.0695 20.6351 10.0862 20.6075C10.1099 20.5681 10.1369 20.5307 10.2619 20.335C10.2877 20.2916 10.3104 20.2538 10.3307 20.22C10.3922 20.1174 10.4312 20.0524 10.4653 19.985C10.5099 19.8969 10.5461 19.8046 10.6117 19.6174L10.6121 19.616L10.6127 19.6146C10.7463 19.2789 10.8486 18.9316 10.9184 18.577L10.9187 18.5758L10.919 18.5745C10.9612 18.3949 10.9952 18.2609 11.0251 18.1429C11.102 17.8399 11.152 17.6428 11.2461 17.0515L11.2462 17.0507C11.3158 16.6423 11.339 16.2825 11.3448 16.025C11.3477 15.8963 11.3463 15.7932 11.3441 15.7226C11.343 15.6872 11.3418 15.66 11.3408 15.6417C11.3403 15.6326 11.3399 15.6257 11.3396 15.6211L11.3393 15.6161L11.3392 15.6149L11.3392 15.6146L11.3335 15.5391ZM11.4833 15.6797C11.4838 15.6913 11.4843 15.7042 11.4847 15.7183C11.4869 15.7912 11.4884 15.8967 11.4854 16.0281C11.4795 16.2909 11.4559 16.6575 11.3849 17.0739C11.2898 17.6715 11.2383 17.8747 11.1609 18.1798C11.1311 18.2972 11.0975 18.4296 11.0561 18.6055C10.9847 18.9676 10.8802 19.3223 10.7439 19.6652C10.6785 19.8522 10.6398 19.9518 10.5908 20.0486C10.5542 20.1208 10.5117 20.1916 10.4491 20.296C10.429 20.3294 10.4069 20.3663 10.3822 20.4078L10.3816 20.4088L10.381 20.4097C10.2529 20.6103 10.2274 20.6454 10.2051 20.6825C10.1897 20.7082 10.1758 20.7348 10.1304 20.818L10.1292 20.8201L10.128 20.8221C10.0858 20.8884 10.0408 20.9144 10.004 20.9328C10.0025 20.9335 10.0011 20.9343 9.99971 20.935C9.97169 20.9489 9.9621 20.9537 9.95199 20.9688C9.93984 20.9953 9.92962 21.0455 9.92275 21.0982C9.9219 21.1047 9.92112 21.111 9.92041 21.1172H11.4328C11.4344 21.11 11.4358 21.1023 11.4368 21.0944C11.4416 21.0561 11.435 21.0305 11.4201 21.0163C11.4069 21.0064 11.3802 20.9951 11.3341 20.978C11.3306 20.9767 11.327 20.9754 11.3233 20.974C11.2826 20.959 11.233 20.9407 11.1883 20.9165C11.1397 20.8903 11.088 20.8525 11.0578 20.7946C11.0261 20.7339 11.0239 20.6627 11.0523 20.583C11.0923 20.4669 11.1258 20.3826 11.1541 20.3109C11.1594 20.2976 11.1645 20.2848 11.1694 20.2723C11.2008 20.1924 11.2256 20.1253 11.2486 20.0357C11.295 19.8544 11.3345 19.5787 11.3955 18.9314C11.4826 17.8491 11.5443 16.7649 11.5804 15.6797H11.4833Z" fill="#7B3100"/>
<path d="M11.0908 11.4844C11.1123 11.7765 11.074 12.07 10.9783 12.3469C10.8484 12.6365 10.7752 12.9484 10.7627 13.2656C10.5939 13.3219 10.4158 12.9 10.2471 13.1531C10.3689 13.5 10.6596 13.7719 10.8471 14.0812C10.8846 14.175 11.1658 14.4281 10.9971 14.4844C10.5939 14.3438 10.4908 13.8281 10.2471 13.5187C10.1044 13.2519 9.89615 13.0259 9.64191 12.8618C9.38767 12.6978 9.09584 12.6012 8.79395 12.5812C8.55957 12.5906 7.81895 12.5344 8.00645 12.9281C8.2877 13.1156 8.64395 13.2469 8.9252 13.4625C9.14082 13.4813 9.51582 13.8375 9.49707 13.9688C9.12207 13.8187 8.95332 13.6406 8.55957 13.4813C8.01582 13.275 7.2752 13.3969 6.96582 13.9313C6.91895 14.0719 6.83457 14.475 7.0127 14.5219C7.21895 14.2031 7.50957 13.8375 7.94082 13.9406C8.27832 13.9687 7.56582 14.5688 7.8377 14.4469C7.93145 14.4094 8.11895 14.2781 8.26895 14.2594C8.40957 14.2594 8.48457 14.3531 8.5877 14.3719C8.80332 14.4 8.86895 14.4844 8.84082 14.5406C8.82207 14.5969 8.74707 14.5406 8.53145 14.6156C8.42832 14.6531 8.37207 14.7469 8.2502 14.7938C8.11895 14.8313 7.85645 14.8406 7.7627 14.7938C7.41582 14.6531 6.85332 14.6719 6.7502 15.1031C6.7502 15.2906 6.58145 15.0844 6.50645 15.1688C6.44082 15.375 6.43145 15.5813 6.13145 15.5625C5.94395 15.75 5.75645 15.9562 5.5127 16.0969C5.65332 16.4156 6.19707 15.7781 6.16895 16.05C5.93457 16.3781 6.3002 16.4437 6.4502 16.1906C6.72207 15.9094 7.05957 15.5625 7.45332 15.8531C7.64082 16.0313 7.75332 15.7594 7.89395 15.7594C7.9877 15.9938 8.09082 15.7781 8.19395 15.7125C8.35332 15.6938 8.30645 15.9188 8.49395 15.7781C8.87832 15.525 9.34707 15.7406 9.72207 15.4969C10.1252 15.3094 9.77832 15.6375 9.6752 15.7687C9.49707 16.1062 9.64707 16.5563 9.27207 16.7625C9.1127 17.1656 9.4502 17.7 9.1127 18C9.06582 18.1875 9.54395 18.1688 9.6752 18.2438C9.91895 18.2438 9.6752 17.7 9.90957 17.625C10.2283 17.8125 10.2096 17.2687 10.1439 17.1C10.1814 16.725 10.2002 16.2938 10.3877 15.9469C10.5939 15.525 10.7814 16.125 10.5564 16.2938C10.4252 16.6781 10.2377 17.175 10.5283 17.5406C10.6221 17.5594 10.6877 17.7656 10.7908 17.8219C10.9033 17.8875 11.0533 17.8125 11.0721 17.625C11.2221 17.0625 11.1471 16.4625 11.3533 15.9094C11.4939 15.7406 11.6908 15.8813 11.7752 16.0406C12.0564 16.3688 12.2533 16.7719 12.5908 17.0438C12.9103 17.1744 13.1706 17.418 13.3221 17.7281C13.3221 17.9719 14.0158 18.0094 13.8096 17.7281C13.6127 17.475 13.7439 17.2031 13.9408 17.025C14.0533 17.0531 14.0252 16.8563 13.9408 16.9313C13.8002 16.9031 13.7908 16.65 13.9783 16.7719C14.3064 16.875 13.9596 16.5375 13.8377 16.5281C13.5658 16.3594 13.2564 16.1719 13.1252 15.8719C13.4814 15.8719 13.8471 16.0687 14.2033 15.9562C14.4939 15.8062 14.7846 15.9563 14.8877 16.2188C15.1127 16.1813 15.0189 15.9562 14.8877 15.8812C15.0471 15.8156 15.1689 15.675 14.9627 15.5531C14.8689 15.4219 15.1033 15.1781 14.8033 15.1969C14.8127 14.9625 14.7283 14.7562 14.4752 14.6719C14.2221 14.4656 13.4814 14.9906 13.5096 14.5125C13.4346 14.25 13.8096 14.475 13.9127 14.3438C14.0158 14.0625 13.3971 14.1 13.6033 13.875C13.7346 13.8 14.3627 13.6781 13.8752 13.5844C13.765 13.6167 13.649 13.6242 13.5355 13.6064C13.422 13.5885 13.3139 13.5458 13.2189 13.4813C13.0408 13.7719 12.5439 13.3125 12.6283 13.8375C12.5627 14.0344 12.1127 14.55 11.9908 14.1562C12.0846 13.8469 12.6283 13.7531 12.4596 13.3312C12.4314 13.0781 12.2158 13.3781 12.1221 13.3594C12.0658 13.2 12.2721 13.0031 12.4221 12.9656C12.7033 13.1906 12.7033 12.6844 12.9846 12.7313C13.1814 12.6844 12.9189 12.6 12.8627 12.5625C12.9189 12.4219 13.2283 12.3469 12.9283 12.2156C12.6564 12.0281 12.4596 12.4125 12.2439 12.4313C12.0377 12.1969 12.4314 12.0844 12.5439 11.9625C12.5533 11.8687 12.3189 11.9344 12.3846 11.85C12.4502 11.7469 12.8721 11.7375 12.6658 11.5688C12.3506 11.4726 12.0113 11.4925 11.7096 11.625C11.5221 11.6813 11.4752 12.0938 11.3158 12.075C11.2502 11.8875 11.3439 11.5312 11.0908 11.4844ZM12.4971 15.45C12.7221 15.4125 12.4971 15.7969 12.4033 15.7875C12.4033 15.6562 12.0658 15.6656 12.2814 15.5438C12.3474 15.5003 12.4203 15.4686 12.4971 15.45Z" fill="#008000"/>
<path d="M45.0056 30.36L45.4187 31.6447L46.6808 31.1666L45.9342 32.2912L47.0951 32.98L45.7497 33.0972L45.9348 34.4343L45.0056 33.4556L44.0757 34.4337L44.2608 33.0972L42.916 32.9794L44.0769 32.2906L43.3298 31.1661L44.5918 31.6441L45.0056 30.36Z" fill="#FFE000"/>
<path d="M37.5046 18.4835L37.9177 19.7682L39.1798 19.2902L38.4333 20.4147L39.5941 21.1035L38.2487 21.2208L38.4339 22.5578L37.5046 21.5791L36.5747 22.5572L36.7599 21.2208L35.415 21.1029L36.5759 20.4141L35.8288 19.2896L37.0908 19.7676L37.5046 18.4835Z" fill="#FFE000"/>
<path d="M45.0056 10.3575L45.4187 11.6422L46.6808 11.1641L45.9342 12.2887L47.0951 12.9775L45.7497 13.0947L45.9348 14.4318L45.0056 13.4531L44.0757 14.4312L44.2608 13.0947L42.916 12.9769L44.0769 12.2881L43.3298 11.1636L44.5918 11.6416L45.0056 10.3575Z" fill="#FFE000"/>
<path d="M51.6726 16.4833L52.0857 17.7679L53.3478 17.2899L52.6012 18.4145L53.7621 19.1032L52.4167 19.2205L52.6018 20.5576L51.6726 19.5789L50.7427 20.557L50.9278 19.2205L49.583 19.1026L50.7439 18.4139L49.9967 17.2893L51.2588 17.7674L51.6726 16.4833Z" fill="#FFE000"/>
<path d="M48.0058 22.5019L48.3327 23.3026L49.1947 23.3657L48.5339 23.9241L48.7405 24.7635L48.0058 24.3075L47.2712 24.7641L47.4772 23.9247L46.8164 23.3663L47.6796 23.3032L48.0058 22.5019Z" fill="#FFE000"/>
</g>
<defs>
<clipPath id="clip0_60_72998">
<rect width="60" height="45" rx="4" fill="white"/>
</clipPath>
</defs>
</svg>
