<svg width="60" height="45" viewBox="0 0 60 45" fill="none" xmlns="http://www.w3.org/2000/svg">
<g clip-path="url(#clip0_60_72946)">
<path d="M0 0V44.9996H67.4993V0H0Z" fill="#3399CC"/>
<path d="M0 29.9997V32.4997H67.4993V29.9997H0ZM0 34.9996V37.4996H67.4993V34.9996H0Z" fill="#FFFF00"/>
<path d="M13.3779 2.625L13.6498 2.90625L13.3686 2.625H13.3779ZM13.0967 3.1875L13.3779 3.46875L13.0967 3.1875ZM13.6498 3.1875L13.9311 3.46875L13.6498 3.1875Z" fill="#99CCCC"/>
<path d="M13.0967 3.46875L13.3779 3.74062L13.0967 3.45937M13.6498 3.45937L13.9311 3.74062L13.6498 3.45937Z" fill="#CCCCFF"/>
<path d="M12.8154 4.0125L13.0967 4.29375L12.8154 4.0125Z" fill="#66CCCC"/>
<path d="M13.3785 4.0125L13.6504 4.29375L13.3691 4.0125H13.3785Z" fill="#CC6666"/>
<path d="M13.9313 4.0125L14.2031 4.29375L13.9219 4.0125H13.9313Z" fill="#66CCCC"/>
<path d="M12.8154 4.29375L13.0967 4.575L12.8154 4.29375ZM13.9311 4.29375L14.2029 4.575L13.9217 4.29375H13.9311Z" fill="#CCCCFF"/>
<path d="M13.0967 4.56563L13.3779 4.84688L13.0967 4.56563ZM13.6498 4.56563L13.9311 4.84688L13.6498 4.56563Z" fill="#FFCCCC"/>
<path d="M12.5439 4.84688L12.8252 5.12813L12.5439 4.84688Z" fill="#66CCCC"/>
<path d="M13.3314 3.1875L11.3908 10.5469L4.0127 12.5625L11.3627 14.4844L13.3314 21.8344L15.2908 14.4844L22.6408 12.5156L15.2908 10.5562L13.3221 3.20625L13.3314 3.1875Z" fill="#CC0000"/>
<path fill-rule="evenodd" clip-rule="evenodd" d="M13.1445 3.21493L11.2483 10.4059L3.34082 12.5662L11.2209 14.6267L13.3315 22.5062L15.4323 14.626L23.3123 12.5152L15.4321 10.4145L13.4893 3.16137L13.3858 3.18909L13.176 3.10994L13.1372 3.18755L13.1445 3.21493ZM13.3253 3.88981L11.5327 10.6878L4.68394 12.5588L11.5038 14.3421L13.3307 21.1626L15.1488 14.3428L21.9687 12.516L15.1489 10.698L13.3253 3.88981Z" fill="white"/>
<path d="M14.2031 4.84688L14.4844 5.12813L14.2031 4.84688Z" fill="#66CCCC"/>
<path d="M12.5439 5.11875L12.8252 5.4L12.5439 5.11875ZM14.2033 5.11875L14.4846 5.4L14.2033 5.11875Z" fill="#99CCFF"/>
<path d="M12.8154 5.4L13.0967 5.68125L12.8154 5.4ZM13.9311 5.4L14.2029 5.68125L13.9217 5.4H13.9311Z" fill="#FFCCCC"/>
<path d="M12.2627 5.67188L12.5439 5.95312L12.2627 5.67188Z" fill="#6699CC"/>
<path d="M12.9092 5.85938L13.0029 6.04688L12.9092 5.85938ZM14.0154 5.85938L14.1092 6.04688L14.0154 5.85938Z" fill="#CC3333"/>
<path d="M14.4844 5.67188L14.7656 5.95312L14.4844 5.67188Z" fill="#6699CC"/>
<path d="M12.2627 5.95312L12.5439 6.23438L12.2627 5.95312ZM14.4846 5.95312L14.7658 6.23438L14.4846 5.95312Z" fill="#99CCFF"/>
<path d="M12.5439 6.225L12.8252 6.50625L12.5439 6.225ZM14.2033 6.225L14.4846 6.50625L14.2033 6.225Z" fill="#FFCCCC"/>
<path d="M11.9902 6.50625L12.2715 6.7875L11.9902 6.50625ZM14.7559 6.50625L15.0371 6.7875L14.7559 6.50625Z" fill="#6699CC"/>
<path d="M11.9902 6.77812L12.2715 7.05937L11.9902 6.77812ZM14.7559 6.77812L15.0371 7.05937L14.7559 6.77812Z" fill="#99CCCC"/>
<path d="M11.9902 7.05937L12.2715 7.34062L11.9902 7.05937ZM14.7559 7.05937L15.0371 7.34062L14.7559 7.05937Z" fill="#CCFFFF"/>
<path d="M11.7184 7.34063L11.9902 7.6125L11.709 7.33125L11.7184 7.34063Z" fill="#6699CC"/>
<path d="M12.2627 7.34063L12.5439 7.6125L12.2627 7.33125M14.4846 7.33125L14.7658 7.6125L14.4846 7.33125Z" fill="#FFCCCC"/>
<path d="M15.0371 7.34063L15.3184 7.6125L15.0371 7.33125V7.34063Z" fill="#6699CC"/>
<path d="M11.7184 7.6125L11.9902 7.89375L11.709 7.6125H11.7184Z" fill="#99CCCC"/>
<path d="M12.3564 7.8L12.4502 7.9875L12.3564 7.8ZM14.5689 7.8L14.6627 7.9875L14.5689 7.8Z" fill="#CC3333"/>
<path d="M15.0371 7.6125L15.3184 7.89375L15.0371 7.6125Z" fill="#99CCCC"/>
<path d="M11.7184 7.89375L11.9902 8.175L11.709 7.89375M15.0371 7.89375L15.3184 8.175L15.0371 7.89375Z" fill="#CCFFFF"/>
<path d="M11.9902 8.16562L12.2715 8.44687L11.9902 8.16562ZM14.7559 8.16562L15.0371 8.44687L14.7559 8.16562Z" fill="#FFCCCC"/>
<path d="M11.4375 8.4375L11.7188 8.71875L11.4375 8.4375Z" fill="#99CCCC"/>
<path d="M12.084 8.625L12.1777 8.8125L12.084 8.625ZM14.8496 8.625L14.9434 8.8125L14.8496 8.625Z" fill="#CC3333"/>
<path d="M15.3096 8.4375L15.5908 8.71875L15.3096 8.4375Z" fill="#99CCCC"/>
<path d="M11.4375 8.71875L11.7188 9L11.4375 8.71875ZM15.3094 8.71875L15.5906 9L15.3094 8.71875Z" fill="#CCCCFF"/>
<path d="M11.7184 9L11.9902 9.28125L11.709 9M15.0371 9L15.3184 9.28125L15.0371 9Z" fill="#FFCCCC"/>
<path d="M11.1562 9.28126L11.4375 9.55313L11.1562 9.27188V9.28126Z" fill="#99CCCC"/>
<path d="M11.8121 9.45938L11.8965 9.64688L11.8027 9.45938M15.1215 9.45938L15.2152 9.64688L15.1215 9.45938Z" fill="#CC3333"/>
<path d="M15.5908 9.28126L15.8721 9.55313L15.5908 9.27188V9.28126Z" fill="#99CCCC"/>
<path d="M11.1562 9.55313L11.4375 9.83438L11.1562 9.55313ZM15.5906 9.55313L15.8719 9.83438L15.5906 9.55313Z" fill="#CCCCFF"/>
<path d="M11.4375 9.825L11.7188 10.1062L11.4375 9.825ZM15.3094 9.825L15.5906 10.1062L15.3094 9.825Z" fill="#FFCCCC"/>
<path d="M10.875 10.1062L11.1562 10.3875L10.875 10.1062Z" fill="#99CCCC"/>
<path d="M11.4375 10.1062L11.7188 10.3875L11.4375 10.1062ZM15.3094 10.1062L15.5906 10.3875L15.3094 10.1062Z" fill="#CC3333"/>
<path d="M15.8623 10.1062L16.1436 10.3875L15.8623 10.1062ZM10.0498 10.3875L10.3311 10.6594L10.0498 10.3781V10.3875Z" fill="#99CCCC"/>
<path d="M10.3311 10.3781L10.6123 10.6594L10.3311 10.3781ZM16.4248 10.3781L16.6967 10.6594L16.4154 10.3781H16.4248Z" fill="#CCCCFF"/>
<path d="M16.6871 10.3781L16.9684 10.6594L16.6871 10.3781ZM9.22461 10.6594L9.50586 10.9406L9.22461 10.6594Z" fill="#99CCCC"/>
<path d="M9.49707 10.6594L9.77832 10.9406L9.49707 10.6594Z" fill="#CCCCFF"/>
<path d="M10.6035 10.6594L10.8848 10.9406L10.6035 10.6594Z" fill="#FFCCCC"/>
<path d="M10.875 10.6594L11.1562 10.9406L10.875 10.6594ZM15.8625 10.6594L16.1437 10.9406L15.8625 10.6594Z" fill="#CC3333"/>
<path d="M16.1436 10.6594L16.4248 10.9406L16.1436 10.6594Z" fill="#FFCCCC"/>
<path d="M17.25 10.6594L17.5312 10.9406L17.25 10.6594Z" fill="#CCCCFF"/>
<path d="M17.5309 10.6594L17.8027 10.9406L17.5215 10.6594H17.5309Z" fill="#99CCCC"/>
<path d="M8.11914 10.9312L8.40039 11.2125L8.11914 10.9312Z" fill="#6699CC"/>
<path d="M8.39062 10.9312L8.67188 11.2125L8.39062 10.9312Z" fill="#99CCCC"/>
<path d="M8.67188 10.9312L8.95312 11.2125L8.67188 10.9312Z" fill="#CCFFFF"/>
<path d="M9.77832 10.9312L10.0596 11.2125L9.77832 10.9312Z" fill="#FFCCCC"/>
<path d="M10.2373 11.025L10.4248 11.1187L10.2373 11.025ZM16.6029 11.025L16.7904 11.1187L16.6029 11.025Z" fill="#CC3333"/>
<path d="M16.9688 10.9312L17.25 11.2125L16.9688 10.9312Z" fill="#FFCCCC"/>
<path d="M18.0752 10.9312L18.3564 11.2125L18.0752 10.9312Z" fill="#CCFFFF"/>
<path d="M18.3564 10.9312L18.6377 11.2125L18.3564 10.9312Z" fill="#99CCCC"/>
<path d="M18.6279 10.9312L18.9092 11.2125L18.6279 10.9312ZM7.28418 11.2125L7.56543 11.4937L7.28418 11.2125Z" fill="#6699CC"/>
<path d="M7.56543 11.2125L7.84668 11.4937L7.56543 11.2125Z" fill="#99CCCC"/>
<path d="M7.83789 11.2125L8.11914 11.4937L7.83789 11.2125Z" fill="#CCFFFF"/>
<path d="M8.94336 11.2125L9.22461 11.4937L8.94336 11.2125Z" fill="#FFCCCC"/>
<path d="M9.40332 11.3062L9.59082 11.4L9.40332 11.3062ZM17.4283 11.3062L17.6158 11.4L17.4283 11.3062Z" fill="#CC3333"/>
<path d="M17.8027 11.2125L18.084 11.4937L17.8027 11.2125Z" fill="#FFCCCC"/>
<path d="M18.9092 11.2125L19.1904 11.4937L18.9092 11.2125Z" fill="#CCFFFF"/>
<path d="M19.1816 11.2125L19.4629 11.4937L19.1816 11.2125Z" fill="#99CCCC"/>
<path d="M19.4627 11.2125L19.7439 11.4937L19.4627 11.2125ZM6.4502 11.4937L6.73145 11.7656L6.4502 11.4844V11.4937Z" fill="#6699CC"/>
<path d="M6.73145 11.4844L7.0127 11.7656L6.73145 11.4844Z" fill="#99CCFF"/>
<path d="M8.11914 11.4844L8.40039 11.7656L8.11914 11.4844Z" fill="#FFCCCC"/>
<path d="M8.57812 11.5781L8.76563 11.6719L8.57812 11.5781ZM18.2625 11.5781L18.45 11.6719L18.2625 11.5781Z" fill="#CC3333"/>
<path d="M18.6279 11.4844L18.9092 11.7656L18.6279 11.4844Z" fill="#FFCCCC"/>
<path d="M20.0156 11.4844L20.2969 11.7656L20.0156 11.4844Z" fill="#99CCFF"/>
<path d="M20.2871 11.4844L20.5684 11.7656L20.2871 11.4844Z" fill="#6699CC"/>
<path d="M5.625 11.7656L5.90625 12.0469L5.625 11.7656Z" fill="#66CCCC"/>
<path d="M5.90586 11.7656L6.17773 12.0469L5.89648 11.7656H5.90586Z" fill="#99CCFF"/>
<path d="M7.01231 11.7656L7.28418 12.0469L7.00293 11.7656H7.01231ZM19.7436 11.7656L20.0154 12.0469L19.7342 11.7656H19.7436Z" fill="#FFCCCC"/>
<path d="M20.8408 11.7656L21.1221 12.0469L20.8408 11.7656Z" fill="#99CCFF"/>
<path d="M21.1223 11.7656L21.4035 12.0469L21.1223 11.7656ZM4.79102 12.0469L5.07227 12.3187L4.79102 12.0375V12.0469Z" fill="#66CCCC"/>
<path d="M5.0625 12.0375L5.34375 12.3188L5.0625 12.0375Z" fill="#CCCCFF"/>
<path d="M6.17773 12.0375L6.45898 12.3188L6.17773 12.0375Z" fill="#FFCCCC"/>
<path d="M6.6377 12.1313L6.8252 12.225L6.6377 12.1313ZM20.2033 12.1313L20.3908 12.225L20.2033 12.1313Z" fill="#CC3333"/>
<path d="M20.5684 12.0375L20.8496 12.3188L20.5684 12.0375Z" fill="#FFCCCC"/>
<path d="M21.6748 12.0375L21.9561 12.3188L21.6748 12.0375Z" fill="#CCCCFF"/>
<path d="M21.9561 12.0375L22.2373 12.3188L21.9561 12.0375Z" fill="#66CCCC"/>
<path d="M3.96582 12.3188L4.24707 12.6L3.96582 12.3188Z" fill="#99CCCC"/>
<path d="M4.2373 12.3188L4.51855 12.6L4.2373 12.3188Z" fill="#CCCCFF"/>
<path d="M5.34375 12.3188L5.625 12.6L5.34375 12.3188ZM21.4031 12.3188L21.6844 12.6L21.4031 12.3188Z" fill="#FFCCCC"/>
<path d="M22.5 12.3188L22.7812 12.6L22.5 12.3188Z" fill="#CCCCFF"/>
<path d="M22.7809 12.3188L23.0621 12.6L22.7809 12.3188ZM3.41211 12.6L3.69336 12.8719L3.41211 12.5906V12.6Z" fill="#99CCCC"/>
<path d="M4.79102 12.5906L5.07227 12.8719L4.79102 12.5906ZM21.9473 12.5906L22.2285 12.8719L21.9473 12.5906Z" fill="#CC6666"/>
<path d="M23.3439 12.5906L23.6158 12.8719L23.3346 12.5906M3.96582 12.8719L4.24707 13.1531L3.96582 12.8719Z" fill="#99CCCC"/>
<path d="M4.2373 12.8719L4.51855 13.1531L4.2373 12.8719Z" fill="#CCCCFF"/>
<path d="M5.34375 12.8719L5.625 13.1531L5.34375 12.8719ZM21.4031 12.8719L21.6844 13.1531L21.4031 12.8719Z" fill="#FFCCCC"/>
<path d="M22.5 12.8719L22.7812 13.1531L22.5 12.8719Z" fill="#CCCCFF"/>
<path d="M22.7812 12.8719L23.0625 13.1531L22.7812 12.8719Z" fill="#99CCCC"/>
<path d="M4.79102 13.1531L5.07227 13.425L4.79102 13.1438V13.1531Z" fill="#66CCCC"/>
<path d="M5.0625 13.1531L5.34375 13.425L5.0625 13.1438V13.1531Z" fill="#CCCCFF"/>
<path d="M6.17773 13.1531L6.45898 13.425L6.17773 13.1438V13.1531Z" fill="#FFCCCC"/>
<path d="M6.6377 13.2375L6.8252 13.3313L6.6377 13.2375ZM20.2033 13.2375L20.3908 13.3313L20.2033 13.2375Z" fill="#CC3333"/>
<path d="M20.5684 13.1531L20.8496 13.425L20.5684 13.1438V13.1531Z" fill="#FFCCCC"/>
<path d="M21.6748 13.1531L21.9561 13.425L21.6748 13.1438V13.1531Z" fill="#CCCCFF"/>
<path d="M21.9562 13.1531L22.2375 13.425L21.9562 13.1438M5.625 13.425L5.90625 13.7063L5.625 13.425Z" fill="#66CCCC"/>
<path d="M5.90586 13.425L6.17773 13.7063L5.89648 13.425H5.90586Z" fill="#99CCFF"/>
<path d="M7.01231 13.425L7.28418 13.7063L7.00293 13.425H7.01231ZM19.7436 13.425L20.0154 13.7063L19.7342 13.425H19.7436Z" fill="#FFCCCC"/>
<path d="M20.8408 13.425L21.1221 13.7063L20.8408 13.425Z" fill="#99CCFF"/>
<path d="M21.1221 13.425L21.4033 13.7063L21.1221 13.425Z" fill="#66CCCC"/>
<path d="M6.4502 13.7062L6.73145 13.9781L6.4502 13.6969V13.7062Z" fill="#6699CC"/>
<path d="M6.73145 13.7062L7.0127 13.9781L6.73145 13.6969V13.7062Z" fill="#99CCFF"/>
<path d="M8.11914 13.7062L8.40039 13.9781L8.11914 13.6969V13.7062Z" fill="#FFCCCC"/>
<path d="M8.57812 13.7906L8.76563 13.8844L8.57812 13.7906ZM18.2625 13.7906L18.45 13.8844L18.2625 13.7906Z" fill="#CC3333"/>
<path d="M18.6279 13.7062L18.9092 13.9781L18.6279 13.6969V13.7062Z" fill="#FFCCCC"/>
<path d="M20.0156 13.7062L20.2969 13.9781L20.0156 13.6969V13.7062Z" fill="#99CCFF"/>
<path d="M20.2873 13.7062L20.5686 13.9781L20.2873 13.6969M7.28418 13.9781L7.56543 14.2594L7.28418 13.9781Z" fill="#6699CC"/>
<path d="M7.56543 13.9781L7.84668 14.2594L7.56543 13.9781Z" fill="#99CCCC"/>
<path d="M7.83789 13.9781L8.11914 14.2594L7.83789 13.9781Z" fill="#CCFFFF"/>
<path d="M8.94336 13.9781L9.22461 14.2594L8.94336 13.9781Z" fill="#FFCCCC"/>
<path d="M9.40332 14.0625L9.59082 14.1562L9.40332 14.0625ZM17.4283 14.0625L17.6158 14.1562L17.4283 14.0625Z" fill="#CC3333"/>
<path d="M17.8027 13.9781L18.084 14.2594L17.8027 13.9781Z" fill="#FFCCCC"/>
<path d="M18.9092 13.9781L19.1904 14.2594L18.9092 13.9781Z" fill="#CCFFFF"/>
<path d="M19.1816 13.9781L19.4629 14.2594L19.1816 13.9781Z" fill="#99CCCC"/>
<path d="M19.4625 13.9781L19.7438 14.2594L19.4625 13.9781ZM8.11875 14.2594L8.39062 14.5312L8.10938 14.25L8.11875 14.2594Z" fill="#6699CC"/>
<path d="M8.39062 14.25L8.67188 14.5312L8.39062 14.25Z" fill="#99CCCC"/>
<path d="M8.67188 14.25L8.95312 14.5312L8.67188 14.25Z" fill="#CCFFFF"/>
<path d="M9.77832 14.25L10.0596 14.5312L9.77832 14.25Z" fill="#FFCCCC"/>
<path d="M10.2373 14.3438L10.4248 14.4375L10.2373 14.3438ZM16.6029 14.3438L16.7904 14.4375L16.6029 14.3438Z" fill="#CC3333"/>
<path d="M16.9688 14.25L17.25 14.5312L16.9688 14.25Z" fill="#FFCCCC"/>
<path d="M18.0752 14.25L18.3564 14.5312L18.0752 14.25Z" fill="#CCFFFF"/>
<path d="M18.3564 14.25L18.6377 14.5312L18.3564 14.25Z" fill="#99CCCC"/>
<path d="M18.6279 14.25L18.9092 14.5312L18.6279 14.25Z" fill="#6699CC"/>
<path d="M9.22461 14.5312L9.50586 14.8125L9.22461 14.5312Z" fill="#99CCCC"/>
<path d="M9.49707 14.5312L9.77832 14.8125L9.49707 14.5312Z" fill="#CCCCFF"/>
<path d="M10.6035 14.5312L10.8848 14.8125L10.6035 14.5312Z" fill="#FFCCCC"/>
<path d="M10.875 14.5312L11.1562 14.8125L10.875 14.5312ZM15.8625 14.5312L16.1437 14.8125L15.8625 14.5312Z" fill="#CC3333"/>
<path d="M16.1436 14.5312L16.4248 14.8125L16.1436 14.5312Z" fill="#FFCCCC"/>
<path d="M17.25 14.5312L17.5312 14.8125L17.25 14.5312Z" fill="#CCCCFF"/>
<path d="M17.5311 14.5312L17.8029 14.8125L17.5217 14.5312M10.0498 14.8125L10.3311 15.0938L10.0498 14.8125Z" fill="#99CCCC"/>
<path d="M10.3311 14.8125L10.6123 15.0938L10.3311 14.8125ZM16.4248 14.8125L16.6967 15.0938L16.4154 14.8125H16.4248Z" fill="#CCCCFF"/>
<path d="M16.6875 14.8125L16.9688 15.0938L16.6875 14.8125ZM10.875 15.0938L11.1562 15.3656L10.875 15.0844V15.0938Z" fill="#99CCCC"/>
<path d="M11.4375 15.0938L11.7188 15.3656L11.4375 15.0844M15.3094 15.0844L15.5906 15.3656L15.3094 15.0844Z" fill="#CC3333"/>
<path d="M15.8623 15.0938L16.1436 15.3656L15.8623 15.0844V15.0938Z" fill="#99CCCC"/>
<path d="M11.4375 15.3656L11.7188 15.6469L11.4375 15.3656ZM15.3094 15.3656L15.5906 15.6469L15.3094 15.3656Z" fill="#FFCCCC"/>
<path d="M11.1562 15.6375L11.4375 15.9187L11.1562 15.6375Z" fill="#CCCCFF"/>
<path d="M11.8121 15.825L11.8965 16.0125L11.8027 15.825M15.1215 15.825L15.2152 16.0125L15.1215 15.825Z" fill="#CC3333"/>
<path d="M15.5908 15.6375L15.8721 15.9187L15.5908 15.6375Z" fill="#CCCCFF"/>
<path d="M11.1562 15.9187L11.4375 16.2L11.1562 15.9187ZM15.5906 15.9187L15.8719 16.2L15.5906 15.9187Z" fill="#99CCCC"/>
<path d="M11.7184 16.1906L11.9902 16.4719L11.709 16.1906M15.0371 16.1906L15.3184 16.4719L15.0371 16.1906Z" fill="#FFCCCC"/>
<path d="M11.4375 16.4719L11.7188 16.7531L11.4375 16.4719Z" fill="#CCCCFF"/>
<path d="M12.084 16.65L12.1777 16.8375L12.084 16.65ZM14.8496 16.65L14.9434 16.8375L14.8496 16.65Z" fill="#CC3333"/>
<path d="M15.3096 16.4719L15.5908 16.7531L15.3096 16.4719Z" fill="#CCCCFF"/>
<path d="M11.4375 16.7437L11.7188 17.025L11.4375 16.7437ZM15.3094 16.7437L15.5906 17.025L15.3094 16.7437Z" fill="#99CCCC"/>
<path d="M11.9902 17.025L12.2715 17.3062L11.9902 17.025ZM14.7559 17.025L15.0371 17.3062L14.7559 17.025Z" fill="#FFCCCC"/>
<path d="M11.7184 17.2969L11.9902 17.5781L11.709 17.2969H11.7184Z" fill="#CCFFFF"/>
<path d="M12.3564 17.4844L12.4502 17.6719L12.3564 17.4844ZM14.5689 17.4844L14.6627 17.6719L14.5689 17.4844Z" fill="#CC3333"/>
<path d="M15.0371 17.2969L15.3184 17.5781L15.0371 17.2969Z" fill="#CCFFFF"/>
<path d="M11.7184 17.5781L11.9902 17.8594L11.709 17.5781M15.0371 17.5781L15.3184 17.8594L15.0371 17.5781Z" fill="#99CCCC"/>
<path d="M11.7184 17.85L11.9902 18.1313L11.709 17.85H11.7184Z" fill="#6699CC"/>
<path d="M12.2627 17.85L12.5439 18.1313L12.2627 17.85ZM14.4846 17.85L14.7658 18.1313L14.4846 17.85Z" fill="#FFCCCC"/>
<path d="M15.0371 17.85L15.3184 18.1313L15.0371 17.85Z" fill="#6699CC"/>
<path d="M11.9902 18.1313L12.2715 18.4125L11.9902 18.1313ZM14.7559 18.1313L15.0371 18.4125L14.7559 18.1313Z" fill="#CCFFFF"/>
<path d="M11.9902 18.4031L12.2715 18.6844L11.9902 18.4031ZM14.7559 18.4031L15.0371 18.6844L14.7559 18.4031Z" fill="#99CCCC"/>
<path d="M11.9902 18.6844L12.2715 18.9656L11.9902 18.6844ZM14.7559 18.6844L15.0371 18.9656L14.7559 18.6844Z" fill="#6699CC"/>
<path d="M12.5439 18.9563L12.8252 19.2375L12.5439 18.9563ZM14.2033 18.9563L14.4846 19.2375L14.2033 18.9563Z" fill="#FFCCCC"/>
<path d="M12.2627 19.2375L12.5439 19.5188L12.2627 19.2375Z" fill="#99CCFF"/>
<path d="M12.9092 19.425L13.0029 19.6125L12.9092 19.425ZM14.0154 19.425L14.1092 19.6125L14.0154 19.425Z" fill="#CC3333"/>
<path d="M14.4844 19.2375L14.7656 19.5188L14.4844 19.2375Z" fill="#99CCFF"/>
<path d="M12.2627 19.5187L12.5439 19.7906L12.2627 19.5094M14.4846 19.5094L14.7658 19.7906L14.4846 19.5094Z" fill="#6699CC"/>
<path d="M12.8154 19.7906L13.0967 20.0719L12.8154 19.7906ZM13.9311 19.7906L14.2029 20.0719L13.9217 19.7906H13.9311Z" fill="#FFCCCC"/>
<path d="M12.5439 20.0625L12.8252 20.3438L12.5439 20.0625ZM14.2033 20.0625L14.4846 20.3438L14.2033 20.0625Z" fill="#99CCFF"/>
<path d="M12.5439 20.3438L12.8252 20.625L12.5439 20.3438ZM14.2033 20.3438L14.4846 20.625L14.2033 20.3438Z" fill="#66CCCC"/>
<path d="M13.0967 20.625L13.3779 20.9062L13.0967 20.625ZM13.6498 20.625L13.9311 20.9062L13.6498 20.625Z" fill="#FFCCCC"/>
<path d="M12.8154 20.8969L13.0967 21.1781L12.8154 20.8969ZM13.9311 20.8969L14.2029 21.1781L13.9217 20.8969H13.9311Z" fill="#CCCCFF"/>
<path d="M12.8154 21.1781L13.0967 21.4594L12.8154 21.1781Z" fill="#66CCCC"/>
<path d="M13.3785 21.1781L13.6504 21.4594L13.3691 21.1781H13.3785Z" fill="#CC6666"/>
<path d="M13.9313 21.1781L14.2031 21.4594L13.9219 21.1781H13.9313Z" fill="#66CCCC"/>
<path d="M13.0967 21.7312L13.3779 22.0125L13.0967 21.7312ZM13.6498 21.7312L13.9311 22.0125L13.6498 21.7312Z" fill="#CCCCFF"/>
<path d="M13.0967 22.0031L13.3779 22.2844L13.0967 22.0031ZM13.6498 22.0031L13.9311 22.2844L13.6498 22.0031ZM13.3686 22.5656L13.6498 22.8375L13.3686 22.5563V22.5656Z" fill="#99CCCC"/>
</g>
<defs>
<clipPath id="clip0_60_72946">
<rect width="60" height="45" rx="4" fill="white"/>
</clipPath>
</defs>
</svg>
