<svg width="60" height="45" viewBox="0 0 60 45" fill="none" xmlns="http://www.w3.org/2000/svg">
<g clip-path="url(#clip0_60_72811)">
<path d="M24 0H60V45H24V0Z" fill="#FF0000"/>
<path d="M0 0H24V45H0V0Z" fill="#006600"/>
<path fill-rule="evenodd" clip-rule="evenodd" d="M31.8281 28.7063C28.8 28.6126 14.9531 19.9688 14.8594 18.5813L15.6188 17.3157C16.9969 19.3125 31.1531 27.7219 32.55 27.4219L31.8281 28.7063Z" fill="#FFFF00"/>
<path fill-rule="evenodd" clip-rule="evenodd" d="M15.6177 17.2875C15.6272 17.2872 15.6363 17.2918 15.6417 17.2996C15.8114 17.5455 16.1803 17.893 16.7021 18.3136C17.2231 18.7334 17.8939 19.2241 18.665 19.7562C20.2071 20.8202 22.1489 22.0489 24.0915 23.2059C26.0342 24.3629 27.9771 25.448 29.5214 26.225C30.2937 26.6135 30.9657 26.9248 31.488 27.1294C31.7492 27.2318 31.9723 27.3073 32.1515 27.3525C32.3319 27.398 32.4635 27.4116 32.5439 27.3944C32.5547 27.392 32.5659 27.3963 32.5724 27.4052C32.579 27.4141 32.5797 27.426 32.5743 27.4356L31.8524 28.72C31.8473 28.7291 31.8375 28.7347 31.8271 28.7343C31.4437 28.7225 30.8925 28.5757 30.2235 28.3275C29.5537 28.079 28.7631 27.7279 27.8999 27.305C26.1735 26.4593 24.155 25.3262 22.2285 24.1529C20.3021 22.9796 18.467 21.7656 17.1075 20.758C16.4278 20.2543 15.8664 19.8017 15.4718 19.4313C15.2745 19.2462 15.1182 19.081 15.0096 18.9397C14.902 18.7998 14.8376 18.6789 14.8311 18.5831C14.8307 18.5774 14.8321 18.5717 14.8351 18.5668L15.5944 17.3011C15.5994 17.2929 15.6081 17.2878 15.6177 17.2875ZM15.6206 17.3669L14.888 18.5879C14.8965 18.6649 14.9511 18.7713 15.0542 18.9054C15.1602 19.0433 15.314 19.2061 15.5103 19.3903C15.9026 19.7585 16.4621 20.2096 17.141 20.7128C18.4988 21.7191 20.3323 22.9321 22.2578 24.1049C24.1833 25.2776 26.2002 26.4098 27.9246 27.2545C28.7869 27.6769 29.5756 28.0272 30.243 28.2748C30.9012 28.5189 31.4387 28.6622 31.8118 28.6775L32.4979 27.4569C32.4068 27.4623 32.2849 27.4441 32.1377 27.407C31.9554 27.361 31.7298 27.2846 31.4675 27.1818C30.9429 26.9762 30.269 26.6641 29.4961 26.2752C27.9502 25.4975 26.0061 24.4117 24.0628 23.2542C22.1194 22.0968 20.1765 20.8674 18.6331 19.8025C17.8614 19.27 17.1893 18.7784 16.6668 18.3574C16.169 17.9562 15.8048 17.6172 15.6206 17.3669Z" fill="black"/>
<path fill-rule="evenodd" clip-rule="evenodd" d="M15.4594 17.1375C15.1875 17.8687 19.0782 20.2687 23.7469 23.1187C28.425 25.9593 32.4563 27.7125 32.7469 27.4687L32.8875 27.2062C32.8313 27.3 32.7 27.3281 32.4844 27.2624C31.2188 26.8968 27.9282 25.3875 23.85 22.9125C19.7625 20.4375 16.2188 18.1593 15.6657 17.1937C15.6225 17.1032 15.6032 17.0032 15.6094 16.9031H15.5907L15.4782 17.1093L15.4594 17.1375ZM31.8938 28.7437C31.8469 28.8375 31.7438 28.8375 31.5657 28.8187C30.4407 28.6968 27.0094 27.0281 22.95 24.6C18.225 21.7687 14.325 19.2 14.7563 18.525L14.8688 18.3187L14.8875 18.3281C14.5125 19.4718 22.5844 24.0843 23.0625 24.3843C27.7313 27.2718 31.6688 28.9687 32.0157 28.5281L31.8938 28.7437Z" fill="#FFFF00"/>
<path fill-rule="evenodd" clip-rule="evenodd" d="M15.5658 16.8897C15.5707 16.8806 15.5802 16.875 15.5905 16.875H15.6092C15.617 16.875 15.6244 16.8782 15.6297 16.8839C15.6351 16.8895 15.6378 16.8971 15.6373 16.9049C15.6314 16.9998 15.6497 17.0947 15.6904 17.1807C15.8262 17.417 16.1473 17.7372 16.6207 18.1249C17.0936 18.5122 17.7154 18.9643 18.4481 19.4639C19.9135 20.463 21.8208 21.651 23.8644 22.8884L23.8645 22.8885C27.9421 25.3632 31.2301 26.8709 32.4921 27.2355L32.4924 27.2356C32.5981 27.2678 32.6802 27.276 32.7412 27.2664C32.8012 27.2569 32.8401 27.2304 32.8633 27.1918C32.8711 27.1787 32.888 27.1743 32.9012 27.1818C32.9145 27.1893 32.9194 27.2061 32.9122 27.2195L32.7715 27.482C32.7698 27.4852 32.7676 27.488 32.7648 27.4903C32.7385 27.5124 32.6967 27.5195 32.6491 27.5194C32.5998 27.5192 32.5372 27.5111 32.4628 27.4959C32.3138 27.4653 32.1128 27.4053 31.8663 27.3179C31.3732 27.143 30.695 26.8575 29.8801 26.4759C28.2502 25.7125 26.072 24.5636 23.7321 23.1428L23.7321 23.1428C21.3979 21.7179 19.2573 20.4049 17.7343 19.3568C16.9729 18.8328 16.3648 18.3742 15.9637 18.0004C15.7634 17.8136 15.6134 17.6468 15.522 17.5026C15.4315 17.3597 15.3941 17.2321 15.4329 17.1277L15.4592 17.1375L15.4358 17.1219L15.4539 17.0948L15.5658 16.8897ZM15.4845 17.1503C15.4571 17.2284 15.4823 17.3348 15.5696 17.4725C15.6571 17.6107 15.803 17.7736 16.0021 17.9592C16.4 18.3301 17.0053 18.7868 17.7662 19.3104C19.2877 20.3575 21.4268 21.6696 23.7613 23.0947C26.0996 24.5145 28.2761 25.6625 29.904 26.4249C30.718 26.8062 31.3945 27.0908 31.8851 27.2649C32.1306 27.3519 32.3288 27.411 32.4741 27.4408C32.5469 27.4557 32.6053 27.463 32.6493 27.4632C32.69 27.4633 32.7133 27.4571 32.7249 27.4499L32.8002 27.3095C32.7846 27.3149 32.7678 27.3191 32.75 27.3219C32.6774 27.3334 32.5861 27.3229 32.4763 27.2895C31.2068 26.9227 27.9137 25.4117 23.8353 22.9366C21.7915 21.699 19.8831 20.5104 18.4164 19.5103C17.6831 19.0103 17.0598 18.5572 16.585 18.1684C16.1113 17.7804 15.7822 17.4541 15.6411 17.2077C15.6407 17.2071 15.6404 17.2065 15.6401 17.2058C15.6061 17.1344 15.5862 17.0574 15.5812 16.9789L15.5027 17.1228C15.5023 17.1236 15.5019 17.1243 15.5014 17.125L15.4845 17.1503ZM14.8439 18.3053C14.8512 18.292 14.8677 18.2868 14.8812 18.2936L14.8999 18.303C14.9124 18.3092 14.9184 18.3236 14.9141 18.3369C14.8935 18.3997 14.9009 18.4775 14.9382 18.5709C14.9755 18.6641 15.0415 18.7701 15.1335 18.887C15.3175 19.121 15.6021 19.3947 15.9574 19.6932C16.6675 20.2901 17.6552 20.9825 18.6704 21.6491C20.2859 22.71 21.9669 23.7029 22.7086 24.1409C22.8993 24.2536 23.0279 24.3296 23.0773 24.3605C25.4108 25.8037 27.5613 26.9492 29.1712 27.6787C29.9764 28.0435 30.6456 28.3039 31.1346 28.4456C31.3793 28.5165 31.5775 28.5573 31.7245 28.5669C31.7981 28.5718 31.8575 28.5687 31.9029 28.5585C31.9484 28.5482 31.9772 28.5313 31.9934 28.5107C32.0025 28.4992 32.0189 28.4966 32.0312 28.5048C32.0434 28.513 32.0472 28.5292 32.04 28.542L31.9184 28.757C31.8902 28.813 31.8441 28.8406 31.7836 28.8511C31.7252 28.8613 31.6511 28.856 31.5625 28.8467L31.5625 28.8467C31.2773 28.8158 30.8489 28.6875 30.3053 28.4758C29.7611 28.2639 29.0991 27.9677 28.3457 27.5995C26.839 26.8631 24.9656 25.8385 22.9354 24.6241L22.9354 24.6241C20.5728 23.2084 18.4157 21.858 16.903 20.7768C16.1469 20.2363 15.5506 19.7624 15.1701 19.3807C14.98 19.19 14.8423 19.0209 14.7657 18.8769C14.6899 18.7343 14.6702 18.6082 14.7319 18.5107L14.8439 18.3053ZM31.8936 28.7438L31.8691 28.7299L31.9384 28.6073C31.931 28.6095 31.9232 28.6116 31.9153 28.6134C31.8626 28.6252 31.7973 28.6281 31.7208 28.6231C31.5679 28.613 31.3651 28.571 31.1189 28.4996C30.6262 28.3568 29.9542 28.0952 29.148 27.7299C27.5354 26.9992 25.3828 25.8525 23.0476 24.4083L23.0474 24.4082C22.9992 24.378 22.8724 24.3031 22.6839 24.1917C21.9448 23.7552 20.2574 22.7586 18.6395 21.6962C17.6238 21.0292 16.634 20.3353 15.9212 19.7363C15.5649 19.4369 15.2768 19.1602 15.0893 18.9218C14.9955 18.8026 14.926 18.6919 14.886 18.5918C14.8615 18.5305 14.8477 18.4722 14.8466 18.4178L14.7808 18.5385C14.7805 18.539 14.7802 18.5396 14.7798 18.5401C14.7344 18.6113 14.7422 18.7128 14.8154 18.8505C14.8881 18.9872 15.0212 19.1517 15.2099 19.341C15.587 19.7193 16.1802 20.191 16.9358 20.731C18.4465 21.8108 20.6019 23.1603 22.9643 24.5759C24.9935 25.7896 26.8654 26.8134 28.3704 27.5489C29.1229 27.9167 29.7834 28.2123 30.3257 28.4234C30.8687 28.6348 31.2911 28.7607 31.5684 28.7908C31.658 28.8002 31.7245 28.8043 31.774 28.7957C31.821 28.7875 31.8498 28.7685 31.8685 28.7312L31.8936 28.7438Z" fill="black"/>
<path fill-rule="evenodd" clip-rule="evenodd" d="M24.0189 19.425C27.0377 19.3969 30.7689 19.0125 32.9252 18.15L32.4564 17.4C31.1908 18.1031 27.4408 18.5719 23.9908 18.6375C19.9221 18.6 17.0439 18.2156 15.6002 17.25L15.1689 18.0563C17.8127 19.1813 20.5314 19.4156 24.0189 19.425Z" fill="#FFFF00"/>
<path fill-rule="evenodd" clip-rule="evenodd" d="M15.5932 17.2228C15.6009 17.2208 15.609 17.2223 15.6156 17.2267C16.3324 17.7061 17.4081 18.0428 18.8153 18.2641C20.2219 18.4852 21.9569 18.5907 23.9905 18.6094C25.7144 18.5766 27.5131 18.4431 29.0387 18.23C29.8015 18.1235 30.4958 17.9971 31.078 17.8535C31.6607 17.7098 32.1295 17.5494 32.4426 17.3755C32.4557 17.3682 32.4722 17.3724 32.4801 17.3851L32.9489 18.1351C32.9533 18.1422 32.9543 18.1509 32.9517 18.1588C32.9491 18.1667 32.9432 18.1731 32.9354 18.1762C30.7741 19.0407 27.0384 19.425 24.019 19.4532C24.0189 19.4532 24.0188 19.4532 24.0187 19.4532C24.0033 19.4531 23.9908 19.4407 23.9906 19.4253C23.9905 19.4098 24.003 19.3971 24.0185 19.3969C24.0185 19.3969 24.0186 19.3969 24.0187 19.3969C20.5446 19.3876 17.8375 19.1548 15.2081 18.0424L15.6102 17.2906C16.337 17.7676 17.4132 18.1005 18.8066 18.3196C20.2171 18.5414 21.9553 18.6469 23.9904 18.6657L23.9904 18.6657L23.9912 18.6657C25.7171 18.6328 27.5183 18.4992 29.0465 18.2857C29.8106 18.179 30.5068 18.0523 31.0914 17.9081C31.6616 17.7676 32.1272 17.61 32.4465 17.4375L32.8833 18.1364C30.7275 18.9881 27.0222 19.3689 24.0187 19.3969M15.5932 17.2228C15.5855 17.2247 15.5789 17.2298 15.5752 17.2368L15.5932 17.2228ZM15.5752 17.2368L15.1439 18.043L15.5752 17.2368ZM24.0187 19.4532C20.5303 19.4438 17.8069 19.2095 15.1577 18.0822C15.1505 18.0791 15.1448 18.0731 15.1422 18.0656C15.1396 18.0582 15.1402 18.05 15.1439 18.043" fill="black"/>
<path fill-rule="evenodd" clip-rule="evenodd" d="M33.0467 18.1688C32.9717 18.2906 31.5654 18.7688 29.5029 19.125C27.6848 19.4005 25.8481 19.5353 24.0092 19.5281C22.2473 19.5348 20.487 19.422 18.7404 19.1906C16.5748 18.8531 15.4592 18.3844 15.0373 18.2156L15.1404 18.0094C16.3311 18.4781 17.4561 18.7594 18.7686 18.9656C20.5024 19.1998 22.2502 19.3157 23.9998 19.3125C25.8292 19.3144 27.6561 19.1797 29.4654 18.9094C31.5748 18.5625 32.7279 18.1219 32.8967 17.925L33.0467 18.1781V18.1688ZM32.6342 17.4094C32.4092 17.5969 31.2654 18 29.2592 18.3188C27.5267 18.5694 25.7784 18.6947 24.0279 18.6938C21.9654 18.6938 20.2686 18.5438 18.9842 18.3563C16.9404 18.0938 15.8529 17.6063 15.4592 17.475L15.5811 17.2688C15.8904 17.4281 16.9311 17.85 19.0029 18.1406C20.6685 18.3637 22.3476 18.4703 24.0279 18.4594C25.766 18.4599 27.5018 18.3346 29.2217 18.0844C31.2373 17.8031 32.3248 17.2969 32.4936 17.1656L32.6342 17.4094ZM14.0904 23.0625C15.9467 24.0656 20.0811 24.5625 23.9904 24.6C27.5529 24.6094 32.1842 24.0563 33.9186 23.1375L33.8717 22.1344C33.3279 22.9781 28.3592 23.7938 23.9529 23.7656C19.5467 23.7281 15.4498 23.0531 14.0811 22.1719V23.0625" fill="#FFFF00"/>
<path fill-rule="evenodd" clip-rule="evenodd" d="M32.4988 17.138C32.5067 17.1395 32.5137 17.1445 32.5177 17.1515L32.6583 17.3953L32.634 17.4093L32.652 17.4309C32.5921 17.4808 32.4748 17.5425 32.3044 17.6118C32.1331 17.6814 31.9054 17.7596 31.6223 17.8418C31.0561 18.0062 30.2675 18.187 29.2634 18.3465L29.263 18.3465C27.5292 18.5974 25.7796 18.7228 24.0277 18.7218L24.0277 18.6937V18.7218C24.0277 18.7218 24.0277 18.7218 24.0277 18.7218C21.964 18.7218 20.2659 18.5717 18.9802 18.3841C18.9802 18.3841 18.9803 18.3841 18.9804 18.3841L18.984 18.3562L18.9799 18.384C18.98 18.384 18.9801 18.3841 18.9802 18.3841C17.2324 18.1596 16.1819 17.7705 15.6678 17.5801C15.5798 17.5475 15.5075 17.5208 15.4501 17.5016C15.442 17.4989 15.4356 17.4928 15.4326 17.4848C15.4297 17.4768 15.4304 17.468 15.4348 17.4606L15.5566 17.2544C15.5642 17.2416 15.5805 17.2369 15.5937 17.2437C15.8995 17.4012 16.9368 17.8224 19.0066 18.1127C19.0065 18.1127 19.0065 18.1127 19.0065 18.1127L19.0027 18.1406L19.0066 18.1127C19.0066 18.1127 19.0066 18.1127 19.0066 18.1127C20.6708 18.3356 22.3485 18.442 24.0276 18.4312L24.0277 18.4312C25.7644 18.4317 27.4989 18.3065 29.2174 18.0565L29.2176 18.0565C30.2238 17.9161 30.998 17.7196 31.5413 17.542C31.8129 17.4532 32.0267 17.3691 32.1829 17.2993C32.3399 17.2291 32.4368 17.174 32.4761 17.1434C32.4825 17.1384 32.4908 17.1364 32.4988 17.138ZM32.5974 17.4021L32.4844 17.2064C32.4312 17.2416 32.3379 17.2915 32.2059 17.3506C32.0477 17.4214 31.832 17.5061 31.5587 17.5954C31.0122 17.7741 30.2348 17.9713 29.2254 18.1122C27.5042 18.3626 25.7671 18.488 24.0278 18.4875C22.3462 18.4983 20.6658 18.3917 18.999 18.1685L18.9988 18.1684C16.9744 17.8845 15.9314 17.475 15.5917 17.3057L15.5008 17.4595C15.5527 17.4775 15.6146 17.5005 15.6871 17.5273C16.2017 17.7178 17.2466 18.1047 18.9876 18.3283L18.988 18.3284L18.988 18.3284C20.2711 18.5157 21.9666 18.6656 24.0277 18.6656H24.0278C25.7768 18.6665 27.5237 18.5413 29.2548 18.2909C30.2569 18.1317 31.0431 17.9515 31.6066 17.7878C31.8884 17.7059 32.1142 17.6283 32.2833 17.5596C32.4353 17.4979 32.5394 17.4442 32.5974 17.4021ZM32.8989 17.8969C32.908 17.8977 32.9161 17.9028 32.9207 17.9106L33.0586 18.1433C33.0682 18.1479 33.0746 18.1577 33.0746 18.1687V18.1781C33.0746 18.1907 33.0661 18.2019 33.0539 18.2052C33.0526 18.2056 33.0512 18.2058 33.0499 18.206C33.0446 18.2104 33.0389 18.2147 33.0329 18.2188C33.0166 18.23 32.9955 18.2422 32.9701 18.2552C32.9192 18.2813 32.8491 18.3117 32.7613 18.3457C32.5857 18.4136 32.3376 18.4962 32.0278 18.5859C31.4079 18.7656 30.5397 18.9744 29.5075 19.1527L29.507 19.1528C27.6874 19.4285 25.8493 19.5634 24.009 19.5562C22.2459 19.5628 20.4844 19.45 18.7365 19.2185L18.7359 19.2184L18.7359 19.2184C16.6472 18.8928 15.5333 18.4452 15.0762 18.2616C15.0587 18.2545 15.0422 18.2479 15.0267 18.2417C15.0194 18.2388 15.0136 18.2329 15.0108 18.2256C15.008 18.2182 15.0084 18.21 15.012 18.203L15.1151 17.9967C15.1216 17.9837 15.137 17.9778 15.1505 17.9832C16.3388 18.451 17.4617 18.7318 18.7724 18.9377C20.5049 19.1717 22.2513 19.2875 23.9996 19.2843H23.9996C25.8275 19.2862 27.653 19.1516 29.4609 18.8815C30.5145 18.7083 31.3287 18.5117 31.9002 18.334C32.1861 18.2452 32.4108 18.1612 32.5742 18.0874C32.6559 18.0505 32.722 18.0163 32.7725 17.9855C32.8234 17.9545 32.8569 17.9279 32.8751 17.9066C32.881 17.8998 32.8899 17.8961 32.8989 17.8969ZM33.0076 18.1677L32.8907 17.9703C32.8677 17.9904 32.8378 18.0116 32.8018 18.0336C32.7487 18.0659 32.6804 18.1012 32.5974 18.1387C32.4312 18.2137 32.2042 18.2985 31.9169 18.3877C31.3424 18.5663 30.5255 18.7635 29.4698 18.9371L29.4694 18.9371C27.6587 19.2076 25.8304 19.3425 23.9996 19.3406C22.2488 19.3437 20.4997 19.2277 18.7646 18.9934L18.764 18.9934L18.764 18.9934C17.4587 18.7882 16.3379 18.5089 15.1539 18.0449L15.0759 18.2008C15.0829 18.2036 15.09 18.2065 15.0972 18.2094C15.5523 18.3923 16.6619 18.8382 18.7442 19.1627C20.4895 19.3939 22.2484 19.5066 24.0089 19.5H24.0091C25.8464 19.5071 27.6816 19.3725 29.4982 19.0972C30.5284 18.9192 31.3945 18.7109 32.0121 18.5319C32.321 18.4424 32.5674 18.3603 32.741 18.2932C32.8279 18.2596 32.896 18.2299 32.9445 18.2051C32.9687 18.1927 32.9875 18.1818 33.001 18.1725C33.0035 18.1708 33.0057 18.1692 33.0076 18.1677ZM33.8788 22.1072C33.8906 22.1103 33.899 22.1208 33.8996 22.133L33.9465 23.1361C33.947 23.147 33.9411 23.1572 33.9315 23.1623C33.0595 23.6242 31.4637 23.9926 29.6437 24.2446C27.8225 24.4967 25.7727 24.6328 23.9902 24.6281L23.99 24.6281C22.0343 24.6093 20.0221 24.4757 18.2663 24.2211C16.5152 23.9673 15.0161 23.5929 14.083 23.0905C14.0823 23.0905 14.0816 23.0906 14.0809 23.0906C14.0653 23.0906 14.0527 23.078 14.0527 23.0625V22.1718C14.0527 22.1615 14.0584 22.1521 14.0674 22.1471C14.0764 22.1422 14.0874 22.1426 14.0961 22.1482C14.7751 22.5853 16.1362 22.9738 17.8822 23.2573C19.6267 23.5407 21.7511 23.7187 23.9529 23.7375C26.1545 23.7515 28.4966 23.5548 30.356 23.2492C31.2857 23.0963 32.094 22.9164 32.7034 22.7223C33.0081 22.6253 33.2623 22.5249 33.4568 22.4229C33.6522 22.3205 33.7839 22.2183 33.8478 22.1191C33.8545 22.1088 33.867 22.104 33.8788 22.1072ZM14.109 23.0406C15.0329 23.5382 16.5241 23.9118 18.2743 24.1655C20.0271 24.4196 22.0368 24.5531 23.9905 24.5718M14.109 23.0406V22.2228V23.0406Z" fill="black"/>
<path fill-rule="evenodd" clip-rule="evenodd" d="M34.0125 22.9219V23.1563C33.75 23.475 32.1187 23.9438 30.075 24.2813C28.0446 24.5731 25.995 24.711 23.9437 24.6938C21.9987 24.7103 20.0554 24.5756 18.1312 24.2906C16.6955 24.1247 15.2926 23.7456 13.9688 23.1656V22.8938C14.8781 23.4938 17.3344 23.9438 18.1594 24.075C19.6406 24.3 21.5437 24.4688 23.9437 24.4688C26.4656 24.4688 28.4812 24.2906 30.0375 24.0563C31.5094 23.8406 33.6 23.2875 34.0125 22.9219ZM34.0125 22.0781V22.3125C33.75 22.6219 32.1187 23.0906 30.075 23.4281C28.0448 23.7231 25.9952 23.8642 23.9437 23.85C21.9989 23.8615 20.0559 23.7267 18.1312 23.4469C16.6955 23.281 15.2926 22.9018 13.9688 22.3219V22.0406C14.8781 22.65 17.3437 23.0906 18.1594 23.2219C20.0745 23.5024 22.0082 23.6372 23.9437 23.625C26.4656 23.625 28.4906 23.4375 30.0375 23.2031C31.5094 22.9969 33.6 22.4438 34.0125 22.0781ZM23.9813 28.5281C19.7063 28.5094 16.0406 27.3656 15.2625 27.1781L15.825 28.0594C18.4546 28.9907 21.2295 29.4447 24.0188 29.4C27.2719 29.3063 30.1125 29.0531 32.1094 28.0781L32.6906 27.1594C31.3313 27.8063 26.6906 28.5281 23.9719 28.5281" fill="#FFFF00"/>
<path fill-rule="evenodd" clip-rule="evenodd" d="M13.9553 22.0158C13.9645 22.0109 13.9756 22.0114 13.9842 22.0172C14.4342 22.3187 15.2732 22.5803 16.1057 22.7832C16.9366 22.9856 17.7559 23.1284 18.1634 23.194C20.0771 23.4743 22.0093 23.609 23.9434 23.5968L23.9436 23.5968C26.464 23.5968 28.4876 23.4094 30.0331 23.1753L30.0334 23.1752C30.768 23.0723 31.6574 22.8827 32.4146 22.6732C32.7931 22.5685 33.1382 22.4589 33.4141 22.3528C33.6912 22.2463 33.8948 22.1447 33.9936 22.057L34.0123 22.0781H34.0404V22.3125C34.0404 22.3191 34.0381 22.3256 34.0337 22.3306C33.9979 22.3729 33.9405 22.416 33.8658 22.4597C33.7906 22.5036 33.6962 22.5491 33.5846 22.5958C33.3614 22.6891 33.0678 22.7876 32.7192 22.8868C32.0219 23.0852 31.102 23.2869 30.0794 23.4558L30.0788 23.4559C28.0473 23.7511 25.9964 23.8922 23.9435 23.8781C21.9975 23.8895 20.0533 23.7547 18.1274 23.4747C16.6891 23.3085 15.2835 22.9286 13.9573 22.3476C13.947 22.3431 13.9404 22.333 13.9404 22.3218V22.0406C13.9404 22.0302 13.9462 22.0207 13.9553 22.0158ZM33.9842 22.1365C33.8676 22.2213 33.6754 22.3127 33.4343 22.4054C33.1561 22.5123 32.8092 22.6224 32.4296 22.7274C31.6704 22.9375 30.7786 23.1276 30.0414 23.2309C28.4931 23.4655 26.4668 23.6531 23.9436 23.6531C23.9436 23.6531 23.9436 23.6531 23.9436 23.6531V23.625L23.9437 23.6531C23.9437 23.6531 23.9437 23.6531 23.9436 23.6531C22.0067 23.6653 20.0716 23.5304 18.1551 23.2497L18.1547 23.2496L18.1547 23.2496C17.7465 23.1839 16.9254 23.0408 16.0924 22.8378C15.2865 22.6415 14.4648 22.388 13.9967 22.0924V22.0406H13.9686L13.9529 22.0639C13.9671 22.0735 13.9817 22.083 13.9967 22.0924V22.3034C13.9911 22.301 13.9855 22.2985 13.9798 22.2961L13.9686 22.3218H13.9967V22.3034C15.313 22.8781 16.7074 23.254 18.1343 23.4189L18.1351 23.419L18.1351 23.419C20.0584 23.6986 21.9999 23.8333 23.9434 23.8218L23.9437 23.8218C25.9937 23.836 28.0418 23.695 30.0705 23.4003C30.0704 23.4003 30.0703 23.4003 30.0702 23.4003L30.0748 23.4281L30.0708 23.4002C30.0707 23.4003 30.0706 23.4003 30.0705 23.4003C31.0915 23.2317 32.0091 23.0303 32.7038 22.8327C33.0513 22.7338 33.3425 22.636 33.5629 22.5439C33.6731 22.4978 33.7651 22.4533 33.8374 22.4111C33.9049 22.3716 33.9537 22.335 33.9842 22.3018V22.3125H34.0123L33.9909 22.2943C33.9887 22.2968 33.9865 22.2993 33.9842 22.3018V22.1365ZM13.9552 22.8689C13.9643 22.864 13.9754 22.8645 13.984 22.8702C14.4341 23.1672 15.2709 23.4288 16.1022 23.6328C16.932 23.8364 17.7514 23.9816 18.1635 24.0472C19.6432 24.2719 21.5449 24.4406 23.9436 24.4406C26.4641 24.4406 28.4783 24.2625 30.0331 24.0284L30.0332 24.0284C30.7679 23.9207 31.6574 23.7288 32.4145 23.5182C32.7931 23.4128 33.1382 23.303 33.4141 23.1968C33.6912 23.0901 33.8948 22.9884 33.9936 22.9008L34.0123 22.9218H34.0404V23.1562C34.0404 23.1627 34.0382 23.169 34.034 23.1741C33.9982 23.2176 33.9408 23.2617 33.866 23.3064C33.7908 23.3512 33.6963 23.3976 33.5847 23.4449C33.3615 23.5395 33.0679 23.6389 32.7193 23.7387C32.0219 23.9383 31.102 24.1401 30.0794 24.3089L30.0788 24.309C28.047 24.6011 25.9961 24.7391 23.9436 24.7218C21.9973 24.7384 20.0527 24.6035 18.1274 24.3185C16.689 24.1522 15.2835 23.7723 13.9573 23.1913C13.947 23.1869 13.9404 23.1767 13.9404 23.1656V22.8937C13.9404 22.8834 13.9461 22.8738 13.9552 22.8689ZM33.9842 22.9802C33.8676 23.0651 33.6754 23.1564 33.4343 23.2492C33.1561 23.3563 32.8092 23.4667 32.4296 23.5724C31.6704 23.7836 30.7786 23.976 30.0414 24.084C28.4837 24.3186 26.4667 24.4968 23.9436 24.4968C21.5422 24.4968 19.6377 24.328 18.155 24.1028L18.1548 24.1027C17.7418 24.037 16.9207 23.8916 16.0888 23.6874C15.284 23.4899 14.4646 23.2364 13.9967 22.9451V23.1472C15.313 23.7218 16.7074 24.0977 18.1343 24.2626L18.1352 24.2627L18.1352 24.2628C20.0578 24.5475 21.9998 24.6821 23.9433 24.6656H23.9438C25.9935 24.6828 28.0416 24.545 30.0705 24.2534C31.0915 24.0848 32.009 23.8835 32.7038 23.6846C33.0512 23.5852 33.3424 23.4865 33.5627 23.3931C33.6729 23.3464 33.7649 23.3012 33.8372 23.2581C33.9048 23.2177 33.9537 23.18 33.9842 23.1458V22.9802ZM32.7115 27.1407C32.7198 27.15 32.7209 27.1638 32.7142 27.1744L32.1329 28.0931C32.1302 28.0975 32.1262 28.1011 32.1215 28.1033C30.1184 29.0814 27.2719 29.3343 24.0194 29.4281L24.019 29.4281C21.2264 29.4728 18.4482 29.0183 15.8154 28.0858C15.8095 28.0837 15.8045 28.0797 15.8011 28.0745L15.2386 27.1932C15.2324 27.1835 15.2327 27.1711 15.2394 27.1617C15.2461 27.1524 15.2577 27.148 15.2689 27.1507C15.3642 27.1737 15.5025 27.2109 15.6798 27.2586C16.9527 27.6011 20.2318 28.4834 23.9804 28.4999C25.337 28.4992 27.171 28.3191 28.8365 28.0585C30.5068 27.7971 32.0029 27.4554 32.6783 27.1339C32.6897 27.1285 32.7032 27.1313 32.7115 27.1407ZM23.97 28.5561C23.9705 28.5562 23.9711 28.5562 23.9717 28.5562C23.9746 28.5562 23.9776 28.5562 23.9805 28.5562M23.97 28.5561C20.2173 28.538 16.9351 27.6547 15.6648 27.3128C15.5268 27.2757 15.4125 27.2449 15.324 27.2224L15.8433 28.036C18.467 28.9641 21.2353 29.4164 24.018 29.3718C27.2677 29.2782 30.0994 29.0254 32.0897 28.0563L32.6162 27.224C31.8976 27.5375 30.4477 27.8633 28.8452 28.1141C27.1784 28.3749 25.3418 28.5553 23.9814 28.5562" fill="black"/>
<path fill-rule="evenodd" clip-rule="evenodd" d="M32.3344 27.8719C32.249 27.9983 32.1615 28.1234 32.0719 28.2469C31.1344 28.5843 29.6344 28.9406 29.0156 29.0344C27.3553 29.3437 25.6702 29.5006 23.9813 29.5031C20.1938 29.4469 17.0906 28.7062 15.6375 28.0687L15.5156 27.8719L15.5344 27.8344L15.7313 27.9187C18.3994 28.8017 21.1896 29.2604 24 29.2781C25.7625 29.2781 27.5156 29.0812 28.9313 28.8281C31.1063 28.3875 31.9875 28.0594 32.2594 27.9094L32.325 27.8719H32.3344ZM32.8313 27.0469C32.7695 27.1567 32.707 27.266 32.6438 27.375C32.1375 27.5625 30.7687 27.9562 28.7719 28.2375C27.4594 28.4156 26.6437 28.5937 24.0281 28.6406C21.0381 28.6106 18.0664 28.1689 15.1969 27.3281L15.0938 27.0937C18.0092 27.8995 21.0134 28.3404 24.0375 28.4062C26.4281 28.3594 27.45 28.1812 28.7531 28.0031C31.0781 27.6469 32.25 27.2531 32.5969 27.15C32.5971 27.1437 32.5971 27.1375 32.5969 27.1312L32.8406 27.0375L32.8313 27.0469Z" fill="#FFFF00"/>
<path fill-rule="evenodd" clip-rule="evenodd" d="M32.864 27.0222C32.8713 27.0333 32.8697 27.048 32.8603 27.0574L32.8537 27.0641C32.7925 27.1728 32.7306 27.2812 32.6679 27.3892C32.6646 27.3948 32.6595 27.3991 32.6533 27.4014C32.1448 27.5898 30.774 27.9839 28.7756 28.2654L28.7755 28.2654C28.5722 28.293 28.3809 28.3206 28.1929 28.3477C27.1669 28.4956 26.2406 28.6291 24.0284 28.6688L24.0276 28.6688C21.035 28.6387 18.0608 28.1967 15.1888 27.3551C15.1808 27.3528 15.1743 27.3471 15.1709 27.3395L15.0678 27.1051C15.0634 27.0952 15.0652 27.0836 15.0723 27.0754C15.0794 27.0672 15.0906 27.0638 15.101 27.0667C18.0141 27.8718 21.0158 28.3123 24.0373 28.3781C26.1661 28.3364 27.2081 28.1905 28.332 28.0332C28.469 28.014 28.6073 27.9947 28.7489 27.9753C30.8683 27.6506 32.0282 27.2947 32.4784 27.1566C32.5125 27.1461 32.5426 27.1369 32.5686 27.1291C32.5695 27.1184 32.5764 27.1089 32.5866 27.105L32.8303 27.0113C32.8427 27.0065 32.8568 27.0111 32.864 27.0222ZM32.7723 27.0939L32.6248 27.1506C32.6248 27.1507 32.6248 27.1509 32.6248 27.151C32.6244 27.1631 32.6163 27.1735 32.6047 27.177C32.5743 27.186 32.5376 27.1973 32.4944 27.2105C32.0434 27.3489 30.8806 27.7056 28.7572 28.031L28.7567 28.031C28.6152 28.0504 28.4769 28.0697 28.3398 28.0889C27.215 28.2464 26.1703 28.3926 24.0379 28.4344L24.0367 28.4344V28.4344C21.03 28.3689 18.043 27.933 15.1431 27.1366L15.2172 27.3048C18.0802 28.1425 21.0448 28.5825 24.0278 28.6125C26.2362 28.5729 27.1597 28.4398 28.185 28.292C28.373 28.2649 28.5644 28.2373 28.7678 28.2097C30.7508 27.9304 32.1129 27.5402 32.6243 27.3521C32.6741 27.2663 32.7234 27.1802 32.7723 27.0939ZM15.509 27.8218C15.5157 27.8085 15.5316 27.8027 15.5453 27.8086L15.741 27.8925C18.406 28.7742 21.1929 29.2323 23.9999 29.25C25.7603 29.25 27.5116 29.0534 28.9258 28.8005C31.1002 28.36 31.9776 28.0326 32.2454 27.8849C32.2455 27.8848 32.2455 27.8848 32.2456 27.8848L32.3108 27.8475C32.3151 27.8451 32.3199 27.8438 32.3248 27.8438H32.3342C32.3446 27.8438 32.3541 27.8495 32.359 27.8587C32.3639 27.8679 32.3633 27.879 32.3575 27.8876C32.272 28.0144 32.1843 28.1397 32.0944 28.2634C32.0911 28.268 32.0865 28.2715 32.0812 28.2734C31.1422 28.6114 29.6409 28.968 29.0201 29.0621C27.3583 29.3718 25.6716 29.5288 23.9811 29.5313L23.9806 29.5313C20.1905 29.475 17.0834 28.7339 15.626 28.0945C15.6208 28.0922 15.6164 28.0884 15.6134 28.0836L15.4915 27.8867C15.4864 27.8784 15.4859 27.868 15.4903 27.8593L15.509 27.8218ZM15.5479 27.8709L15.6566 28.0465C17.1088 28.6813 20.2035 29.4189 23.9812 29.475C25.6684 29.4726 27.3517 29.3158 29.0103 29.0068L29.0112 29.0066L29.0112 29.0066C29.6264 28.9134 31.1178 28.5594 32.054 28.2234C32.1203 28.132 32.1854 28.0397 32.2493 27.9466C31.9484 28.104 31.0533 28.4269 28.9366 28.8557L28.936 28.8558C27.5191 29.1092 25.7643 29.3063 23.9998 29.3063L23.9996 29.3063C21.1863 29.2885 18.3932 28.8293 15.7222 27.9455C15.7215 27.9452 15.7207 27.9449 15.72 27.9446L15.5479 27.8709Z" fill="black"/>
<path fill-rule="evenodd" clip-rule="evenodd" d="M32.8873 22.275C32.8967 25.0875 31.4529 27.6187 30.2998 28.725C28.5967 30.386 26.3223 31.332 23.9436 31.3687C21.1029 31.4156 18.4311 29.5688 17.7092 28.7531C16.0943 27.0406 15.1752 24.7879 15.1311 22.4344C15.2998 19.3594 16.5092 17.2219 18.2529 15.75C19.9469 14.3555 22.0777 13.6021 24.2717 13.6219C25.5524 13.684 26.8061 14.0129 27.9523 14.5876C29.0985 15.1624 30.1121 15.9702 30.9279 16.9594C32.0998 18.3844 32.6154 19.9313 32.8873 22.275ZM23.9623 12.6563C26.585 12.6562 29.1013 13.6929 30.9628 15.5403C32.8243 17.3878 33.88 19.8962 33.8998 22.5187C33.8998 23.8201 33.6435 25.1086 33.1455 26.3109C32.6475 27.5132 31.9176 28.6056 30.9974 29.5257C30.0773 30.4459 28.9849 31.1758 27.7826 31.6738C26.5803 32.1718 25.2918 32.4281 23.9904 32.4281C22.6891 32.4281 21.4006 32.1718 20.1983 31.6738C18.996 31.1758 17.9036 30.4459 16.9835 29.5257C16.0633 28.6056 15.3334 27.5132 14.8354 26.3109C14.3374 25.1086 14.0811 23.8201 14.0811 22.5187C14.0717 17.0812 18.5154 12.6563 23.9623 12.6563Z" fill="#FFFF00"/>
<path fill-rule="evenodd" clip-rule="evenodd" d="M30.9428 15.5603C29.0866 13.7181 26.5773 12.6843 23.9621 12.6844C18.5307 12.6844 14.0997 17.0969 14.109 22.5188L14.109 22.5188C14.109 23.8164 14.3646 25.1013 14.8612 26.3002C15.3577 27.499 16.0856 28.5883 17.0032 29.5059C17.9207 30.4235 19.01 31.1513 20.2089 31.6479C21.4077 32.1445 22.6926 32.4 23.9902 32.4C25.2879 32.4 26.5728 32.1445 27.7716 31.6479C28.9705 31.1513 30.0598 30.4235 30.9773 29.5059C31.8949 28.5883 32.6228 27.499 33.1193 26.3002C33.6159 25.1013 33.8715 23.8164 33.8715 22.5188C33.8517 19.9037 32.799 17.4025 30.9428 15.5603ZM23.9621 12.6282C26.5922 12.6281 29.1157 13.6677 30.9824 15.5204C32.8492 17.3731 33.9079 19.8886 33.9277 22.5186V22.5188C33.9277 23.8238 33.6707 25.116 33.1713 26.3217C32.6719 27.5274 31.9399 28.6229 31.0171 29.5457C30.0943 30.4685 28.9988 31.2004 27.7932 31.6999C26.5875 32.1993 25.2953 32.4563 23.9902 32.4563C22.6852 32.4563 21.393 32.1993 20.1873 31.6999C18.9817 31.2004 17.8862 30.4685 16.9634 29.5457C16.0406 28.6229 15.3086 27.5274 14.8092 26.3217C14.3098 25.116 14.0528 23.8238 14.0527 22.5188C14.0434 17.0657 18.4998 12.6282 23.9621 12.6282ZM24.2707 13.65C22.0836 13.6305 19.9594 14.3816 18.2708 15.7716C16.5334 17.2382 15.3276 19.3681 15.159 22.4349C15.2032 24.7811 16.1196 27.0266 17.7295 28.7339L17.7301 28.7345L17.7301 28.7345C18.0879 29.1389 18.9331 29.8026 20.0443 30.3593C21.155 30.9158 22.5286 31.364 23.9429 31.3407H23.9429C26.3145 31.3041 28.582 30.3609 30.28 28.7049L30.2802 28.7048C31.4281 27.6034 32.8678 25.0801 32.859 22.2767C32.5874 19.9369 32.073 18.3963 30.9061 16.9773C30.0927 15.9912 29.0822 15.1858 27.9395 14.6128C26.7969 14.0399 25.5473 13.712 24.2707 13.65ZM32.8871 22.275L32.9151 22.2718C32.6428 19.9251 32.126 18.3723 30.9495 16.9416L30.9494 16.9415C30.1311 15.9493 29.1144 15.139 27.9647 14.5626C26.815 13.9861 25.5575 13.6561 24.2729 13.5938L24.2729 13.5938L24.2718 13.5938C22.0712 13.574 19.9339 14.3297 18.2349 15.7283L18.2346 15.7286C16.4848 17.2056 15.272 19.3504 15.1028 22.4329C15.1028 22.4336 15.1027 22.4343 15.1028 22.435C15.147 24.7953 16.0687 27.0545 17.6882 28.7721C18.0524 29.1834 18.9039 29.8508 20.0191 30.4096C21.1349 30.9686 22.5176 31.4205 23.9438 31.3969C26.3297 31.3601 28.6109 30.4113 30.3191 28.7453C30.3191 28.7453 30.3191 28.7453 30.3191 28.7453L30.2996 28.725L30.3193 28.7452C30.3192 28.7452 30.3192 28.7453 30.3191 28.7453" fill="black"/>
<path fill-rule="evenodd" clip-rule="evenodd" d="M23.9902 12.6094C29.4465 12.6094 33.8902 17.0531 33.8902 22.5094C33.8902 27.9656 29.4465 32.4094 23.9996 32.4094C18.5527 32.4094 14.0996 27.9656 14.0996 22.5094C14.0996 17.0531 18.5434 12.6094 23.9996 12.6094H23.9902ZM14.3059 22.5C14.3059 27.825 18.684 32.1844 23.9902 32.1844C29.2965 32.1844 33.6746 27.825 33.6746 22.5C33.6746 17.175 29.2965 12.8156 23.9902 12.8156C18.684 12.8156 14.3059 17.175 14.3059 22.5Z" fill="#FFFF00"/>
<path fill-rule="evenodd" clip-rule="evenodd" d="M23.9947 12.6375C18.5562 12.6401 14.1275 17.0703 14.1275 22.5094C14.1275 27.9501 18.5681 32.3813 23.9994 32.3813C29.4307 32.3813 33.8619 27.9502 33.8619 22.5094C33.8619 17.0703 29.4333 12.6401 23.9947 12.6375ZM23.9999 12.5813C29.4672 12.5867 33.9182 17.0409 33.9182 22.5094C33.9182 27.9812 29.4618 32.4375 23.9994 32.4375C18.537 32.4375 14.0713 27.9812 14.0713 22.5094C14.0713 17.0409 18.5223 12.5867 23.9895 12.5813C23.9897 12.5813 23.9899 12.5813 23.99 12.5813H23.9994C23.9996 12.5813 23.9998 12.5813 23.9999 12.5813ZM14.2775 22.5C14.2775 17.1595 18.6683 12.7875 23.99 12.7875C29.3118 12.7875 33.7025 17.1595 33.7025 22.5C33.7025 27.8406 29.3118 32.2125 23.99 32.2125C18.6683 32.2125 14.2775 27.8406 14.2775 22.5ZM23.99 12.8438C18.6993 12.8438 14.3338 17.1906 14.3338 22.5C14.3338 27.8095 18.6993 32.1563 23.99 32.1563C29.2808 32.1563 33.6463 27.8095 33.6463 22.5C33.6463 17.1906 29.2808 12.8438 23.99 12.8438Z" fill="black"/>
<path fill-rule="evenodd" clip-rule="evenodd" d="M24.0002 13.4343C26.4023 13.4417 28.7038 14.3993 30.4024 16.0978C32.1009 17.7963 33.0584 20.0979 33.0658 22.5C33.0584 24.9029 32.1012 27.2054 30.4029 28.9055C28.7047 30.6055 26.4031 31.5651 24.0002 31.5749C19.0314 31.5749 14.9346 27.4875 14.9346 22.5C14.9444 20.0986 15.9027 17.7985 17.6007 16.1005C19.2987 14.4025 21.5989 13.4442 24.0002 13.4343ZM15.1502 22.5C15.1502 27.375 19.1439 31.35 24.0002 31.35C28.8564 31.35 32.8502 27.3656 32.8502 22.5C32.8502 17.625 28.8564 13.65 24.0002 13.65C21.6561 13.6598 19.4108 14.5954 17.7532 16.253C16.0956 17.9105 15.1601 20.1558 15.1502 22.5Z" fill="#FFFF00"/>
<path fill-rule="evenodd" clip-rule="evenodd" d="M30.3823 16.1177C28.689 14.4245 26.3946 13.4699 24 13.4625C21.6062 13.4724 19.3132 14.4277 17.6204 16.1204C15.9277 17.8132 14.9724 20.1062 14.9625 22.5001C14.9625 27.472 19.0467 31.5468 23.9999 31.5469C26.3954 31.537 28.6898 30.5804 30.3829 28.8856C32.0758 27.1909 33.0301 24.8955 33.0375 22.5C33.0301 20.1054 32.0755 17.811 30.3823 16.1177ZM24 13.4344L24.0001 13.4062C26.4096 13.4137 28.7183 14.3742 30.4221 16.0779C32.1258 17.7817 33.0863 20.0904 33.0938 22.4999V22.5001C33.0863 24.9104 32.1262 27.2201 30.4226 28.9254C28.7191 30.6307 26.4105 31.5932 24.0001 31.6031H24C19.0157 31.6031 14.9062 27.503 14.9062 22.5L14.9063 22.4999C14.9162 20.0912 15.8774 17.7839 17.5807 16.0807C19.2839 14.3774 21.5912 13.4162 23.9999 13.4063L24 13.4344ZM24 13.6219C28.8717 13.6219 32.8781 17.6094 32.8781 22.5C32.8781 27.3812 28.8718 31.3781 24 31.3781C19.1283 31.3781 15.1219 27.3906 15.1219 22.5H15.15L15.1219 22.4999C15.1318 20.1483 16.0703 17.8959 17.7331 16.2331C19.3959 14.5703 21.6483 13.6318 23.9999 13.6219L24 13.6219ZM15.1781 22.5001C15.1782 27.3595 19.1593 31.3219 24 31.3219C28.8407 31.3219 32.8219 27.3501 32.8219 22.5C32.8219 17.6406 28.8408 13.6782 24.0001 13.6781C21.6634 13.688 19.4252 14.6206 17.7729 16.2729C16.1206 17.9252 15.188 20.1634 15.1781 22.5001Z" fill="black"/>
<path fill-rule="evenodd" clip-rule="evenodd" d="M24.4029 12.5625H23.5498V32.4656H24.3936L24.4029 12.5625Z" fill="#FFFF00"/>
<path fill-rule="evenodd" clip-rule="evenodd" d="M23.5215 12.5625C23.5215 12.547 23.5341 12.5344 23.5496 12.5344H24.4027C24.4102 12.5344 24.4174 12.5374 24.4226 12.5427C24.4279 12.5479 24.4309 12.5551 24.4309 12.5626L24.4215 32.4657C24.4215 32.4812 24.4089 32.4938 24.3934 32.4938H23.5496C23.5341 32.4938 23.5215 32.4812 23.5215 32.4657V12.5625ZM23.5777 12.5907V32.4375H24.3652L24.3746 12.5907H23.5777Z" fill="black"/>
<path fill-rule="evenodd" clip-rule="evenodd" d="M24.3096 12.45H24.5252V32.5781H24.3189V12.45H24.3096ZM23.4658 12.45H23.6908V32.5781H23.4752V12.45H23.4658Z" fill="#FFFF00"/>
<path fill-rule="evenodd" clip-rule="evenodd" d="M23.4375 12.45C23.4375 12.4345 23.4501 12.4219 23.4656 12.4219H23.6906C23.7062 12.4219 23.7187 12.4345 23.7187 12.45V32.5781C23.7187 32.5937 23.7062 32.6063 23.6906 32.6063H23.475C23.4595 32.6063 23.4469 32.5937 23.4469 32.5781V12.471C23.4411 12.4658 23.4375 12.4583 23.4375 12.45ZM23.5031 12.4781V32.55H23.6625V12.4781H23.5031ZM24.2812 12.45C24.2812 12.4345 24.2938 12.4219 24.3094 12.4219H24.525C24.5405 12.4219 24.5531 12.4345 24.5531 12.45V32.5781C24.5531 32.5937 24.5405 32.6063 24.525 32.6063H24.3187C24.3032 32.6063 24.2906 32.5937 24.2906 32.5781V12.471C24.2849 12.4658 24.2812 12.4583 24.2812 12.45ZM24.3469 12.4781V32.55H24.4969V12.4781H24.3469Z" fill="black"/>
<path fill-rule="evenodd" clip-rule="evenodd" d="M33.8996 22.8937V22.1625L33.2996 21.6L29.8965 20.7L25.0027 20.2031L19.0965 20.5031L14.8965 21.4969L14.0527 22.125V22.8656L16.1996 21.9L21.2996 21.1031H26.2027L29.8027 21.4969L32.2965 22.0969L33.8996 22.8937Z" fill="#FFFF00"/>
<path fill-rule="evenodd" clip-rule="evenodd" d="M25.0011 20.1751C25.0025 20.175 25.004 20.175 25.0054 20.1752L29.8991 20.6721C29.9006 20.6722 29.9021 20.6725 29.9035 20.6729L33.3066 21.5729C33.3111 21.574 33.3153 21.5763 33.3187 21.5795L33.9186 22.142C33.9243 22.1473 33.9275 22.1548 33.9275 22.1625V22.8938C33.9275 22.9035 33.9225 22.9126 33.9142 22.9177C33.906 22.9228 33.8956 22.9233 33.8869 22.919L32.2866 22.1235L29.7977 21.5247L26.201 21.1313H21.3016L16.2075 21.9273L14.0641 22.8913C14.0554 22.8952 14.0453 22.8945 14.0373 22.8893C14.0293 22.8841 14.0244 22.8752 14.0244 22.8657V22.125C14.0244 22.1162 14.0286 22.1078 14.0357 22.1025L14.8795 21.4744C14.8826 21.4721 14.8861 21.4704 14.8898 21.4696L19.0898 20.4758C19.0915 20.4754 19.0932 20.4752 19.0949 20.4751L25.0011 20.1751ZM19.1003 20.5311L14.9084 21.523L14.0807 22.1392V22.8222L16.1879 21.8744C16.1902 21.8734 16.1926 21.8726 16.1951 21.8723L21.2951 21.0754C21.2965 21.0752 21.298 21.075 21.2994 21.075H26.2025C26.2029 21.075 26.2033 21.0751 26.2038 21.0751C26.2044 21.0751 26.205 21.0751 26.2056 21.0752L29.8056 21.469C29.8068 21.4691 29.808 21.4693 29.8091 21.4696L32.3029 22.0696C32.3049 22.0701 32.3069 22.0708 32.3088 22.0717L33.8713 22.8484V22.1747L33.2854 21.6254L29.8912 20.7278L25.0018 20.2314L19.1003 20.5311Z" fill="black"/>
<path fill-rule="evenodd" clip-rule="evenodd" d="M24 20.9812C26.3344 20.9812 28.5937 21.1969 30.4031 21.5437C32.2594 21.9187 33.5625 22.3875 34.0125 22.9031V23.1656C33.4687 22.5094 31.7156 22.0406 30.3562 21.7594C28.575 21.4219 26.325 21.1969 23.9906 21.1969C21.5437 21.1969 19.2563 21.4406 17.4938 21.7781C16.0875 22.0594 14.2031 22.6219 13.9688 23.1656V22.8937C14.0906 22.5187 15.4969 21.9562 17.4656 21.5531C19.2375 21.2062 21.525 20.9812 23.9906 20.9812H24ZM24 20.1281C26.1469 20.1238 28.2899 20.3121 30.4031 20.6906C32.2594 21.0656 33.5625 21.5344 34.0125 22.0594V22.3125C33.4687 21.6656 31.7156 21.1875 30.3562 20.9156C28.575 20.5687 26.325 20.3531 23.9906 20.3531C21.8148 20.3462 19.6431 20.5408 17.5031 20.9344C16.1437 21.1875 14.1844 21.7687 13.9688 22.3125V22.05C14.1 21.675 15.525 21.0844 17.4656 20.7094C19.2469 20.3625 21.525 20.1281 24 20.1281ZM23.9437 15.7969C27.6281 15.7781 30.8438 16.3125 32.3156 17.0625L32.85 18C31.575 17.3062 28.1062 16.5937 23.9531 16.6875C20.5688 16.7156 16.95 17.0625 15.1406 18.0375L15.7781 16.9687C17.2688 16.1906 20.775 15.7969 23.9437 15.7969Z" fill="#FFFF00"/>
<path fill-rule="evenodd" clip-rule="evenodd" d="M28.9549 16.1692C27.5081 15.9445 25.7846 15.8157 23.9437 15.825C23.9436 15.825 23.9436 15.825 23.9436 15.825M28.9549 16.1692C30.3974 16.3933 31.5627 16.7124 32.2952 17.0838L28.9549 16.1692ZM32.2952 17.0838L32.7778 17.9304C32.1189 17.5962 30.9655 17.2631 29.4852 17.0207C27.9378 16.7673 26.0307 16.6125 23.9525 16.6594C22.2596 16.6735 20.5076 16.7673 18.9523 16.9796C17.4472 17.185 16.1236 17.5018 15.2157 17.9663L15.798 16.9901C16.5395 16.6052 17.7812 16.314 19.2352 16.1189C20.6927 15.9234 22.3601 15.825 23.9434 15.825M23.9435 15.7688C22.3581 15.7688 20.6881 15.8673 19.2277 16.0632C17.7683 16.2589 16.5149 16.5524 15.7649 16.9439C15.7603 16.9463 15.7564 16.9499 15.7538 16.9544L15.1163 18.0231C15.1098 18.034 15.1114 18.0478 15.1201 18.057C15.1289 18.0661 15.1426 18.0683 15.1538 18.0623C16.0539 17.5773 17.4068 17.2473 18.9599 17.0353C20.5122 16.8234 22.2617 16.7297 23.9532 16.7157L23.9536 16.7157C26.0284 16.6688 27.9321 16.8234 29.4761 17.0762C31.0209 17.3292 32.2031 17.6802 32.8364 18.0247C32.8474 18.0308 32.8611 18.0287 32.8699 18.0197C32.8787 18.0108 32.8805 17.997 32.8742 17.9861L32.3399 17.0486C32.3371 17.0438 32.3331 17.04 32.3282 17.0375C31.5883 16.6605 30.413 16.3388 28.9635 16.1137C27.5134 15.8884 25.787 15.7594 23.9435 15.7688ZM30.3977 20.7183C28.2862 20.3401 26.145 20.152 23.9999 20.1563L23.9998 20.1282V20.1563C21.5265 20.1563 19.2501 20.3905 17.4708 20.737L17.4708 20.737C16.5017 20.9243 15.662 21.1653 15.0487 21.4059C14.742 21.5263 14.4927 21.6462 14.3123 21.7589C14.2221 21.8153 14.1498 21.8695 14.0963 21.9205C14.0444 21.97 14.0118 22.0151 13.9967 22.055V22.2062C14.0263 22.1657 14.0638 22.1258 14.1079 22.0866C14.1867 22.0164 14.288 21.9471 14.4066 21.879C14.6439 21.7429 14.9533 21.6107 15.2974 21.488C15.9858 21.2425 16.817 21.0335 17.4978 20.9068L17.4978 20.9068C19.6395 20.5129 21.813 20.3181 23.9905 20.325C26.3264 20.325 28.5782 20.5408 30.3614 20.8881L30.3616 20.8881C31.0419 21.0242 31.8214 21.2119 32.4992 21.4469C32.8382 21.5644 33.1522 21.6938 33.416 21.8348C33.65 21.9598 33.8457 22.0946 33.9842 22.2392V22.0699C33.7621 21.8159 33.3322 21.5722 32.7251 21.3451C32.113 21.1162 31.3249 20.9056 30.3977 20.7183ZM23.9997 20.1C26.1483 20.0957 28.293 20.2841 30.4079 20.663L30.4085 20.6631C31.3374 20.8508 32.1288 21.062 32.7448 21.2924C33.3596 21.5224 33.8037 21.7729 34.0337 22.0411C34.038 22.0462 34.0404 22.0527 34.0404 22.0594V22.3125C34.0404 22.3244 34.033 22.3349 34.0219 22.339C34.0108 22.343 33.9984 22.3397 33.9908 22.3306C33.8582 22.1729 33.6502 22.0237 33.3895 21.8844C33.1292 21.7453 32.8181 21.6169 32.4808 21.5001C31.8064 21.2663 31.0296 21.0791 30.3506 20.9433C28.5713 20.5968 26.3232 20.3813 23.9904 20.3813H23.9903C21.8163 20.3744 19.6462 20.5688 17.508 20.9621C16.8295 21.0884 16.0013 21.2967 15.3163 21.541C14.9737 21.6632 14.6678 21.7941 14.4346 21.9278C14.318 21.9947 14.2202 22.0619 14.1453 22.1286C14.0701 22.1955 14.0194 22.2606 13.9947 22.3229C13.9897 22.3355 13.9765 22.3427 13.9633 22.3402C13.95 22.3376 13.9404 22.326 13.9404 22.3125V22.05C13.9404 22.0469 13.941 22.0437 13.942 22.0407C13.9605 21.9879 14.0006 21.934 14.0575 21.8798C14.1146 21.8253 14.1903 21.7689 14.2825 21.7112C14.4669 21.596 14.7197 21.4746 15.0282 21.3535C15.6454 21.1114 16.4885 20.8695 17.4601 20.6818C19.2432 20.3346 21.5231 20.1 23.9997 20.1ZM23.9904 21.0094C21.5264 21.0094 19.2408 21.2343 17.471 21.5807C16.4877 21.7821 15.6456 22.0231 15.0346 22.2602C14.729 22.3789 14.482 22.4962 14.3044 22.6067C14.2155 22.6619 14.1446 22.7151 14.0926 22.7653C14.042 22.8141 14.0107 22.8587 13.9967 22.8984V23.0625C14.08 22.9498 14.2237 22.8401 14.4064 22.7347C14.64 22.5999 14.9432 22.4692 15.2821 22.347C15.9599 22.1027 16.784 21.8914 17.488 21.7506L17.4883 21.7505C19.2525 21.4127 21.5418 21.1688 23.9904 21.1688C26.3265 21.1688 28.5782 21.3939 30.3613 21.7318L30.3618 21.7319C31.0419 21.8726 31.8214 22.0604 32.4992 22.2953C32.8382 22.4128 33.1523 22.5423 33.4161 22.6839C33.65 22.8094 33.8457 22.9451 33.9842 23.0916V22.9138C33.762 22.6644 33.3321 22.423 32.7251 22.1971C32.113 21.9693 31.3248 21.7587 30.3975 21.5714C28.5901 21.2249 26.3326 21.0094 23.9998 21.0094H23.9904ZM17.46 21.5256C19.2339 21.1783 21.5232 20.9532 23.9904 20.9532H23.9998C26.3358 20.9532 28.5969 21.1689 30.4082 21.5162L30.4085 21.5162C31.3374 21.7039 32.1288 21.9152 32.7448 22.1444C33.3596 22.3732 33.8036 22.6212 34.0335 22.8847C34.038 22.8898 34.0404 22.8964 34.0404 22.9032V23.1657C34.0404 23.1775 34.033 23.1881 34.0218 23.1921C34.0107 23.1961 33.9982 23.1927 33.9906 23.1836C33.858 23.0236 33.6501 22.8733 33.3895 22.7334C33.1292 22.5937 32.8181 22.4654 32.4808 22.3485C31.8064 22.1147 31.0297 21.9275 30.3506 21.787C28.5712 21.4499 26.323 21.225 23.9904 21.225C21.5453 21.225 19.2597 21.4686 17.4989 21.8058C16.7968 21.9462 15.9756 22.1568 15.3011 22.3999C14.9638 22.5215 14.6641 22.651 14.4345 22.7834C14.2034 22.9167 14.0491 23.0499 13.9944 23.1768C13.9891 23.1891 13.9759 23.1959 13.9629 23.1932C13.9498 23.1905 13.9404 23.179 13.9404 23.1657V22.8938C13.9404 22.8908 13.9409 22.8879 13.9418 22.8851C13.959 22.832 13.9979 22.7784 14.0535 22.7248C14.1094 22.6709 14.1838 22.6154 14.2747 22.5589C14.4564 22.4459 14.7069 22.3271 15.0142 22.2078C15.629 21.9692 16.4744 21.7274 17.4598 21.5256L17.46 21.5256Z" fill="black"/>
<path fill-rule="evenodd" clip-rule="evenodd" d="M24.0002 16.5657C25.9239 16.5332 27.8468 16.6681 29.7471 16.9688C31.2471 17.2501 32.6814 17.6626 32.8877 17.8876L33.0471 18.1688C32.5502 17.8501 31.3033 17.4844 29.7096 17.1844C28.1158 16.8844 26.0814 16.7813 23.9908 16.7907C21.6189 16.7813 19.7721 16.9032 18.1971 17.1844C17.1113 17.3366 16.0572 17.6626 15.0752 18.1501L15.2346 17.8594C15.7971 17.5782 16.6689 17.2313 18.1502 16.9594C19.7908 16.6594 21.6564 16.5751 24.0002 16.5657ZM24.0002 15.7219C26.0064 15.7032 27.9939 15.8157 29.5408 16.0969C30.543 16.2457 31.5129 16.5627 32.4096 17.0344L32.6439 17.4094C32.2502 16.9688 30.7689 16.5469 29.4471 16.3219C27.9096 16.0501 26.0064 15.9469 24.0002 15.9282C22.1326 15.9115 20.2669 16.0495 18.4221 16.3407C17.4575 16.4751 16.5206 16.7631 15.6471 17.1938L15.8533 16.8844C16.3971 16.6032 17.2783 16.3407 18.3846 16.1251C20.2415 15.8301 22.1201 15.6921 24.0002 15.7126V15.7219ZM28.9127 26.6251C27.2877 26.3437 25.6396 26.2182 23.9908 26.2501C17.8502 26.3251 15.8721 27.5157 15.6283 27.8719L15.1596 27.1219C16.7346 25.9969 20.0721 25.3594 24.0283 25.4157C26.0814 25.4532 27.8533 25.5938 29.3346 25.8844L28.9127 26.6344" fill="#FFFF00"/>
<path fill-rule="evenodd" clip-rule="evenodd" d="M18.3893 16.1527C17.2884 16.3673 16.4131 16.6279 15.8725 16.906L15.7277 17.1232C16.5771 16.7163 17.4845 16.4429 18.4177 16.3128C20.264 16.0214 22.1312 15.8833 24.0003 15.9L24.0003 15.9C26.007 15.9187 27.9119 16.0219 29.4517 16.2941C30.1136 16.4068 30.8157 16.5688 31.402 16.758C31.6951 16.8526 31.9599 16.9541 32.1764 17.0599C32.3088 17.1247 32.4242 17.1914 32.5171 17.2598L32.3896 17.0557C31.4976 16.5874 30.5331 16.2726 29.5365 16.1247L29.5356 16.1245L29.5356 16.1245C27.9911 15.8437 26.0056 15.7312 24.0003 15.75C23.9928 15.7501 23.9855 15.7471 23.9802 15.7418C23.9797 15.7414 23.9793 15.7409 23.9788 15.7404C22.1074 15.7212 20.2377 15.8591 18.3893 16.1527ZM24.0208 15.6935C24.0157 15.688 24.0084 15.6844 24.0003 15.6844C22.1186 15.6639 20.2385 15.802 18.38 16.0972L18.38 16.0972L18.379 16.0974C17.272 16.3131 16.3876 16.5763 15.8402 16.8594C15.836 16.8616 15.8324 16.8648 15.8297 16.8688L15.6235 17.1781C15.6164 17.1887 15.6173 17.2027 15.6257 17.2123C15.6341 17.2218 15.6479 17.2246 15.6593 17.219C16.5301 16.7896 17.4641 16.5025 18.4258 16.3685L18.4258 16.3685L18.4263 16.3684C20.2695 16.0775 22.1337 15.9396 23.9997 15.9562C26.0055 15.975 27.9068 16.0781 29.442 16.3496L29.4422 16.3496C30.1021 16.4619 30.8015 16.6234 31.3847 16.8115C31.6763 16.9056 31.9384 17.0062 32.1517 17.1105C32.3656 17.215 32.528 17.3221 32.6228 17.4281C32.6325 17.439 32.649 17.4406 32.6606 17.4319C32.6723 17.4231 32.6753 17.4068 32.6676 17.3945L32.4332 17.0195C32.4306 17.0152 32.4269 17.0118 32.4225 17.0095C31.5231 16.5363 30.5504 16.2184 29.5452 16.0691C28.0014 15.7885 26.0206 15.6758 24.0208 15.6935ZM29.7421 16.9965C27.8435 16.696 25.9224 16.5613 24.0005 16.5937L24 16.5656L24.0001 16.5937C21.6567 16.6031 19.7931 16.6875 18.1551 16.987C16.6832 17.2572 15.8151 17.6013 15.2548 17.8806L15.1424 18.0856C16.1042 17.6186 17.1333 17.3051 18.1924 17.1566C19.7696 16.875 21.6181 16.7531 23.9906 16.7625C26.0818 16.7531 28.1182 16.8562 29.7146 17.1567C30.5121 17.3068 31.2232 17.4735 31.7974 17.6425C32.3063 17.7924 32.7096 17.9447 32.97 18.0901L32.8647 17.9042C32.8417 17.8802 32.8009 17.8517 32.7415 17.8197C32.6809 17.787 32.6032 17.7518 32.5103 17.7147C32.3245 17.6404 32.08 17.5593 31.7945 17.4762C31.2237 17.3101 30.4912 17.1369 29.7421 16.9965ZM23.9997 16.5375C21.6557 16.5469 19.7881 16.6312 18.1449 16.9317L18.1449 16.9317C16.6612 17.204 15.7868 17.5517 15.2218 17.8342C15.2167 17.8368 15.2125 17.8408 15.2097 17.8458L15.0503 18.1365C15.0444 18.1472 15.0462 18.1606 15.0547 18.1695C15.0632 18.1783 15.0765 18.1806 15.0875 18.1752C16.0668 17.6891 17.118 17.364 18.2008 17.2122L18.2008 17.2122L18.2018 17.212C19.7745 16.9312 21.6195 16.8094 23.9905 16.8187H23.9908C26.0807 16.8094 28.113 16.9125 29.7042 17.212C30.5004 17.3619 31.2096 17.5281 31.7815 17.6965C32.3542 17.8651 32.7868 18.0353 33.0317 18.1924C33.0426 18.1994 33.0568 18.198 33.0662 18.1892C33.0756 18.1803 33.0777 18.1661 33.0713 18.1549L32.912 17.8736C32.9109 17.8718 32.9097 17.87 32.9082 17.8685C32.8792 17.8368 32.8308 17.8039 32.7682 17.7702C32.705 17.7361 32.6252 17.7 32.5311 17.6624C32.3431 17.5873 32.0966 17.5055 31.8102 17.4222C31.2373 17.2555 30.5028 17.0819 29.7521 16.9411L29.7521 16.9411L29.7513 16.941C27.8494 16.64 25.925 16.505 23.9997 16.5375ZM15.1973 27.1294L15.6306 27.8227C15.7103 27.7288 15.8796 27.599 16.1612 27.4537C16.479 27.2897 16.9429 27.1045 17.5907 26.9283C18.8861 26.576 20.9183 26.2594 23.9902 26.2219C23.9903 26.2219 23.9903 26.2219 23.9903 26.2219L23.9906 26.25L23.9901 26.2219C23.9901 26.2219 23.9902 26.2219 23.9902 26.2219C25.6358 26.19 27.2806 26.3149 28.9025 26.5947L28.888 26.6206C28.8827 26.6299 28.8834 26.641 28.8887 26.6494C27.2717 26.3707 25.6318 26.2464 23.9912 26.2781L23.991 26.2781C20.9223 26.3156 18.8951 26.6318 17.6054 26.9826C16.9606 27.158 16.5005 27.3419 16.187 27.5037C15.8722 27.6661 15.7081 27.8047 15.6513 27.8877C15.646 27.8956 15.637 27.9002 15.6275 27.9C15.6181 27.8998 15.6093 27.8948 15.6043 27.8868L15.1355 27.1368C15.1276 27.1242 15.1309 27.1076 15.143 27.099C15.9353 26.533 17.1681 26.0914 18.6955 25.7981C20.2235 25.5047 22.0489 25.3593 24.0285 25.3875L24.0286 25.3875C26.0826 25.425 27.8563 25.5657 29.3398 25.8568C29.3486 25.8585 29.3561 25.8644 29.3599 25.8726C29.3637 25.8808 29.3633 25.8903 29.3589 25.8981L28.937 26.6481C28.9294 26.6617 28.9122 26.6665 28.8987 26.6589C28.8945 26.6565 28.8912 26.6532 28.8887 26.6494M29.2908 25.9045L28.9025 26.5947L29.2908 25.9045ZM29.2908 25.9045C29.3035 25.907 29.3163 25.9095 29.329 25.912L29.3344 25.8844L29.3099 25.8706L29.2908 25.9045ZM29.2908 25.9045C27.8196 25.6194 26.0624 25.4809 24.0277 25.4437L24.0281 25.4156L24.0276 25.4437C24.0276 25.4437 24.0277 25.4437 24.0277 25.4437C22.0511 25.4156 20.2296 25.5608 18.7061 25.8534C17.1958 26.1434 15.9808 26.5777 15.1973 27.1294" fill="black"/>
<path fill-rule="evenodd" clip-rule="evenodd" d="M23.9621 26.1468C25.6684 26.1749 27.3371 26.2406 28.959 26.5406L28.8465 26.7468C27.3465 26.4656 25.734 26.3718 23.9715 26.3718C21.6934 26.3531 19.4059 26.5687 17.409 27.1406C16.7809 27.3187 15.7402 27.7218 15.6277 28.0593L15.5152 27.8718C15.5527 27.6656 16.1715 27.2531 17.3527 26.9343C19.6402 26.2781 21.7777 26.1562 23.9621 26.1468ZM24.0371 25.2843C25.838 25.2825 27.6356 25.4393 29.409 25.7531L29.2871 25.9687C27.5554 25.651 25.7977 25.4972 24.0371 25.5093C21.7684 25.5093 19.359 25.6781 17.1652 26.3156C16.4621 26.5218 15.234 26.9718 15.1965 27.3187L15.084 27.1124C15.1027 26.7937 16.1621 26.3718 17.1184 26.0999C19.3215 25.4531 21.7402 25.2937 24.0371 25.2843Z" fill="#FFFF00"/>
<path fill-rule="evenodd" clip-rule="evenodd" d="M29.3647 25.7739C27.6057 25.4651 25.823 25.3107 24.037 25.3125C21.741 25.3219 19.3254 25.4812 17.1261 26.127L17.1259 26.127C16.6485 26.2628 16.1461 26.4357 15.7612 26.6142C15.5687 26.7035 15.4067 26.7936 15.2921 26.8805C15.2348 26.9239 15.1903 26.9659 15.1597 27.0057C15.1314 27.0426 15.1162 27.0762 15.1126 27.1065L15.1887 27.2461C15.2015 27.2191 15.2194 27.1925 15.2413 27.1664C15.2819 27.1181 15.3377 27.0697 15.4045 27.0218C15.538 26.9261 15.7189 26.83 15.9194 26.7388C16.3206 26.5565 16.8048 26.392 17.1571 26.2886L17.1572 26.2886C19.3546 25.65 21.767 25.4812 24.0368 25.4812C25.7924 25.4692 27.5453 25.6219 29.2723 25.9375L29.3647 25.7739ZM24.0369 25.2844L24.0369 25.2562C25.8395 25.2544 27.6387 25.4114 29.4137 25.7254C29.4227 25.727 29.4303 25.7329 29.4342 25.7411C29.4381 25.7494 29.4378 25.759 29.4333 25.767L29.3114 25.9826C29.3055 25.993 29.2936 25.9986 29.2818 25.9964C27.5519 25.6791 25.7959 25.5254 24.0371 25.5375L24.0369 25.5375C21.7693 25.5375 19.3629 25.7062 17.1729 26.3426C16.8221 26.4455 16.3407 26.6091 15.9427 26.79C15.7436 26.8806 15.5665 26.9749 15.4372 27.0675C15.3726 27.1139 15.3208 27.1591 15.2844 27.2026C15.2477 27.2463 15.2281 27.2861 15.2243 27.3218C15.2229 27.334 15.2138 27.3439 15.2018 27.3463C15.1897 27.3487 15.1775 27.343 15.1716 27.3322L15.0591 27.126C15.0566 27.1213 15.0554 27.1161 15.0557 27.1108C15.0585 27.0634 15.0804 27.0167 15.115 26.9715C15.1497 26.9262 15.1985 26.8808 15.2581 26.8356C15.3773 26.7453 15.5435 26.6532 15.7376 26.5631C16.1261 26.383 16.6315 26.2091 17.1104 26.073C19.3173 25.425 21.7391 25.2656 24.0368 25.2562L24.0369 25.2844ZM23.9624 26.1187V26.1187C25.6688 26.1469 27.3396 26.2125 28.9639 26.513C28.9728 26.5146 28.9803 26.5204 28.9842 26.5285C28.9881 26.5367 28.9878 26.5462 28.9835 26.5541L28.871 26.7603C28.8651 26.771 28.8531 26.7768 28.8411 26.7745C27.3435 26.4937 25.7329 26.4 23.9713 26.4L23.9711 26.4C21.6946 26.3813 19.41 26.5968 17.4165 27.1677L17.4165 27.1677C17.1035 27.2564 16.6878 27.4012 16.3367 27.5657C16.1611 27.6479 16.0026 27.7347 15.8813 27.8214C15.7588 27.9089 15.6793 27.993 15.6542 28.0683C15.6507 28.0787 15.6415 28.0861 15.6306 28.0873C15.6197 28.0885 15.6091 28.0833 15.6034 28.0738L15.4909 27.8863C15.4874 27.8805 15.4861 27.8735 15.4874 27.8668C15.4985 27.8054 15.5506 27.7356 15.6332 27.6622C15.717 27.5877 15.8367 27.5057 15.9913 27.4207C16.3008 27.2506 16.7529 27.0671 17.345 26.9073C19.6361 26.25 21.7766 26.1281 23.9618 26.1187L23.9624 26.1187ZM23.9617 26.175C21.7784 26.1844 19.644 26.3062 17.3603 26.9614L17.3599 26.9615L17.3599 26.9615C16.7708 27.1205 16.323 27.3025 16.0184 27.4699C15.8661 27.5537 15.7502 27.6334 15.6705 27.7042C15.5958 27.7707 15.5565 27.8262 15.545 27.8671L15.6241 27.999C15.6672 27.923 15.7476 27.8478 15.8486 27.7756C15.9738 27.6862 16.1357 27.5977 16.3129 27.5148C16.6673 27.3487 17.0859 27.2029 17.4011 27.1136C19.4013 26.5407 21.6916 26.325 23.9714 26.3437C25.7269 26.3437 27.3347 26.4367 28.8314 26.7155L28.9155 26.5613C27.3082 26.2677 25.6543 26.2029 23.9617 26.175Z" fill="black"/>
<path fill-rule="evenodd" clip-rule="evenodd" d="M32.7564 27.2343L32.0252 28.3874L29.8971 26.5031L24.4033 22.8L18.1971 19.3968L14.9814 18.3L15.6658 17.025L15.9002 16.9031L17.8971 17.4L24.4971 20.8031L28.3033 23.2031L31.5002 25.5L32.8033 27L32.7564 27.2343Z" fill="#FFFF00"/>
<path fill-rule="evenodd" clip-rule="evenodd" d="M15.887 16.8782C15.8931 16.875 15.9001 16.8742 15.9068 16.8758L17.9037 17.3727C17.9058 17.3732 17.9078 17.374 17.9098 17.375L24.5098 20.7781C24.5105 20.7785 24.5112 20.7789 24.5119 20.7793L28.3181 23.1793C28.3186 23.1796 28.3191 23.18 28.3195 23.1803L31.5164 25.4772C31.5182 25.4784 31.5198 25.4799 31.5212 25.4816L32.8244 26.9816C32.8301 26.9881 32.8324 26.997 32.8307 27.0055L32.7838 27.2399C32.7831 27.2433 32.7819 27.2465 32.78 27.2494L32.0488 28.4026C32.0443 28.4095 32.0371 28.4142 32.0289 28.4153C32.0208 28.4165 32.0125 28.414 32.0064 28.4086L29.8796 26.5254L24.3885 22.824L18.1855 19.4227L14.9722 18.3266C14.9644 18.324 14.9581 18.318 14.9551 18.3103C14.9521 18.3026 14.9526 18.294 14.9565 18.2867L15.6408 17.0117C15.6435 17.0067 15.6476 17.0027 15.6526 17L15.887 16.8782ZM15.9035 16.933L15.6863 17.0459L15.0217 18.2841L18.206 19.3703C18.2075 19.3708 18.209 19.3714 18.2104 19.3722L24.4166 22.7753C24.4174 22.7758 24.4181 22.7762 24.4188 22.7767L29.9126 26.4798C29.9136 26.4805 29.9146 26.4813 29.9155 26.4821L32.0189 28.3446L32.7297 27.2237L32.7728 27.008L31.4809 25.5209L28.2874 23.2265L24.4829 20.8276L17.8869 17.4265L15.9035 16.933Z" fill="black"/>
<path fill-rule="evenodd" clip-rule="evenodd" d="M14.8689 18.3281C15.4314 17.9531 19.5752 19.7906 23.9252 22.4156C28.2471 25.0406 32.3908 28.0031 32.0158 28.5563L31.8939 28.7531L31.8377 28.8C31.8471 28.7906 31.9127 28.7063 31.8377 28.5094C31.6502 27.9 28.7064 25.5563 23.8408 22.6125C19.0877 19.7906 15.1314 18.0844 14.7471 18.5719L14.8689 18.3281ZM32.9064 27.225C33.2627 26.5125 29.4189 23.6156 24.6471 20.7938C19.7721 18.0281 16.2471 16.3969 15.6002 16.8844L15.4689 17.1563C15.4689 17.1656 15.4689 17.1375 15.5064 17.1094C15.6189 17.0156 15.8158 17.0156 15.9002 17.0156C17.0064 17.0344 20.1658 18.4875 24.6002 21.0281C26.5502 22.1531 32.8127 26.1844 32.7846 27.3094C32.7846 27.4031 32.7939 27.4219 32.7564 27.4781L32.9158 27.2344L32.9064 27.225Z" fill="#FFFF00"/>
<path fill-rule="evenodd" clip-rule="evenodd" d="M18.5492 17.5934C20.122 18.2865 22.223 19.3863 24.6608 20.7692L24.6612 20.7695C27.0478 22.1808 29.2027 23.6111 30.7168 24.7781C31.4737 25.3614 32.0713 25.8796 32.4577 26.2972C32.6508 26.5059 32.7923 26.6906 32.8743 26.8467C32.9508 26.9923 32.9791 27.1199 32.9395 27.2194C32.9452 27.2286 32.9453 27.2404 32.9392 27.2497L32.7833 27.488C32.7822 27.4899 32.7809 27.4918 32.7797 27.4937C32.7711 27.5066 32.7537 27.5101 32.7408 27.5015C32.7278 27.493 32.7242 27.4756 32.7327 27.4627L32.7328 27.4625C32.734 27.4608 32.7351 27.4591 32.7361 27.4575C32.7504 27.4351 32.7547 27.4215 32.7564 27.405C32.7574 27.3951 32.7574 27.3836 32.7571 27.3678C32.7568 27.3524 32.7563 27.3331 32.7563 27.3093L32.7563 27.3086C32.7579 27.2446 32.737 27.1676 32.6933 27.0781C32.6496 26.9889 32.5841 26.889 32.4986 26.7799C32.3277 26.5616 32.0791 26.3087 31.7728 26.0323C31.1604 25.4797 30.3203 24.8359 29.4176 24.1916C27.6125 22.9031 25.5602 21.6145 24.586 21.0524C22.3692 19.7824 20.4716 18.7844 18.9902 18.1017C18.2495 17.7603 17.6132 17.4979 17.0934 17.3198C16.573 17.1414 16.1717 17.0484 15.8998 17.0437C15.8575 17.0437 15.7893 17.0438 15.7181 17.0551C15.6462 17.0665 15.5748 17.0888 15.5243 17.1309C15.5239 17.1312 15.5235 17.1315 15.5231 17.1318C15.5082 17.143 15.5015 17.1536 15.4986 17.1594C15.4971 17.1623 15.4965 17.1643 15.496 17.1656C15.496 17.1658 15.4956 17.167 15.4952 17.168C15.4951 17.1683 15.4942 17.1707 15.4926 17.1732C15.492 17.1741 15.4889 17.1789 15.483 17.1824C15.4793 17.1845 15.4732 17.1868 15.4656 17.186C15.4579 17.1851 15.4523 17.1813 15.4489 17.1779C15.4436 17.1726 15.442 17.1666 15.4417 17.1656C15.4417 17.1655 15.4417 17.1655 15.4417 17.1655C15.4412 17.1635 15.441 17.162 15.4409 17.1613C15.4407 17.1599 15.4407 17.1587 15.4407 17.1584C15.4406 17.1575 15.4406 17.1566 15.4406 17.1562C15.4406 17.152 15.4416 17.1478 15.4434 17.144L15.5747 16.8721C15.5766 16.8681 15.5795 16.8646 15.5831 16.8619C15.6715 16.7953 15.805 16.7674 15.9751 16.7708C16.1459 16.7742 16.3581 16.8093 16.6079 16.8733C17.1077 17.0015 17.763 17.2468 18.5492 17.5934ZM32.8128 27.3402L32.8806 27.2365C32.8772 27.2289 32.8772 27.2201 32.8811 27.2124C32.9192 27.1362 32.9039 27.0241 32.8245 26.8729C32.7458 26.7231 32.6082 26.5426 32.4164 26.3354C32.0332 25.9213 31.4384 25.4053 30.6824 24.8226C29.1708 23.6576 27.018 22.2286 24.6328 20.818C22.1957 19.4354 20.0967 18.3368 18.5266 17.6448C17.7413 17.2988 17.0893 17.0548 16.5939 16.9278C16.3462 16.8643 16.1387 16.8303 15.9739 16.827C15.8124 16.8238 15.696 16.8502 15.6223 16.9028L15.5531 17.0461C15.6026 17.0217 15.6577 17.0077 15.7093 16.9995C15.7853 16.9874 15.8574 16.9874 15.8996 16.9874H15.9005C16.1817 16.9922 16.59 17.0878 17.1116 17.2666C17.6339 17.4455 18.272 17.7087 19.0137 18.0506C20.4972 18.7343 22.3964 19.7331 24.614 21.0037C25.5898 21.5666 27.6437 22.8562 29.4503 24.1458C30.3536 24.7906 31.1957 25.4358 31.8105 25.9906C32.1178 26.2679 32.3691 26.5233 32.5429 26.7452C32.6298 26.8562 32.6978 26.9594 32.7438 27.0534C32.7895 27.1469 32.8143 27.2332 32.8125 27.3097C32.8125 27.3209 32.8126 27.3309 32.8128 27.3402ZM14.8904 18.3476L14.8196 18.4892C14.8302 18.4853 14.8413 18.4817 14.8529 18.4787C14.9078 18.4641 14.9753 18.4588 15.054 18.4616C15.2114 18.4673 15.4185 18.5056 15.6689 18.5735C16.1701 18.7096 16.8507 18.966 17.6668 19.3254C19.2994 20.0443 21.4777 21.1769 23.855 22.5883L23.8552 22.5884C26.2886 24.0606 28.2418 25.383 29.6103 26.4138C30.2945 26.9292 30.8329 27.3719 31.2123 27.7242C31.4019 27.9003 31.5522 28.0542 31.6611 28.1836C31.769 28.3117 31.8387 28.4183 31.8641 28.5002C31.8936 28.5778 31.9024 28.6398 31.901 28.688L31.9923 28.5404C32.0102 28.514 32.0163 28.4784 32.0065 28.4306C31.9966 28.3824 31.971 28.3241 31.929 28.256C31.8449 28.1198 31.6988 27.9503 31.4977 27.7526C31.0958 27.3574 30.4792 26.8541 29.7149 26.2854C28.1865 25.1482 26.0709 23.7518 23.9104 22.4396C21.7362 21.1276 19.6138 20.0126 17.965 19.2725C17.1406 18.9024 16.4352 18.6264 15.9013 18.4663C15.6343 18.3863 15.4111 18.3355 15.2379 18.3163C15.1513 18.3067 15.0779 18.3051 15.0183 18.3113C14.9623 18.3172 14.9201 18.3297 14.8904 18.3476ZM14.8688 18.3281L14.8532 18.3047C14.8936 18.2777 14.9478 18.2621 15.0124 18.2554C15.0774 18.2486 15.155 18.2505 15.2441 18.2604C15.4221 18.2802 15.6489 18.332 15.9175 18.4125C16.4547 18.5735 17.1626 18.8506 17.9881 19.2212C19.6393 19.9623 21.7637 21.0785 23.9395 22.3915C26.1009 23.7043 28.2182 25.1017 29.7484 26.2403C30.5134 26.8095 31.1325 27.3146 31.5372 27.7125C31.7393 27.9112 31.8892 28.0845 31.9768 28.2264C32.0206 28.2974 32.0499 28.362 32.0616 28.4193C32.0734 28.4767 32.0679 28.5288 32.0393 28.5715L31.9177 28.7679C31.9161 28.7704 31.9141 28.7727 31.9118 28.7747L31.8555 28.8216C31.844 28.8312 31.8269 28.83 31.8167 28.8189C31.8066 28.8078 31.807 28.7907 31.8176 28.7801C31.8178 28.7798 31.8219 28.7753 31.827 28.7655C31.832 28.7556 31.8378 28.7407 31.8414 28.7201C31.8486 28.6791 31.8472 28.6139 31.8112 28.5193C31.811 28.5188 31.8108 28.5182 31.8106 28.5176C31.789 28.4472 31.7257 28.3476 31.6181 28.2198C31.5112 28.0929 31.3627 27.9407 31.174 27.7654C30.7966 27.4149 30.2598 26.9735 29.5764 26.4587C28.2098 25.4294 26.2583 24.1081 23.8262 22.6366C21.4503 21.2261 19.2741 20.0946 17.6441 19.3769C16.829 19.0179 16.1514 18.7628 15.6542 18.6278C15.4054 18.5603 15.2031 18.5232 15.052 18.5178C14.9765 18.5151 14.915 18.5204 14.8673 18.533C14.8197 18.5457 14.788 18.5651 14.769 18.5892C14.76 18.6006 14.744 18.6033 14.7318 18.5956C14.7196 18.5878 14.7153 18.5721 14.7217 18.5592L14.8436 18.3155L14.8688 18.3281Z" fill="black"/>
<path d="M18.0605 23.6031C18.062 24.3794 18.2175 25.1476 18.5179 25.8634C18.8182 26.5792 19.2576 27.2283 19.8106 27.7731C20.3567 28.3277 21.0073 28.7688 21.7247 29.0708C22.4421 29.3729 23.2122 29.53 23.9906 29.5331C25.5659 29.533 27.0767 28.9071 28.1906 27.7931C28.7416 27.2453 29.1789 26.594 29.4775 25.8767C29.7761 25.1594 29.9301 24.3901 29.9306 23.6131V15.6931L18.0605 15.6731V23.6031Z" fill="white"/>
<path fill-rule="evenodd" clip-rule="evenodd" d="M18.0254 15.6381L29.9654 15.6582V23.6131C29.9649 24.3947 29.81 25.1686 29.5097 25.8902C29.2093 26.6117 28.7694 27.2669 28.2151 27.8179C28.2151 27.818 28.2151 27.8179 28.2151 27.8179M19.7857 27.7979C20.335 28.3557 20.9894 28.7993 21.7109 29.1031C22.4326 29.407 23.2073 29.565 23.9903 29.5682H23.9904C25.575 29.568 27.0947 28.9385 28.2151 27.8179M19.7857 27.7979C19.2295 27.2499 18.7876 26.597 18.4854 25.877C18.1832 25.1569 18.0269 24.3841 18.0254 23.6032L18.0254 15.6381M18.0954 23.6031C18.0969 24.3747 18.2514 25.1384 18.55 25.8499C18.8486 26.5614 19.2853 27.2066 19.835 27.7482L19.8353 27.7486C20.3783 28.2999 21.025 28.7383 21.7381 29.0386C22.4513 29.3389 23.2168 29.4951 23.9905 29.4982C25.5566 29.498 27.0584 28.8758 28.1657 27.7684L28.1657 27.7683C28.7135 27.2237 29.1482 26.5763 29.445 25.8633C29.7419 25.1502 29.8949 24.3855 29.8954 23.6131V15.7281L18.0954 15.7082V23.6031Z" fill="black"/>
<path d="M18.2803 23.6131C18.2824 24.3578 18.4319 25.0946 18.7203 25.7811C19.0086 26.4677 19.4301 27.0903 19.9603 27.6131C21.0249 28.6834 22.4707 29.2876 23.9803 29.2931C25.4872 29.294 26.933 28.697 28.0003 27.6331C28.5287 27.1095 28.9483 26.4865 29.2349 25.8C29.5215 25.1135 29.6695 24.3771 29.6703 23.6331V15.9331H18.3003V23.6131M27.4003 18.2431V23.1331L27.3903 23.6431C27.3937 24.0899 27.3068 24.5327 27.135 24.9451C26.9632 25.3575 26.7099 25.731 26.3903 26.0431C25.7544 26.6813 24.8912 27.0409 23.9903 27.0431C23.0503 27.0431 22.2203 26.6431 21.6003 26.0231C20.9621 25.3872 20.6025 24.524 20.6003 23.6231V18.2231L27.4003 18.2431Z" fill="#FF0000"/>
<path fill-rule="evenodd" clip-rule="evenodd" d="M18.2759 15.9081H29.6959V23.6331C29.6951 24.3803 29.5465 25.12 29.2586 25.8096C28.9707 26.4991 28.5493 27.1249 28.0185 27.6508C26.9465 28.7193 25.4944 29.319 23.9809 29.3181C22.4647 29.3125 21.0125 28.7057 19.9432 27.6308C19.4107 27.1057 18.9874 26.4803 18.6978 25.7908C18.4082 25.1012 18.258 24.3611 18.2559 23.6132L18.2809 23.6131H18.2759V15.9081ZM18.3059 23.6131C18.308 24.3544 18.4568 25.088 18.7439 25.7714C19.031 26.4549 19.4505 27.0748 19.9784 27.5953L19.9786 27.5955C21.0386 28.661 22.478 29.2626 23.981 29.2681C25.4813 29.2689 26.9206 28.6746 27.9832 27.6154C28.5093 27.0941 28.9271 26.4738 29.2124 25.7903C29.4978 25.1069 29.6451 24.3737 29.6459 23.6331V15.9581H18.3259V23.6131H18.3059ZM20.5759 18.198L27.4259 18.2182V23.1331L27.4259 23.1336L27.4159 23.6429C27.4159 23.643 27.4159 23.6431 27.4159 23.6432C27.4192 24.0932 27.3318 24.5393 27.1587 24.9547C26.9856 25.3701 26.7304 25.7464 26.4085 26.0609C25.7679 26.7036 24.8984 27.0659 23.9909 27.0681C23.0435 27.0681 22.2073 26.6649 21.5832 26.0408C20.9404 25.4002 20.5781 24.5307 20.5759 23.6232V18.198ZM20.6259 18.2482V23.623C20.6281 24.5173 20.9851 25.3742 21.6185 26.0054C22.2344 26.6213 23.0583 27.0181 23.9908 27.0181C24.8851 27.0159 25.7419 26.6589 26.3732 26.0255L26.3734 26.0252C26.6906 25.7154 26.942 25.3447 27.1125 24.9355C27.2831 24.5262 27.3692 24.0867 27.3659 23.6433L27.3659 23.6426L27.3759 23.1331V18.268L20.6259 18.2482Z" fill="black"/>
<path d="M19.0205 17.9432C19.0305 17.3932 19.4205 17.2632 19.4205 17.2632C19.4305 17.2632 19.8505 17.4032 19.8505 17.9532H19.0205" fill="#FFFF00"/>
<path d="M18.6805 17.2732L18.6105 17.9032H19.0305C19.0305 17.3832 19.4305 17.3032 19.4305 17.3032C19.4405 17.3032 19.8305 17.4132 19.8405 17.9032H20.2605L20.1805 17.2632H18.6805V17.2732ZM18.5805 17.9132H20.2805C20.3105 17.9132 20.3405 17.9432 20.3405 17.9832C20.3405 18.0332 20.3105 18.0632 20.2805 18.0632H18.5805C18.5505 18.0632 18.5205 18.0332 18.5205 17.9832C18.5205 17.9432 18.5505 17.9132 18.5905 17.9132H18.5805Z" fill="#FFFF00"/>
<path fill-rule="evenodd" clip-rule="evenodd" d="M18.6551 17.2382H20.2022L20.2835 17.8882C20.3282 17.8903 20.3651 17.9331 20.3651 17.9832C20.3651 18.042 20.3284 18.0882 20.2801 18.0882H18.5801C18.5319 18.0882 18.4951 18.042 18.4951 17.9832C18.4951 17.9327 18.5313 17.8934 18.5801 17.8886V17.8882H18.5866L18.6551 17.2718V17.2382ZM18.7036 17.2882L18.6381 17.8782H19.0054C19.0116 17.6259 19.1117 17.476 19.2139 17.3891C19.2663 17.3446 19.3187 17.3171 19.358 17.3007C19.3706 17.2955 19.3819 17.2913 19.3914 17.2882H18.7036ZM19.4301 17.3032C19.4288 17.2965 19.4278 17.2917 19.4271 17.2882L19.4301 17.3032ZM19.4667 17.2882C19.478 17.2923 19.4919 17.298 19.5077 17.3054C19.5475 17.3242 19.5996 17.3545 19.6517 17.4007C19.7531 17.4907 19.8532 17.6399 19.8643 17.8782H20.2318L20.1581 17.2882H19.4667ZM19.8147 17.8882C19.806 17.6599 19.7117 17.5208 19.6185 17.4381C19.5706 17.3956 19.5227 17.3678 19.4863 17.3506C19.4681 17.342 19.4529 17.3362 19.4421 17.3325C19.4371 17.3308 19.4331 17.3296 19.4303 17.3288C19.4277 17.3294 19.4243 17.3303 19.42 17.3316C19.4098 17.3346 19.395 17.3394 19.3772 17.3469C19.3416 17.3617 19.2939 17.3867 19.2463 17.4272C19.1537 17.5059 19.059 17.6449 19.0552 17.8882H19.8147ZM18.5901 17.9382C18.5639 17.9382 18.5451 17.957 18.5451 17.9832C18.5451 18.0243 18.5684 18.0382 18.5801 18.0382H20.2801C20.2919 18.0382 20.3151 18.0243 20.3151 17.9832C20.3151 17.9544 20.2939 17.9382 20.2801 17.9382H18.5901Z" fill="black"/>
<path d="M19.2005 17.9032C19.2005 17.5732 19.4305 17.4832 19.4305 17.4832C19.4305 17.4832 19.6606 17.5832 19.6606 17.9032H19.2005ZM18.6205 17.0032H20.2506C20.2806 17.0032 20.3106 17.0432 20.3106 17.0832C20.3106 17.1132 20.2806 17.1432 20.2506 17.1432H18.6205C18.5905 17.1432 18.5605 17.1132 18.5605 17.0732C18.5605 17.0432 18.5905 17.0132 18.6205 17.0132V17.0032ZM19.2405 18.0532H20.2006C20.2306 18.0532 20.2606 18.0832 20.2606 18.1232C20.2606 18.1632 20.2306 18.1932 20.2006 18.1932H18.6505C18.6105 18.1932 18.5905 18.1632 18.5905 18.1232C18.5905 18.0832 18.6105 18.0532 18.6505 18.0532H19.2405ZM19.7405 16.9932H19.8606V17.0732H19.9506V16.9932H20.0806V17.0832H20.1706V16.9832H20.2906V17.1832C20.2906 17.2232 20.2706 17.2432 20.2406 17.2432H19.8006C19.7706 17.2432 19.7405 17.2232 19.7405 17.1932V16.9932ZM20.2006 17.2632L20.2306 17.9032H19.8006L19.8306 17.2532H20.2006" fill="#FFFF00"/>
<path fill-rule="evenodd" clip-rule="evenodd" d="M20.1452 16.9581H20.3152V17.0184C20.3272 17.0366 20.3352 17.0596 20.3352 17.0831C20.3352 17.103 20.3268 17.1213 20.3152 17.1354V17.1831C20.3152 17.207 20.3092 17.2286 20.2952 17.2446C20.2809 17.261 20.261 17.2681 20.2402 17.2681H20.2254L20.2564 17.9281H19.774L19.8044 17.2681H19.8002C19.7799 17.2681 19.7594 17.2615 19.7436 17.2491C19.7274 17.2366 19.7152 17.2172 19.7152 17.1931V17.1681H18.6202C18.5739 17.1681 18.5352 17.1244 18.5352 17.0731C18.5352 17.05 18.5465 17.029 18.5612 17.0142C18.5704 17.005 18.5821 16.9971 18.5952 16.9925V16.9781H19.7152V16.9681H19.8852V16.9781H19.9252V16.9681H20.1052V16.9781H20.1452V16.9581ZM20.1452 17.0281H20.1052V17.0581H20.1452V17.0281ZM20.0552 17.0281V17.1081H20.1952V17.0281H20.2502C20.2532 17.0281 20.2588 17.03 20.2652 17.036V17.1134C20.2599 17.1166 20.2546 17.1181 20.2502 17.1181H19.7652V17.0281H19.8352V17.0981H19.9752V17.0281H20.0552ZM19.9252 17.0281H19.8852V17.0481H19.9252V17.0281ZM19.7152 17.0281H18.6452V17.0381H18.6202C18.6133 17.0381 18.6043 17.0418 18.5966 17.0496C18.5888 17.0573 18.5852 17.0663 18.5852 17.0731C18.5852 17.1019 18.6064 17.1181 18.6202 17.1181H19.7152V17.0281ZM19.7652 17.1681V17.1931C19.7652 17.199 19.7679 17.2047 19.7743 17.2096C19.7809 17.2148 19.7904 17.2181 19.8002 17.2181H20.2402C20.2493 17.2181 20.2544 17.2153 20.2576 17.2117C20.2611 17.2076 20.2652 17.1992 20.2652 17.1831V17.1666C20.2603 17.1676 20.2553 17.1681 20.2502 17.1681H19.7652ZM19.854 17.2781L19.8263 17.8781H20.204L20.1758 17.2781H19.854ZM19.4401 17.4602L19.4302 17.4831L19.421 17.4599L19.4307 17.4561L19.4401 17.4602ZM19.4297 17.5109C19.4242 17.5137 19.4166 17.5178 19.4076 17.5235C19.3876 17.5361 19.3607 17.5562 19.3337 17.5861C19.2831 17.6423 19.2311 17.7341 19.2256 17.8781H19.6347C19.6291 17.7389 19.5773 17.6472 19.5264 17.5897C19.4994 17.5591 19.4723 17.538 19.4522 17.5246C19.443 17.5184 19.4353 17.5139 19.4297 17.5109ZM19.421 17.4599C19.4211 17.4598 19.421 17.4599 19.4302 17.4831C19.4401 17.4602 19.4401 17.4602 19.4401 17.4602L19.4403 17.4603L19.4405 17.4604L19.4412 17.4607C19.4418 17.461 19.4426 17.4613 19.4436 17.4618C19.4456 17.4628 19.4484 17.4641 19.4518 17.466C19.4588 17.4697 19.4684 17.4753 19.48 17.483C19.503 17.4983 19.5335 17.5222 19.5639 17.5566C19.6251 17.6257 19.6852 17.7365 19.6852 17.9031V17.9281H19.1752V17.9031C19.1752 17.7317 19.2351 17.6208 19.2966 17.5526C19.3271 17.5188 19.3577 17.4958 19.3809 17.4812C19.3925 17.4739 19.4022 17.4687 19.4092 17.4652C19.4127 17.4635 19.4155 17.4622 19.4175 17.4613C19.4185 17.4609 19.4193 17.4606 19.4199 17.4603L19.4207 17.46L19.4209 17.4599L19.421 17.4599ZM18.6247 18.0888C18.6192 18.0956 18.6152 18.1069 18.6152 18.1231C18.6152 18.1393 18.6192 18.1507 18.6247 18.1575C18.6295 18.1636 18.6371 18.1681 18.6502 18.1681H20.2002C20.2139 18.1681 20.2352 18.1519 20.2352 18.1231C20.2352 18.0944 20.2139 18.0781 20.2002 18.0781H18.6502C18.6371 18.0781 18.6295 18.0827 18.6247 18.0888ZM18.5856 18.0575C18.6008 18.0386 18.6232 18.0281 18.6502 18.0281H20.2002C20.2464 18.0281 20.2852 18.0719 20.2852 18.1231C20.2852 18.1744 20.2464 18.2181 20.2002 18.2181H18.6502C18.6232 18.2181 18.6008 18.2077 18.5856 18.1888C18.5711 18.1706 18.5652 18.1469 18.5652 18.1231C18.5652 18.0993 18.5711 18.0757 18.5856 18.0575Z" fill="black"/>
<path d="M19.1002 16.6632V17.0032H18.7002V16.6632H19.1002Z" fill="#FFFF00"/>
<path fill-rule="evenodd" clip-rule="evenodd" d="M18.6748 16.6382H19.1248V17.0282H18.6748V16.6382ZM18.7248 16.6882V16.9782H19.0748V16.6882H18.7248Z" fill="black"/>
<path d="M18.6299 16.4032H18.7499V16.5032H18.8399V16.4032H18.9599V16.5032H19.0499V16.4032H19.1699V16.6032C19.1699 16.6432 19.1499 16.6632 19.1199 16.6632H18.6899C18.674 16.6632 18.6587 16.6569 18.6475 16.6456C18.6362 16.6344 18.6299 16.6191 18.6299 16.6032V16.4032Z" fill="#FFFF00"/>
<path fill-rule="evenodd" clip-rule="evenodd" d="M18.6555 16.4282V16.6032C18.6555 16.6125 18.6592 16.6214 18.6657 16.6279C18.6723 16.6345 18.6812 16.6382 18.6905 16.6382H19.1205C19.1297 16.6382 19.1348 16.6353 19.1379 16.6317C19.1414 16.6277 19.1455 16.6193 19.1455 16.6032V16.4282H19.0755V16.5282H18.9355V16.4282H18.8655V16.5282H18.7255V16.4282H18.6555ZM18.6305 16.4032V16.3782H18.7755V16.4782H18.8155V16.3782H18.9855V16.4782H19.0255V16.3782H19.1955V16.6032C19.1955 16.6271 19.1895 16.6487 19.1755 16.6646C19.1612 16.681 19.1413 16.6882 19.1205 16.6882H18.6905C18.6679 16.6882 18.6463 16.6792 18.6304 16.6633C18.6144 16.6473 18.6055 16.6257 18.6055 16.6032V16.4032H18.6305Z" fill="black"/>
<path d="M19.3896 16.5632C19.3896 16.5032 19.4796 16.5032 19.4796 16.5632V16.7232H19.3896V16.5632Z" fill="black"/>
<path d="M18.8604 16.7832C18.8604 16.7232 18.9404 16.7232 18.9404 16.7832V16.9032H18.8604V16.7832Z" fill="black"/>
<path d="M23.2608 22.7431C23.259 22.9542 23.3376 23.158 23.4808 23.3131C23.5476 23.3878 23.6292 23.4477 23.7205 23.489C23.8117 23.5303 23.9106 23.5522 24.0108 23.5531C24.2208 23.5531 24.4108 23.4531 24.5408 23.3131C24.6839 23.158 24.7626 22.9542 24.7608 22.7431V21.6631H23.2608V22.7431Z" fill="#003399"/>
<path d="M23.6109 22.2231C23.6938 22.2231 23.7609 22.1559 23.7609 22.0731C23.7609 21.9903 23.6938 21.9231 23.6109 21.9231C23.5281 21.9231 23.4609 21.9903 23.4609 22.0731C23.4609 22.1559 23.5281 22.2231 23.6109 22.2231Z" fill="white"/>
<path d="M24.441 22.2231C24.5239 22.2231 24.591 22.1559 24.591 22.0731C24.591 21.9903 24.5239 21.9231 24.441 21.9231C24.3582 21.9231 24.291 21.9903 24.291 22.0731C24.291 22.1559 24.3582 22.2231 24.441 22.2231Z" fill="white"/>
<path d="M24.0211 22.6231C24.1039 22.6231 24.1711 22.556 24.1711 22.4731C24.1711 22.3903 24.1039 22.3231 24.0211 22.3231C23.9383 22.3231 23.8711 22.3903 23.8711 22.4731C23.8711 22.556 23.9383 22.6231 24.0211 22.6231Z" fill="white"/>
<path d="M23.6109 23.043C23.6938 23.043 23.7609 22.9759 23.7609 22.893C23.7609 22.8102 23.6938 22.743 23.6109 22.743C23.5281 22.743 23.4609 22.8102 23.4609 22.893C23.4609 22.9759 23.5281 23.043 23.6109 23.043Z" fill="white"/>
<path d="M24.441 23.043C24.5239 23.043 24.591 22.9759 24.591 22.893C24.591 22.8102 24.5239 22.743 24.441 22.743C24.3582 22.743 24.291 22.8102 24.291 22.893C24.291 22.9759 24.3582 23.043 24.441 23.043Z" fill="white"/>
</g>
<defs>
<clipPath id="clip0_60_72811">
<rect width="60" height="45" rx="4" fill="white"/>
</clipPath>
</defs>
</svg>
